<svg width="125" height="41" viewBox="0 0 125 41" fill="none" xmlns="http://www.w3.org/2000/svg">
<path d="M0.463127 20.3776C0.463127 9.37914 9.37913 0.463127 20.3776 0.463127H123.655V40.292H20.3776C9.37914 40.292 0.463127 31.376 0.463127 20.3776Z" fill="#FABB91" stroke="black" stroke-width="0.926254"/>
<path d="M26.1008 27.2622V25.2097L30.8966 20.7692C31.3044 20.3745 31.6465 20.0193 31.9228 19.7035C32.2035 19.3877 32.4162 19.0785 32.5609 18.7759C32.7056 18.4689 32.778 18.1378 32.778 17.7826C32.778 17.3879 32.6881 17.048 32.5083 16.7629C32.3285 16.4735 32.0829 16.252 31.7715 16.0985C31.4601 15.9406 31.1071 15.8617 30.7124 15.8617C30.3001 15.8617 29.9405 15.945 29.6335 16.1116C29.3265 16.2783 29.0897 16.5173 28.923 16.8287C28.7563 17.1401 28.673 17.5107 28.673 17.9405H25.9693C25.9693 17.0589 26.1688 16.2936 26.5679 15.6446C26.967 14.9955 27.5262 14.4933 28.2454 14.1381C28.9647 13.7828 29.7936 13.6052 30.7321 13.6052C31.6969 13.6052 32.5368 13.7763 33.2517 14.1184C33.9709 14.456 34.5301 14.9253 34.9292 15.5262C35.3283 16.127 35.5278 16.8155 35.5278 17.5918C35.5278 18.1005 35.4269 18.6027 35.2252 19.0983C35.0279 19.5939 34.6748 20.1443 34.1661 20.7495C33.6573 21.3503 32.9403 22.0718 32.0149 22.9138L30.0479 24.8413V24.9334H35.7054V27.2622H26.1008ZM43.6309 13.7894V27.2622H40.7824V16.4932H40.7035L37.6181 18.4273V15.9011L40.9534 13.7894H43.6309ZM48.5753 12.6459H61.5058V28.6886H59.1161V14.8875H50.8724V28.7072H48.5753V12.6459ZM50.1499 18.8703H60.1164V21.0748H50.1499V18.8703ZM50.1314 25.2615H60.1164V27.503H50.1314V25.2615ZM66.0027 21.8613C66.0027 20.2298 66.2198 18.7277 66.654 17.355C67.0926 15.9823 67.7614 14.7104 68.6605 13.5394H71.3379C70.9958 13.9736 70.6779 14.5043 70.384 15.1314C70.0902 15.7542 69.8336 16.4384 69.6143 17.1839C69.3951 17.9295 69.224 18.7014 69.1012 19.4996C68.9784 20.2934 68.917 21.0806 68.917 21.8613C68.917 22.9007 69.0223 23.951 69.2328 25.0124C69.4477 26.0693 69.7371 27.0517 70.1012 27.9595C70.4696 28.8674 70.8818 29.6107 71.3379 30.1896H68.6605C67.7614 29.0187 67.0926 27.7468 66.654 26.3741C66.2198 25.0014 66.0027 23.4971 66.0027 21.8613ZM73.9024 17.2772H88.3334V19.4632H73.9024V17.2772ZM72.6797 25.9655H89.5561V28.1514H72.6797V25.9655ZM79.8675 11.5715H82.2572V27.4475H79.8675V11.5715ZM96.2129 21.8613C96.2129 23.4971 95.9936 25.0014 95.555 26.3741C95.1209 27.7468 94.4542 29.0187 93.5552 30.1896H90.8777C91.2198 29.7555 91.5378 29.2248 91.8316 28.5976C92.1254 27.9705 92.382 27.2863 92.6013 26.5451C92.8206 25.7996 92.9916 25.0277 93.1144 24.2295C93.2372 23.4313 93.2986 22.6419 93.2986 21.8613C93.2986 20.8218 93.1912 19.7737 92.9763 18.7167C92.7658 17.6554 92.4763 16.673 92.1079 15.7696C91.7439 14.8617 91.3338 14.1184 90.8777 13.5394H93.5552C94.4542 14.7104 95.1209 15.9823 95.555 17.355C95.9936 18.7277 96.2129 20.2298 96.2129 21.8613Z" fill="black"/>
</svg>
