<svg width="281" height="522" viewBox="0 0 281 522" fill="none" xmlns="http://www.w3.org/2000/svg">
<path d="M10.9348 4.41611C11.624 4.41611 12.2871 4.53171 12.9239 4.76291C13.5652 4.9941 14.1366 5.36271 14.6383 5.86873C15.1443 6.37474 15.5434 7.04652 15.8357 7.88406C16.1323 8.71724 16.2828 9.74018 16.2872 10.9529C16.2872 12.0914 16.1585 13.1078 15.9011 14.002C15.6481 14.8919 15.2839 15.6488 14.8084 16.2726C14.3329 16.8964 13.7593 17.3718 13.0875 17.699C12.4157 18.0218 11.6654 18.1832 10.8366 18.1832C9.94237 18.1832 9.15281 18.0109 8.46795 17.6663C7.78308 17.3173 7.23126 16.844 6.81249 16.2464C6.39808 15.6444 6.14726 14.9683 6.06001 14.218H8.854C8.96306 14.7065 9.19207 15.0861 9.54105 15.3565C9.89002 15.6226 10.3219 15.7556 10.8366 15.7556C11.7091 15.7556 12.3721 15.3761 12.8258 14.6171C13.2795 13.8537 13.5085 12.809 13.5128 11.4829H13.4212C13.2206 11.8755 12.9501 12.2135 12.6099 12.4971C12.2696 12.7763 11.8792 12.9922 11.4386 13.1449C11.0024 13.2976 10.5378 13.3739 10.0449 13.3739C9.25532 13.3739 8.55083 13.1885 7.9314 12.8177C7.31197 12.4469 6.8234 11.9365 6.4657 11.2866C6.108 10.6366 5.92915 9.89504 5.92915 9.06185C5.92479 8.16324 6.13199 7.36278 6.55076 6.66047C6.96953 5.95815 7.55407 5.40851 8.30437 5.01155C9.05903 4.61023 9.93583 4.41175 10.9348 4.41611ZM10.9544 6.64083C10.5138 6.64083 10.1212 6.74553 9.77661 6.95491C9.43636 7.1643 9.1659 7.44566 8.96524 7.799C8.76894 8.15234 8.67297 8.54712 8.67733 8.98334C8.67733 9.42392 8.7733 9.82088 8.96524 10.1742C9.16154 10.5232 9.42763 10.8024 9.76352 11.0118C10.1038 11.2168 10.492 11.3193 10.9282 11.3193C11.2554 11.3193 11.5586 11.2582 11.8377 11.1361C12.1169 11.0139 12.359 10.846 12.5641 10.6322C12.7734 10.4141 12.937 10.1633 13.0548 9.87977C13.1726 9.59622 13.2315 9.29523 13.2315 8.97679C13.2271 8.55366 13.1268 8.16542 12.9305 7.81209C12.7342 7.45875 12.4637 7.1752 12.1191 6.96146C11.7745 6.74771 11.3863 6.64083 10.9544 6.64083ZM19.9056 16.4427C19.4738 16.4427 19.103 16.29 18.7933 15.9847C18.4879 15.6793 18.3352 15.3085 18.3352 14.8723C18.3352 14.4448 18.4879 14.0784 18.7933 13.773C19.103 13.4677 19.4738 13.315 19.9056 13.315C20.3244 13.315 20.6908 13.4677 21.0049 13.773C21.319 14.0784 21.476 14.4448 21.476 14.8723C21.476 15.1602 21.4019 15.4241 21.2536 15.664C21.1096 15.8996 20.9198 16.0894 20.6843 16.2333C20.4487 16.3729 20.1892 16.4427 19.9056 16.4427ZM19.9056 9.86668C19.4738 9.86668 19.103 9.714 18.7933 9.40865C18.4879 9.1033 18.3352 8.73251 18.3352 8.29629C18.3352 7.86879 18.4879 7.50455 18.7933 7.20356C19.103 6.8982 19.4738 6.74553 19.9056 6.74553C20.3244 6.74553 20.6908 6.8982 21.0049 7.20356C21.319 7.50455 21.476 7.86879 21.476 8.29629C21.476 8.58856 21.4019 8.85465 21.2536 9.09457C21.1096 9.33013 20.9198 9.5177 20.6843 9.6573C20.4487 9.79689 20.1892 9.86668 19.9056 9.86668ZM23.5355 15.6444V13.4131L29.13 4.59933H31.0538V7.68776H29.9152L26.3884 13.2692V13.3739H34.3385V15.6444H23.5355ZM29.9676 18V14.9639L30.0199 13.9759V4.59933H32.6765V18H29.9676ZM41.1206 18.1832C40.1959 18.1832 39.3714 18.0131 38.6473 17.6728C37.9275 17.3326 37.3561 16.8636 36.9329 16.266C36.5098 15.6684 36.2895 14.9835 36.2721 14.2114H39.0202C39.0508 14.7305 39.2689 15.1515 39.6746 15.4743C40.0803 15.7971 40.5623 15.9585 41.1206 15.9585C41.5656 15.9585 41.9582 15.8603 42.2984 15.664C42.643 15.4634 42.9113 15.1864 43.1033 14.833C43.2996 14.4753 43.3977 14.0653 43.3977 13.6029C43.3977 13.1318 43.2974 12.7174 43.0967 12.3597C42.9004 12.002 42.6278 11.7228 42.2788 11.5221C41.9298 11.3215 41.5307 11.219 41.0814 11.2146C40.6888 11.2146 40.3071 11.2953 39.9363 11.4567C39.5699 11.6181 39.2842 11.8384 39.0791 12.1176L36.56 11.6661L37.1947 4.59933H45.3869V6.91565H39.5306L39.1838 10.2724H39.2623C39.4979 9.94084 39.8534 9.66602 40.3289 9.44791C40.8044 9.2298 41.3366 9.12074 41.9255 9.12074C42.7325 9.12074 43.4522 9.3105 44.0848 9.69001C44.7173 10.0695 45.2167 10.5908 45.5832 11.2539C45.9496 11.9126 46.1306 12.6716 46.1263 13.5309C46.1306 14.4339 45.9212 15.2365 45.4981 15.9389C45.0793 16.6368 44.4926 17.1864 43.738 17.5878C42.9877 17.9847 42.1152 18.1832 41.1206 18.1832Z" fill="black"/>
<path d="M11.9163 84.5993V98H9.08302V87.2886H9.0045L5.93569 89.2124V86.6997L9.25314 84.5993H11.9163ZM20.3555 98.2944C19.23 98.2901 18.2616 98.0131 17.4503 97.4634C16.6433 96.9138 16.0216 96.1177 15.5854 95.0751C15.1536 94.0326 14.9398 92.7784 14.9442 91.3127C14.9442 89.8514 15.1601 88.606 15.592 87.5765C16.0282 86.547 16.6498 85.764 17.4568 85.2275C18.2682 84.6866 19.2344 84.4161 20.3555 84.4161C21.4766 84.4161 22.4406 84.6866 23.2476 85.2275C24.059 85.7684 24.6828 86.5536 25.119 87.5831C25.5552 88.6082 25.7712 89.8514 25.7668 91.3127C25.7668 92.7828 25.5487 94.0391 25.1125 95.0817C24.6806 96.1243 24.0612 96.9204 23.2542 97.47C22.4472 98.0196 21.4809 98.2944 20.3555 98.2944ZM20.3555 95.9454C21.1232 95.9454 21.7361 95.5593 22.1942 94.7872C22.6522 94.0151 22.879 92.857 22.8747 91.3127C22.8747 90.2964 22.77 89.4501 22.5606 88.7739C22.3556 88.0978 22.0633 87.5896 21.6838 87.2494C21.3086 86.9091 20.8659 86.739 20.3555 86.739C19.5921 86.739 18.9814 87.1207 18.5234 87.8841C18.0653 88.6474 17.8341 89.7903 17.8298 91.3127C17.8298 92.3422 17.9323 93.2016 18.1373 93.8908C18.3467 94.5757 18.6411 95.0904 19.0207 95.435C19.4002 95.7753 19.8451 95.9454 20.3555 95.9454ZM29.4425 96.4427C29.0106 96.4427 28.6398 96.29 28.3301 95.9847C28.0248 95.6793 27.8721 95.3085 27.8721 94.8723C27.8721 94.4448 28.0248 94.0784 28.3301 93.773C28.6398 93.4677 29.0106 93.315 29.4425 93.315C29.8613 93.315 30.2277 93.4677 30.5418 93.773C30.8558 94.0784 31.0129 94.4448 31.0129 94.8723C31.0129 95.1602 30.9387 95.4241 30.7904 95.664C30.6465 95.8996 30.4567 96.0894 30.2211 96.2333C29.9856 96.3729 29.726 96.4427 29.4425 96.4427ZM29.4425 89.8667C29.0106 89.8667 28.6398 89.714 28.3301 89.4086C28.0248 89.1033 27.8721 88.7325 27.8721 88.2963C27.8721 87.8688 28.0248 87.5046 28.3301 87.2036C28.6398 86.8982 29.0106 86.7455 29.4425 86.7455C29.8613 86.7455 30.2277 86.8982 30.5418 87.2036C30.8558 87.5046 31.0129 87.8688 31.0129 88.2963C31.0129 88.5886 30.9387 88.8547 30.7904 89.0946C30.6465 89.3301 30.4567 89.5177 30.2211 89.6573C29.9856 89.7969 29.726 89.8667 29.4425 89.8667ZM38.5295 98.2944C37.404 98.2901 36.4356 98.0131 35.6243 97.4634C34.8173 96.9138 34.1956 96.1177 33.7594 95.0751C33.3276 94.0326 33.1138 92.7784 33.1182 91.3127C33.1182 89.8514 33.3341 88.606 33.766 87.5765C34.2022 86.547 34.8238 85.764 35.6308 85.2275C36.4422 84.6866 37.4084 84.4161 38.5295 84.4161C39.6506 84.4161 40.6146 84.6866 41.4216 85.2275C42.233 85.7684 42.8568 86.5536 43.293 87.5831C43.7292 88.6082 43.9452 89.8514 43.9408 91.3127C43.9408 92.7828 43.7227 94.0391 43.2865 95.0817C42.8546 96.1243 42.2352 96.9204 41.4282 97.47C40.6212 98.0196 39.6549 98.2944 38.5295 98.2944ZM38.5295 95.9454C39.2972 95.9454 39.9101 95.5593 40.3682 94.7872C40.8262 94.0151 41.053 92.857 41.0487 91.3127C41.0487 90.2964 40.944 89.4501 40.7346 88.7739C40.5296 88.0978 40.2373 87.5896 39.8578 87.2494C39.4826 86.9091 39.0399 86.739 38.5295 86.739C37.7661 86.739 37.1554 87.1207 36.6974 87.8841C36.2393 88.6474 36.0081 89.7903 36.0038 91.3127C36.0038 92.3422 36.1063 93.2016 36.3113 93.8908C36.5207 94.5757 36.8151 95.0904 37.1947 95.435C37.5742 95.7753 38.0191 95.9454 38.5295 95.9454ZM51.2153 98.2944C50.0899 98.2901 49.1215 98.0131 48.3101 97.4634C47.5031 96.9138 46.8815 96.1177 46.4452 95.0751C46.0134 94.0326 45.7996 92.7784 45.804 91.3127C45.804 89.8514 46.0199 88.606 46.4518 87.5765C46.888 86.547 47.5096 85.764 48.3166 85.2275C49.128 84.6866 50.0942 84.4161 51.2153 84.4161C52.3364 84.4161 53.3004 84.6866 54.1074 85.2275C54.9188 85.7684 55.5426 86.5536 55.9788 87.5831C56.4151 88.6082 56.631 89.8514 56.6266 91.3127C56.6266 92.7828 56.4085 94.0391 55.9723 95.0817C55.5404 96.1243 54.921 96.9204 54.114 97.47C53.307 98.0196 52.3408 98.2944 51.2153 98.2944ZM51.2153 95.9454C51.9831 95.9454 52.5959 95.5593 53.054 94.7872C53.512 94.0151 53.7388 92.857 53.7345 91.3127C53.7345 90.2964 53.6298 89.4501 53.4204 88.7739C53.2154 88.0978 52.9231 87.5896 52.5436 87.2494C52.1685 86.9091 51.7257 86.739 51.2153 86.739C50.4519 86.739 49.8412 87.1207 49.3832 87.8841C48.9252 88.6474 48.694 89.7903 48.6896 91.3127C48.6896 92.3422 48.7921 93.2016 48.9971 93.8908C49.2065 94.5757 49.501 95.0904 49.8805 95.435C50.26 95.7753 50.7049 95.9454 51.2153 95.9454Z" fill="black"/>
<path d="M11.9163 164.599V178H9.08302V167.289H9.0045L5.93569 169.212V166.7L9.25314 164.599H11.9163ZM20.9313 164.599V178H18.098V167.289H18.0195L14.9507 169.212V166.7L18.2682 164.599H20.9313ZM25.7717 176.443C25.3398 176.443 24.9691 176.29 24.6593 175.985C24.354 175.679 24.2013 175.309 24.2013 174.872C24.2013 174.445 24.354 174.078 24.6593 173.773C24.9691 173.468 25.3398 173.315 25.7717 173.315C26.1905 173.315 26.5569 173.468 26.871 173.773C27.1851 174.078 27.3421 174.445 27.3421 174.872C27.3421 175.16 27.2679 175.424 27.1196 175.664C26.9757 175.9 26.7859 176.089 26.5504 176.233C26.3148 176.373 26.0552 176.443 25.7717 176.443ZM25.7717 169.867C25.3398 169.867 24.9691 169.714 24.6593 169.409C24.354 169.103 24.2013 168.733 24.2013 168.296C24.2013 167.869 24.354 167.505 24.6593 167.204C24.9691 166.898 25.3398 166.746 25.7717 166.746C26.1905 166.746 26.5569 166.898 26.871 167.204C27.1851 167.505 27.3421 167.869 27.3421 168.296C27.3421 168.589 27.2679 168.855 27.1196 169.095C26.9757 169.33 26.7859 169.518 26.5504 169.657C26.3148 169.797 26.0552 169.867 25.7717 169.867ZM34.8587 178.294C33.7333 178.29 32.7648 178.013 31.9535 177.463C31.1465 176.914 30.5249 176.118 30.0886 175.075C29.6568 174.033 29.443 172.778 29.4474 171.313C29.4474 169.851 29.6633 168.606 30.0952 167.577C30.5314 166.547 31.153 165.764 31.96 165.227C32.7714 164.687 33.7376 164.416 34.8587 164.416C35.9798 164.416 36.9438 164.687 37.7508 165.227C38.5622 165.768 39.186 166.554 39.6222 167.583C40.0584 168.608 40.2744 169.851 40.27 171.313C40.27 172.783 40.0519 174.039 39.6157 175.082C39.1838 176.124 38.5644 176.92 37.7574 177.47C36.9504 178.02 35.9842 178.294 34.8587 178.294ZM34.8587 175.945C35.6265 175.945 36.2393 175.559 36.6974 174.787C37.1554 174.015 37.3822 172.857 37.3779 171.313C37.3779 170.296 37.2732 169.45 37.0638 168.774C36.8588 168.098 36.5665 167.59 36.187 167.249C35.8118 166.909 35.3691 166.739 34.8587 166.739C34.0953 166.739 33.4846 167.121 33.0266 167.884C32.5685 168.647 32.3374 169.79 32.333 171.313C32.333 172.342 32.4355 173.202 32.6405 173.891C32.8499 174.576 33.1444 175.09 33.5239 175.435C33.9034 175.775 34.3483 175.945 34.8587 175.945ZM47.5445 178.294C46.4191 178.29 45.4507 178.013 44.6393 177.463C43.8323 176.914 43.2107 176.118 42.7745 175.075C42.3426 174.033 42.1289 172.778 42.1332 171.313C42.1332 169.851 42.3491 168.606 42.781 167.577C43.2172 166.547 43.8388 165.764 44.6458 165.227C45.4572 164.687 46.4234 164.416 47.5445 164.416C48.6656 164.416 49.6297 164.687 50.4367 165.227C51.248 165.768 51.8718 166.554 52.308 167.583C52.7443 168.608 52.9602 169.851 52.9558 171.313C52.9558 172.783 52.7377 174.039 52.3015 175.082C51.8696 176.124 51.2502 176.92 50.4432 177.47C49.6362 178.02 48.67 178.294 47.5445 178.294ZM47.5445 175.945C48.3123 175.945 48.9252 175.559 49.3832 174.787C49.8412 174.015 50.0681 172.857 50.0637 171.313C50.0637 170.296 49.959 169.45 49.7496 168.774C49.5446 168.098 49.2523 167.59 48.8728 167.249C48.4977 166.909 48.0549 166.739 47.5445 166.739C46.7811 166.739 46.1704 167.121 45.7124 167.884C45.2544 168.647 45.0232 169.79 45.0188 171.313C45.0188 172.342 45.1213 173.202 45.3263 173.891C45.5357 174.576 45.8302 175.09 46.2097 175.435C46.5892 175.775 47.0341 175.945 47.5445 175.945Z" fill="black"/>
<path d="M11.9163 242.599V256H9.08302V245.289H9.0045L5.93569 247.212V244.7L9.25314 242.599H11.9163ZM20.9313 242.599V256H18.098V245.289H18.0195L14.9507 247.212V244.7L18.2682 242.599H20.9313ZM25.7717 254.443C25.3398 254.443 24.9691 254.29 24.6593 253.985C24.354 253.679 24.2013 253.309 24.2013 252.872C24.2013 252.445 24.354 252.078 24.6593 251.773C24.9691 251.468 25.3398 251.315 25.7717 251.315C26.1905 251.315 26.5569 251.468 26.871 251.773C27.1851 252.078 27.3421 252.445 27.3421 252.872C27.3421 253.16 27.2679 253.424 27.1196 253.664C26.9757 253.9 26.7859 254.089 26.5504 254.233C26.3148 254.373 26.0552 254.443 25.7717 254.443ZM25.7717 247.867C25.3398 247.867 24.9691 247.714 24.6593 247.409C24.354 247.103 24.2013 246.733 24.2013 246.296C24.2013 245.869 24.354 245.505 24.6593 245.204C24.9691 244.898 25.3398 244.746 25.7717 244.746C26.1905 244.746 26.5569 244.898 26.871 245.204C27.1851 245.505 27.3421 245.869 27.3421 246.296C27.3421 246.589 27.2679 246.855 27.1196 247.095C26.9757 247.33 26.7859 247.518 26.5504 247.657C26.3148 247.797 26.0552 247.867 25.7717 247.867ZM34.5577 256.183C33.5806 256.183 32.7103 256.015 31.9469 255.679C31.1879 255.339 30.5881 254.872 30.1475 254.279C29.7113 253.681 29.4867 252.992 29.4736 252.211H32.3264C32.3439 252.539 32.4508 252.827 32.6471 253.075C32.8477 253.319 33.1138 253.509 33.4454 253.644C33.7769 253.78 34.1498 253.847 34.5643 253.847C34.9961 253.847 35.3778 253.771 35.7093 253.618C36.0409 253.466 36.3004 253.254 36.488 252.984C36.6756 252.713 36.7693 252.401 36.7693 252.048C36.7693 251.69 36.669 251.374 36.4684 251.099C36.2721 250.82 35.9885 250.602 35.6177 250.445C35.2513 250.288 34.8151 250.209 34.3091 250.209H33.0593V248.128H34.3091C34.7366 248.128 35.1139 248.054 35.4411 247.906C35.7726 247.758 36.03 247.553 36.2132 247.291C36.3964 247.025 36.488 246.715 36.488 246.362C36.488 246.026 36.4073 245.731 36.2459 245.478C36.0888 245.221 35.8664 245.02 35.5785 244.876C35.2949 244.732 34.9634 244.66 34.5839 244.66C34.2 244.66 33.8489 244.73 33.5304 244.87C33.212 245.005 32.9568 245.199 32.7648 245.452C32.5729 245.705 32.4704 246.002 32.4573 246.342H29.7418C29.7549 245.57 29.9752 244.889 30.4027 244.301C30.8302 243.712 31.406 243.251 32.1301 242.92C32.8586 242.584 33.6809 242.416 34.597 242.416C35.5218 242.416 36.3309 242.584 37.0245 242.92C37.7181 243.256 38.2569 243.71 38.6407 244.281C39.029 244.848 39.2209 245.485 39.2165 246.192C39.2209 246.942 38.9875 247.568 38.5164 248.07C38.0497 248.571 37.4411 248.89 36.6908 249.025V249.13C37.6767 249.256 38.427 249.598 38.9417 250.157C39.4608 250.711 39.7182 251.404 39.7138 252.238C39.7182 253.001 39.4979 253.679 39.053 254.273C38.6124 254.866 38.0038 255.333 37.2274 255.673C36.4509 256.013 35.561 256.183 34.5577 256.183ZM47.0047 256.294C45.8793 256.29 44.9108 256.013 44.0995 255.463C43.2925 254.914 42.6709 254.118 42.2346 253.075C41.8028 252.033 41.589 250.778 41.5934 249.313C41.5934 247.851 41.8093 246.606 42.2412 245.577C42.6774 244.547 43.299 243.764 44.106 243.227C44.9174 242.687 45.8836 242.416 47.0047 242.416C48.1258 242.416 49.0898 242.687 49.8968 243.227C50.7082 243.768 51.332 244.554 51.7682 245.583C52.2044 246.608 52.4204 247.851 52.416 249.313C52.416 250.783 52.1979 252.039 51.7617 253.082C51.3298 254.124 50.7104 254.92 49.9034 255.47C49.0964 256.02 48.1301 256.294 47.0047 256.294ZM47.0047 253.945C47.7724 253.945 48.3853 253.559 48.8434 252.787C49.3014 252.015 49.5282 250.857 49.5239 249.313C49.5239 248.296 49.4192 247.45 49.2098 246.774C49.0048 246.098 48.7125 245.59 48.333 245.249C47.9578 244.909 47.5151 244.739 47.0047 244.739C46.2413 244.739 45.6306 245.121 45.1726 245.884C44.7145 246.647 44.4833 247.79 44.479 249.313C44.479 250.342 44.5815 251.202 44.7865 251.891C44.9959 252.576 45.2904 253.09 45.6699 253.435C46.0494 253.775 46.4943 253.945 47.0047 253.945Z" fill="black"/>
<path d="M11.9163 324.599V338H9.08302V327.289H9.0045L5.93569 329.212V326.7L9.25314 324.599H11.9163ZM20.0545 338.183C19.0774 338.183 18.2071 338.015 17.4437 337.679C16.6847 337.339 16.0849 336.872 15.6443 336.279C15.2081 335.681 14.9834 334.992 14.9703 334.211H17.8232C17.8407 334.539 17.9476 334.827 18.1438 335.075C18.3445 335.319 18.6106 335.509 18.9421 335.644C19.2737 335.78 19.6466 335.847 20.061 335.847C20.4929 335.847 20.8746 335.771 21.2061 335.618C21.5376 335.466 21.7972 335.254 21.9848 334.984C22.1723 334.713 22.2661 334.401 22.2661 334.048C22.2661 333.69 22.1658 333.374 21.9651 333.099C21.7688 332.82 21.4853 332.602 21.1145 332.445C20.7481 332.288 20.3119 332.209 19.8058 332.209H18.5561V330.128H19.8058C20.2333 330.128 20.6107 330.054 20.9378 329.906C21.2694 329.758 21.5267 329.553 21.7099 329.291C21.8932 329.025 21.9848 328.715 21.9848 328.362C21.9848 328.026 21.9041 327.731 21.7427 327.478C21.5856 327.221 21.3632 327.02 21.0752 326.876C20.7917 326.732 20.4602 326.66 20.0807 326.66C19.6968 326.66 19.3456 326.73 19.0272 326.87C18.7088 327.005 18.4536 327.199 18.2616 327.452C18.0697 327.705 17.9672 328.002 17.9541 328.342H15.2386C15.2517 327.57 15.472 326.889 15.8995 326.301C16.327 325.712 16.9028 325.251 17.6269 324.92C18.3554 324.584 19.1777 324.416 20.0938 324.416C21.0185 324.416 21.8277 324.584 22.5213 324.92C23.2149 325.256 23.7536 325.71 24.1375 326.281C24.5257 326.848 24.7177 327.485 24.7133 328.192C24.7177 328.942 24.4843 329.568 24.0132 330.07C23.5464 330.571 22.9379 330.89 22.1876 331.025V331.13C23.1735 331.256 23.9238 331.598 24.4385 332.157C24.9576 332.711 25.215 333.404 25.2106 334.238C25.215 335.001 24.9947 335.679 24.5497 336.273C24.1092 336.866 23.5006 337.333 22.7242 337.673C21.9477 338.013 21.0578 338.183 20.0545 338.183ZM28.9027 336.443C28.4708 336.443 28.1 336.29 27.7903 335.985C27.485 335.679 27.3323 335.309 27.3323 334.872C27.3323 334.445 27.485 334.078 27.7903 333.773C28.1 333.468 28.4708 333.315 28.9027 333.315C29.3214 333.315 29.6879 333.468 30.0019 333.773C30.316 334.078 30.4731 334.445 30.4731 334.872C30.4731 335.16 30.3989 335.424 30.2506 335.664C30.1066 335.9 29.9169 336.089 29.6813 336.233C29.4458 336.373 29.1862 336.443 28.9027 336.443ZM28.9027 329.867C28.4708 329.867 28.1 329.714 27.7903 329.409C27.485 329.103 27.3323 328.733 27.3323 328.296C27.3323 327.869 27.485 327.505 27.7903 327.204C28.1 326.898 28.4708 326.746 28.9027 326.746C29.3214 326.746 29.6879 326.898 30.0019 327.204C30.316 327.505 30.4731 327.869 30.4731 328.296C30.4731 328.589 30.3989 328.855 30.2506 329.095C30.1066 329.33 29.9169 329.518 29.6813 329.657C29.4458 329.797 29.1862 329.867 28.9027 329.867ZM37.9897 338.294C36.8642 338.29 35.8958 338.013 35.0844 337.463C34.2774 336.914 33.6558 336.118 33.2196 335.075C32.7877 334.033 32.574 332.778 32.5784 331.313C32.5784 329.851 32.7943 328.606 33.2262 327.577C33.6624 326.547 34.284 325.764 35.091 325.227C35.9024 324.687 36.8686 324.416 37.9897 324.416C39.1108 324.416 40.0748 324.687 40.8818 325.227C41.6932 325.768 42.317 326.554 42.7532 327.583C43.1894 328.608 43.4053 329.851 43.401 331.313C43.401 332.783 43.1829 334.039 42.7466 335.082C42.3148 336.124 41.6954 336.92 40.8884 337.47C40.0813 338.02 39.1151 338.294 37.9897 338.294ZM37.9897 335.945C38.7574 335.945 39.3703 335.559 39.8283 334.787C40.2864 334.015 40.5132 332.857 40.5088 331.313C40.5088 330.296 40.4041 329.45 40.1948 328.774C39.9897 328.098 39.6975 327.59 39.318 327.249C38.9428 326.909 38.5 326.739 37.9897 326.739C37.2263 326.739 36.6156 327.121 36.1575 327.884C35.6995 328.647 35.4683 329.79 35.464 331.313C35.464 332.342 35.5665 333.202 35.7715 333.891C35.9809 334.576 36.2753 335.09 36.6548 335.435C37.0343 335.775 37.4793 335.945 37.9897 335.945ZM50.6755 338.294C49.55 338.29 48.5816 338.013 47.7703 337.463C46.9633 336.914 46.3416 336.118 45.9054 335.075C45.4736 334.033 45.2598 332.778 45.2642 331.313C45.2642 329.851 45.4801 328.606 45.912 327.577C46.3482 326.547 46.9698 325.764 47.7768 325.227C48.5882 324.687 49.5544 324.416 50.6755 324.416C51.7966 324.416 52.7606 324.687 53.5676 325.227C54.379 325.768 55.0028 326.554 55.439 327.583C55.8752 328.608 56.0912 329.851 56.0868 331.313C56.0868 332.783 55.8687 334.039 55.4325 335.082C55.0006 336.124 54.3812 336.92 53.5742 337.47C52.7672 338.02 51.8009 338.294 50.6755 338.294ZM50.6755 335.945C51.4432 335.945 52.0561 335.559 52.5142 334.787C52.9722 334.015 53.199 332.857 53.1947 331.313C53.1947 330.296 53.09 329.45 52.8806 328.774C52.6756 328.098 52.3833 327.59 52.0038 327.249C51.6286 326.909 51.1859 326.739 50.6755 326.739C49.9121 326.739 49.3014 327.121 48.8434 327.884C48.3853 328.647 48.1541 329.79 48.1498 331.313C48.1498 332.342 48.2523 333.202 48.4573 333.891C48.6667 334.576 48.9611 335.09 49.3407 335.435C49.7202 335.775 50.1651 335.945 50.6755 335.945Z" fill="black"/>
<path d="M11.9163 404.599V418H9.08302V407.289H9.0045L5.93569 409.212V406.7L9.25314 404.599H11.9163ZM19.9956 418.183C19.0708 418.183 18.2464 418.013 17.5222 417.673C16.8025 417.333 16.231 416.864 15.8079 416.266C15.3848 415.668 15.1645 414.984 15.147 414.211H17.8952C17.9257 414.731 18.1438 415.151 18.5495 415.474C18.9552 415.797 19.4372 415.958 19.9956 415.958C20.4405 415.958 20.8331 415.86 21.1734 415.664C21.518 415.463 21.7863 415.186 21.9782 414.833C22.1745 414.475 22.2727 414.065 22.2727 413.603C22.2727 413.132 22.1723 412.717 21.9717 412.36C21.7754 412.002 21.5027 411.723 21.1538 411.522C20.8048 411.321 20.4056 411.219 19.9563 411.215C19.5637 411.215 19.1821 411.295 18.8113 411.457C18.4448 411.618 18.1591 411.838 17.9541 412.118L15.4349 411.666L16.0696 404.599H24.2618V406.916H18.4056L18.0588 410.272H18.1373C18.3729 409.941 18.7284 409.666 19.2039 409.448C19.6793 409.23 20.2115 409.121 20.8004 409.121C21.6074 409.121 22.3272 409.311 22.9597 409.69C23.5922 410.07 24.0917 410.591 24.4581 411.254C24.8246 411.913 25.0056 412.672 25.0012 413.531C25.0056 414.434 24.7962 415.237 24.3731 415.939C23.9543 416.637 23.3676 417.186 22.6129 417.588C21.8626 417.985 20.9902 418.183 19.9956 418.183ZM28.6328 416.443C28.2009 416.443 27.8301 416.29 27.5204 415.985C27.215 415.679 27.0624 415.309 27.0624 414.872C27.0624 414.445 27.215 414.078 27.5204 413.773C27.8301 413.468 28.2009 413.315 28.6328 413.315C29.0515 413.315 29.418 413.468 29.732 413.773C30.0461 414.078 30.2031 414.445 30.2031 414.872C30.2031 415.16 30.129 415.424 29.9807 415.664C29.8367 415.9 29.647 416.089 29.4114 416.233C29.1758 416.373 28.9163 416.443 28.6328 416.443ZM28.6328 409.867C28.2009 409.867 27.8301 409.714 27.5204 409.409C27.215 409.103 27.0624 408.733 27.0624 408.296C27.0624 407.869 27.215 407.505 27.5204 407.204C27.8301 406.898 28.2009 406.746 28.6328 406.746C29.0515 406.746 29.418 406.898 29.732 407.204C30.0461 407.505 30.2031 407.869 30.2031 408.296C30.2031 408.589 30.129 408.855 29.9807 409.095C29.8367 409.33 29.647 409.518 29.4114 409.657C29.1758 409.797 28.9163 409.867 28.6328 409.867ZM37.4188 418.183C36.4416 418.183 35.5714 418.015 34.808 417.679C34.049 417.339 33.4492 416.872 33.0086 416.279C32.5724 415.681 32.3477 414.992 32.3346 414.211H35.1875C35.205 414.539 35.3118 414.827 35.5081 415.075C35.7088 415.319 35.9749 415.509 36.3064 415.644C36.6379 415.78 37.0109 415.847 37.4253 415.847C37.8572 415.847 38.2389 415.771 38.5704 415.618C38.9019 415.466 39.1615 415.254 39.349 414.984C39.5366 414.713 39.6304 414.401 39.6304 414.048C39.6304 413.69 39.5301 413.374 39.3294 413.099C39.1331 412.82 38.8496 412.602 38.4788 412.445C38.1124 412.288 37.6761 412.209 37.1701 412.209H35.9204V410.128H37.1701C37.5976 410.128 37.9749 410.054 38.3021 409.906C38.6336 409.758 38.891 409.553 39.0742 409.291C39.2574 409.025 39.349 408.715 39.349 408.362C39.349 408.026 39.2683 407.731 39.1069 407.478C38.9499 407.221 38.7274 407.02 38.4395 406.876C38.156 406.732 37.8245 406.66 37.4449 406.66C37.0611 406.66 36.7099 406.73 36.3915 406.87C36.073 407.005 35.8178 407.199 35.6259 407.452C35.434 407.705 35.3315 408.002 35.3184 408.342H32.6029C32.616 407.57 32.8363 406.889 33.2638 406.301C33.6913 405.712 34.2671 405.251 34.9912 404.92C35.7197 404.584 36.542 404.416 37.458 404.416C38.3828 404.416 39.192 404.584 39.8856 404.92C40.5792 405.256 41.1179 405.71 41.5018 406.281C41.89 406.848 42.082 407.485 42.0776 408.192C42.082 408.942 41.8486 409.568 41.3775 410.07C40.9107 410.571 40.3022 410.89 39.5519 411.025V411.13C40.5377 411.256 41.288 411.598 41.8028 412.157C42.3219 412.711 42.5792 413.404 42.5749 414.238C42.5792 415.001 42.359 415.679 41.914 416.273C41.4734 416.866 40.8649 417.333 40.0884 417.673C39.312 418.013 38.4221 418.183 37.4188 418.183ZM49.8658 418.294C48.7403 418.29 47.7719 418.013 46.9605 417.463C46.1535 416.914 45.5319 416.118 45.0957 415.075C44.6638 414.033 44.4501 412.778 44.4544 411.313C44.4544 409.851 44.6704 408.606 45.1022 407.577C45.5385 406.547 46.1601 405.764 46.9671 405.227C47.7784 404.687 48.7447 404.416 49.8658 404.416C50.9868 404.416 51.9509 404.687 52.7579 405.227C53.5693 405.768 54.1931 406.554 54.6293 407.583C55.0655 408.608 55.2814 409.851 55.2771 411.313C55.2771 412.783 55.059 414.039 54.6227 415.082C54.1909 416.124 53.5714 416.92 52.7644 417.47C51.9574 418.02 50.9912 418.294 49.8658 418.294ZM49.8658 415.945C50.6335 415.945 51.2464 415.559 51.7044 414.787C52.1625 414.015 52.3893 412.857 52.3849 411.313C52.3849 410.296 52.2802 409.45 52.0708 408.774C51.8658 408.098 51.5736 407.59 51.194 407.249C50.8189 406.909 50.3761 406.739 49.8658 406.739C49.1024 406.739 48.4917 407.121 48.0336 407.884C47.5756 408.647 47.3444 409.79 47.34 411.313C47.34 412.342 47.4426 413.202 47.6476 413.891C47.857 414.576 48.1514 415.09 48.5309 415.435C48.9104 415.775 49.3554 415.945 49.8658 415.945Z" fill="black"/>
<path d="M11.9163 485.599V499H9.08302V488.289H9.0045L5.93569 490.212V487.7L9.25314 485.599H11.9163ZM20.2442 499.183C19.555 499.179 18.8898 499.063 18.2485 498.836C17.6117 498.61 17.0402 498.241 16.5342 497.731C16.0282 497.22 15.6269 496.544 15.3302 495.702C15.038 494.86 14.8918 493.826 14.8918 492.601C14.8962 491.475 15.0249 490.47 15.2779 489.584C15.5353 488.694 15.9017 487.94 16.3772 487.32C16.857 486.701 17.4306 486.23 18.098 485.907C18.7655 485.58 19.5136 485.416 20.3424 485.416C21.2366 485.416 22.0262 485.591 22.7111 485.94C23.3959 486.284 23.9456 486.753 24.36 487.346C24.7788 487.94 25.0318 488.605 25.119 489.342H22.325C22.216 488.875 21.9869 488.509 21.638 488.243C21.289 487.977 20.8571 487.844 20.3424 487.844C19.47 487.844 18.8069 488.223 18.3532 488.982C17.9039 489.741 17.6749 490.773 17.6662 492.077H17.7578C17.9585 491.68 18.2289 491.342 18.5692 491.063C18.9138 490.779 19.3042 490.564 19.7404 490.415C20.181 490.263 20.6456 490.186 21.1341 490.186C21.9281 490.186 22.6347 490.374 23.2542 490.749C23.8736 491.12 24.3622 491.63 24.7199 492.28C25.0776 492.93 25.2564 493.674 25.2564 494.511C25.2564 495.419 25.0448 496.226 24.6217 496.932C24.2029 497.639 23.6162 498.193 22.8616 498.594C22.1113 498.991 21.2388 499.188 20.2442 499.183ZM20.2312 496.958C20.6674 496.958 21.0578 496.854 21.4024 496.644C21.747 496.435 22.0175 496.151 22.2138 495.794C22.4101 495.436 22.5082 495.035 22.5082 494.59C22.5082 494.145 22.4101 493.746 22.2138 493.392C22.0218 493.039 21.7557 492.758 21.4155 492.548C21.0752 492.339 20.687 492.234 20.2508 492.234C19.9236 492.234 19.6205 492.295 19.3413 492.417C19.0665 492.54 18.8244 492.71 18.615 492.928C18.4099 493.146 18.2485 493.399 18.1308 493.687C18.013 493.97 17.9541 494.274 17.9541 494.596C17.9541 495.028 18.0522 495.423 18.2485 495.781C18.4492 496.138 18.7197 496.424 19.0599 496.638C19.4045 496.852 19.7949 496.958 20.2312 496.958ZM28.9207 497.443C28.4888 497.443 28.118 497.29 27.8083 496.985C27.5029 496.679 27.3503 496.309 27.3503 495.872C27.3503 495.445 27.5029 495.078 27.8083 494.773C28.118 494.468 28.4888 494.315 28.9207 494.315C29.3394 494.315 29.7059 494.468 30.0199 494.773C30.334 495.078 30.4911 495.445 30.4911 495.872C30.4911 496.16 30.4169 496.424 30.2686 496.664C30.1246 496.9 29.9349 497.089 29.6993 497.233C29.4638 497.373 29.2042 497.443 28.9207 497.443ZM28.9207 490.867C28.4888 490.867 28.118 490.714 27.8083 490.409C27.5029 490.103 27.3503 489.733 27.3503 489.296C27.3503 488.869 27.5029 488.505 27.8083 488.204C28.118 487.898 28.4888 487.746 28.9207 487.746C29.3394 487.746 29.7059 487.898 30.0199 488.204C30.334 488.505 30.4911 488.869 30.4911 489.296C30.4911 489.589 30.4169 489.855 30.2686 490.095C30.1246 490.33 29.9349 490.518 29.6993 490.657C29.4638 490.797 29.2042 490.867 28.9207 490.867ZM37.7067 499.183C36.7295 499.183 35.8593 499.015 35.0959 498.679C34.3369 498.339 33.7371 497.872 33.2965 497.279C32.8603 496.681 32.6356 495.992 32.6225 495.211H35.4754C35.4929 495.539 35.5997 495.827 35.796 496.075C35.9967 496.319 36.2628 496.509 36.5943 496.644C36.9258 496.78 37.2988 496.847 37.7132 496.847C38.1451 496.847 38.5268 496.771 38.8583 496.618C39.1898 496.466 39.4494 496.254 39.6369 495.984C39.8245 495.713 39.9183 495.401 39.9183 495.048C39.9183 494.69 39.818 494.374 39.6173 494.099C39.421 493.82 39.1375 493.602 38.7667 493.445C38.4003 493.288 37.964 493.209 37.458 493.209H36.2083V491.128H37.458C37.8855 491.128 38.2629 491.054 38.59 490.906C38.9215 490.758 39.1789 490.553 39.3621 490.291C39.5453 490.025 39.6369 489.715 39.6369 489.362C39.6369 489.026 39.5562 488.731 39.3948 488.478C39.2378 488.221 39.0153 488.02 38.7274 487.876C38.4439 487.732 38.1124 487.66 37.7328 487.66C37.349 487.66 36.9978 487.73 36.6794 487.87C36.3609 488.005 36.1057 488.199 35.9138 488.452C35.7219 488.705 35.6194 489.002 35.6063 489.342H32.8908C32.9039 488.57 33.1242 487.889 33.5517 487.301C33.9792 486.712 34.555 486.251 35.2791 485.92C36.0076 485.584 36.8299 485.416 37.7459 485.416C38.6707 485.416 39.4799 485.584 40.1735 485.92C40.8671 486.256 41.4058 486.71 41.7897 487.281C42.1779 487.848 42.3699 488.485 42.3655 489.192C42.3699 489.942 42.1365 490.568 41.6654 491.07C41.1986 491.571 40.5901 491.89 39.8398 492.025V492.13C40.8256 492.256 41.5759 492.598 42.0907 493.157C42.6098 493.711 42.8672 494.404 42.8628 495.238C42.8672 496.001 42.6469 496.679 42.2019 497.273C41.7613 497.866 41.1528 498.333 40.3763 498.673C39.5999 499.013 38.71 499.183 37.7067 499.183ZM50.1537 499.294C49.0282 499.29 48.0598 499.013 47.2484 498.463C46.4414 497.914 45.8198 497.118 45.3836 496.075C44.9517 495.033 44.738 493.778 44.7424 492.313C44.7424 490.851 44.9583 489.606 45.3901 488.577C45.8264 487.547 46.448 486.764 47.255 486.227C48.0663 485.687 49.0326 485.416 50.1537 485.416C51.2747 485.416 52.2388 485.687 53.0458 486.227C53.8572 486.768 54.481 487.554 54.9172 488.583C55.3534 489.608 55.5693 490.851 55.565 492.313C55.565 493.783 55.3469 495.039 54.9106 496.082C54.4788 497.124 53.8593 497.92 53.0523 498.47C52.2453 499.02 51.2791 499.294 50.1537 499.294ZM50.1537 496.945C50.9214 496.945 51.5343 496.559 51.9923 495.787C52.4504 495.015 52.6772 493.857 52.6728 492.313C52.6728 491.296 52.5681 490.45 52.3588 489.774C52.1537 489.098 51.8615 488.59 51.482 488.249C51.1068 487.909 50.664 487.739 50.1537 487.739C49.3903 487.739 48.7796 488.121 48.3215 488.884C47.8635 489.647 47.6323 490.79 47.6279 492.313C47.6279 493.342 47.7305 494.202 47.9355 494.891C48.1449 495.576 48.4393 496.09 48.8188 496.435C49.1983 496.775 49.6433 496.945 50.1537 496.945Z" fill="black"/>
<path d="M102.735 10.5559H111.672V12.3064H102.735V10.5559ZM102.459 13.7068H111.967V15.5125H102.459V13.7068ZM107.987 11.1087H109.922V19.3267H107.987V11.1087ZM104.394 11.1824H106.273V14.7202C106.273 15.8994 105.776 18.3317 103.841 19.6583C103.546 19.2714 102.883 18.6818 102.422 18.3869C103.988 17.4288 104.394 15.6415 104.394 14.7018V11.1824ZM100.543 5.58093H105.186V7.01815H100.543V5.58093ZM109.092 5.58093H113.754V7.01815H109.092V5.58093ZM112.888 3.05657H115.062V17.0971C115.062 18.2027 114.86 18.8292 114.196 19.1977C113.515 19.5662 112.556 19.6215 111.138 19.6031C111.082 19.0134 110.788 17.9816 110.493 17.4104C111.304 17.4472 112.225 17.4472 112.501 17.4472C112.796 17.4472 112.888 17.3367 112.888 17.0603V3.05657ZM100.745 3.05657H106.586V9.6162H100.745V8.03157H104.504V4.6412H100.745V3.05657ZM114.012 3.05657V4.6412H109.885V8.06843H114.012V9.65306H107.784V3.05657H114.012ZM99.4372 3.05657H101.611V19.6583H99.4372V3.05657ZM118.121 16.9497C121.419 16.8576 126.542 16.6733 131.185 16.4706L131.111 18.4975C126.597 18.7555 121.733 18.9766 118.416 19.1056L118.121 16.9497ZM118.029 11.4588H133.359V13.5225H118.029V11.4588ZM121.309 7.92102H129.951V9.94787H121.309V7.92102ZM122.543 12.8039L125.068 13.5041C124.202 15.2361 123.207 17.1524 122.378 18.3869L120.443 17.742C121.198 16.3969 122.083 14.3517 122.543 12.8039ZM127.113 14.7018L129.066 13.6883C130.724 15.1071 132.438 17.0419 133.286 18.4422L131.24 19.6768C130.466 18.2764 128.698 16.1758 127.113 14.7018ZM125.62 4.51222C124.128 6.61278 121.254 8.9713 118.195 10.4269C117.937 9.89259 117.347 9.06343 116.887 8.58435C120.037 7.20241 122.986 4.5675 124.349 2.39324H126.689C128.642 5.10185 131.572 7.20241 134.502 8.25268C133.967 8.80546 133.47 9.59778 133.065 10.2611C130.301 8.9713 127.187 6.64963 125.62 4.51222ZM147.99 3.5725L149.464 2.35639C150.293 2.92759 151.38 3.79361 151.896 4.40167L150.348 5.72833C149.869 5.10185 148.837 4.18055 147.99 3.5725ZM135.792 5.4888H152.375V7.64463H135.792V5.4888ZM136.473 9.76361H144.452V11.901H136.473V9.76361ZM139.274 10.9797H141.485V17.2261H139.274V10.9797ZM135.773 16.9129C138.003 16.5812 141.614 15.9547 144.931 15.3282L145.097 17.2998C142.056 17.9631 138.795 18.6449 136.4 19.1424L135.773 16.9129ZM144.839 2.43009H147.216C147.05 10.0031 148.45 17.3551 150.201 17.3551C150.606 17.3551 150.809 16.3417 150.919 14.02C151.417 14.5359 152.228 15.0703 152.854 15.2914C152.522 18.8107 151.767 19.6768 150.016 19.6768C146.018 19.6768 144.857 10.9613 144.839 2.43009Z" fill="black"/>
<path d="M112.354 83.3145C112.814 83.9779 113.478 85.1571 113.828 85.8389L112.335 86.4654C111.967 85.7099 111.396 84.6228 110.898 83.9042L112.354 83.3145ZM114.546 82.4854C115.026 83.1671 115.707 84.3464 116.021 84.9913L114.565 85.6178C114.178 84.8439 113.588 83.7752 113.072 83.075L114.546 82.4854ZM101.538 92.2695C102.349 90.2243 103.049 87.6262 103.288 85.2677L105.96 85.8389C105.813 86.3548 105.591 87.2577 105.518 87.6815C105.26 88.9713 104.596 91.4956 103.952 93.2093C103.288 94.9966 102.201 97.0971 101.243 98.4791L98.6633 97.3919C99.8057 95.881 100.893 93.9094 101.538 92.2695ZM110.622 91.901C109.922 89.9663 108.742 87.2393 107.95 85.8389L110.401 85.0466C111.175 86.4654 112.428 89.303 113.128 91.0719C113.791 92.7486 114.768 95.6783 115.265 97.5025L112.538 98.3869C112.041 96.2127 111.359 93.891 110.622 91.901ZM120.535 83.8673C121.032 83.941 121.825 83.9779 122.451 83.9779C123.612 83.9779 128.458 83.9779 129.527 83.9779C130.116 83.9779 131.019 83.941 131.517 83.8673V86.2627C131.038 86.2258 130.172 86.189 129.49 86.189C128.476 86.189 123.538 86.189 122.451 86.189C121.843 86.189 121.069 86.2074 120.535 86.2627V83.8673ZM133.083 89.2293C132.954 89.4688 132.788 89.8005 132.733 89.9847C132.162 91.772 131.369 93.5778 130.006 95.0887C128.145 97.1708 125.786 98.4054 123.428 99.0871L121.585 97.005C124.368 96.4154 126.56 95.2177 127.979 93.762C128.956 92.767 129.545 91.6062 129.858 90.5928C128.937 90.5928 122.617 90.5928 120.977 90.5928C120.516 90.5928 119.595 90.6112 118.821 90.6665V88.2711C119.614 88.3448 120.388 88.4001 120.977 88.4001C122.23 88.4001 128.827 88.4001 130.08 88.4001C130.688 88.4001 131.185 88.3264 131.443 88.1974L133.083 89.2293ZM149.026 83.3145C149.486 83.9779 150.15 85.1571 150.5 85.8389L149.007 86.4654C148.639 85.7099 148.068 84.6228 147.57 83.9042L149.026 83.3145ZM151.218 82.4854C151.697 83.1671 152.379 84.3464 152.692 84.9913L151.237 85.6178C150.85 84.8439 150.26 83.7752 149.744 83.075L151.218 82.4854ZM138.21 92.2695C139.02 90.2243 139.721 87.6262 139.96 85.2677L142.632 85.8389C142.485 86.3548 142.263 87.2577 142.19 87.6815C141.932 88.9713 141.268 91.4956 140.623 93.2093C139.96 94.9966 138.873 97.0971 137.915 98.4791L135.335 97.3919C136.478 95.881 137.565 93.9094 138.21 92.2695ZM147.294 91.901C146.593 89.9663 145.414 87.2393 144.622 85.8389L147.073 85.0466C147.846 86.4654 149.099 89.303 149.8 91.0719C150.463 92.7486 151.44 95.6783 151.937 97.5025L149.21 98.3869C148.712 96.2127 148.031 93.891 147.294 91.901ZM157.207 83.8673C157.704 83.941 158.497 83.9779 159.123 83.9779C160.284 83.9779 165.13 83.9779 166.199 83.9779C166.788 83.9779 167.691 83.941 168.189 83.8673V86.2627C167.71 86.2258 166.844 86.189 166.162 86.189C165.148 86.189 160.21 86.189 159.123 86.189C158.515 86.189 157.741 86.2074 157.207 86.2627V83.8673ZM169.755 89.2293C169.626 89.4688 169.46 89.8005 169.405 89.9847C168.834 91.772 168.041 93.5778 166.678 95.0887C164.817 97.1708 162.458 98.4054 160.1 99.0871L158.257 97.005C161.039 96.4154 163.232 95.2177 164.651 93.762C165.627 92.767 166.217 91.6062 166.53 90.5928C165.609 90.5928 159.289 90.5928 157.649 90.5928C157.188 90.5928 156.267 90.6112 155.493 90.6665V88.2711C156.286 88.3448 157.059 88.4001 157.649 88.4001C158.902 88.4001 165.498 88.4001 166.751 88.4001C167.36 88.4001 167.857 88.3264 168.115 88.1974L169.755 89.2293ZM189.102 85.5441C188.918 85.7836 188.568 86.2258 188.402 86.4838C187.536 87.921 185.785 90.2611 183.961 91.5509L182.045 90.0216C183.537 89.1187 184.975 87.4972 185.454 86.5944C184.33 86.5944 176.996 86.5944 175.835 86.5944C175.08 86.5944 174.453 86.6312 173.587 86.7233V84.1437C174.306 84.2543 175.08 84.3464 175.835 84.3464C176.996 84.3464 184.809 84.3464 185.767 84.3464C186.283 84.3464 187.296 84.2727 187.646 84.1806L189.102 85.5441ZM181.603 88.0131C181.603 92.5828 181.492 96.3417 176.48 99.0503L174.325 97.2998C174.933 97.0971 175.596 96.7839 176.278 96.268C178.599 94.6465 179.042 92.7118 179.042 89.6899C179.042 89.1003 179.023 88.6212 178.931 88.0131H181.603ZM193.653 83.9963C194.924 84.8623 197.319 86.7786 198.406 87.9026L196.527 89.8189C195.569 88.787 193.247 86.7786 191.902 85.8573L193.653 83.9963ZM191.331 96.268C194.224 95.8626 196.601 94.9229 198.388 93.8726C201.539 91.9931 203.934 89.1924 205.114 86.7049L206.532 89.2845C205.15 91.7905 202.7 94.3332 199.733 96.1206C197.854 97.2445 195.477 98.258 192.897 98.7002L191.331 96.268ZM221.42 89.8742C221.42 94.4254 220.315 97.2077 215.856 99.1793L213.884 97.3182C217.459 96.0837 219.007 94.4806 219.007 89.9479V85.0466C219.007 84.3095 218.97 83.7015 218.896 83.3514H221.531C221.494 83.7199 221.42 84.3095 221.42 85.0466V89.8742ZM214.75 83.4988C214.713 83.8489 214.64 84.4385 214.64 85.1756V91.7536C214.64 92.5828 214.695 93.3382 214.732 93.6883H212.152C212.189 93.3382 212.244 92.5828 212.244 91.7536V85.1571C212.244 84.6412 212.207 84.07 212.134 83.4988H214.75ZM208.688 86.8155C209.02 86.8707 209.775 86.9997 210.678 86.9997H222.766C223.742 86.9997 224.295 86.9444 224.811 86.8707V89.3214C224.405 89.2661 223.742 89.2661 222.784 89.2661H210.678C209.757 89.2661 209.112 89.303 208.688 89.3214V86.8155ZM227.741 89.4688C228.422 89.5241 229.749 89.5978 230.707 89.5978C232.881 89.5978 238.962 89.5978 240.602 89.5978C241.468 89.5978 242.279 89.5056 242.776 89.4688V92.3801C242.334 92.3617 241.394 92.2695 240.62 92.2695C238.944 92.2695 232.881 92.2695 230.707 92.2695C229.675 92.2695 228.441 92.3248 227.741 92.3801V89.4688Z" fill="black"/>
<path d="M112.409 162.32L114.012 164.144C110.216 165.12 104.91 165.581 100.395 165.728C100.34 165.176 100.064 164.273 99.861 163.794C104.302 163.609 109.387 163.13 112.409 162.32ZM100.027 167.552H114.602V169.671H100.027V167.552ZM98.7555 171.846H115.689V174.002H98.7555V171.846ZM106.089 164.918H108.392V177.023C108.392 178.332 108.061 178.921 107.176 179.253C106.292 179.603 104.947 179.658 103.067 179.64C102.92 179.013 102.496 178.018 102.164 177.447C103.528 177.502 105.076 177.484 105.499 177.484C105.923 177.484 106.089 177.355 106.089 176.987V164.918ZM125.123 172.214H133.617V179.585H131.406V174.204H127.205V179.677H125.123V172.214ZM132.328 162.541L133.875 164.383C131.369 165.12 127.979 165.544 125.068 165.747C124.994 165.212 124.699 164.383 124.441 163.886C127.242 163.646 130.374 163.167 132.328 162.541ZM128.126 164.273H130.393V173.209H128.126V164.273ZM124.146 167.7H134.373V169.782H124.146V167.7ZM126.523 176.784H132.456V178.774H126.523V176.784ZM117.863 168.142H123.428V169.8H117.863V168.142ZM117.974 162.928H123.428V164.604H117.974V162.928ZM117.863 170.722H123.428V172.38H117.863V170.722ZM116.96 165.489H124.017V167.221H116.96V165.489ZM118.95 173.32H123.52V178.921H118.95V177.189H121.622V175.07H118.95V173.32ZM117.808 173.32H119.669V179.658H117.808V173.32ZM137.726 164.918C138.426 164.991 139.366 165.047 140.011 165.047H149.298C149.832 165.047 150.588 165.01 150.901 164.991C150.882 165.434 150.846 166.152 150.846 166.705V176.25C150.846 176.894 150.901 177.853 150.938 178.424H148.266C148.284 177.871 148.303 177.208 148.303 176.526V167.424H140.011C139.237 167.424 138.242 167.46 137.726 167.497V164.918ZM137.505 174.923C138.132 174.978 138.961 175.033 139.79 175.033H149.758V177.466H139.864C139.145 177.466 138.113 177.502 137.505 177.576V174.923ZM154.955 169.469C155.636 169.524 156.963 169.598 157.921 169.598C160.095 169.598 166.176 169.598 167.816 169.598C168.682 169.598 169.493 169.506 169.99 169.469V172.38C169.548 172.362 168.608 172.27 167.834 172.27C166.158 172.27 160.095 172.27 157.921 172.27C156.889 172.27 155.655 172.325 154.955 172.38V169.469ZM175.813 163.867C176.31 163.941 177.103 163.978 177.729 163.978C178.89 163.978 183.736 163.978 184.805 163.978C185.394 163.978 186.297 163.941 186.795 163.867V166.263C186.315 166.226 185.449 166.189 184.768 166.189C183.754 166.189 178.816 166.189 177.729 166.189C177.121 166.189 176.347 166.207 175.813 166.263V163.867ZM188.361 169.229C188.232 169.469 188.066 169.8 188.011 169.985C187.439 171.772 186.647 173.578 185.284 175.089C183.423 177.171 181.064 178.405 178.706 179.087L176.863 177.005C179.645 176.415 181.838 175.218 183.257 173.762C184.233 172.767 184.823 171.606 185.136 170.593C184.215 170.593 177.895 170.593 176.255 170.593C175.794 170.593 174.873 170.611 174.099 170.666V168.271C174.891 168.345 175.665 168.4 176.255 168.4C177.508 168.4 184.104 168.4 185.357 168.4C185.965 168.4 186.463 168.326 186.721 168.197L188.361 169.229ZM205.119 165.526C204.971 165.728 204.639 166.281 204.474 166.668C203.718 168.419 202.355 170.924 200.77 172.767C198.706 175.144 195.924 177.429 193.068 178.774L191.152 176.784C194.137 175.678 196.974 173.43 198.706 171.514C199.922 170.132 201.046 168.308 201.47 167C200.696 167 195.998 167 195.205 167C194.45 167 193.437 167.092 193.031 167.129V164.494C193.529 164.567 194.671 164.623 195.205 164.623C196.182 164.623 200.899 164.623 201.71 164.623C202.52 164.623 203.239 164.531 203.626 164.402L205.119 165.526ZM201.01 171.238C202.907 172.785 205.524 175.531 206.722 177.005L204.621 178.829C203.258 176.931 201.249 174.739 199.278 172.951L201.01 171.238Z" fill="black"/>
<path d="M108.613 240.651H110.806V257.658H108.613V240.651ZM103.915 244.834H115.652V246.99H103.915V244.834ZM111.267 245.516C112.225 248.611 114.104 251.909 116.186 253.697C115.67 254.084 114.915 254.876 114.546 255.466C112.372 253.328 110.585 249.661 109.516 245.995L111.267 245.516ZM108.263 245.589L110.143 246.142C108.963 249.864 106.992 253.42 104.67 255.558C104.283 255.023 103.546 254.231 103.03 253.826C105.241 252.038 107.25 248.722 108.263 245.589ZM102.883 240.449L105.094 241.167C103.804 244.392 101.685 247.782 99.4925 249.901C99.253 249.348 98.5896 248.114 98.2027 247.561C100.064 245.866 101.851 243.194 102.883 240.449ZM100.985 245.774L103.159 243.599L103.178 243.636V257.621H100.985V245.774ZM121.825 252.536H123.999V254.894C123.999 255.41 124.146 255.466 125.049 255.466C125.436 255.466 127.095 255.466 127.61 255.466C128.311 255.466 128.44 255.263 128.513 253.844C128.974 254.176 129.895 254.489 130.485 254.618C130.227 256.884 129.619 257.437 127.813 257.437C127.297 257.437 125.289 257.437 124.791 257.437C122.378 257.437 121.825 256.829 121.825 254.913V252.536ZM123.575 252.057L125.031 250.933C126.063 251.541 127.297 252.481 127.887 253.236L126.321 254.489C125.786 253.752 124.607 252.72 123.575 252.057ZM129.435 253.162L131.259 252.204C132.475 253.291 133.783 254.821 134.299 256L132.291 257.05C131.867 255.908 130.632 254.305 129.435 253.162ZM119.411 252.352L121.383 253.033C120.922 254.618 120.222 256.147 118.858 257.106L117.016 255.834C118.213 255.06 119.024 253.77 119.411 252.352ZM118.14 246.695H124.847V251.283H118.14V249.643H122.949V248.353H118.14V246.695ZM117.31 243.82H125.584V245.589H117.31V243.82ZM127.389 244.668H132.033V246.142H127.389V244.668ZM127.408 247.174H132.051V248.648H127.408V247.174ZM123.962 240.467L125.418 241.941C123.391 242.567 120.461 242.825 118.047 242.899C117.974 242.457 117.716 241.757 117.513 241.315C119.798 241.204 122.451 240.928 123.962 240.467ZM128.624 240.283L131.093 240.541C130.724 241.48 130.338 242.346 130.043 242.936L127.997 242.641C128.237 241.941 128.513 240.983 128.624 240.283ZM118.14 246.695H120.019V250.693H118.14V246.695ZM120.516 241.849H122.506V247.506H120.516V241.849ZM128.09 243.691V249.698H131.425V243.691H128.09ZM126.063 241.923H133.58V251.467H126.063V241.923Z" fill="black"/>
<path d="M100.764 312.278H103.049V318.671C103.049 322.265 102.791 326.023 100.303 328.824C99.8979 328.327 98.9766 327.59 98.4054 327.24C100.524 324.844 100.764 321.712 100.764 318.653V312.278ZM106.421 313.07H108.669V326.871H106.421V313.07ZM112.041 312.259H114.381V328.621H112.041V312.259ZM118.361 313.162H132.936V328.271H130.503V315.41H120.682V328.29H118.361V313.162ZM119.466 324.512H132.014V326.797H119.466V324.512ZM135.681 317.971H152.449V319.777H135.681V317.971ZM140.453 323.573H147.603V325.139H140.453V323.573ZM140.453 326.392H147.603V328.106H140.453V326.392ZM137.284 315.318H150.846V317.068H137.284V315.318ZM136.676 312.646H151.454V314.415H136.676V312.646ZM146.571 315.889C147.676 318.819 149.943 321.362 152.965 322.541C152.467 322.983 151.785 323.831 151.472 324.384C148.248 322.891 145.963 320.053 144.599 316.479L146.571 315.889ZM139.108 320.717H149.04V328.585H146.737V322.43H141.283V328.658H139.108V320.717ZM142.425 311.356L144.673 311.522C144.212 316.792 142.13 321.859 136.639 324.807C136.381 324.236 135.718 323.389 135.202 323.02C140.361 320.477 142.13 315.963 142.425 311.356ZM154.383 313.475H170.561V315.465H154.383V313.475ZM155.857 321.159H169.143V323.057H155.857V321.159ZM158.732 317.769H166.139V319.666H158.732V317.769ZM165.347 314.397C166.526 316.331 168.866 318.119 171.298 319.003C170.819 319.427 170.138 320.275 169.787 320.827C167.245 319.703 164.941 317.529 163.523 315.078L165.347 314.397ZM161.385 322.338H163.615V326.558C163.615 327.571 163.394 328.069 162.638 328.364C161.883 328.64 160.906 328.658 159.598 328.658C159.469 328.087 159.119 327.276 158.824 326.76C159.672 326.797 160.74 326.797 160.998 326.779C161.293 326.779 161.385 326.724 161.385 326.502V322.338ZM157.387 323.739L159.506 324.384C158.64 325.839 157.221 327.295 155.986 328.216C155.563 327.829 154.715 327.129 154.218 326.834C155.452 326.079 156.687 324.899 157.387 323.739ZM165.015 324.715L166.802 323.683C167.982 324.678 169.511 326.116 170.248 327.092L168.332 328.235C167.668 327.276 166.194 325.765 165.015 324.715ZM160.667 311.338L163.08 311.651C161.846 315.373 159.524 318.727 155.047 320.938C154.752 320.385 154.033 319.574 153.536 319.224C157.792 317.382 159.874 314.378 160.667 311.338ZM103.767 347.25C103.767 345.831 103.767 338.202 103.767 336.655C103.767 335.991 103.712 335.088 103.583 334.425H106.458C106.384 335.088 106.292 335.881 106.292 336.655C106.292 338.681 106.31 345.886 106.31 347.25C106.31 347.765 106.384 349.055 106.476 349.811H103.583C103.712 349.092 103.767 347.968 103.767 347.25ZM105.757 339.197C108.208 339.879 112.188 341.335 113.994 342.219L112.962 344.78C110.861 343.693 107.766 342.514 105.757 341.851V339.197ZM118.103 340.469C118.784 340.524 120.111 340.598 121.069 340.598C123.244 340.598 129.324 340.598 130.964 340.598C131.83 340.598 132.641 340.506 133.138 340.469V343.38C132.696 343.362 131.756 343.27 130.982 343.27C129.306 343.27 123.244 343.27 121.069 343.27C120.037 343.27 118.803 343.325 118.103 343.38V340.469ZM151.417 337.557C151.214 337.908 150.956 338.405 150.809 338.866C150.311 340.524 149.261 342.975 147.584 345.02C145.834 347.157 143.623 348.853 140.159 350.216L137.984 348.281C141.743 347.139 143.788 345.536 145.41 343.712C146.663 342.275 147.732 340.063 148.026 338.7H141.817L142.664 336.599C143.475 336.599 147.345 336.599 147.916 336.599C148.487 336.599 149.114 336.526 149.519 336.378L151.417 337.557ZM145.41 334.628C144.968 335.273 144.489 336.12 144.286 336.507C143.033 338.737 140.84 341.335 138.187 343.141L136.123 341.611C139.348 339.64 140.969 337.263 141.872 335.678C142.149 335.236 142.535 334.388 142.701 333.743L145.41 334.628ZM158.953 334.425C160.169 335.088 162.196 336.378 163.154 337.06L161.791 339.087C160.759 338.368 158.842 337.134 157.626 336.452L158.953 334.425ZM155.544 347.507C157.608 347.157 159.801 346.531 161.809 345.425C164.941 343.675 167.521 341.151 168.977 338.516L170.395 341.022C168.7 343.583 166.084 345.904 163.08 347.655C161.201 348.705 158.548 349.626 156.926 349.921L155.544 347.507ZM156.115 338.626C157.35 339.29 159.377 340.542 160.335 341.224L158.971 343.288C157.94 342.551 156.023 341.316 154.789 340.653L156.115 338.626ZM175.61 338.608C176.089 338.645 177.213 338.681 177.895 338.681C179.406 338.681 183.349 338.681 184.878 338.681C185.302 338.681 185.984 338.663 186.279 338.645C186.26 338.903 186.26 339.511 186.26 339.898C186.26 340.635 186.26 347.673 186.26 349.129C186.26 349.424 186.279 350.069 186.279 350.382H183.975C183.994 350.087 183.994 349.387 183.994 349.018C183.994 347.139 183.994 341.372 183.994 340.764C183.275 340.764 179.387 340.764 177.895 340.764C177.213 340.764 176.071 340.8 175.61 340.819V338.608ZM176.089 342.919C176.568 342.956 177.416 342.975 178.116 342.975C179.019 342.975 184.565 342.975 185.063 342.975V345.075C184.547 345.075 179.019 345.075 178.116 345.075C177.416 345.075 176.531 345.075 176.089 345.112V342.919ZM175.426 347.434C175.721 347.471 176.347 347.507 177.01 347.507C178.153 347.507 184.289 347.507 185.081 347.507V349.663C184.068 349.663 178.153 349.663 177.01 349.663C176.476 349.663 175.721 349.7 175.426 349.7V347.434ZM191.806 340.469C192.488 340.524 193.815 340.598 194.773 340.598C196.947 340.598 203.028 340.598 204.668 340.598C205.534 340.598 206.344 340.506 206.842 340.469V343.38C206.4 343.362 205.46 343.27 204.686 343.27C203.009 343.27 196.947 343.27 194.773 343.27C193.741 343.27 192.507 343.325 191.806 343.38V340.469Z" fill="black"/>
<path d="M115.578 405.544C115.394 405.784 115.044 406.226 114.878 406.484C114.012 407.921 112.262 410.261 110.438 411.551L108.521 410.022C110.014 409.119 111.451 407.497 111.93 406.594C110.806 406.594 103.473 406.594 102.312 406.594C101.556 406.594 100.93 406.631 100.064 406.723V404.144C100.782 404.254 101.556 404.346 102.312 404.346C103.473 404.346 111.285 404.346 112.243 404.346C112.759 404.346 113.773 404.273 114.123 404.181L115.578 405.544ZM108.079 408.013C108.079 412.583 107.968 416.342 102.957 419.05L100.801 417.3C101.409 417.097 102.072 416.784 102.754 416.268C105.076 414.646 105.518 412.712 105.518 409.69C105.518 409.1 105.499 408.621 105.407 408.013H108.079ZM126.229 403.222C126.173 403.665 126.118 404.439 126.1 404.881C125.897 412.196 124.165 415.936 120.093 418.829L117.937 417.097C118.711 416.673 119.632 416.065 120.369 415.31C122.783 412.914 123.63 409.782 123.649 404.918C123.649 404.512 123.575 403.665 123.501 403.222H126.229ZM132.475 407.184C132.42 407.479 132.364 407.939 132.364 408.142C132.291 410.151 132.051 415.291 131.259 417.171C130.872 418.092 130.153 418.59 128.9 418.59C127.832 418.59 126.744 418.498 125.842 418.424L125.547 415.973C126.468 416.121 127.408 416.231 128.145 416.231C128.734 416.231 128.992 416.028 129.177 415.568C129.711 414.407 129.969 410.722 129.969 408.732H120.977C120.351 408.732 119.319 408.75 118.545 408.824V406.392C119.319 406.484 120.259 406.521 120.959 406.521H129.49C129.969 406.521 130.448 406.484 130.89 406.392L132.475 407.184ZM148.155 406.723C148.155 407.368 148.69 407.903 149.335 407.903C149.98 407.903 150.495 407.368 150.495 406.723C150.495 406.078 149.98 405.562 149.335 405.562C148.69 405.562 148.155 406.078 148.155 406.723ZM146.939 406.723C146.939 405.397 148.008 404.328 149.335 404.328C150.661 404.328 151.73 405.397 151.73 406.723C151.73 408.05 150.661 409.119 149.335 409.119C148.008 409.119 146.939 408.05 146.939 406.723ZM135.497 412.767C136.031 412.306 136.436 411.919 137.008 411.348C137.837 410.519 139.274 408.713 140.545 407.202C141.651 405.894 142.738 405.691 144.157 407.037C145.41 408.216 146.81 409.671 147.916 410.869C149.15 412.196 151.048 414.223 152.467 415.734L150.422 417.926C149.187 416.397 147.639 414.481 146.552 413.209C145.465 411.938 143.844 410.151 143.18 409.469C142.572 408.879 142.185 408.916 141.669 409.579C140.932 410.519 139.643 412.325 138.887 413.338C138.463 413.909 138.04 414.573 137.708 415.052L135.497 412.767ZM157.387 403.867C157.884 403.941 158.677 403.978 159.303 403.978C160.464 403.978 165.31 403.978 166.379 403.978C166.968 403.978 167.871 403.941 168.369 403.867V406.263C167.89 406.226 167.024 406.189 166.342 406.189C165.328 406.189 160.39 406.189 159.303 406.189C158.695 406.189 157.921 406.207 157.387 406.263V403.867ZM169.935 409.229C169.806 409.469 169.64 409.8 169.585 409.985C169.014 411.772 168.221 413.578 166.858 415.089C164.997 417.171 162.638 418.405 160.28 419.087L158.437 417.005C161.219 416.415 163.412 415.218 164.831 413.762C165.807 412.767 166.397 411.606 166.71 410.593C165.789 410.593 159.469 410.593 157.829 410.593C157.368 410.593 156.447 410.611 155.673 410.666V408.271C156.465 408.345 157.239 408.4 157.829 408.4C159.082 408.4 165.678 408.4 166.931 408.4C167.539 408.4 168.037 408.326 168.295 408.197L169.935 409.229ZM185.486 409.874C185.486 414.425 184.381 417.208 179.922 419.179L177.95 417.318C181.525 416.084 183.073 414.481 183.073 409.948V405.047C183.073 404.31 183.036 403.701 182.962 403.351H185.597C185.56 403.72 185.486 404.31 185.486 405.047V409.874ZM178.816 403.499C178.779 403.849 178.706 404.439 178.706 405.176V411.754C178.706 412.583 178.761 413.338 178.798 413.688H176.218C176.255 413.338 176.31 412.583 176.31 411.754V405.157C176.31 404.641 176.273 404.07 176.2 403.499H178.816ZM172.754 406.815C173.086 406.871 173.841 407 174.744 407H186.831C187.808 407 188.361 406.944 188.877 406.871V409.321C188.471 409.266 187.808 409.266 186.85 409.266H174.744C173.823 409.266 173.178 409.303 172.754 409.321V406.815ZM191.806 409.469C192.488 409.524 193.815 409.598 194.773 409.598C196.947 409.598 203.028 409.598 204.668 409.598C205.534 409.598 206.344 409.506 206.842 409.469V412.38C206.4 412.362 205.46 412.27 204.686 412.27C203.009 412.27 196.947 412.27 194.773 412.27C193.741 412.27 192.507 412.325 191.806 412.38V409.469ZM225.12 406.557C224.918 406.908 224.66 407.405 224.512 407.866C224.015 409.524 222.965 411.975 221.288 414.02C219.537 416.157 217.326 417.853 213.862 419.216L211.688 417.281C215.447 416.139 217.492 414.536 219.114 412.712C220.367 411.275 221.435 409.063 221.73 407.7H215.521L216.368 405.599C217.179 405.599 221.048 405.599 221.62 405.599C222.191 405.599 222.817 405.526 223.223 405.378L225.12 406.557ZM219.114 403.628C218.671 404.273 218.192 405.12 217.99 405.507C216.737 407.737 214.544 410.335 211.891 412.141L209.827 410.611C213.051 408.64 214.673 406.263 215.576 404.678C215.852 404.236 216.239 403.388 216.405 402.743L219.114 403.628ZM235.673 417.595C235.766 417.245 235.821 416.747 235.821 416.25C235.821 415.273 235.821 407 235.821 405.507C235.821 404.678 235.692 403.959 235.692 403.923H238.419C238.419 403.959 238.29 404.696 238.29 405.526C238.29 407 238.29 414.02 238.29 415.144C239.801 414.499 241.607 413.043 242.86 411.256L244.26 413.301C242.731 415.291 240.096 417.281 238.014 418.332C237.627 418.534 237.406 418.737 237.221 418.866L235.673 417.595ZM227.142 417.337C228.782 416.194 229.777 414.499 230.275 412.914C230.809 411.348 230.827 407.847 230.827 405.636C230.827 404.881 230.754 404.402 230.643 403.941H233.352C233.352 404.015 233.223 404.844 233.223 405.599C233.223 407.792 233.168 411.68 232.688 413.541C232.117 415.605 230.975 417.429 229.39 418.829L227.142 417.337Z" fill="black"/>
<path d="M99.1424 491.851C102.441 491.003 105.131 489.805 107.195 488.534C109.074 487.373 111.175 485.531 112.372 484.075L114.362 485.954C112.685 487.65 110.438 489.382 108.263 490.69C106.181 491.924 103.196 493.306 100.285 494.172L99.1424 491.851ZM106.808 489.732L109.424 489.105V497.415C109.424 498.226 109.461 499.369 109.59 499.829H106.66C106.734 499.387 106.808 498.226 106.808 497.415V489.732ZM120.867 484.996C122.138 485.862 124.533 487.779 125.62 488.903L123.741 490.819C122.783 489.787 120.461 487.779 119.116 486.857L120.867 484.996ZM118.545 497.268C121.438 496.863 123.815 495.923 125.602 494.873C128.753 492.993 131.148 490.192 132.328 487.705L133.746 490.285C132.364 492.79 129.914 495.333 126.947 497.121C125.068 498.245 122.691 499.258 120.111 499.7L118.545 497.268ZM140.619 497.25C140.619 495.831 140.619 488.202 140.619 486.655C140.619 485.991 140.564 485.088 140.435 484.425H143.309C143.236 485.088 143.144 485.881 143.144 486.655C143.144 488.681 143.162 495.886 143.162 497.25C143.162 497.765 143.236 499.055 143.328 499.811H140.435C140.564 499.092 140.619 497.968 140.619 497.25ZM142.609 489.197C145.06 489.879 149.04 491.335 150.846 492.219L149.814 494.78C147.713 493.693 144.618 492.514 142.609 491.851V489.197ZM155.599 485.936C156.336 485.954 157.037 485.973 157.534 485.973C158.879 485.973 166.36 485.973 167.687 485.973C168.148 485.973 168.829 485.973 169.511 485.954C169.474 486.507 169.474 487.171 169.474 487.742C169.474 488.866 169.474 495.646 169.474 496.77C169.474 497.489 169.493 499.258 169.511 499.332H166.95C166.95 499.258 167.005 497.821 167.005 496.807C167.005 495.739 167.005 488.331 167.005 488.331H158.087C158.087 488.331 158.087 495.72 158.087 496.807C158.087 497.692 158.105 499.24 158.105 499.332H155.581C155.581 499.24 155.618 497.618 155.618 496.734C155.618 495.628 155.618 488.81 155.618 487.742C155.618 487.207 155.618 486.47 155.599 485.936ZM167.908 495.978V498.318H156.834V495.978H167.908ZM188.269 487.557C188.066 487.908 187.808 488.405 187.661 488.866C187.163 490.524 186.113 492.975 184.436 495.02C182.686 497.157 180.474 498.853 177.01 500.216L174.836 498.281C178.595 497.139 180.64 495.536 182.262 493.712C183.515 492.275 184.583 490.063 184.878 488.7H178.669L179.516 486.599C180.327 486.599 184.196 486.599 184.768 486.599C185.339 486.599 185.965 486.526 186.371 486.378L188.269 487.557ZM182.262 484.628C181.82 485.273 181.34 486.12 181.138 486.507C179.885 488.737 177.692 491.335 175.039 493.141L172.975 491.611C176.2 489.64 177.821 487.263 178.724 485.678C179 485.236 179.387 484.388 179.553 483.743L182.262 484.628ZM191.272 491.851C194.57 491.003 197.26 489.805 199.324 488.534C201.204 487.373 203.304 485.531 204.502 484.075L206.492 485.954C204.815 487.65 202.567 489.382 200.393 490.69C198.311 491.924 195.326 493.306 192.414 494.172L191.272 491.851ZM198.937 489.732L201.554 489.105V497.415C201.554 498.226 201.591 499.369 201.72 499.829H198.79C198.864 499.387 198.937 498.226 198.937 497.415V489.732ZM222.149 483.688C222.628 484.388 223.31 485.567 223.605 486.212L222.13 486.839C221.743 486.083 221.191 485.033 220.693 484.278L222.149 483.688ZM224.471 483.043C224.95 483.725 225.631 484.904 225.963 485.549L224.489 486.176C224.102 485.402 223.494 484.333 223.015 483.633L224.471 483.043ZM222.978 486.968C222.831 487.171 222.499 487.723 222.333 488.11C221.578 489.861 220.214 492.367 218.63 494.209C216.566 496.586 213.783 498.871 210.927 500.235L209.011 498.245C211.996 497.121 214.834 494.891 216.566 492.956C217.782 491.574 218.906 489.75 219.33 488.442C218.556 488.442 213.857 488.442 213.065 488.442C212.309 488.442 211.296 488.534 210.891 488.571V485.936C211.388 486.01 212.531 486.083 213.065 486.083C214.041 486.083 218.758 486.083 219.569 486.083C220.38 486.083 221.099 485.973 221.486 485.844L222.978 486.968ZM218.869 492.68C220.767 494.228 223.383 496.973 224.581 498.447L222.481 500.271C221.117 498.374 219.109 496.181 217.137 494.394L218.869 492.68Z" fill="black"/>
<line x1="6" y1="48.1321" x2="280.546" y2="48.1321" stroke="black" stroke-width="0.921296" stroke-dasharray="1.84 1.84"/>
<line x1="5" y1="128.539" x2="279.546" y2="128.539" stroke="black" stroke-width="0.921296" stroke-dasharray="1.84 1.84"/>
<line x1="3" y1="208.539" x2="277.546" y2="208.539" stroke="black" stroke-width="0.921296" stroke-dasharray="1.84 1.84"/>
<line x1="3" y1="288.539" x2="277.546" y2="288.539" stroke="black" stroke-width="0.921296" stroke-dasharray="1.84 1.84"/>
<line x1="3" y1="368.539" x2="277.546" y2="368.539" stroke="black" stroke-width="0.921296" stroke-dasharray="1.84 1.84"/>
<line y1="448.539" x2="274.546" y2="448.539" stroke="black" stroke-width="0.921296" stroke-dasharray="1.84 1.84"/>
<line x1="75.8111" y1="11.2337" x2="76.4947" y2="521.999" stroke="black" stroke-width="0.978693"/>
<path d="M83.3292 10.7726C83.3292 14.8421 79.9955 18.1633 75.8556 18.1633C71.7157 18.1633 68.3819 14.8421 68.3819 10.7726C68.3819 6.7031 71.7157 3.38194 75.8556 3.38194C79.9955 3.38194 83.3292 6.7031 83.3292 10.7726Z" fill="white" stroke="black" stroke-width="2.76389"/>
<path d="M83.3292 90.7726C83.3292 94.8421 79.9955 98.1633 75.8556 98.1633C71.7157 98.1633 68.3819 94.8421 68.3819 90.7726C68.3819 86.7031 71.7157 83.3819 75.8556 83.3819C79.9955 83.3819 83.3292 86.7031 83.3292 90.7726Z" fill="white" stroke="black" stroke-width="2.76389"/>
<path d="M83.3292 170.773C83.3292 174.842 79.9955 178.163 75.8556 178.163C71.7157 178.163 68.3819 174.842 68.3819 170.773C68.3819 166.703 71.7157 163.382 75.8556 163.382C79.9955 163.382 83.3292 166.703 83.3292 170.773Z" fill="white" stroke="black" stroke-width="2.76389"/>
<path d="M83.3292 248.773C83.3292 252.842 79.9955 256.163 75.8556 256.163C71.7157 256.163 68.3819 252.842 68.3819 248.773C68.3819 244.703 71.7157 241.382 75.8556 241.382C79.9955 241.382 83.3292 244.703 83.3292 248.773Z" fill="white" stroke="black" stroke-width="2.76389"/>
<path d="M83.3292 330.773C83.3292 334.842 79.9955 338.163 75.8556 338.163C71.7157 338.163 68.3819 334.842 68.3819 330.773C68.3819 326.703 71.7157 323.382 75.8556 323.382C79.9955 323.382 83.3292 326.703 83.3292 330.773Z" fill="white" stroke="black" stroke-width="2.76389"/>
<path d="M83.3292 410.772C83.3292 414.842 79.9955 418.163 75.8556 418.163C71.7157 418.163 68.3819 414.842 68.3819 410.772C68.3819 406.703 71.7157 403.382 75.8556 403.382C79.9955 403.382 83.3292 406.703 83.3292 410.772Z" fill="white" stroke="black" stroke-width="2.76389"/>
<path d="M83.3292 491.773C83.3292 495.842 79.9955 499.163 75.8556 499.163C71.7157 499.163 68.3819 495.842 68.3819 491.773C68.3819 487.703 71.7157 484.382 75.8556 484.382C79.9955 484.382 83.3292 487.703 83.3292 491.773Z" fill="white" stroke="black" stroke-width="2.76389"/>
</svg>
