<svg width="125" height="41" viewBox="0 0 125 41" fill="none" xmlns="http://www.w3.org/2000/svg">
<path d="M0.463127 0.463127H103.74C114.739 0.463127 123.655 9.37914 123.655 20.3776C123.655 31.376 114.739 40.292 103.74 40.292H0.463127V0.463127Z" stroke="black" stroke-width="0.926254"/>
<path d="M25.1746 27.2622V25.2097L29.9703 20.7692C30.3781 20.3745 30.7202 20.0193 30.9965 19.7035C31.2772 19.3877 31.4899 19.0785 31.6346 18.7759C31.7794 18.4689 31.8517 18.1378 31.8517 17.7826C31.8517 17.3879 31.7618 17.048 31.582 16.7629C31.4022 16.4735 31.1566 16.252 30.8452 16.0985C30.5338 15.9406 30.1808 15.8617 29.7861 15.8617C29.3738 15.8617 29.0142 15.945 28.7072 16.1116C28.4002 16.2783 28.1634 16.5173 27.9967 16.8287C27.8301 17.1401 27.7467 17.5107 27.7467 17.9405H25.043C25.043 17.0589 25.2425 16.2936 25.6416 15.6446C26.0407 14.9955 26.5999 14.4933 27.3191 14.1381C28.0384 13.7828 28.8673 13.6052 29.8058 13.6052C30.7707 13.6052 31.6105 13.7763 32.3254 14.1184C33.0446 14.456 33.6038 14.9253 34.0029 15.5262C34.402 16.127 34.6016 16.8155 34.6016 17.5918C34.6016 18.1005 34.5007 18.6027 34.2989 19.0983C34.1016 19.5939 33.7485 20.1443 33.2398 20.7495C32.7311 21.3503 32.014 22.0718 31.0886 22.9138L29.1217 24.8413V24.9334H34.7792V27.2622H25.1746ZM36.8432 27.2622V25.2097L41.6389 20.7692C42.0468 20.3745 42.3889 20.0193 42.6652 19.7035C42.9458 19.3877 43.1585 19.0785 43.3033 18.7759C43.448 18.4689 43.5204 18.1378 43.5204 17.7826C43.5204 17.3879 43.4305 17.048 43.2506 16.7629C43.0708 16.4735 42.8252 16.252 42.5138 16.0985C42.2025 15.9406 41.8494 15.8617 41.4547 15.8617C41.0425 15.8617 40.6828 15.945 40.3758 16.1116C40.0688 16.2783 39.832 16.5173 39.6654 16.8287C39.4987 17.1401 39.4154 17.5107 39.4154 17.9405H36.7116C36.7116 17.0589 36.9112 16.2936 37.3103 15.6446C37.7093 14.9955 38.2685 14.4933 38.9878 14.1381C39.707 13.7828 40.5359 13.6052 41.4744 13.6052C42.4393 13.6052 43.2791 13.7763 43.994 14.1184C44.7133 14.456 45.2724 14.9253 45.6715 15.5262C46.0706 16.127 46.2702 16.8155 46.2702 17.5918C46.2702 18.1005 46.1693 18.6027 45.9676 19.0983C45.7702 19.5939 45.4172 20.1443 44.9084 20.7495C44.3997 21.3503 43.6826 22.0718 42.7573 22.9138L40.7903 24.8413V24.9334H46.4478V27.2622H36.8432ZM50.2541 12.6459H63.1846V28.6886H60.7949V14.8875H52.5512V28.7072H50.2541V12.6459ZM51.8287 18.8703H61.7952V21.0748H51.8287V18.8703ZM51.8102 25.2615H61.7952V27.503H51.8102V25.2615ZM67.6816 21.8613C67.6816 20.2298 67.8987 18.7277 68.3328 17.355C68.7714 15.9823 69.4402 14.7104 70.3393 13.5394H73.0167C72.6747 13.9736 72.3567 14.5043 72.0628 15.1314C71.769 15.7542 71.5124 16.4384 71.2932 17.1839C71.0739 17.9295 70.9028 18.7014 70.78 19.4996C70.6572 20.2934 70.5958 21.0806 70.5958 21.8613C70.5958 22.9007 70.7011 23.951 70.9116 25.0124C71.1265 26.0693 71.416 27.0517 71.78 27.9595C72.1484 28.8674 72.5606 29.6107 73.0167 30.1896H70.3393C69.4402 29.0187 68.7714 27.7468 68.3328 26.3741C67.8987 25.0014 67.6816 23.4971 67.6816 21.8613ZM76.3593 12.6459H89.2898V28.6886H86.9V14.8875H78.6564V28.7072H76.3593V12.6459ZM77.9339 18.8703H87.9004V21.0748H77.9339V18.8703ZM77.9154 25.2615H87.9004V27.503H77.9154V25.2615ZM97.8917 21.8613C97.8917 23.4971 97.6724 25.0014 97.2339 26.3741C96.7997 27.7468 96.1331 29.0187 95.234 30.1896H92.5565C92.8986 29.7555 93.2166 29.2248 93.5104 28.5976C93.8043 27.9705 94.0608 27.2863 94.2801 26.5451C94.4994 25.7996 94.6704 25.0277 94.7932 24.2295C94.916 23.4313 94.9774 22.6419 94.9774 21.8613C94.9774 20.8218 94.87 19.7737 94.6551 18.7167C94.4446 17.6554 94.1551 16.673 93.7867 15.7696C93.4227 14.8617 93.0127 14.1184 92.5565 13.5394H95.234C96.1331 14.7104 96.7997 15.9823 97.2339 17.355C97.6724 18.7277 97.8917 20.2298 97.8917 21.8613Z" fill="black"/>
</svg>
