<svg width="281" height="613" viewBox="0 0 281 613" fill="none" xmlns="http://www.w3.org/2000/svg">
<line x1="3" y1="526.539" x2="277.546" y2="526.539" stroke="black" stroke-width="0.921296" stroke-dasharray="1.84 1.84"/>
<path d="M9.91627 4.59933V18H7.08302V7.28862H7.0045L3.93569 9.21235V6.69972L7.25314 4.59933H9.91627ZM18.3555 18.2944C17.23 18.2901 16.2616 18.0131 15.4503 17.4634C14.6433 16.9138 14.0216 16.1177 13.5854 15.0751C13.1536 14.0326 12.9398 12.7784 12.9442 11.3127C12.9442 9.85141 13.1601 8.60601 13.592 7.57653C14.0282 6.54705 14.6498 5.76403 15.4568 5.22748C16.2682 4.68657 17.2344 4.41611 18.3555 4.41611C19.4766 4.41611 20.4406 4.68657 21.2476 5.22748C22.059 5.7684 22.6828 6.55359 23.119 7.58307C23.5552 8.60819 23.7712 9.85141 23.7668 11.3127C23.7668 12.7828 23.5487 14.0391 23.1125 15.0817C22.6806 16.1243 22.0612 16.9204 21.2542 17.47C20.4472 18.0196 19.4809 18.2944 18.3555 18.2944ZM18.3555 15.9454C19.1232 15.9454 19.7361 15.5593 20.1942 14.7872C20.6522 14.0151 20.879 12.857 20.8747 11.3127C20.8747 10.2964 20.77 9.45009 20.5606 8.77395C20.3556 8.09781 20.0633 7.58961 19.6838 7.24936C19.3086 6.90911 18.8659 6.73898 18.3555 6.73898C17.5921 6.73898 16.9814 7.12068 16.5234 7.88406C16.0653 8.64745 15.8341 9.79034 15.8298 11.3127C15.8298 12.3422 15.9323 13.2016 16.1373 13.8908C16.3467 14.5757 16.6411 15.0904 17.0207 15.435C17.4002 15.7753 17.8451 15.9454 18.3555 15.9454ZM27.4425 16.4427C27.0106 16.4427 26.6398 16.29 26.3301 15.9847C26.0248 15.6793 25.8721 15.3085 25.8721 14.8723C25.8721 14.4448 26.0248 14.0784 26.3301 13.773C26.6398 13.4677 27.0106 13.315 27.4425 13.315C27.8613 13.315 28.2277 13.4677 28.5418 13.773C28.8558 14.0784 29.0129 14.4448 29.0129 14.8723C29.0129 15.1602 28.9387 15.4241 28.7904 15.664C28.6465 15.8996 28.4567 16.0894 28.2211 16.2333C27.9856 16.3729 27.726 16.4427 27.4425 16.4427ZM27.4425 9.86668C27.0106 9.86668 26.6398 9.714 26.3301 9.40865C26.0248 9.1033 25.8721 8.73251 25.8721 8.29629C25.8721 7.86879 26.0248 7.50455 26.3301 7.20356C26.6398 6.8982 27.0106 6.74553 27.4425 6.74553C27.8613 6.74553 28.2277 6.8982 28.5418 7.20356C28.8558 7.50455 29.0129 7.86879 29.0129 8.29629C29.0129 8.58856 28.9387 8.85465 28.7904 9.09457C28.6465 9.33013 28.4567 9.5177 28.2211 9.6573C27.9856 9.79689 27.726 9.86668 27.4425 9.86668ZM36.5295 18.2944C35.404 18.2901 34.4356 18.0131 33.6243 17.4634C32.8173 16.9138 32.1956 16.1177 31.7594 15.0751C31.3276 14.0326 31.1138 12.7784 31.1182 11.3127C31.1182 9.85141 31.3341 8.60601 31.766 7.57653C32.2022 6.54705 32.8238 5.76403 33.6308 5.22748C34.4422 4.68657 35.4084 4.41611 36.5295 4.41611C37.6506 4.41611 38.6146 4.68657 39.4216 5.22748C40.233 5.7684 40.8568 6.55359 41.293 7.58307C41.7292 8.60819 41.9452 9.85141 41.9408 11.3127C41.9408 12.7828 41.7227 14.0391 41.2865 15.0817C40.8546 16.1243 40.2352 16.9204 39.4282 17.47C38.6212 18.0196 37.6549 18.2944 36.5295 18.2944ZM36.5295 15.9454C37.2972 15.9454 37.9101 15.5593 38.3682 14.7872C38.8262 14.0151 39.053 12.857 39.0487 11.3127C39.0487 10.2964 38.944 9.45009 38.7346 8.77395C38.5296 8.09781 38.2373 7.58961 37.8578 7.24936C37.4826 6.90911 37.0399 6.73898 36.5295 6.73898C35.7661 6.73898 35.1554 7.12068 34.6974 7.88406C34.2393 8.64745 34.0081 9.79034 34.0038 11.3127C34.0038 12.3422 34.1063 13.2016 34.3113 13.8908C34.5207 14.5757 34.8151 15.0904 35.1947 15.435C35.5742 15.7753 36.0191 15.9454 36.5295 15.9454ZM49.2153 18.2944C48.0899 18.2901 47.1215 18.0131 46.3101 17.4634C45.5031 16.9138 44.8815 16.1177 44.4452 15.0751C44.0134 14.0326 43.7996 12.7784 43.804 11.3127C43.804 9.85141 44.0199 8.60601 44.4518 7.57653C44.888 6.54705 45.5096 5.76403 46.3166 5.22748C47.128 4.68657 48.0942 4.41611 49.2153 4.41611C50.3364 4.41611 51.3004 4.68657 52.1074 5.22748C52.9188 5.7684 53.5426 6.55359 53.9788 7.58307C54.4151 8.60819 54.631 9.85141 54.6266 11.3127C54.6266 12.7828 54.4085 14.0391 53.9723 15.0817C53.5404 16.1243 52.921 16.9204 52.114 17.47C51.307 18.0196 50.3408 18.2944 49.2153 18.2944ZM49.2153 15.9454C49.9831 15.9454 50.5959 15.5593 51.054 14.7872C51.512 14.0151 51.7388 12.857 51.7345 11.3127C51.7345 10.2964 51.6298 9.45009 51.4204 8.77395C51.2154 8.09781 50.9231 7.58961 50.5436 7.24936C50.1685 6.90911 49.7257 6.73898 49.2153 6.73898C48.4519 6.73898 47.8412 7.12068 47.3832 7.88406C46.9252 8.64745 46.694 9.79034 46.6896 11.3127C46.6896 12.3422 46.7921 13.2016 46.9971 13.8908C47.2065 14.5757 47.501 15.0904 47.8805 15.435C48.26 15.7753 48.7049 15.9454 49.2153 15.9454Z" fill="black"/>
<path d="M9.91627 84.5993V98H7.08302V87.2886H7.0045L3.93569 89.2124V86.6997L7.25314 84.5993H9.91627ZM18.9313 84.5993V98H16.098V87.2886H16.0195L12.9507 89.2124V86.6997L16.2682 84.5993H18.9313ZM23.7717 96.4427C23.3398 96.4427 22.9691 96.29 22.6593 95.9847C22.354 95.6793 22.2013 95.3085 22.2013 94.8723C22.2013 94.4448 22.354 94.0784 22.6593 93.773C22.9691 93.4677 23.3398 93.315 23.7717 93.315C24.1905 93.315 24.5569 93.4677 24.871 93.773C25.1851 94.0784 25.3421 94.4448 25.3421 94.8723C25.3421 95.1602 25.2679 95.4241 25.1196 95.664C24.9757 95.8996 24.7859 96.0894 24.5504 96.2333C24.3148 96.3729 24.0552 96.4427 23.7717 96.4427ZM23.7717 89.8667C23.3398 89.8667 22.9691 89.714 22.6593 89.4086C22.354 89.1033 22.2013 88.7325 22.2013 88.2963C22.2013 87.8688 22.354 87.5046 22.6593 87.2036C22.9691 86.8982 23.3398 86.7455 23.7717 86.7455C24.1905 86.7455 24.5569 86.8982 24.871 87.2036C25.1851 87.5046 25.3421 87.8688 25.3421 88.2963C25.3421 88.5886 25.2679 88.8547 25.1196 89.0946C24.9757 89.3301 24.7859 89.5177 24.5504 89.6573C24.3148 89.7969 24.0552 89.8667 23.7717 89.8667ZM32.8587 98.2944C31.7333 98.2901 30.7648 98.0131 29.9535 97.4634C29.1465 96.9138 28.5249 96.1177 28.0886 95.0751C27.6568 94.0326 27.443 92.7784 27.4474 91.3127C27.4474 89.8514 27.6633 88.606 28.0952 87.5765C28.5314 86.547 29.153 85.764 29.96 85.2275C30.7714 84.6866 31.7376 84.4161 32.8587 84.4161C33.9798 84.4161 34.9438 84.6866 35.7508 85.2275C36.5622 85.7684 37.186 86.5536 37.6222 87.5831C38.0584 88.6082 38.2744 89.8514 38.27 91.3127C38.27 92.7828 38.0519 94.0391 37.6157 95.0817C37.1838 96.1243 36.5644 96.9204 35.7574 97.47C34.9504 98.0196 33.9842 98.2944 32.8587 98.2944ZM32.8587 95.9454C33.6265 95.9454 34.2393 95.5593 34.6974 94.7872C35.1554 94.0151 35.3822 92.857 35.3779 91.3127C35.3779 90.2964 35.2732 89.4501 35.0638 88.7739C34.8588 88.0978 34.5665 87.5896 34.187 87.2494C33.8118 86.9091 33.3691 86.739 32.8587 86.739C32.0953 86.739 31.4846 87.1207 31.0266 87.8841C30.5685 88.6474 30.3374 89.7903 30.333 91.3127C30.333 92.3422 30.4355 93.2016 30.6405 93.8908C30.8499 94.5757 31.1444 95.0904 31.5239 95.435C31.9034 95.7753 32.3483 95.9454 32.8587 95.9454ZM45.5445 98.2944C44.4191 98.2901 43.4507 98.0131 42.6393 97.4634C41.8323 96.9138 41.2107 96.1177 40.7745 95.0751C40.3426 94.0326 40.1289 92.7784 40.1332 91.3127C40.1332 89.8514 40.3491 88.606 40.781 87.5765C41.2172 86.547 41.8388 85.764 42.6458 85.2275C43.4572 84.6866 44.4234 84.4161 45.5445 84.4161C46.6656 84.4161 47.6297 84.6866 48.4367 85.2275C49.248 85.7684 49.8718 86.5536 50.308 87.5831C50.7443 88.6082 50.9602 89.8514 50.9558 91.3127C50.9558 92.7828 50.7377 94.0391 50.3015 95.0817C49.8696 96.1243 49.2502 96.9204 48.4432 97.47C47.6362 98.0196 46.67 98.2944 45.5445 98.2944ZM45.5445 95.9454C46.3123 95.9454 46.9252 95.5593 47.3832 94.7872C47.8412 94.0151 48.0681 92.857 48.0637 91.3127C48.0637 90.2964 47.959 89.4501 47.7496 88.7739C47.5446 88.0978 47.2523 87.5896 46.8728 87.2494C46.4977 86.9091 46.0549 86.739 45.5445 86.739C44.7811 86.739 44.1704 87.1207 43.7124 87.8841C43.2544 88.6474 43.0232 89.7903 43.0188 91.3127C43.0188 92.3422 43.1213 93.2016 43.3263 93.8908C43.5357 94.5757 43.8302 95.0904 44.2097 95.435C44.5892 95.7753 45.0341 95.9454 45.5445 95.9454Z" fill="black"/>
<path d="M9.91627 162.599V176H7.08302V165.289H7.0045L3.93569 167.212V164.7L7.25314 162.599H9.91627ZM13.1012 176V173.958L17.8713 169.542C18.277 169.149 18.6172 168.796 18.892 168.482C19.1712 168.168 19.3828 167.86 19.5267 167.559C19.6707 167.254 19.7427 166.924 19.7427 166.571C19.7427 166.179 19.6532 165.84 19.4744 165.557C19.2955 165.269 19.0513 165.049 18.7415 164.896C18.4318 164.739 18.0807 164.66 17.6881 164.66C17.278 164.66 16.9203 164.743 16.615 164.909C16.3096 165.075 16.0741 165.313 15.9083 165.622C15.7425 165.932 15.6596 166.301 15.6596 166.728H12.9703C12.9703 165.851 13.1688 165.09 13.5658 164.445C13.9627 163.799 14.5189 163.299 15.2343 162.946C15.9497 162.593 16.7742 162.416 17.7077 162.416C18.6674 162.416 19.5027 162.586 20.2138 162.926C20.9292 163.262 21.4854 163.729 21.8823 164.327C22.2793 164.924 22.4778 165.609 22.4778 166.381C22.4778 166.887 22.3774 167.387 22.1768 167.88C21.9805 168.373 21.6293 168.92 21.1233 169.522C20.6173 170.12 19.9041 170.837 18.9836 171.675L17.0272 173.592V173.684H22.6544V176H13.1012ZM26.3628 174.443C25.931 174.443 25.5602 174.29 25.2505 173.985C24.9451 173.679 24.7925 173.309 24.7925 172.872C24.7925 172.445 24.9451 172.078 25.2505 171.773C25.5602 171.468 25.931 171.315 26.3628 171.315C26.7816 171.315 27.148 171.468 27.4621 171.773C27.7762 172.078 27.9332 172.445 27.9332 172.872C27.9332 173.16 27.8591 173.424 27.7108 173.664C27.5668 173.9 27.3771 174.089 27.1415 174.233C26.9059 174.373 26.6464 174.443 26.3628 174.443ZM26.3628 167.867C25.931 167.867 25.5602 167.714 25.2505 167.409C24.9451 167.103 24.7925 166.733 24.7925 166.296C24.7925 165.869 24.9451 165.505 25.2505 165.204C25.5602 164.898 25.931 164.746 26.3628 164.746C26.7816 164.746 27.148 164.898 27.4621 165.204C27.7762 165.505 27.9332 165.869 27.9332 166.296C27.9332 166.589 27.8591 166.855 27.7108 167.095C27.5668 167.33 27.3771 167.518 27.1415 167.657C26.9059 167.797 26.6464 167.867 26.3628 167.867ZM35.4498 176.294C34.3244 176.29 33.356 176.013 32.5446 175.463C31.7376 174.914 31.116 174.118 30.6798 173.075C30.2479 172.033 30.0342 170.778 30.0385 169.313C30.0385 167.851 30.2545 166.606 30.6863 165.577C31.1225 164.547 31.7442 163.764 32.5512 163.227C33.3625 162.687 34.3288 162.416 35.4498 162.416C36.5709 162.416 37.535 162.687 38.342 163.227C39.1534 163.768 39.7772 164.554 40.2134 165.583C40.6496 166.608 40.8655 167.851 40.8612 169.313C40.8612 170.783 40.643 172.039 40.2068 173.082C39.775 174.124 39.1555 174.92 38.3485 175.47C37.5415 176.02 36.5753 176.294 35.4498 176.294ZM35.4498 173.945C36.2176 173.945 36.8305 173.559 37.2885 172.787C37.7465 172.015 37.9734 170.857 37.969 169.313C37.969 168.296 37.8643 167.45 37.6549 166.774C37.4499 166.098 37.1577 165.59 36.7781 165.249C36.403 164.909 35.9602 164.739 35.4498 164.739C34.6865 164.739 34.0758 165.121 33.6177 165.884C33.1597 166.647 32.9285 167.79 32.9241 169.313C32.9241 170.342 33.0266 171.202 33.2317 171.891C33.4411 172.576 33.7355 173.09 34.115 173.435C34.4945 173.775 34.9395 173.945 35.4498 173.945ZM48.1357 176.294C47.0102 176.29 46.0418 176.013 45.2304 175.463C44.4234 174.914 43.8018 174.118 43.3656 173.075C42.9337 172.033 42.72 170.778 42.7244 169.313C42.7244 167.851 42.9403 166.606 43.3721 165.577C43.8084 164.547 44.43 163.764 45.237 163.227C46.0484 162.687 47.0146 162.416 48.1357 162.416C49.2568 162.416 50.2208 162.687 51.0278 163.227C51.8392 163.768 52.463 164.554 52.8992 165.583C53.3354 166.608 53.5513 167.851 53.547 169.313C53.547 170.783 53.3289 172.039 52.8926 173.082C52.4608 174.124 51.8414 174.92 51.0343 175.47C50.2273 176.02 49.2611 176.294 48.1357 176.294ZM48.1357 173.945C48.9034 173.945 49.5163 173.559 49.9743 172.787C50.4324 172.015 50.6592 170.857 50.6548 169.313C50.6548 168.296 50.5501 167.45 50.3408 166.774C50.1357 166.098 49.8435 165.59 49.464 165.249C49.0888 164.909 48.646 164.739 48.1357 164.739C47.3723 164.739 46.7616 165.121 46.3035 165.884C45.8455 166.647 45.6143 167.79 45.61 169.313C45.61 170.342 45.7125 171.202 45.9175 171.891C46.1269 172.576 46.4213 173.09 46.8008 173.435C47.1803 173.775 47.6253 173.945 48.1357 173.945Z" fill="black"/>
<path d="M9.91627 241.599V255H7.08302V244.289H7.0045L3.93569 246.212V243.7L7.25314 241.599H9.91627ZM13.1012 255V252.958L17.8713 248.542C18.277 248.149 18.6172 247.796 18.892 247.482C19.1712 247.168 19.3828 246.86 19.5267 246.559C19.6707 246.254 19.7427 245.924 19.7427 245.571C19.7427 245.179 19.6532 244.84 19.4744 244.557C19.2955 244.269 19.0513 244.049 18.7415 243.896C18.4318 243.739 18.0807 243.66 17.6881 243.66C17.278 243.66 16.9203 243.743 16.615 243.909C16.3096 244.075 16.0741 244.313 15.9083 244.622C15.7425 244.932 15.6596 245.301 15.6596 245.728H12.9703C12.9703 244.851 13.1688 244.09 13.5658 243.445C13.9627 242.799 14.5189 242.299 15.2343 241.946C15.9497 241.593 16.7742 241.416 17.7077 241.416C18.6674 241.416 19.5027 241.586 20.2138 241.926C20.9292 242.262 21.4854 242.729 21.8823 243.327C22.2793 243.924 22.4778 244.609 22.4778 245.381C22.4778 245.887 22.3774 246.387 22.1768 246.88C21.9805 247.373 21.6293 247.92 21.1233 248.522C20.6173 249.12 19.9041 249.837 18.9836 250.675L17.0272 252.592V252.684H22.6544V255H13.1012ZM26.3628 253.443C25.931 253.443 25.5602 253.29 25.2505 252.985C24.9451 252.679 24.7925 252.309 24.7925 251.872C24.7925 251.445 24.9451 251.078 25.2505 250.773C25.5602 250.468 25.931 250.315 26.3628 250.315C26.7816 250.315 27.148 250.468 27.4621 250.773C27.7762 251.078 27.9332 251.445 27.9332 251.872C27.9332 252.16 27.8591 252.424 27.7108 252.664C27.5668 252.9 27.3771 253.089 27.1415 253.233C26.9059 253.373 26.6464 253.443 26.3628 253.443ZM26.3628 246.867C25.931 246.867 25.5602 246.714 25.2505 246.409C24.9451 246.103 24.7925 245.733 24.7925 245.296C24.7925 244.869 24.9451 244.505 25.2505 244.204C25.5602 243.898 25.931 243.746 26.3628 243.746C26.7816 243.746 27.148 243.898 27.4621 244.204C27.7762 244.505 27.9332 244.869 27.9332 245.296C27.9332 245.589 27.8591 245.855 27.7108 246.095C27.5668 246.33 27.3771 246.518 27.1415 246.657C26.9059 246.797 26.6464 246.867 26.3628 246.867ZM35.1489 255.183C34.1717 255.183 33.3015 255.015 32.5381 254.679C31.7791 254.339 31.1793 253.872 30.7387 253.279C30.3025 252.681 30.0778 251.992 30.0647 251.211H32.9176C32.935 251.539 33.0419 251.827 33.2382 252.075C33.4389 252.319 33.705 252.509 34.0365 252.644C34.368 252.78 34.741 252.847 35.1554 252.847C35.5873 252.847 35.969 252.771 36.3005 252.618C36.632 252.466 36.8916 252.254 37.0791 251.984C37.2667 251.713 37.3605 251.401 37.3605 251.048C37.3605 250.69 37.2602 250.374 37.0595 250.099C36.8632 249.82 36.5797 249.602 36.2089 249.445C35.8424 249.288 35.4062 249.209 34.9002 249.209H33.6504V247.128H34.9002C35.3277 247.128 35.705 247.054 36.0322 246.906C36.3637 246.758 36.6211 246.553 36.8043 246.291C36.9875 246.025 37.0791 245.715 37.0791 245.362C37.0791 245.026 36.9984 244.731 36.837 244.478C36.68 244.221 36.4575 244.02 36.1696 243.876C35.8861 243.732 35.5545 243.66 35.175 243.66C34.7912 243.66 34.44 243.73 34.1216 243.87C33.8031 244.005 33.5479 244.199 33.356 244.452C33.1641 244.705 33.0615 245.002 33.0485 245.342H30.333C30.3461 244.57 30.5664 243.889 30.9939 243.301C31.4214 242.712 31.9972 242.251 32.7213 241.92C33.4498 241.584 34.2721 241.416 35.1881 241.416C36.1129 241.416 36.9221 241.584 37.6157 241.92C38.3093 242.256 38.848 242.71 39.2319 243.281C39.6201 243.848 39.812 244.485 39.8077 245.192C39.812 245.942 39.5787 246.568 39.1076 247.07C38.6408 247.571 38.0323 247.89 37.282 248.025V248.13C38.2678 248.256 39.0181 248.598 39.5329 249.157C40.052 249.711 40.3093 250.404 40.305 251.238C40.3093 252.001 40.089 252.679 39.6441 253.273C39.2035 253.866 38.595 254.333 37.8185 254.673C37.0421 255.013 36.1522 255.183 35.1489 255.183ZM47.5958 255.294C46.4704 255.29 45.502 255.013 44.6906 254.463C43.8836 253.914 43.262 253.118 42.8258 252.075C42.3939 251.033 42.1802 249.778 42.1845 248.313C42.1845 246.851 42.4005 245.606 42.8323 244.577C43.2685 243.547 43.8902 242.764 44.6972 242.227C45.5085 241.687 46.4748 241.416 47.5958 241.416C48.7169 241.416 49.681 241.687 50.488 242.227C51.2994 242.768 51.9231 243.554 52.3594 244.583C52.7956 245.608 53.0115 246.851 53.0072 248.313C53.0072 249.783 52.789 251.039 52.3528 252.082C51.921 253.124 51.3015 253.92 50.4945 254.47C49.6875 255.02 48.7213 255.294 47.5958 255.294ZM47.5958 252.945C48.3636 252.945 48.9765 252.559 49.4345 251.787C49.8925 251.015 50.1194 249.857 50.115 248.313C50.115 247.296 50.0103 246.45 49.8009 245.774C49.5959 245.098 49.3036 244.59 48.9241 244.249C48.549 243.909 48.1062 243.739 47.5958 243.739C46.8325 243.739 46.2218 244.121 45.7637 244.884C45.3057 245.647 45.0745 246.79 45.0701 248.313C45.0701 249.342 45.1726 250.202 45.3777 250.891C45.5871 251.576 45.8815 252.09 46.261 252.435C46.6405 252.775 47.0855 252.945 47.5958 252.945Z" fill="black"/>
<path d="M9.91627 325.599V339H7.08302V328.289H7.0045L3.93569 330.212V327.7L7.25314 325.599H9.91627ZM18.0545 339.183C17.0774 339.183 16.2071 339.015 15.4437 338.679C14.6847 338.339 14.0849 337.872 13.6443 337.279C13.2081 336.681 12.9834 335.992 12.9703 335.211H15.8232C15.8407 335.539 15.9476 335.827 16.1438 336.075C16.3445 336.319 16.6106 336.509 16.9421 336.644C17.2737 336.78 17.6466 336.847 18.061 336.847C18.4929 336.847 18.8746 336.771 19.2061 336.618C19.5376 336.466 19.7972 336.254 19.9848 335.984C20.1723 335.713 20.2661 335.401 20.2661 335.048C20.2661 334.69 20.1658 334.374 19.9651 334.099C19.7688 333.82 19.4853 333.602 19.1145 333.445C18.7481 333.288 18.3119 333.209 17.8058 333.209H16.5561V331.128H17.8058C18.2333 331.128 18.6107 331.054 18.9378 330.906C19.2694 330.758 19.5267 330.553 19.7099 330.291C19.8932 330.025 19.9848 329.715 19.9848 329.362C19.9848 329.026 19.9041 328.731 19.7427 328.478C19.5856 328.221 19.3632 328.02 19.0752 327.876C18.7917 327.732 18.4602 327.66 18.0807 327.66C17.6968 327.66 17.3456 327.73 17.0272 327.87C16.7088 328.005 16.4536 328.199 16.2616 328.452C16.0697 328.705 15.9672 329.002 15.9541 329.342H13.2386C13.2517 328.57 13.472 327.889 13.8995 327.301C14.327 326.712 14.9028 326.251 15.6269 325.92C16.3554 325.584 17.1777 325.416 18.0938 325.416C19.0185 325.416 19.8277 325.584 20.5213 325.92C21.2149 326.256 21.7536 326.71 22.1375 327.281C22.5257 327.848 22.7177 328.485 22.7133 329.192C22.7177 329.942 22.4843 330.568 22.0132 331.07C21.5464 331.571 20.9379 331.89 20.1876 332.025V332.13C21.1735 332.256 21.9238 332.598 22.4385 333.157C22.9576 333.711 23.215 334.404 23.2106 335.238C23.215 336.001 22.9947 336.679 22.5497 337.273C22.1092 337.866 21.5006 338.333 20.7242 338.673C19.9477 339.013 19.0578 339.183 18.0545 339.183ZM26.9027 337.443C26.4708 337.443 26.1 337.29 25.7903 336.985C25.485 336.679 25.3323 336.309 25.3323 335.872C25.3323 335.445 25.485 335.078 25.7903 334.773C26.1 334.468 26.4708 334.315 26.9027 334.315C27.3214 334.315 27.6879 334.468 28.0019 334.773C28.316 335.078 28.4731 335.445 28.4731 335.872C28.4731 336.16 28.3989 336.424 28.2506 336.664C28.1066 336.9 27.9169 337.089 27.6813 337.233C27.4458 337.373 27.1862 337.443 26.9027 337.443ZM26.9027 330.867C26.4708 330.867 26.1 330.714 25.7903 330.409C25.485 330.103 25.3323 329.733 25.3323 329.296C25.3323 328.869 25.485 328.505 25.7903 328.204C26.1 327.898 26.4708 327.746 26.9027 327.746C27.3214 327.746 27.6879 327.898 28.0019 328.204C28.316 328.505 28.4731 328.869 28.4731 329.296C28.4731 329.589 28.3989 329.855 28.2506 330.095C28.1066 330.33 27.9169 330.518 27.6813 330.657C27.4458 330.797 27.1862 330.867 26.9027 330.867ZM35.6887 339.183C34.7115 339.183 33.8413 339.015 33.0779 338.679C32.3189 338.339 31.7191 337.872 31.2785 337.279C30.8423 336.681 30.6176 335.992 30.6045 335.211H33.4574C33.4749 335.539 33.5817 335.827 33.778 336.075C33.9787 336.319 34.2448 336.509 34.5763 336.644C34.9078 336.78 35.2808 336.847 35.6952 336.847C36.1271 336.847 36.5088 336.771 36.8403 336.618C37.1718 336.466 37.4314 336.254 37.619 335.984C37.8065 335.713 37.9003 335.401 37.9003 335.048C37.9003 334.69 37.8 334.374 37.5993 334.099C37.403 333.82 37.1195 333.602 36.7487 333.445C36.3823 333.288 35.946 333.209 35.44 333.209H34.1903V331.128H35.44C35.8675 331.128 36.2449 331.054 36.572 330.906C36.9036 330.758 37.1609 330.553 37.3441 330.291C37.5273 330.025 37.619 329.715 37.619 329.362C37.619 329.026 37.5383 328.731 37.3769 328.478C37.2198 328.221 36.9973 328.02 36.7094 327.876C36.4259 327.732 36.0944 327.66 35.7149 327.66C35.331 327.66 34.9798 327.73 34.6614 327.87C34.3429 328.005 34.0878 328.199 33.8958 328.452C33.7039 328.705 33.6014 329.002 33.5883 329.342H30.8728C30.8859 328.57 31.1062 327.889 31.5337 327.301C31.9612 326.712 32.537 326.251 33.2611 325.92C33.9896 325.584 34.8119 325.416 35.7279 325.416C36.6527 325.416 37.4619 325.584 38.1555 325.92C38.8491 326.256 39.3878 326.71 39.7717 327.281C40.1599 327.848 40.3519 328.485 40.3475 329.192C40.3519 329.942 40.1185 330.568 39.6474 331.07C39.1806 331.571 38.5721 331.89 37.8218 332.025V332.13C38.8077 332.256 39.5579 332.598 40.0727 333.157C40.5918 333.711 40.8492 334.404 40.8448 335.238C40.8492 336.001 40.6289 336.679 40.1839 337.273C39.7433 337.866 39.1348 338.333 38.3583 338.673C37.5819 339.013 36.692 339.183 35.6887 339.183ZM48.1357 339.294C47.0102 339.29 46.0418 339.013 45.2304 338.463C44.4234 337.914 43.8018 337.118 43.3656 336.075C42.9337 335.033 42.72 333.778 42.7244 332.313C42.7244 330.851 42.9403 329.606 43.3721 328.577C43.8084 327.547 44.43 326.764 45.237 326.227C46.0484 325.687 47.0146 325.416 48.1357 325.416C49.2568 325.416 50.2208 325.687 51.0278 326.227C51.8392 326.768 52.463 327.554 52.8992 328.583C53.3354 329.608 53.5513 330.851 53.547 332.313C53.547 333.783 53.3289 335.039 52.8926 336.082C52.4608 337.124 51.8414 337.92 51.0343 338.47C50.2273 339.02 49.2611 339.294 48.1357 339.294ZM48.1357 336.945C48.9034 336.945 49.5163 336.559 49.9743 335.787C50.4324 335.015 50.6592 333.857 50.6548 332.313C50.6548 331.296 50.5501 330.45 50.3408 329.774C50.1357 329.098 49.8435 328.59 49.464 328.249C49.0888 327.909 48.646 327.739 48.1357 327.739C47.3723 327.739 46.7616 328.121 46.3035 328.884C45.8455 329.647 45.6143 330.79 45.61 332.313C45.61 333.342 45.7125 334.202 45.9175 334.891C46.1269 335.576 46.4213 336.09 46.8008 336.435C47.1803 336.775 47.6253 336.945 48.1357 336.945Z" fill="black"/>
<path d="M9.91627 402.599V416H7.08302V405.289H7.0045L3.93569 407.212V404.7L7.25314 402.599H9.91627ZM12.8984 413.644V411.413L18.4929 402.599H20.4166V405.688H19.2781L15.7513 411.269V411.374H23.7014V413.644H12.8984ZM19.3304 416V412.964L19.3828 411.976V402.599H22.0394V416H19.3304ZM27.2446 414.443C26.8127 414.443 26.4419 414.29 26.1322 413.985C25.8268 413.679 25.6742 413.309 25.6742 412.872C25.6742 412.445 25.8268 412.078 26.1322 411.773C26.4419 411.468 26.8127 411.315 27.2446 411.315C27.6633 411.315 28.0297 411.468 28.3438 411.773C28.6579 412.078 28.8149 412.445 28.8149 412.872C28.8149 413.16 28.7408 413.424 28.5925 413.664C28.4485 413.9 28.2588 414.089 28.0232 414.233C27.7876 414.373 27.5281 414.443 27.2446 414.443ZM27.2446 407.867C26.8127 407.867 26.4419 407.714 26.1322 407.409C25.8268 407.103 25.6742 406.733 25.6742 406.296C25.6742 405.869 25.8268 405.505 26.1322 405.204C26.4419 404.898 26.8127 404.746 27.2446 404.746C27.6633 404.746 28.0297 404.898 28.3438 405.204C28.6579 405.505 28.8149 405.869 28.8149 406.296C28.8149 406.589 28.7408 406.855 28.5925 407.095C28.4485 407.33 28.2588 407.518 28.0232 407.657C27.7876 407.797 27.5281 407.867 27.2446 407.867ZM36.3316 416.294C35.2061 416.29 34.2377 416.013 33.4263 415.463C32.6193 414.914 31.9977 414.118 31.5615 413.075C31.1296 412.033 30.9159 410.778 30.9203 409.313C30.9203 407.851 31.1362 406.606 31.568 405.577C32.0043 404.547 32.6259 403.764 33.4329 403.227C34.2442 402.687 35.2105 402.416 36.3316 402.416C37.4526 402.416 38.4167 402.687 39.2237 403.227C40.0351 403.768 40.6589 404.554 41.0951 405.583C41.5313 406.608 41.7472 407.851 41.7429 409.313C41.7429 410.783 41.5248 412.039 41.0885 413.082C40.6567 414.124 40.0372 414.92 39.2302 415.47C38.4232 416.02 37.457 416.294 36.3316 416.294ZM36.3316 413.945C37.0993 413.945 37.7122 413.559 38.1702 412.787C38.6283 412.015 38.8551 410.857 38.8507 409.313C38.8507 408.296 38.746 407.45 38.5366 406.774C38.3316 406.098 38.0394 405.59 37.6598 405.249C37.2847 404.909 36.8419 404.739 36.3316 404.739C35.5682 404.739 34.9575 405.121 34.4994 405.884C34.0414 406.647 33.8102 407.79 33.8058 409.313C33.8058 410.342 33.9084 411.202 34.1134 411.891C34.3228 412.576 34.6172 413.09 34.9967 413.435C35.3762 413.775 35.8212 413.945 36.3316 413.945ZM49.0174 416.294C47.8919 416.29 46.9235 416.013 46.1122 415.463C45.3051 414.914 44.6835 414.118 44.2473 413.075C43.8155 412.033 43.6017 410.778 43.6061 409.313C43.6061 407.851 43.822 406.606 44.2539 405.577C44.6901 404.547 45.3117 403.764 46.1187 403.227C46.9301 402.687 47.8963 402.416 49.0174 402.416C50.1385 402.416 51.1025 402.687 51.9095 403.227C52.7209 403.768 53.3447 404.554 53.7809 405.583C54.2171 406.608 54.433 407.851 54.4287 409.313C54.4287 410.783 54.2106 412.039 53.7744 413.082C53.3425 414.124 52.7231 414.92 51.9161 415.47C51.1091 416.02 50.1428 416.294 49.0174 416.294ZM49.0174 413.945C49.7851 413.945 50.398 413.559 50.856 412.787C51.3141 412.015 51.5409 410.857 51.5365 409.313C51.5365 408.296 51.4319 407.45 51.2225 406.774C51.0174 406.098 50.7252 405.59 50.3457 405.249C49.9705 404.909 49.5278 404.739 49.0174 404.739C48.254 404.739 47.6433 405.121 47.1853 405.884C46.7272 406.647 46.496 407.79 46.4917 409.313C46.4917 410.342 46.5942 411.202 46.7992 411.891C47.0086 412.576 47.303 413.09 47.6825 413.435C48.0621 413.775 48.507 413.945 49.0174 413.945Z" fill="black"/>
<path d="M9.91627 568.599V582H7.08302V571.289H7.0045L3.93569 573.212V570.7L7.25314 568.599H9.91627ZM18.2442 582.183C17.555 582.179 16.8898 582.063 16.2485 581.836C15.6117 581.61 15.0402 581.241 14.5342 580.731C14.0282 580.22 13.6269 579.544 13.3302 578.702C13.038 577.86 12.8918 576.826 12.8918 575.601C12.8962 574.475 13.0249 573.47 13.2779 572.584C13.5353 571.694 13.9017 570.94 14.3772 570.32C14.857 569.701 15.4306 569.23 16.098 568.907C16.7655 568.58 17.5136 568.416 18.3424 568.416C19.2366 568.416 20.0262 568.591 20.7111 568.94C21.3959 569.284 21.9456 569.753 22.36 570.346C22.7788 570.94 23.0318 571.605 23.119 572.342H20.325C20.216 571.875 19.9869 571.509 19.638 571.243C19.289 570.977 18.8571 570.844 18.3424 570.844C17.47 570.844 16.8069 571.223 16.3532 571.982C15.9039 572.741 15.6749 573.773 15.6662 575.077H15.7578C15.9585 574.68 16.2289 574.342 16.5692 574.063C16.9138 573.779 17.3042 573.564 17.7404 573.415C18.181 573.263 18.6456 573.186 19.1341 573.186C19.9281 573.186 20.6347 573.374 21.2542 573.749C21.8736 574.12 22.3622 574.63 22.7199 575.28C23.0776 575.93 23.2564 576.674 23.2564 577.511C23.2564 578.419 23.0448 579.226 22.6217 579.932C22.2029 580.639 21.6162 581.193 20.8616 581.594C20.1113 581.991 19.2388 582.188 18.2442 582.183ZM18.2312 579.958C18.6674 579.958 19.0578 579.854 19.4024 579.644C19.747 579.435 20.0175 579.151 20.2138 578.794C20.4101 578.436 20.5082 578.035 20.5082 577.59C20.5082 577.145 20.4101 576.746 20.2138 576.392C20.0218 576.039 19.7557 575.758 19.4155 575.548C19.0752 575.339 18.687 575.234 18.2508 575.234C17.9236 575.234 17.6205 575.295 17.3413 575.417C17.0665 575.54 16.8244 575.71 16.615 575.928C16.4099 576.146 16.2485 576.399 16.1308 576.687C16.013 576.97 15.9541 577.274 15.9541 577.596C15.9541 578.028 16.0522 578.423 16.2485 578.781C16.4492 579.138 16.7197 579.424 17.0599 579.638C17.4045 579.852 17.7949 579.958 18.2312 579.958ZM26.9207 580.443C26.4888 580.443 26.118 580.29 25.8083 579.985C25.5029 579.679 25.3503 579.309 25.3503 578.872C25.3503 578.445 25.5029 578.078 25.8083 577.773C26.118 577.468 26.4888 577.315 26.9207 577.315C27.3394 577.315 27.7059 577.468 28.0199 577.773C28.334 578.078 28.4911 578.445 28.4911 578.872C28.4911 579.16 28.4169 579.424 28.2686 579.664C28.1246 579.9 27.9349 580.089 27.6993 580.233C27.4638 580.373 27.2042 580.443 26.9207 580.443ZM26.9207 573.867C26.4888 573.867 26.118 573.714 25.8083 573.409C25.5029 573.103 25.3503 572.733 25.3503 572.296C25.3503 571.869 25.5029 571.505 25.8083 571.204C26.118 570.898 26.4888 570.746 26.9207 570.746C27.3394 570.746 27.7059 570.898 28.0199 571.204C28.334 571.505 28.4911 571.869 28.4911 572.296C28.4911 572.589 28.4169 572.855 28.2686 573.095C28.1246 573.33 27.9349 573.518 27.6993 573.657C27.4638 573.797 27.2042 573.867 26.9207 573.867ZM35.7067 582.183C34.7295 582.183 33.8593 582.015 33.0959 581.679C32.3369 581.339 31.7371 580.872 31.2965 580.279C30.8603 579.681 30.6356 578.992 30.6225 578.211H33.4754C33.4929 578.539 33.5997 578.827 33.796 579.075C33.9967 579.319 34.2628 579.509 34.5943 579.644C34.9258 579.78 35.2988 579.847 35.7132 579.847C36.1451 579.847 36.5268 579.771 36.8583 579.618C37.1898 579.466 37.4494 579.254 37.6369 578.984C37.8245 578.713 37.9183 578.401 37.9183 578.048C37.9183 577.69 37.818 577.374 37.6173 577.099C37.421 576.82 37.1375 576.602 36.7667 576.445C36.4003 576.288 35.964 576.209 35.458 576.209H34.2083V574.128H35.458C35.8855 574.128 36.2629 574.054 36.59 573.906C36.9215 573.758 37.1789 573.553 37.3621 573.291C37.5453 573.025 37.6369 572.715 37.6369 572.362C37.6369 572.026 37.5562 571.731 37.3948 571.478C37.2378 571.221 37.0153 571.02 36.7274 570.876C36.4439 570.732 36.1124 570.66 35.7328 570.66C35.349 570.66 34.9978 570.73 34.6794 570.87C34.3609 571.005 34.1057 571.199 33.9138 571.452C33.7219 571.705 33.6194 572.002 33.6063 572.342H30.8908C30.9039 571.57 31.1242 570.889 31.5517 570.301C31.9792 569.712 32.555 569.251 33.2791 568.92C34.0076 568.584 34.8299 568.416 35.7459 568.416C36.6707 568.416 37.4799 568.584 38.1735 568.92C38.8671 569.256 39.4058 569.71 39.7897 570.281C40.1779 570.848 40.3699 571.485 40.3655 572.192C40.3699 572.942 40.1365 573.568 39.6654 574.07C39.1986 574.571 38.5901 574.89 37.8398 575.025V575.13C38.8256 575.256 39.5759 575.598 40.0907 576.157C40.6098 576.711 40.8672 577.404 40.8628 578.238C40.8672 579.001 40.6469 579.679 40.2019 580.273C39.7613 580.866 39.1528 581.333 38.3763 581.673C37.5999 582.013 36.71 582.183 35.7067 582.183ZM48.1537 582.294C47.0282 582.29 46.0598 582.013 45.2484 581.463C44.4414 580.914 43.8198 580.118 43.3836 579.075C42.9517 578.033 42.738 576.778 42.7424 575.313C42.7424 573.851 42.9583 572.606 43.3901 571.577C43.8264 570.547 44.448 569.764 45.255 569.227C46.0663 568.687 47.0326 568.416 48.1537 568.416C49.2747 568.416 50.2388 568.687 51.0458 569.227C51.8572 569.768 52.481 570.554 52.9172 571.583C53.3534 572.608 53.5693 573.851 53.565 575.313C53.565 576.783 53.3469 578.039 52.9106 579.082C52.4788 580.124 51.8593 580.92 51.0523 581.47C50.2453 582.02 49.2791 582.294 48.1537 582.294ZM48.1537 579.945C48.9214 579.945 49.5343 579.559 49.9923 578.787C50.4504 578.015 50.6772 576.857 50.6728 575.313C50.6728 574.296 50.5681 573.45 50.3588 572.774C50.1537 572.098 49.8615 571.59 49.482 571.249C49.1068 570.909 48.664 570.739 48.1537 570.739C47.3903 570.739 46.7796 571.121 46.3215 571.884C45.8635 572.647 45.6323 573.79 45.6279 575.313C45.6279 576.342 45.7305 577.202 45.9355 577.891C46.1449 578.576 46.4393 579.09 46.8188 579.435C47.1983 579.775 47.6433 579.945 48.1537 579.945Z" fill="black"/>
<path d="M9.91627 484.599V498H7.08302V487.289H7.0045L3.93569 489.212V486.7L7.25314 484.599H9.91627ZM17.9956 498.183C17.0708 498.183 16.2464 498.013 15.5222 497.673C14.8025 497.333 14.231 496.864 13.8079 496.266C13.3848 495.668 13.1645 494.984 13.147 494.211H15.8952C15.9257 494.731 16.1438 495.151 16.5495 495.474C16.9552 495.797 17.4372 495.958 17.9956 495.958C18.4405 495.958 18.8331 495.86 19.1734 495.664C19.518 495.463 19.7863 495.186 19.9782 494.833C20.1745 494.475 20.2727 494.065 20.2727 493.603C20.2727 493.132 20.1723 492.717 19.9717 492.36C19.7754 492.002 19.5027 491.723 19.1538 491.522C18.8048 491.321 18.4056 491.219 17.9563 491.215C17.5637 491.215 17.1821 491.295 16.8113 491.457C16.4448 491.618 16.1591 491.838 15.9541 492.118L13.4349 491.666L14.0696 484.599H22.2618V486.916H16.4056L16.0588 490.272H16.1373C16.3729 489.941 16.7284 489.666 17.2039 489.448C17.6793 489.23 18.2115 489.121 18.8004 489.121C19.6074 489.121 20.3272 489.311 20.9597 489.69C21.5922 490.07 22.0917 490.591 22.4581 491.254C22.8246 491.913 23.0056 492.672 23.0012 493.531C23.0056 494.434 22.7962 495.237 22.3731 495.939C21.9543 496.637 21.3676 497.186 20.6129 497.588C19.8626 497.985 18.9902 498.183 17.9956 498.183ZM26.6328 496.443C26.2009 496.443 25.8301 496.29 25.5204 495.985C25.215 495.679 25.0624 495.309 25.0624 494.872C25.0624 494.445 25.215 494.078 25.5204 493.773C25.8301 493.468 26.2009 493.315 26.6328 493.315C27.0515 493.315 27.418 493.468 27.732 493.773C28.0461 494.078 28.2031 494.445 28.2031 494.872C28.2031 495.16 28.129 495.424 27.9807 495.664C27.8367 495.9 27.647 496.089 27.4114 496.233C27.1758 496.373 26.9163 496.443 26.6328 496.443ZM26.6328 489.867C26.2009 489.867 25.8301 489.714 25.5204 489.409C25.215 489.103 25.0624 488.733 25.0624 488.296C25.0624 487.869 25.215 487.505 25.5204 487.204C25.8301 486.898 26.2009 486.746 26.6328 486.746C27.0515 486.746 27.418 486.898 27.732 487.204C28.0461 487.505 28.2031 487.869 28.2031 488.296C28.2031 488.589 28.129 488.855 27.9807 489.095C27.8367 489.33 27.647 489.518 27.4114 489.657C27.1758 489.797 26.9163 489.867 26.6328 489.867ZM35.7198 498.294C34.5943 498.29 33.6259 498.013 32.8145 497.463C32.0075 496.914 31.3859 496.118 30.9497 495.075C30.5178 494.033 30.3041 492.778 30.3085 491.313C30.3085 489.851 30.5244 488.606 30.9562 487.577C31.3925 486.547 32.0141 485.764 32.8211 485.227C33.6324 484.687 34.5987 484.416 35.7198 484.416C36.8408 484.416 37.8049 484.687 38.6119 485.227C39.4233 485.768 40.0471 486.554 40.4833 487.583C40.9195 488.608 41.1354 489.851 41.1311 491.313C41.1311 492.783 40.913 494.039 40.4767 495.082C40.0449 496.124 39.4254 496.92 38.6184 497.47C37.8114 498.02 36.8452 498.294 35.7198 498.294ZM35.7198 495.945C36.4875 495.945 37.1004 495.559 37.5584 494.787C38.0165 494.015 38.2433 492.857 38.2389 491.313C38.2389 490.296 38.1342 489.45 37.9249 488.774C37.7198 488.098 37.4276 487.59 37.048 487.249C36.6729 486.909 36.2301 486.739 35.7198 486.739C34.9564 486.739 34.3457 487.121 33.8876 487.884C33.4296 488.647 33.1984 489.79 33.194 491.313C33.194 492.342 33.2966 493.202 33.5016 493.891C33.711 494.576 34.0054 495.09 34.3849 495.435C34.7644 495.775 35.2094 495.945 35.7198 495.945ZM48.4056 498.294C47.2801 498.29 46.3117 498.013 45.5004 497.463C44.6933 496.914 44.0717 496.118 43.6355 495.075C43.2037 494.033 42.9899 492.778 42.9943 491.313C42.9943 489.851 43.2102 488.606 43.6421 487.577C44.0783 486.547 44.6999 485.764 45.5069 485.227C46.3183 484.687 47.2845 484.416 48.4056 484.416C49.5267 484.416 50.4907 484.687 51.2977 485.227C52.1091 485.768 52.7329 486.554 53.1691 487.583C53.6053 488.608 53.8213 489.851 53.8169 491.313C53.8169 492.783 53.5988 494.039 53.1626 495.082C52.7307 496.124 52.1113 496.92 51.3043 497.47C50.4973 498.02 49.531 498.294 48.4056 498.294ZM48.4056 495.945C49.1733 495.945 49.7862 495.559 50.2442 494.787C50.7023 494.015 50.9291 492.857 50.9247 491.313C50.9247 490.296 50.8201 489.45 50.6107 488.774C50.4056 488.098 50.1134 487.59 49.7339 487.249C49.3587 486.909 48.916 486.739 48.4056 486.739C47.6422 486.739 47.0315 487.121 46.5735 487.884C46.1154 488.647 45.8842 489.79 45.8799 491.313C45.8799 492.342 45.9824 493.202 46.1874 493.891C46.3968 494.576 46.6912 495.09 47.0707 495.435C47.4503 495.775 47.8952 495.945 48.4056 495.945Z" fill="black"/>
<path d="M116.381 5.74676C116.196 6.09685 116.067 6.6312 115.975 7.01815C115.551 8.82389 114.741 11.6799 113.193 13.7436C111.535 15.9363 109.084 17.7789 105.786 18.8292L103.777 16.6181C107.444 15.7705 109.508 14.1674 111 12.3064C112.235 10.7586 112.917 8.67648 113.175 7.09185C112.051 7.09185 105.97 7.09185 104.588 7.09185C103.74 7.09185 102.874 7.14713 102.395 7.16556V4.5675C102.948 4.6412 103.98 4.71491 104.588 4.71491C105.97 4.71491 112.087 4.71491 113.119 4.71491C113.469 4.71491 114.059 4.69648 114.556 4.58592L116.381 5.74676ZM134.788 8.82389C134.622 9.00815 134.364 9.35824 134.254 9.5425C133.609 10.5744 131.895 12.9144 130.569 13.9094L128.726 12.6381C129.795 11.901 130.937 10.5928 131.379 9.83731C130.476 9.83731 124.322 9.83731 123.401 9.83731C122.774 9.83731 122.148 9.87417 121.466 9.92944V7.57092C122.056 7.64463 122.774 7.71833 123.401 7.71833C124.322 7.71833 131.158 7.71833 131.932 7.71833C132.338 7.71833 133.148 7.66305 133.443 7.58935L134.788 8.82389ZM128.468 10.7402C128.376 14.2043 128.376 17.4288 124.064 19.7873L122.093 18.2395C122.572 18.0369 123.051 17.8342 123.604 17.4472C125.686 16.01 126.073 14.3885 126.073 12.0669C126.073 11.6062 125.999 11.1456 125.925 10.7402H128.468ZM137.994 10.8507C141.293 10.0031 143.983 8.80546 146.046 7.53407C147.926 6.37324 150.026 4.53065 151.224 3.075L153.214 4.95444C151.537 6.64963 149.289 8.38167 147.115 9.68991C145.033 10.9244 142.048 12.3064 139.137 13.1724L137.994 10.8507ZM145.659 8.73176L148.276 8.10528V16.4154C148.276 17.2261 148.313 18.3685 148.442 18.8292H145.512C145.586 18.3869 145.659 17.2261 145.659 16.4154V8.73176ZM169.263 2.48537C169.724 3.18555 170.332 4.23583 170.663 4.91759L169.134 5.5625C168.766 4.78861 168.213 3.84889 167.734 3.11185L169.263 2.48537ZM171.824 2.0063C172.303 2.68805 172.948 3.79361 173.298 4.45694L171.769 5.10185C171.382 4.34639 170.811 3.31454 170.295 2.63278L171.824 2.0063ZM171.161 5.94944C170.995 6.29954 170.848 6.83389 170.756 7.22083C170.332 9.02657 169.521 11.901 167.992 13.9463C166.315 16.1574 163.864 17.9816 160.584 19.0319L158.576 16.8207C162.224 15.9731 164.306 14.3701 165.781 12.5091C167.015 10.9797 167.715 8.87917 167.955 7.29454C166.849 7.29454 160.75 7.29454 159.368 7.29454C158.539 7.29454 157.655 7.34981 157.176 7.38667V4.77018C157.728 4.84389 158.76 4.93602 159.368 4.93602C160.75 4.93602 166.868 4.93602 167.9 4.93602C168.268 4.93602 168.858 4.91759 169.337 4.78861L171.161 5.94944ZM188.481 3.70148C188.444 4.21741 188.426 4.80704 188.426 5.5625C188.426 6.50222 188.426 8.28954 188.426 9.19241C188.426 13.1724 187.652 14.8676 186.27 16.3785C185.054 17.7236 183.156 18.6081 181.811 19.0503L179.876 17.005C181.719 16.5812 183.193 15.881 184.317 14.6833C185.57 13.3014 185.828 11.9194 185.828 9.045C185.828 8.1237 185.828 6.35481 185.828 5.5625C185.828 4.80704 185.773 4.21741 185.699 3.70148H188.481ZM179.95 3.86731C179.913 4.29111 179.876 4.69648 179.876 5.26768C179.876 6.07843 179.876 10.4638 179.876 11.4956C179.876 11.9563 179.913 12.6749 179.95 13.0987H177.26C177.297 12.767 177.352 12.0484 177.352 11.4772C177.352 10.4269 177.352 6.07843 177.352 5.26768C177.352 4.93602 177.334 4.29111 177.278 3.86731H179.95ZM193.806 9.4688C194.488 9.52407 195.815 9.59778 196.773 9.59778C198.947 9.59778 205.028 9.59778 206.668 9.59778C207.534 9.59778 208.344 9.50565 208.842 9.4688V12.3801C208.4 12.3617 207.46 12.2695 206.686 12.2695C205.009 12.2695 198.947 12.2695 196.773 12.2695C195.741 12.2695 194.507 12.3248 193.806 12.3801V9.4688ZM224.909 2.90917C225.37 3.59092 226.015 4.75176 226.365 5.43352L224.891 6.07843C224.504 5.32296 223.933 4.21741 223.435 3.51722L224.909 2.90917ZM227.084 2.08C227.563 2.78018 228.244 3.94102 228.576 4.58592L227.102 5.21241C226.715 4.45694 226.125 3.36981 225.628 2.68805L227.084 2.08ZM226.549 6.96287C226.347 7.33139 226.089 7.82889 225.941 8.28954C225.444 9.92944 224.393 12.3985 222.735 14.4438C220.985 16.5812 218.755 18.2764 215.291 19.6399L213.117 17.7052C216.894 16.5628 218.939 14.9597 220.542 13.1356C221.795 11.6983 222.864 9.48722 223.159 8.1237H216.949L217.797 6.02315C218.626 6.02315 222.477 6.02315 223.067 6.02315C223.638 6.02315 224.246 5.94944 224.67 5.80204L226.549 6.96287ZM220.542 4.05157C220.119 4.69648 219.64 5.54407 219.418 5.93102C218.184 8.16055 215.973 10.7586 213.338 12.5644L211.256 11.035C214.499 9.06343 216.102 6.68648 217.023 5.10185C217.299 4.65963 217.686 3.79361 217.852 3.16713L220.542 4.05157Z" fill="black"/>
<path d="M109.139 77.3632H117.044V88.5109H114.796V79.3164H111.277V88.6215H109.139V77.3632ZM101.032 78.4872H108.679V80.4956H101.032V78.4872ZM110.171 80.4588H115.883V82.0803H110.171V80.4588ZM110.171 83.2595H115.883V84.8994H110.171V83.2595ZM110.171 86.1156H115.883V87.9029H110.171V86.1156ZM104.035 76.6999H106.154V88.6768H104.035V76.6999ZM105.841 80.6062C106.468 81.0669 108.55 82.9647 109.029 83.4438L107.628 85.1574C106.965 84.1808 105.473 82.3935 104.662 81.5459L105.841 80.6062ZM103.169 72.9594H108.973V74.802H103.169V72.9594ZM110.632 72.9779H117.615V74.8205H110.632V72.9779ZM103.243 71.2274L105.362 71.7618C104.625 73.7886 103.446 75.8892 102.285 77.1974C101.861 76.8473 100.94 76.2577 100.424 75.9813C101.603 74.8389 102.653 73.0147 103.243 71.2274ZM110.705 71.2274L112.861 71.7618C112.161 73.807 110.963 75.797 109.729 77.0316C109.305 76.6631 108.384 76.055 107.849 75.7786C109.102 74.7099 110.153 72.9594 110.705 71.2274ZM103.851 74.3782L105.601 73.6228C106.117 74.3967 106.725 75.4838 106.965 76.184L105.104 77.05C104.901 76.3498 104.349 75.2258 103.851 74.3782ZM111.811 74.4335L113.58 73.7518C114.225 74.5072 114.98 75.5944 115.33 76.313L113.433 77.0869C113.156 76.3867 112.438 75.2443 111.811 74.4335ZM103.998 79.6481L105.601 80.5694C104.772 82.7068 103.169 85.2495 101.695 86.7236C101.4 86.1893 100.829 85.4154 100.35 84.9916C101.75 83.8307 103.261 81.5644 103.998 79.6481ZM129.316 74.3782C129.058 76.2577 128.689 78.4135 128.044 80.5878C126.939 84.3098 125.354 86.5946 123.346 86.5946C121.282 86.5946 119.587 84.3282 119.587 81.2143C119.587 76.9763 123.29 73.328 128.063 73.328C132.614 73.328 135.507 76.4972 135.507 80.5325C135.507 84.4019 133.13 87.1474 128.486 87.866L127.086 85.6918C127.805 85.5996 128.321 85.5075 128.818 85.3969C131.158 84.8257 133.001 83.149 133.001 80.4404C133.001 77.5475 131.195 75.4838 128.007 75.4838C124.101 75.4838 121.964 78.6715 121.964 80.9931C121.964 82.8542 122.701 83.757 123.401 83.757C124.193 83.757 124.893 82.5778 125.667 80.0903C126.202 78.3582 126.607 76.2393 126.791 74.3045L129.316 74.3782ZM138.455 74.5625H153.693V83.8123H151.371V76.7368H140.684V83.9044H138.455V74.5625ZM139.616 80.6983H152.661V82.8726H139.616V80.6983ZM144.849 71.3564H147.189V88.6583H144.849V71.3564ZM160.345 76.0734H168.544V77.6765H160.345V76.0734ZM160.345 78.782H168.544V80.3667H160.345V78.782ZM167.549 73.1069H169.834V85.9681C169.834 87.2395 169.595 87.8844 168.784 88.2714C167.973 88.6399 166.776 88.6768 164.988 88.6768C164.896 88.0134 164.546 86.9631 164.214 86.3367C165.357 86.4104 166.665 86.3919 167.052 86.3919C167.42 86.3919 167.549 86.2814 167.549 85.9313V73.1069ZM156.181 81.8223C159.203 81.7118 164.104 81.4538 168.618 81.1958L168.581 83.0569C164.288 83.4254 159.7 83.7939 156.494 84.015L156.181 81.8223ZM170.774 76.9026L172.93 77.9344C169.484 83.2411 163.809 86.6315 157.415 88.5294C157.102 87.995 156.365 86.9816 155.923 86.5025C162.353 84.881 167.771 81.7302 170.774 76.9026ZM163.33 71.3011L166.057 71.5959C165.504 72.7199 164.786 73.8623 164.27 74.5994L162.298 74.2124C162.703 73.3464 163.127 72.1671 163.33 71.3011ZM158.926 73.1069H168.286V75.0047H161.137V82.8357H158.926V73.1069ZM180.89 75.6865C181.959 75.797 183.009 75.8523 184.133 75.8523C186.381 75.8523 188.684 75.6681 190.6 75.2627V77.5475C188.666 77.8423 186.344 77.9897 184.133 78.0081C183.046 78.0081 181.995 77.9713 180.908 77.8976L180.89 75.6865ZM187.91 72.5909C187.855 72.941 187.818 73.3832 187.8 73.7702C187.763 74.3782 187.726 75.6496 187.726 76.9763C187.726 80.3667 188.021 82.762 188.021 84.5125C188.021 86.4472 187.063 87.8476 184.409 87.8476C181.848 87.8476 180.263 86.7973 180.263 84.8626C180.263 82.9831 181.848 81.6933 184.372 81.6933C187.836 81.6933 190.066 83.4254 191.503 84.752L190.25 86.6868C188.131 84.7152 186.27 83.4806 184.188 83.4806C183.138 83.4806 182.419 83.9044 182.419 84.6046C182.419 85.3601 183.156 85.6918 184.151 85.6918C185.275 85.6918 185.662 85.1021 185.662 84.015C185.662 82.7436 185.423 79.6481 185.423 76.9947C185.423 75.5944 185.404 74.3598 185.386 73.807C185.386 73.5122 185.33 72.941 185.275 72.5909H187.91ZM178.918 72.7752C178.771 73.1437 178.55 74.1019 178.476 74.4335C178.2 75.6681 177.592 79.7218 177.592 81.5644C177.592 81.9144 177.61 82.3935 177.665 82.762C177.923 82.1171 178.236 81.4906 178.494 80.8642L179.637 81.767C179.121 83.2964 178.513 85.1574 178.31 86.1708C178.255 86.4288 178.2 86.8342 178.218 87.0184C178.218 87.2211 178.218 87.5344 178.236 87.7923L176.154 87.9397C175.786 86.6683 175.417 84.5494 175.417 82.0619C175.417 79.2795 175.97 75.797 176.191 74.3782C176.265 73.8623 176.339 73.1437 176.357 72.5725L178.918 72.7752ZM101.511 96.931C102.303 97.0231 103.298 97.06 103.962 97.06C106.246 97.06 108.734 96.6731 110.521 96.1019L110.576 98.2393C108.992 98.6815 106.339 99.1606 103.98 99.1421C103.243 99.1421 102.469 99.1237 101.677 99.0869L101.511 96.931ZM108.679 94.1671C108.439 95.1437 107.997 96.9494 107.499 98.5156C106.652 101.169 104.993 104.596 103.427 106.77L101.198 105.628C102.856 103.601 104.514 100.377 105.233 98.3867C105.675 97.06 106.081 95.3464 106.136 93.9276L108.679 94.1671ZM113.009 99.916C112.953 100.69 112.972 101.464 112.99 102.275C113.027 103.362 113.193 106.107 113.193 107.139C113.193 108.853 112.272 110.198 109.637 110.198C107.352 110.198 105.546 109.166 105.546 107.139C105.546 105.352 107.057 103.951 109.618 103.951C112.843 103.951 115.386 105.573 116.915 106.955L115.699 108.945C114.372 107.71 112.272 105.812 109.489 105.812C108.421 105.812 107.72 106.273 107.72 106.918C107.72 107.6 108.31 108.079 109.324 108.079C110.576 108.079 110.982 107.379 110.982 106.347C110.982 105.241 110.779 101.851 110.687 99.916H113.009ZM116.178 100.893C115.109 100.027 113.009 98.8289 111.737 98.2577L112.935 96.4519C114.262 97.0231 116.528 98.2577 117.486 98.9394L116.178 100.893ZM129.058 95.328C128.855 95.5675 128.671 95.8807 128.468 96.194C127.547 97.5022 126.257 99.8607 125.354 101.501C126.036 101.095 126.754 100.929 127.455 100.929C128.837 100.929 129.666 101.795 129.739 103.343C129.776 104.154 129.739 105.628 129.832 106.402C129.905 107.121 130.403 107.415 131.011 107.415C132.614 107.415 133.609 105.333 134.125 103.048L136.133 104.67C135.157 107.839 133.461 109.94 130.624 109.94C128.579 109.94 127.639 108.705 127.547 107.379C127.491 106.384 127.491 104.891 127.436 104.136C127.381 103.491 127.031 103.104 126.368 103.104C125.115 103.104 124.064 104.394 123.419 105.886C122.922 106.955 122.295 109.018 122.019 109.995L119.421 109.111C120.766 105.425 124.543 97.9076 125.538 96.1387C125.759 95.6596 126.11 95.0516 126.441 94.2777L129.058 95.328ZM145.015 94.5172C144.886 95.0147 144.701 95.8439 144.609 96.2493C144.351 97.5022 143.909 99.7686 143.411 101.63C142.748 104.209 141.514 107.987 140.5 110.161L137.921 109.295C139.026 107.452 140.426 103.583 141.108 101.003C141.587 99.2711 142.011 97.2627 142.14 96.1571C142.232 95.4754 142.251 94.7199 142.195 94.2961L145.015 94.5172ZM140.316 97.2627C142.564 97.2627 145.162 96.931 147.557 96.3598V98.6631C145.273 99.1974 142.38 99.4922 140.298 99.4922C139.395 99.4922 138.713 99.4554 138.068 99.4185L137.994 97.1337C138.952 97.2443 139.56 97.2627 140.316 97.2627ZM146.102 100.1C147.134 99.9897 148.442 99.8976 149.658 99.8976C150.708 99.8976 151.814 99.9529 152.882 100.063L152.846 102.275C151.906 102.164 150.782 102.053 149.676 102.053C148.386 102.053 147.263 102.109 146.102 102.256V100.1ZM147.097 104.725C146.968 105.241 146.857 105.849 146.857 106.255C146.857 107.065 147.391 107.673 149.381 107.673C150.598 107.673 151.887 107.526 153.196 107.286L153.104 109.645C152.072 109.774 150.837 109.921 149.363 109.921C146.249 109.921 144.591 108.834 144.591 106.973C144.591 106.126 144.738 105.241 144.904 104.504L147.097 104.725ZM150.911 95.0516C151.39 95.7149 152.035 96.8942 152.385 97.5759L150.911 98.2024C150.524 97.4469 149.953 96.3598 149.455 95.6412L150.911 95.0516ZM153.104 94.204C153.583 94.9042 154.264 96.065 154.596 96.7283L153.122 97.3548C152.753 96.5809 152.145 95.5122 151.648 94.812L153.104 94.204ZM158.16 95.1069C158.473 95.1437 159.045 95.1806 159.671 95.1806C160.648 95.1806 164.757 95.1253 165.973 95.0516C166.397 95.0147 166.949 94.9226 167.299 94.8489L168.534 96.4704C168.184 96.6362 167.76 96.931 167.502 97.0969C166.452 97.8892 164.664 99.2895 163.08 100.524C163.669 100.34 164.351 100.266 164.812 100.266C168.055 100.266 170.284 102.182 170.284 104.762C170.284 108.41 167.097 110.548 160.279 110.013L159.634 107.6C164.72 108.263 167.742 107.194 167.742 104.762C167.742 103.306 166.415 102.219 164.314 102.219C161.44 102.219 159.45 104.043 157.46 106.052L155.728 104.228C158.197 102.348 162.73 98.6262 164.185 97.1153C163.19 97.1521 160.629 97.2811 159.745 97.3364C159.284 97.3732 158.621 97.4469 158.215 97.5022L158.16 95.1069ZM174.117 96.931C174.909 97.0231 175.904 97.06 176.568 97.06C178.852 97.06 181.34 96.6731 183.127 96.1019L183.183 98.2393C181.598 98.6815 178.945 99.1606 176.586 99.1421C175.849 99.1421 175.075 99.1237 174.283 99.0869L174.117 96.931ZM181.285 94.1671C181.045 95.1437 180.603 96.9494 180.105 98.5156C179.258 101.169 177.599 104.596 176.033 106.77L173.804 105.628C175.462 103.601 177.12 100.377 177.839 98.3867C178.281 97.06 178.687 95.3464 178.742 93.9276L181.285 94.1671ZM185.615 99.916C185.559 100.69 185.578 101.464 185.596 102.275C185.633 103.362 185.799 106.107 185.799 107.139C185.799 108.853 184.878 110.198 182.243 110.198C179.958 110.198 178.152 109.166 178.152 107.139C178.152 105.352 179.663 103.951 182.224 103.951C185.449 103.951 187.992 105.573 189.521 106.955L188.305 108.945C186.978 107.71 184.878 105.812 182.095 105.812C181.027 105.812 180.327 106.273 180.327 106.918C180.327 107.6 180.916 108.079 181.93 108.079C183.183 108.079 183.588 107.379 183.588 106.347C183.588 105.241 183.385 101.851 183.293 99.916H185.615ZM188.784 100.893C187.715 100.027 185.615 98.8289 184.343 98.2577L185.541 96.4519C186.868 97.0231 189.134 98.2577 190.092 98.9394L188.784 100.893Z" fill="black"/>
<path d="M110.613 160.651H112.806V177.658H110.613V160.651ZM105.915 164.834H117.652V166.99H105.915V164.834ZM113.267 165.516C114.225 168.611 116.104 171.909 118.186 173.697C117.67 174.084 116.915 174.876 116.546 175.466C114.372 173.328 112.585 169.661 111.516 165.995L113.267 165.516ZM110.263 165.589L112.143 166.142C110.963 169.864 108.992 173.42 106.67 175.558C106.283 175.023 105.546 174.231 105.03 173.826C107.241 172.038 109.25 168.722 110.263 165.589ZM104.883 160.449L107.094 161.167C105.804 164.392 103.685 167.782 101.493 169.901C101.253 169.348 100.59 168.114 100.203 167.561C102.064 165.866 103.851 163.194 104.883 160.449ZM102.985 165.774L105.159 163.599L105.178 163.636V177.621H102.985V165.774ZM123.825 172.536H125.999V174.894C125.999 175.41 126.146 175.466 127.049 175.466C127.436 175.466 129.095 175.466 129.61 175.466C130.311 175.466 130.44 175.263 130.513 173.844C130.974 174.176 131.895 174.489 132.485 174.618C132.227 176.884 131.619 177.437 129.813 177.437C129.297 177.437 127.289 177.437 126.791 177.437C124.378 177.437 123.825 176.829 123.825 174.913V172.536ZM125.575 172.057L127.031 170.933C128.063 171.541 129.297 172.481 129.887 173.236L128.321 174.489C127.786 173.752 126.607 172.72 125.575 172.057ZM131.435 173.162L133.259 172.204C134.475 173.291 135.783 174.821 136.299 176L134.291 177.05C133.867 175.908 132.632 174.305 131.435 173.162ZM121.411 172.352L123.383 173.033C122.922 174.618 122.222 176.147 120.858 177.106L119.016 175.834C120.213 175.06 121.024 173.77 121.411 172.352ZM120.14 166.695H126.847V171.283H120.14V169.643H124.949V168.353H120.14V166.695ZM119.31 163.82H127.584V165.589H119.31V163.82ZM129.389 164.668H134.033V166.142H129.389V164.668ZM129.408 167.174H134.051V168.648H129.408V167.174ZM125.962 160.467L127.418 161.941C125.391 162.567 122.461 162.825 120.047 162.899C119.974 162.457 119.716 161.757 119.513 161.315C121.798 161.204 124.451 160.928 125.962 160.467ZM130.624 160.283L133.093 160.541C132.724 161.48 132.338 162.346 132.043 162.936L129.997 162.641C130.237 161.941 130.513 160.983 130.624 160.283ZM120.14 166.695H122.019V170.693H120.14V166.695ZM122.516 161.849H124.506V167.506H122.516V161.849ZM130.09 163.691V169.698H133.425V163.691H130.09ZM128.063 161.923H135.58V171.467H128.063V161.923Z" fill="black"/>
<path d="M103.39 247.685H113.525V249.27H105.601V256.677H103.39V247.685ZM112.88 247.685H115.109V254.539C115.109 255.59 114.851 256.069 114.096 256.327C113.322 256.603 112.216 256.603 110.724 256.603C110.613 256.069 110.319 255.35 110.042 254.853C110.963 254.889 112.161 254.889 112.438 254.889C112.769 254.871 112.88 254.797 112.88 254.521V247.685ZM104.772 250.062H113.506V251.517H104.772V250.062ZM101.013 245.197H117.394V246.856H101.013V245.197ZM102.137 240.296H116.436V241.954H102.137V240.296ZM102.838 242.765H115.625V244.35H102.838V242.765ZM104.772 252.347H113.543V253.784H104.772V252.347ZM108.015 239.356H110.263V246.303H108.015V239.356ZM122.996 239.283L125.244 239.854C124.267 242.599 122.645 245.253 121.006 246.911C120.582 246.524 119.642 245.787 119.108 245.474C120.766 244.037 122.203 241.678 122.996 239.283ZM123.383 241.383H135.101V243.521H122.314L123.383 241.383ZM122.074 245.732H134.678V247.795H124.304V251.665H122.074V245.732ZM119.163 250.578H136.115V252.715H119.163V250.578ZM127.491 242.489H129.776V256.658H127.491V242.489ZM147.742 242.378C147.484 244.258 147.115 246.414 146.47 248.588C145.365 252.31 143.78 254.595 141.772 254.595C139.708 254.595 138.013 252.328 138.013 249.214C138.013 244.976 141.716 241.328 146.489 241.328C151.04 241.328 153.933 244.497 153.933 248.532C153.933 252.402 151.556 255.147 146.912 255.866L145.512 253.692C146.231 253.6 146.747 253.507 147.244 253.397C149.584 252.826 151.427 251.149 151.427 248.44C151.427 245.547 149.621 243.484 146.433 243.484C142.527 243.484 140.39 246.671 140.39 248.993C140.39 250.854 141.127 251.757 141.827 251.757C142.619 251.757 143.319 250.578 144.093 248.09C144.628 246.358 145.033 244.239 145.217 242.305L147.742 242.378ZM157.01 242.839H171.898V244.995H157.01V242.839ZM157.986 248.201H171.014V250.338H157.986V248.201ZM156.218 253.913H172.801V256.087H156.218V253.913ZM163.275 244.718H165.707V255.074H163.275V244.718ZM161.635 240.591L163.459 239.32C164.638 240.075 166.223 241.273 167.015 242.139L165.062 243.557C164.362 242.71 162.851 241.457 161.635 240.591ZM183.248 242.765H189.919V244.295H183.248V242.765ZM183.248 245.234H189.919V246.782H183.248V245.234ZM180.964 247.74H191.558V249.675H180.964V247.74ZM182.272 239.983H190.619V241.862H184.391V248.772H182.272V239.983ZM180.871 254.3C182.419 254.152 184.704 253.858 186.934 253.581L187.007 255.498C184.999 255.829 182.88 256.124 181.203 256.382L180.871 254.3ZM187.026 248.772C187.726 251.573 189.237 253.802 191.872 254.76C191.374 255.203 190.729 256.106 190.416 256.695C187.523 255.369 186.049 252.678 185.201 249.085L187.026 248.772ZM189.734 249.73L191.558 250.725C190.527 251.61 189.384 252.512 188.5 253.084L187.136 252.255C187.984 251.591 189.108 250.504 189.734 249.73ZM182.327 248.311H184.446V254.595L182.327 254.963V248.311ZM175.399 248.311H179.821V250.283H175.399V248.311ZM178.826 248.311H181.019C181.019 248.311 181 248.901 180.964 249.159C180.706 253.434 180.448 255.221 179.895 255.866C179.471 256.345 179.047 256.529 178.458 256.603C177.96 256.677 177.094 256.695 176.21 256.658C176.173 256.032 175.933 255.147 175.602 254.595C176.339 254.668 177.039 254.687 177.37 254.687C177.665 254.687 177.85 254.631 178.015 254.447C178.365 254.06 178.623 252.531 178.826 248.643V248.311ZM175.215 244.497H177.205C177.002 246.579 176.689 249.196 176.412 250.836L174.367 250.615C174.68 249.012 175.049 246.469 175.215 244.497ZM175.344 244.497H178.697V242.305H174.68V240.278H180.687V246.524H175.344V244.497Z" fill="black"/>
<path d="M110.613 324.651H112.806V341.658H110.613V324.651ZM105.915 328.834H117.652V330.99H105.915V328.834ZM113.267 329.516C114.225 332.611 116.104 335.909 118.186 337.697C117.67 338.084 116.915 338.876 116.546 339.466C114.372 337.328 112.585 333.661 111.516 329.995L113.267 329.516ZM110.263 329.589L112.143 330.142C110.963 333.864 108.992 337.42 106.67 339.558C106.283 339.023 105.546 338.231 105.03 337.826C107.241 336.038 109.25 332.722 110.263 329.589ZM104.883 324.449L107.094 325.167C105.804 328.392 103.685 331.782 101.493 333.901C101.253 333.348 100.59 332.114 100.203 331.561C102.064 329.866 103.851 327.194 104.883 324.449ZM102.985 329.774L105.159 327.599L105.178 327.636V341.621H102.985V329.774ZM123.825 336.536H125.999V338.894C125.999 339.41 126.146 339.466 127.049 339.466C127.436 339.466 129.095 339.466 129.61 339.466C130.311 339.466 130.44 339.263 130.513 337.844C130.974 338.176 131.895 338.489 132.485 338.618C132.227 340.884 131.619 341.437 129.813 341.437C129.297 341.437 127.289 341.437 126.791 341.437C124.378 341.437 123.825 340.829 123.825 338.913V336.536ZM125.575 336.057L127.031 334.933C128.063 335.541 129.297 336.481 129.887 337.236L128.321 338.489C127.786 337.752 126.607 336.72 125.575 336.057ZM131.435 337.162L133.259 336.204C134.475 337.291 135.783 338.821 136.299 340L134.291 341.05C133.867 339.908 132.632 338.305 131.435 337.162ZM121.411 336.352L123.383 337.033C122.922 338.618 122.222 340.147 120.858 341.106L119.016 339.834C120.213 339.06 121.024 337.77 121.411 336.352ZM120.14 330.695H126.847V335.283H120.14V333.643H124.949V332.353H120.14V330.695ZM119.31 327.82H127.584V329.589H119.31V327.82ZM129.389 328.668H134.033V330.142H129.389V328.668ZM129.408 331.174H134.051V332.648H129.408V331.174ZM125.962 324.467L127.418 325.941C125.391 326.567 122.461 326.825 120.047 326.899C119.974 326.457 119.716 325.757 119.513 325.315C121.798 325.204 124.451 324.928 125.962 324.467ZM130.624 324.283L133.093 324.541C132.724 325.48 132.338 326.346 132.043 326.936L129.997 326.641C130.237 325.941 130.513 324.983 130.624 324.283ZM120.14 330.695H122.019V334.693H120.14V330.695ZM122.516 325.849H124.506V331.506H122.516V325.849ZM130.09 327.691V333.698H133.425V327.691H130.09ZM128.063 325.923H135.58V335.467H128.063V325.923Z" fill="black"/>
<path d="M114.354 483.872C114.814 484.554 115.459 485.715 115.809 486.397L114.335 487.023C113.948 486.286 113.377 485.181 112.88 484.48L114.354 483.872ZM116.528 483.043C117.007 483.725 117.689 484.904 118.021 485.549L116.546 486.176C116.16 485.402 115.57 484.333 115.072 483.633L116.528 483.043ZM107.444 490.819C109.71 492.127 113.138 494.486 114.833 495.849L113.082 497.931C111.461 496.42 107.978 493.859 105.823 492.496L107.444 490.819ZM116.123 487.686C115.92 488.037 115.68 488.552 115.515 489.013C114.943 490.708 113.819 493.067 112.18 495.112C110.448 497.268 108.071 499.332 104.551 500.658L102.414 498.816C106.265 497.618 108.476 495.683 110.042 493.841C111.295 492.367 112.438 490.266 112.788 488.829H106.541L107.407 486.747H112.64C113.211 486.747 113.838 486.655 114.243 486.526L116.123 487.686ZM110.024 484.849C109.581 485.494 109.121 486.341 108.9 486.728C107.647 488.958 105.288 491.777 102.653 493.601L100.663 492.072C103.888 490.082 105.601 487.539 106.523 485.954C106.799 485.494 107.205 484.646 107.37 484.02L110.024 484.849ZM122.867 484.996C124.138 485.862 126.533 487.779 127.62 488.903L125.741 490.819C124.783 489.787 122.461 487.779 121.116 486.857L122.867 484.996ZM120.545 497.268C123.438 496.863 125.815 495.923 127.602 494.873C130.753 492.993 133.148 490.192 134.328 487.705L135.746 490.285C134.364 492.79 131.914 495.333 128.947 497.121C127.068 498.245 124.691 499.258 122.111 499.7L120.545 497.268ZM151.841 486.526C151.693 486.728 151.362 487.281 151.196 487.668C150.44 489.419 149.077 491.924 147.492 493.767C145.429 496.144 142.646 498.429 139.79 499.774L137.874 497.784C140.859 496.678 143.697 494.43 145.429 492.514C146.645 491.132 147.769 489.308 148.192 488C147.419 488 142.72 488 141.928 488C141.172 488 140.159 488.092 139.753 488.129V485.494C140.251 485.567 141.393 485.623 141.928 485.623C142.904 485.623 147.621 485.623 148.432 485.623C149.243 485.623 149.961 485.531 150.348 485.402L151.841 486.526ZM147.732 492.238C149.63 493.785 152.246 496.531 153.444 498.005L151.343 499.829C149.98 497.931 147.971 495.739 146 493.951L147.732 492.238ZM168.7 490.874C168.7 495.425 167.595 498.208 163.136 500.179L161.164 498.318C164.739 497.084 166.287 495.481 166.287 490.948V486.047C166.287 485.31 166.25 484.701 166.176 484.351H168.811C168.774 484.72 168.7 485.31 168.7 486.047V490.874ZM162.03 484.499C161.993 484.849 161.92 485.439 161.92 486.176V492.754C161.92 493.583 161.975 494.338 162.012 494.688H159.432C159.469 494.338 159.524 493.583 159.524 492.754V486.157C159.524 485.641 159.488 485.07 159.414 484.499H162.03ZM155.968 487.815C156.3 487.871 157.055 488 157.958 488H170.046C171.022 488 171.575 487.944 172.091 487.871V490.321C171.685 490.266 171.022 490.266 170.064 490.266H157.958C157.037 490.266 156.392 490.303 155.968 490.321V487.815ZM175.021 490.469C175.702 490.524 177.029 490.598 177.987 490.598C180.161 490.598 186.242 490.598 187.882 490.598C188.748 490.598 189.559 490.506 190.056 490.469V493.38C189.614 493.362 188.674 493.27 187.9 493.27C186.224 493.27 180.161 493.27 177.987 493.27C176.955 493.27 175.721 493.325 175.021 493.38V490.469ZM208.335 487.557C208.132 487.908 207.874 488.405 207.727 488.866C207.229 490.524 206.179 492.975 204.502 495.02C202.752 497.157 200.54 498.853 197.076 500.216L194.902 498.281C198.661 497.139 200.706 495.536 202.328 493.712C203.581 492.275 204.649 490.063 204.944 488.7H198.735L199.582 486.599C200.393 486.599 204.263 486.599 204.834 486.599C205.405 486.599 206.031 486.526 206.437 486.378L208.335 487.557ZM202.328 484.628C201.886 485.273 201.407 486.12 201.204 486.507C199.951 488.737 197.758 491.335 195.105 493.141L193.041 491.611C196.266 489.64 197.887 487.263 198.79 485.678C199.066 485.236 199.453 484.388 199.619 483.743L202.328 484.628ZM218.888 498.595C218.98 498.245 219.035 497.747 219.035 497.25C219.035 496.273 219.035 488 219.035 486.507C219.035 485.678 218.906 484.959 218.906 484.923H221.633C221.633 484.959 221.504 485.696 221.504 486.526C221.504 488 221.504 495.02 221.504 496.144C223.015 495.499 224.821 494.043 226.074 492.256L227.474 494.301C225.945 496.291 223.31 498.281 221.228 499.332C220.841 499.534 220.62 499.737 220.435 499.866L218.888 498.595ZM210.356 498.337C211.996 497.194 212.991 495.499 213.489 493.914C214.023 492.348 214.042 488.847 214.042 486.636C214.042 485.881 213.968 485.402 213.857 484.941H216.566C216.566 485.015 216.437 485.844 216.437 486.599C216.437 488.792 216.382 492.68 215.903 494.541C215.331 496.605 214.189 498.429 212.604 499.829L210.356 498.337Z" fill="black"/>
<path d="M108.034 401.038C107.96 401.388 107.886 402.181 107.868 402.641C107.776 404.097 107.72 406.087 107.72 407.8C107.72 409.809 107.831 412.997 107.831 414.065C107.831 416.332 107.02 416.958 105.804 416.958C104.017 416.958 101.474 415.41 101.474 413.457C101.474 411.67 103.777 409.79 106.339 408.888C107.978 408.298 109.839 408.003 111.24 408.003C114.077 408.003 116.325 409.477 116.325 412.02C116.325 414.213 115.183 415.853 112.253 416.571C111.406 416.755 110.576 416.811 109.821 416.884L108.992 414.489C109.803 414.489 110.613 414.489 111.24 414.36C112.732 414.102 113.93 413.347 113.93 412.02C113.93 410.749 112.824 410.03 111.221 410.03C109.655 410.03 108.034 410.362 106.596 410.933C104.938 411.559 103.759 412.554 103.759 413.347C103.759 413.936 104.625 414.434 105.104 414.434C105.436 414.434 105.675 414.286 105.675 413.641C105.675 412.683 105.583 410.122 105.583 407.893C105.583 405.792 105.601 403.507 105.601 402.66C105.601 402.291 105.546 401.37 105.491 401.038H108.034ZM113.285 403.047C114.685 403.728 116.823 404.926 117.818 405.626L116.694 407.506C115.809 406.769 113.414 405.387 112.272 404.834L113.285 403.047ZM101.972 404.06C103.059 404.189 103.851 404.189 104.514 404.189C106.431 404.189 109.305 403.839 111.203 403.286L111.258 405.571C109.176 406.05 106.21 406.382 104.588 406.382C103.372 406.382 102.653 406.363 102.027 406.29L101.972 404.06ZM119.347 410.38H136.004V412.315H119.347V410.38ZM133.517 405.829L134.714 407.671C130.992 408.519 125.612 408.869 121.098 408.943C121.079 408.39 120.84 407.579 120.619 407.082C125.133 406.971 130.329 406.566 133.517 405.829ZM126.496 408.187H128.984C128.468 412.499 127.381 415.982 120.471 417.658C120.269 417.106 119.734 416.276 119.274 415.816C125.557 414.452 126.11 411.615 126.496 408.187ZM128.8 410.804C129.979 413.384 132.466 415.097 136.152 415.76C135.673 416.221 135.065 417.087 134.77 417.677C130.79 416.774 128.321 414.673 126.81 411.301L128.8 410.804ZM121.706 402.217H127.491V404.078H121.706V402.217ZM129.039 402.236H135.931V404.097H129.039V402.236ZM121.669 400.264L123.806 400.725C123.161 402.918 122.019 405.018 120.84 406.345C120.398 405.995 119.439 405.46 118.905 405.202C120.158 404.042 121.153 402.181 121.669 400.264ZM129.058 400.283L131.177 400.799C130.44 402.918 129.187 404.963 127.952 406.271C127.528 405.921 126.57 405.387 126.036 405.129C127.363 404.005 128.468 402.144 129.058 400.283ZM122.516 403.636L124.396 402.954C124.893 403.82 125.446 404.963 125.63 405.718L123.64 406.492C123.475 405.737 122.996 404.521 122.516 403.636ZM130.237 403.581L132.135 402.899C132.706 403.655 133.388 404.686 133.664 405.387L131.656 406.161C131.416 405.46 130.808 404.373 130.237 403.581ZM141.624 402.844C141.495 403.489 141.403 404.576 141.403 405.092C141.403 406.29 141.403 407.653 141.514 408.998C141.772 411.651 142.324 413.476 143.485 413.476C144.37 413.476 145.088 411.301 145.438 409.846L147.299 412.075C146.065 415.3 144.922 416.405 143.448 416.405C141.403 416.405 139.653 414.6 139.137 409.661C138.952 407.966 138.934 405.792 138.934 404.668C138.934 404.171 138.916 403.378 138.787 402.807L141.624 402.844ZM150.837 403.249C152.588 405.368 154.006 409.975 154.209 412.794L151.777 413.752C151.5 410.767 150.505 406.308 148.497 404.023L150.837 403.249ZM158.115 405.958H170.903V407.966H158.115V405.958ZM156.07 409.422H172.875V411.467H156.07V409.422ZM156.807 415.06C160.179 414.968 165.486 414.729 170.276 414.489L170.203 416.553C165.504 416.866 160.419 417.161 156.991 417.327L156.807 415.06ZM166.149 412.573L168.047 411.541C169.761 412.997 171.751 415.097 172.617 416.663L170.553 417.843C169.797 416.332 167.881 414.139 166.149 412.573ZM160.971 410.491L163.551 411.209C162.703 412.923 161.727 414.802 160.935 416.018L158.963 415.337C159.7 414.028 160.548 412.002 160.971 410.491ZM156.273 401.849H172.672V403.876H156.273V401.849ZM160.142 400.356H162.335V405.368H160.142V400.356ZM166.591 400.356H168.802V405.368H166.591V400.356ZM181.369 400.799H183.893C183.727 403.894 183.488 412.886 175.952 417.511C175.565 416.94 174.846 416.258 174.091 415.742C181.498 411.633 181.24 403.212 181.369 400.799ZM183.82 401.278C183.875 402.881 184.262 412.075 191.816 415.613C191.116 416.147 190.453 416.884 190.121 417.493C182.18 413.549 181.83 403.397 181.682 401.499L183.82 401.278ZM196.239 401.867C196.736 401.941 197.528 401.978 198.155 401.978C199.316 401.978 204.162 401.978 205.23 401.978C205.82 401.978 206.723 401.941 207.22 401.867V404.263C206.741 404.226 205.875 404.189 205.194 404.189C204.18 404.189 199.242 404.189 198.155 404.189C197.547 404.189 196.773 404.207 196.239 404.263V401.867ZM208.787 407.229C208.658 407.469 208.492 407.8 208.437 407.985C207.865 409.772 207.073 411.578 205.71 413.089C203.849 415.171 201.49 416.405 199.131 417.087L197.289 415.005C200.071 414.415 202.264 413.218 203.683 411.762C204.659 410.767 205.249 409.606 205.562 408.593C204.641 408.593 198.321 408.593 196.681 408.593C196.22 408.593 195.299 408.611 194.525 408.666V406.271C195.317 406.345 196.091 406.4 196.681 406.4C197.934 406.4 204.53 406.4 205.783 406.4C206.391 406.4 206.889 406.326 207.147 406.197L208.787 407.229ZM211.698 408.851C214.996 408.003 217.686 406.805 219.75 405.534C221.63 404.373 223.73 402.531 224.928 401.075L226.918 402.954C225.241 404.65 222.993 406.382 220.819 407.69C218.737 408.924 215.752 410.306 212.84 411.172L211.698 408.851ZM219.363 406.732L221.98 406.105V414.415C221.98 415.226 222.016 416.369 222.145 416.829H219.216C219.289 416.387 219.363 415.226 219.363 414.415V406.732ZM242.967 400.485C243.427 401.186 244.035 402.236 244.367 402.918L242.838 403.562C242.469 402.789 241.916 401.849 241.437 401.112L242.967 400.485ZM245.528 400.006C246.007 400.688 246.652 401.794 247.002 402.457L245.473 403.102C245.086 402.346 244.515 401.315 243.999 400.633L245.528 400.006ZM244.865 403.949C244.699 404.3 244.551 404.834 244.459 405.221C244.035 407.027 243.225 409.901 241.695 411.946C240.019 414.157 237.568 415.982 234.288 417.032L232.28 414.821C235.928 413.973 238.01 412.37 239.484 410.509C240.719 408.98 241.419 406.879 241.659 405.295C240.553 405.295 234.454 405.295 233.072 405.295C232.243 405.295 231.358 405.35 230.879 405.387V402.77C231.432 402.844 232.464 402.936 233.072 402.936C234.454 402.936 240.571 402.936 241.603 402.936C241.972 402.936 242.561 402.918 243.04 402.789L244.865 403.949Z" fill="black"/>
<path d="M110.079 574.003L112.069 574.63C110.853 576.822 108.826 578.775 106.799 579.992C106.504 579.568 105.804 578.72 105.362 578.333C107.278 577.375 109.102 575.79 110.079 574.003ZM110.319 566.283L112.235 567.278C111.258 568.439 110.134 569.673 109.25 570.484L107.739 569.618C108.605 568.733 109.71 567.333 110.319 566.283ZM113.764 567.646L115.736 568.733C113.764 570.815 111.166 573.174 109.102 574.666L107.647 573.708C109.692 572.142 112.235 569.636 113.764 567.646ZM105.988 569.728L107.315 568.291C108.66 569.139 110.392 570.392 111.185 571.35L109.784 572.934C109.029 571.995 107.37 570.631 105.988 569.728ZM113.561 571.774L115.275 570.852C116.362 572.05 117.597 573.727 118.094 574.888L116.233 575.938C115.791 574.814 114.649 573.045 113.561 571.774ZM105.62 573.082C108.292 573.063 112.438 573.008 116.325 572.934L116.252 574.703C112.511 574.832 108.55 574.961 105.786 575.035L105.62 573.082ZM109.453 577.043C110.945 579.531 114.059 581.208 118.094 581.834C117.634 582.295 117.062 583.142 116.786 583.714C112.548 582.866 109.508 580.839 107.665 577.615L109.453 577.043ZM109.913 575.938H114.87V577.596H108.439L109.913 575.938ZM114.151 575.938H114.575L114.925 575.864L116.307 576.472C114.667 580.618 110.89 582.737 106.412 583.75C106.228 583.198 105.749 582.332 105.362 581.889C109.416 581.189 112.935 579.31 114.151 576.251V575.938ZM104.404 570.318L106.357 571.037C105.159 573.285 103.243 575.643 101.437 577.136C101.235 576.656 100.645 575.551 100.276 575.072C101.843 573.929 103.446 572.142 104.404 570.318ZM104.072 566.356L106.025 567.13C104.883 568.733 103.151 570.521 101.603 571.663C101.327 571.221 100.792 570.447 100.442 570.042C101.769 569.12 103.317 567.572 104.072 566.356ZM102.893 574.298L104.772 572.419L104.957 572.511V583.695H102.893V574.298ZM128.689 571.866H133.996V573.653H127.786L128.689 571.866ZM127.934 574.759C129.445 578.038 132.448 580.636 136.502 581.724C136.023 582.166 135.359 583.087 135.028 583.677C130.827 582.295 127.915 579.328 126.146 575.311L127.934 574.759ZM128.708 575.035L130.016 573.985C130.661 574.482 131.453 575.201 131.84 575.698L130.44 576.878C130.108 576.362 129.353 575.569 128.708 575.035ZM119.421 568.181H135.894V570.263H119.421V568.181ZM126.386 566.356H128.726V569.249H126.386V566.356ZM123.29 570.078L125.446 570.723C124.23 573.561 122.259 576.362 120.305 578.112C119.955 577.67 119.145 576.767 118.665 576.38C120.545 574.906 122.295 572.529 123.29 570.078ZM128.45 570.042L130.661 570.65C129.555 573.266 127.731 576.067 125.575 577.817C125.225 577.357 124.525 576.638 124.064 576.27C126.036 574.777 127.694 572.197 128.45 570.042ZM133.333 571.866H133.738L134.125 571.792L135.525 572.437C134.014 578.462 130.274 582 125.63 583.677C125.373 583.142 124.691 582.221 124.249 581.834C128.726 580.415 132.135 577.394 133.333 572.29V571.866ZM121.687 574.261L123.788 572.161L123.898 572.197V583.658H121.687V574.261ZM141.164 566.375L143.227 566.743C142.195 568.789 140.703 570.76 138.436 572.345C138.142 571.884 137.497 571.202 137.055 570.926C139.081 569.636 140.445 567.904 141.164 566.375ZM141.2 567.48H144.812V568.954H140.316L141.2 567.48ZM144.296 567.48H144.683L145.033 567.407L146.378 567.941C145.144 572.511 142.14 575.256 138.363 576.675C138.123 576.159 137.607 575.348 137.202 574.943C140.574 573.893 143.356 571.331 144.296 567.812V567.48ZM140.169 569.913L141.127 568.936C141.974 569.378 143.08 570.06 143.651 570.521L142.656 571.608C142.122 571.147 141.016 570.41 140.169 569.913ZM148.792 579.899L150.634 578.831C151.887 579.807 153.509 581.263 154.283 582.295L152.33 583.493C151.648 582.498 150.063 580.95 148.792 579.899ZM138.602 571.608L139.745 570.686C140.537 571.202 141.587 571.976 142.122 572.492L140.906 573.524C140.426 572.99 139.413 572.161 138.602 571.608ZM148.608 567.462H152.643V569.268H148.608V567.462ZM142.674 572.953H149.658V574.924H142.674V572.953ZM139.063 576.399H153.159V578.389H139.063V576.399ZM152.109 567.462H152.606L153.03 567.333L154.449 568.31C153.527 570.06 152.072 572.013 150.69 573.229C150.376 572.805 149.75 572.161 149.363 571.866C150.45 570.834 151.611 569.083 152.109 567.886V567.462ZM147.778 566.541C148.81 570.465 151.058 573.377 155.001 574.593C154.541 575.017 153.914 575.883 153.619 576.454C149.363 574.906 147.134 571.663 145.881 566.946L147.778 566.541ZM144.996 577.412H147.226V581.521C147.226 582.553 147.023 583.087 146.231 583.382C145.475 583.677 144.443 583.677 143.08 583.677C142.969 583.069 142.638 582.258 142.343 581.705C143.246 581.742 144.314 581.742 144.609 581.742C144.904 581.742 144.996 581.687 144.996 581.447V577.412ZM140.758 578.812L142.951 579.457C142.085 581.005 140.648 582.516 139.303 583.437C138.897 583.013 138.013 582.313 137.497 581.982C138.805 581.226 140.076 580.047 140.758 578.812Z" fill="black"/>
<line x1="6" y1="48.1321" x2="280.546" y2="48.1321" stroke="black" stroke-width="0.921296" stroke-dasharray="1.84 1.84"/>
<line x1="5" y1="128.539" x2="279.546" y2="128.539" stroke="black" stroke-width="0.921296" stroke-dasharray="1.84 1.84"/>
<line x1="3" y1="208.539" x2="277.546" y2="208.539" stroke="black" stroke-width="0.921296" stroke-dasharray="1.84 1.84"/>
<line x1="3" y1="288.539" x2="277.546" y2="288.539" stroke="black" stroke-width="0.921296" stroke-dasharray="1.84 1.84"/>
<line x1="3" y1="368.539" x2="277.546" y2="368.539" stroke="black" stroke-width="0.921296" stroke-dasharray="1.84 1.84"/>
<line y1="448.539" x2="274.546" y2="448.539" stroke="black" stroke-width="0.921296" stroke-dasharray="1.84 1.84"/>
<line x1="75.8111" y1="11.2339" x2="76.4431" y2="613" stroke="black" stroke-width="0.978693"/>
<path d="M83.3292 10.7726C83.3292 14.8421 79.9955 18.1633 75.8556 18.1633C71.7157 18.1633 68.3819 14.8421 68.3819 10.7726C68.3819 6.7031 71.7157 3.38194 75.8556 3.38194C79.9955 3.38194 83.3292 6.7031 83.3292 10.7726Z" fill="white" stroke="black" stroke-width="2.76389"/>
<path d="M83.3292 90.7726C83.3292 94.8421 79.9955 98.1633 75.8556 98.1633C71.7157 98.1633 68.3819 94.8421 68.3819 90.7726C68.3819 86.7031 71.7157 83.3819 75.8556 83.3819C79.9955 83.3819 83.3292 86.7031 83.3292 90.7726Z" fill="white" stroke="black" stroke-width="2.76389"/>
<path d="M83.3292 168.773C83.3292 172.842 79.9955 176.163 75.8556 176.163C71.7157 176.163 68.3819 172.842 68.3819 168.773C68.3819 164.703 71.7157 161.382 75.8556 161.382C79.9955 161.382 83.3292 164.703 83.3292 168.773Z" fill="white" stroke="black" stroke-width="2.76389"/>
<path d="M83.3292 247.773C83.3292 251.842 79.9955 255.163 75.8556 255.163C71.7157 255.163 68.3819 251.842 68.3819 247.773C68.3819 243.703 71.7157 240.382 75.8556 240.382C79.9955 240.382 83.3292 243.703 83.3292 247.773Z" fill="white" stroke="black" stroke-width="2.76389"/>
<path d="M83.3292 331.773C83.3292 335.842 79.9955 339.163 75.8556 339.163C71.7157 339.163 68.3819 335.842 68.3819 331.773C68.3819 327.703 71.7157 324.382 75.8556 324.382C79.9955 324.382 83.3292 327.703 83.3292 331.773Z" fill="white" stroke="black" stroke-width="2.76389"/>
<path d="M83.3292 408.772C83.3292 412.842 79.9955 416.163 75.8556 416.163C71.7157 416.163 68.3819 412.842 68.3819 408.772C68.3819 404.703 71.7157 401.382 75.8556 401.382C79.9955 401.382 83.3292 404.703 83.3292 408.772Z" fill="white" stroke="black" stroke-width="2.76389"/>
<path d="M83.3292 490.773C83.3292 494.842 79.9955 498.163 75.8556 498.163C71.7157 498.163 68.3819 494.842 68.3819 490.773C68.3819 486.703 71.7157 483.382 75.8556 483.382C79.9955 483.382 83.3292 486.703 83.3292 490.773Z" fill="white" stroke="black" stroke-width="2.76389"/>
<path d="M83.3292 574.773C83.3292 578.842 79.9955 582.163 75.8556 582.163C71.7157 582.163 68.3819 578.842 68.3819 574.773C68.3819 570.703 71.7157 567.382 75.8556 567.382C79.9955 567.382 83.3292 570.703 83.3292 574.773Z" fill="white" stroke="black" stroke-width="2.76389"/>
</svg>
