<?xml version="1.0" encoding="UTF-8"?>
<svg xmlns="http://www.w3.org/2000/svg" viewBox="0 0 935.86 522.35">
  <defs>
    <style>
      .cls-1 {
        fill: #7c7c7c;
      }

      .cls-1, .cls-2, .cls-3, .cls-4, .cls-5, .cls-6, .cls-7, .cls-8, .cls-9, .cls-10, .cls-11, .cls-12, .cls-13, .cls-14, .cls-15, .cls-16, .cls-17, .cls-18, .cls-19, .cls-20, .cls-21, .cls-22, .cls-23, .cls-24, .cls-25, .cls-26, .cls-27, .cls-28, .cls-29, .cls-30, .cls-31, .cls-32, .cls-33, .cls-34, .cls-35, .cls-36, .cls-37, .cls-38, .cls-39, .cls-40, .cls-41, .cls-42, .cls-43, .cls-44, .cls-45, .cls-46, .cls-47, .cls-48, .cls-49, .cls-50, .cls-51, .cls-52, .cls-53, .cls-54, .cls-55, .cls-56, .cls-57, .cls-58, .cls-59, .cls-60, .cls-61, .cls-62, .cls-63, .cls-64, .cls-65, .cls-66, .cls-67, .cls-68, .cls-69, .cls-70, .cls-71, .cls-72, .cls-73, .cls-74, .cls-75, .cls-76, .cls-77, .cls-78, .cls-79, .cls-80, .cls-81, .cls-82, .cls-83, .cls-84, .cls-85, .cls-86, .cls-87, .cls-88, .cls-89, .cls-90, .cls-91, .cls-92, .cls-93, .cls-94, .cls-95, .cls-96, .cls-97, .cls-98, .cls-99, .cls-100, .cls-101, .cls-102, .cls-103, .cls-104, .cls-105, .cls-106, .cls-107, .cls-108, .cls-109, .cls-110, .cls-111, .cls-112, .cls-113, .cls-114, .cls-115, .cls-116, .cls-117, .cls-118, .cls-119, .cls-120, .cls-121, .cls-122 {
        stroke-width: 0px;
      }

      .cls-2 {
        fill: #999;
      }

      .cls-3 {
        fill: #a3a3a3;
      }

      .cls-4 {
        fill: #2f2b28;
      }

      .cls-5 {
        fill: #717070;
      }

      .cls-6 {
        fill: #70727c;
      }

      .cls-7 {
        fill: #46403d;
      }

      .cls-8 {
        fill: #502c19;
      }

      .cls-9 {
        fill: #c6b5a7;
      }

      .cls-10 {
        fill: #666;
      }

      .cls-11 {
        fill: #919191;
      }

      .cls-12 {
        fill: #414141;
      }

      .cls-13 {
        fill: #e2cfba;
      }

      .cls-14 {
        fill: #b2b2b2;
      }

      .cls-15 {
        fill: #1d1c1a;
      }

      .cls-123 {
        font-family: DNPShueiMGoStd-B-90ms-RKSJ-H, 'DNP ShueiMGoStd';
      }

      .cls-123, .cls-124 {
        font-size: 12px;
      }

      .cls-123, .cls-124, .cls-71, .cls-125 {
        fill: #fff;
      }

      .cls-124 {
        font-family: DNPShueiMGoStd-L-90ms-RKSJ-H, 'DNP ShueiMGoStd';
      }

      .cls-16 {
        fill: #968372;
      }

      .cls-17 {
        fill: #d8c7ba;
      }

      .cls-18 {
        fill: #6a6a6a;
      }

      .cls-19 {
        fill: #c7c5c6;
      }

      .cls-20 {
        fill: #2a2624;
      }

      .cls-21 {
        fill: #afa195;
      }

      .cls-22 {
        fill: #848484;
      }

      .cls-23 {
        fill: #646670;
      }

      .cls-24 {
        fill: #494548;
      }

      .cls-25 {
        fill: #46403a;
      }

      .cls-26 {
        fill: #d8c1ab;
      }

      .cls-126 {
        stroke: #828282;
      }

      .cls-126, .cls-127, .cls-128, .cls-129 {
        stroke-miterlimit: 10;
      }

      .cls-126, .cls-129 {
        fill: none;
      }

      .cls-27 {
        fill: #252525;
      }

      .cls-28 {
        fill: #a89e94;
      }

      .cls-29 {
        fill: #502f19;
      }

      .cls-30 {
        fill: #bababa;
      }

      .cls-31 {
        fill: #252221;
      }

      .cls-32 {
        fill: #e6e6e6;
      }

      .cls-33 {
        fill: #2a2826;
      }

      .cls-34 {
        fill: #f4e0cb;
      }

      .cls-35 {
        fill: #201e1d;
      }

      .cls-36 {
        fill: #29abe2;
      }

      .cls-37 {
        fill: #e0e0e0;
      }

      .cls-38 {
        fill: #323232;
      }

      .cls-130 {
        letter-spacing: .25em;
      }

      .cls-39 {
        fill: #939393;
      }

      .cls-40 {
        fill: #b7906a;
      }

      .cls-41 {
        fill: #c4c4c4;
      }

      .cls-127 {
        fill: #707070;
      }

      .cls-127, .cls-129 {
        stroke: #878787;
      }

      .cls-42 {
        fill: #6b6b6b;
      }

      .cls-43 {
        fill: #909090;
      }

      .cls-44 {
        fill: #bf9c7f;
      }

      .cls-45 {
        fill: #343434;
      }

      .cls-46 {
        fill: #9b9b9b;
      }

      .cls-47 {
        fill: #272423;
      }

      .cls-48 {
        fill: #272421;
      }

      .cls-49 {
        fill: #777;
      }

      .cls-50 {
        fill: #edd7c5;
      }

      .cls-51 {
        fill: #39456b;
      }

      .cls-52 {
        fill: gray;
      }

      .cls-53 {
        fill: #ddd;
      }

      .cls-54 {
        fill: #b3b3b3;
      }

      .cls-55 {
        fill: #232323;
      }

      .cls-56 {
        fill: #ccbaaa;
      }

      .cls-57 {
        fill: #333;
      }

      .cls-58 {
        fill: #bfbfbf;
      }

      .cls-59 {
        fill: #514a42;
      }

      .cls-60 {
        fill: #7dd9ef;
      }

      .cls-61 {
        fill: #ccc;
      }

      .cls-62 {
        fill: #444651;
      }

      .cls-63 {
        fill: #ffe9cf;
      }

      .cls-64 {
        fill: #c8c6c6;
      }

      .cls-65 {
        fill: #494949;
      }

      .cls-66 {
        fill: #595b63;
      }

      .cls-67 {
        fill: #eddcce;
      }

      .cls-68 {
        fill: #997c3c;
      }

      .cls-69 {
        fill: #24201c;
      }

      .cls-70 {
        fill: #373737;
      }

      .cls-72 {
        fill: #aba9aa;
      }

      .cls-73 {
        fill: #3f3935;
      }

      .cls-74 {
        fill: #cecccd;
      }

      .cls-75 {
        fill: #a0a0a0;
      }

      .cls-76 {
        fill: #bfac9b;
      }

      .cls-77 {
        fill: #d8c5b8;
      }

      .cls-78 {
        fill: #d5d5d5;
      }

      .cls-79 {
        fill: #ccaa92;
      }

      .cls-80 {
        fill: #4c4c4c;
      }

      .cls-81 {
        fill: #e2e2e2;
      }

      .cls-82 {
        fill: #6a749e;
      }

      .cls-83 {
        fill: #272727;
      }

      .cls-84 {
        fill: #d1d1d1;
      }

      .cls-85 {
        fill: #7a7c84;
      }

      .cls-86 {
        fill: #9e764f;
      }

      .cls-87 {
        fill: #bcb2aa;
      }

      .cls-88 {
        fill: #0e111a;
      }

      .cls-89 {
        fill: #a5a5a5;
      }

      .cls-90 {
        fill: #f4f4f4;
      }

      .cls-91 {
        fill: #c6bcb5;
      }

      .cls-92 {
        fill: #292826;
      }

      .cls-93 {
        fill: #565656;
      }

      .cls-94 {
        fill: #777b7f;
      }

      .cls-95 {
        fill: #2a2725;
      }

      .cls-128 {
        fill: #f7f7f7;
        stroke: #a8a8a8;
      }

      .cls-96 {
        fill: #f9e3ca;
      }

      .cls-97 {
        fill: #d6d6d6;
      }

      .cls-98 {
        fill: #754524;
      }

      .cls-99 {
        fill: #a88051;
      }

      .cls-100 {
        fill: #ffc200;
      }

      .cls-125 {
        font-family: MeiryoUI-Bold, 'Meiryo UI';
        font-size: 31px;
        font-weight: 700;
      }

      .cls-101 {
        fill: #baaa9e;
      }

      .cls-102 {
        fill: #535560;
      }

      .cls-103 {
        fill: #797c7f;
      }

      .cls-104 {
        fill: #bcaa9b;
      }

      .cls-105 {
        fill: #212121;
      }

      .cls-106 {
        fill: #292929;
      }

      .cls-107 {
        fill: #afafaf;
      }

      .cls-108 {
        fill: #2a2a22;
      }

      .cls-109 {
        fill: #888b91;
      }

      .cls-110 {
        fill: #eaeaea;
      }

      .cls-111 {
        fill: #636363;
      }

      .cls-112 {
        fill: #959595;
      }

      .cls-113 {
        fill: #e2cfc0;
      }

      .cls-114 {
        fill: #6f819e;
      }

      .cls-115 {
        fill: #e5d3c3;
      }

      .cls-116 {
        fill: #503419;
      }

      .cls-117 {
        fill: #ead6c1;
      }

      .cls-118 {
        fill: #757575;
      }

      .cls-119 {
        fill: #efefef;
      }

      .cls-120 {
        fill: #20201a;
      }

      .cls-121 {
        fill: #5b5b5b;
      }

      .cls-122 {
        fill: #576893;
      }
    </style>
  </defs>
  <g id="_その他棟" data-name="その他棟">
    <g id="_移動_足なし" data-name="移動２足なし">
      <g id="_レイヤー_99" data-name="レイヤー 99">
        <g id="C実習棟のコピー_3" data-name="C実習棟のコピー 3">
          <g>
            <path class="cls-48" d="m709.64,222.43l.02,17.72h19.46s-.49-19.72-.49-20.72-19,3-19,3Z"/>
            <polygon class="cls-73" points="667.64 299.29 757.2 248.26 756.23 291.35 667.64 341.37 667.64 299.29"/>
            <polygon class="cls-48" points="637.64 281.43 668.37 299.29 668.37 344.43 637.66 297.75 637.64 281.43"/>
            <polygon class="cls-73" points="647.66 342.47 653.37 353.76 665.64 345.45 665.64 314.43 639.73 329.43 639.98 341.37 647.66 342.47"/>
            <polygon class="cls-69" points="557.89 315.75 611.64 344.43 606.64 346.43 557.77 319.92 557.89 315.75"/>
            <polygon class="cls-88" points="557.64 308.43 617.39 339.92 610.68 343.84 557.89 315.75 557.64 308.43"/>
            <polygon class="cls-59" points="552.64 282.43 630.64 327.43 625.64 329.43 547.86 284.55 552.64 282.43"/>
            <polygon class="cls-48" points="547.86 293.96 547.86 284.55 625.64 329.43 625.64 333.43 555.43 294.04 555.43 297.75 547.86 293.96"/>
            <path class="cls-48" d="m615.64,340.43c-2.33-1.33-4.67-2.67-7-4v9l-2,1v-11l-4-3v17l-3-2v-16l-5-3v17l-3-1v-17l-4-3v17l-3-1-.02-16.84-3.98-3.16v17l-3-2v-16l-4-3-.64,16.4-3.51-1.3v-16.6l-3.85-2.51v17l-4.15-1.85v-16.6l-3.43-1.44-.43,14.88-2,1-.22-27.68c27.41,14.23,42.81,23.45,70.22,37.68v5"/>
            <polygon class="cls-88" points="551.45 295.75 551.64 291.55 625.64 333.43 630.64 331.54 630.64 335.37 625.64 337.16 551.45 295.75"/>
            <polygon class="cls-73" points="630.64 327.43 630.64 331.54 625.64 333.43 625.64 329.43 630.64 327.43"/>
            <polygon class="cls-73" points="637.64 342.43 637.64 338.31 630.64 335.37 625.64 337.16 625.64 340.22 637.64 342.43"/>
            <polygon class="cls-48" points="557.64 303.67 619.64 339.43 617.39 341.37 556.71 308.99 557.64 303.67"/>
            <polygon class="cls-59" points="586.75 269.15 559.15 284.02 641.43 329.43 667.35 314.43 586.75 269.15"/>
            <polygon class="cls-48" points="641.69 341.37 641.43 329.43 559.15 284.02 559.15 286.19 630.64 327.43 630.64 335.37 637.64 341.21 641.69 341.37"/>
            <polygon class="cls-73" points="649.81 324.58 650.39 347.87 651.91 350.87 651.91 323.37 649.81 324.58"/>
            <polygon class="cls-73" points="641.69 339.22 667.35 325.13 667.35 327.86 641.69 342.28 641.69 339.22"/>
            <polygon class="cls-73" points="647.64 342.43 667.24 331.88 667.24 334.6 648.64 344.43 647.64 342.43"/>
            <polygon class="cls-73" points="650.64 347.43 667.24 338.88 667.24 341.6 651.64 350.43 650.64 347.43"/>
            <polygon class="cls-59" points="637.64 281.43 719.64 234.43 722.64 236.43 727.64 233.43 709.64 222.43 731.64 209.43 770.64 232.43 750.64 244.43 756.64 248.43 668.37 299.29 637.64 281.43"/>
            <polygon class="cls-73" points="671.54 303.22 671.54 342.67 668.64 344.45 668.64 304.61 671.54 303.22"/>
            <path class="cls-73" d="m722.64,303.16c-.58,1.6-1.4,2.59-2,3.17-2.62,2.51-6.89,2.84-11,1.06v-4.23l13-7.4v7.4Z"/>
            <path class="cls-73" d="m722.64,294.16c-.58,1.6-1.4,2.59-2,3.17-2.62,2.51-6.89,2.84-11,1.06v-4.23l13-7.4v7.4Z"/>
            <path class="cls-73" d="m722.64,285.08c-.58,1.6-1.4,2.59-2,3.17-2.62,2.51-6.89,2.84-11,1.06v-4.23l13-7.4v7.4Z"/>
          </g>
        </g>
        <g id="D教職員共通棟のコピー_3" data-name="D教職員共通棟のコピー 3">
          <g>
            <polygon class="cls-106" points="597.48 350.67 596.08 354.42 604.48 371.67 606.48 366.67 597.48 350.67"/>
            <polygon class="cls-38" points="636.48 376.67 604.48 371.67 606.48 366.67 636.48 370.67 636.48 376.67"/>
            <polygon class="cls-70" points="658.48 363.67 636.48 376.67 636.48 370.67 656.08 358.67 658.48 363.67"/>
            <polygon class="cls-47" points="596.08 354.42 596.08 384.67 598.33 384.67 598.33 364.67 603.27 374.91 603.27 395.93 604.48 397.63 604.48 371.67 596.08 354.42"/>
            <polygon class="cls-20" points="608.48 397.67 608.48 378.39 632.21 381.67 632.21 401.54 636.48 401.54 636.48 376.67 604.48 371.67 604.48 397.63 608.48 397.67"/>
            <polygon class="cls-73" points="638.48 400.67 638.48 380.95 656.08 371.67 656.08 390.65 658.48 388.44 658.48 363.67 636.48 376.67 636.48 401.54 638.48 400.67"/>
            <polygon class="cls-88" points="598.33 364.67 603.27 374.91 603.27 380.78 598.33 371.67 598.33 364.67"/>
            <polygon class="cls-47" points="598.33 378.57 598.33 371.67 603.27 380.78 603.27 386.61 598.33 378.57"/>
            <polygon class="cls-47" points="608.48 378.39 608.48 386.61 632.21 390.14 632.21 381.67 608.48 378.39"/>
            <path class="cls-33" d="m598.33,363.67v1l4.94,10.23c.07-.08.14-.16.21-.23-1.72-3.67-3.43-7.33-5.15-11Z"/>
            <polygon class="cls-33" points="608.48 377.63 608.48 378.39 632.48 381.67 632.48 381.03 608.48 377.63"/>
            <polygon class="cls-33" points="638.48 380.95 656.08 371.67 656.08 380.52 638.48 390.14 638.48 380.95"/>
            <polygon class="cls-15" points="638.48 380.35 638.48 380.95 656.08 371.67 656.08 371.16 638.48 380.35"/>
            <rect class="cls-92" x="615.36" y="379.14" width=".96" height="7.74"/>
            <rect class="cls-92" x="623.17" y="380.41" width=".96" height="7.74"/>
            <polygon class="cls-69" points="608.48 386.61 632.21 390.14 632.21 396.99 608.48 393.59 608.48 386.61"/>
            <polygon class="cls-69" points="638.48 390.14 638.48 395.88 656.08 383.95 656.08 380.52 638.48 390.14"/>
            <polyline class="cls-59" points="647.48 341.67 656.08 358.67 636.48 370.67 606.48 366.67 597.48 350.67 618.93 338.17"/>
          </g>
        </g>
        <g id="E研究棟のコピー_3" data-name="E研究棟のコピー 3">
          <g>
            <polygon class="cls-73" points="897.86 208.26 935.86 186.13 935.86 215.71 897.64 238.73 897.86 208.26"/>
            <polygon class="cls-73" points="782.64 263.43 898.32 195.41 897.45 238.52 782.64 304.94 782.64 263.43"/>
            <path class="cls-88" d="m765.64,250.43c.71.39,2.42,1.6,5,3,4.05,2.2,9.68,8.74,12,10v44l-12-6.72-4.92-2.75-.08-47.53Z"/>
            <polygon class="cls-48" points="770.64 253.43 770.64 300.72 782.64 307.43 782.64 263.43 770.64 253.43"/>
            <path class="cls-73" d="m857.64,254.4c-.58,1.6-1.4,2.59-2,3.17-2.62,2.51-6.89,2.84-11,1.06v-4.23l13-7.4v7.4Z"/>
            <path class="cls-73" d="m857.64,245.4c-.58,1.6-1.4,2.59-2,3.17-2.62,2.51-6.89,2.84-11,1.06v-4.23l13-7.4v7.4Z"/>
            <path class="cls-73" d="m857.64,236.31c-.58,1.6-1.4,2.59-2,3.17-2.62,2.51-6.89,2.84-11,1.06v-4.23l13-7.4v7.4Z"/>
            <polygon class="cls-73" points="784.83 261.43 784.83 305.31 782.64 307.43 782.64 261.97 784.83 261.43"/>
            <path class="cls-59" d="m811.64,247.43l86-51-32-19c-38.33,22.33-76.67,44.67-115,67,10.67,6.33,21.33,12.67,32,19l25-14"/>
            <polygon class="cls-25" points="935.86 186.13 884.55 155.67 856.64 172.43 897.64 196.43 897.86 208.26 935.86 186.13"/>
            <polygon class="cls-48" points="856.64 172.43 865.64 177.43 856.64 182.71 856.64 172.43"/>
            <path class="cls-59" d="m772.33,216.43l-16.15,9.16,13.09,7.36c-6.21,3.83-12.42,7.66-18.63,11.49,2,1.33,4,2.67,6,4,10.67-7.43,21.33-14.86,32-22.29l-16.31-9.71Z"/>
            <polygon class="cls-48" points="765.72 238.78 765.72 297.96 756.54 293.42 756.64 248.47 750.64 244.47 762.39 237.43 765.72 238.78"/>
            <polygon class="cls-73" points="789.64 226.43 789.64 242.62 765.72 255.22 765.72 239.73 789.64 226.43"/>
          </g>
        </g>
        <g id="H体育館のコピー_4" data-name="H体育館のコピー 4">
          <g id="H体育館">
            <polygon class="cls-95" points="350.85 119.24 430.61 72.15 430.61 86.15 363.2 126.53 350.85 119.24"/>
            <polygon class="cls-25" points="346.01 116.15 350.85 119.24 430.61 72.15 425.61 69.15 346.01 116.15"/>
            <polygon class="cls-95" points="358.48 118.2 358.75 123.9 353.55 120.75 358.48 118.2"/>
            <polygon class="cls-48" points="298.61 67.15 298.61 50.87 362.4 88.08 362.4 106.31 361.61 106.94 361.4 103.31 340.31 89.93 326.61 99.15 319.61 94.84 319.61 79.6 298.61 67.15"/>
            <polygon class="cls-95" points="362.4 106.31 425.61 69.15 425.61 64.49 431.61 61.15 431.61 46.58 362.4 88.08 362.4 106.31"/>
            <polygon class="cls-59" points="298.61 50.87 368.61 10.15 431.61 46.58 362.4 88.08 298.61 50.87"/>
            <polygon class="cls-95" points="414.61 61.15 414.61 74.26 412.61 75.15 412.61 62.28 414.61 61.15"/>
            <polygon class="cls-95" points="407.61 64.87 407.61 77.98 405.61 78.87 405.61 66 407.61 64.87"/>
            <polygon class="cls-95" points="400.61 68.87 400.61 81.98 398.61 82.87 398.61 70 400.61 68.87"/>
            <polygon class="cls-95" points="393.61 74.01 393.61 87.12 391.61 88.01 391.61 75.14 393.61 74.01"/>
            <polygon class="cls-95" points="386.61 77.74 386.61 90.84 384.61 91.74 384.61 78.86 386.61 77.74"/>
            <polygon class="cls-95" points="379.61 81.74 379.61 94.84 377.61 95.74 377.61 82.86 379.61 81.74"/>
            <polygon class="cls-95" points="371.81 85.87 371.81 98.98 368.61 99.87 368.61 87 371.81 85.87"/>
            <polygon class="cls-48" points="425.61 64.49 437.69 72.15 437.69 96.96 435.25 95.74 435.25 88.01 430.61 86.15 430.61 72.15 425.61 69.15 425.61 64.49"/>
            <polygon class="cls-25" points="378.2 15.69 391.61 8.15 469.65 54.11 437.69 72.15 425.61 64.49 431.61 61.15 431.61 46.58 378.2 15.69"/>
            <polygon class="cls-95" points="437.69 72.15 469.65 54.11 469.65 71.87 437.69 88.74 437.69 72.15"/>
            <polygon class="cls-95" points="440.4 76.29 440.4 95.72 437.72 97.29 437.72 77.43 440.4 76.29"/>
          </g>
        </g>
        <g id="L合同棟のコピー_3" data-name="L合同棟のコピー 3">
          <g>
            <polygon class="cls-48" points="560.1 174.9 560.1 189.5 567.64 185.28 581.64 194.43 581.64 218.73 605.9 232.88 620.64 223.43 622.64 211.43 560.1 174.9"/>
            <polygon class="cls-73" points="589.64 248.43 581.64 253.96 581.64 271.9 586.75 269.15 589.64 270.77 589.64 248.43"/>
            <polygon class="cls-48" points="613.64 261.43 589.64 248.43 589.64 270.77 613.64 284.55 613.64 261.43"/>
            <polygon class="cls-73" points="615.81 260.17 690.64 216.43 690.64 248.43 621.36 288.59 615.81 285.48 615.81 260.17"/>
            <polygon class="cls-7" points="613.64 261.43 616.28 259.92 616.28 286.04 613.64 284.55 613.64 261.43"/>
            <polygon class="cls-31" points="613.64 261.43 614.23 261.1 614.23 284.88 613.64 284.55 613.64 261.43"/>
            <polygon class="cls-35" points="599.22 197.75 599.9 198.15 599.9 229.38 599.22 228.83 599.22 197.75"/>
            <path class="cls-59" d="m581.64,253.96l8-5.53,24,13,77-45-102-59-28.54,17.47,62.54,36.53c-.23.14-4.08,2.64-4,7,.05,2.63,1.51,4.44,2,5l-39,25v5.53Z"/>
            <polygon class="cls-4" points="599.22 197.75 599.22 228.83 596.95 227.66 596.95 196.43 599.22 197.75"/>
            <polygon class="cls-4" points="578.64 185.73 578.64 192.47 580.54 193.71 580.54 186.84 578.64 185.73"/>
            <polygon class="cls-35" points="581.19 187.22 581.19 194.14 580.54 193.71 580.54 186.84 581.19 187.22"/>
            <polygon class="cls-4" points="560.1 174.9 560.1 189.5 561.89 188.5 561.89 175.95 560.1 174.9"/>
            <polygon class="cls-35" points="561.89 175.95 562.64 176.38 562.64 188.08 561.89 188.5 561.89 175.95"/>
          </g>
        </g>
        <g id="K生物_医薬品工学研究センターのコピー_3" data-name="K生物・医薬品工学研究センターのコピー 3">
          <g id="K生物_医薬品工学研究センター" data-name="K生物・医薬品工学研究センター">
            <polygon class="cls-73" points="485.47 118.96 485.31 146.73 497.48 154.05 591.39 99.56 591.39 55.65 485.47 118.96"/>
            <polygon class="cls-59" points="454.59 100.84 485.47 118.96 591.39 55.56 560.39 38.56 454.59 100.84"/>
            <polygon class="cls-48" points="454.59 136.33 454.59 100.84 485.47 118.96 485.31 146.73 473.39 139.56 469.35 143.34 469.81 154.83 466.39 152.56 466.39 135.56 461.44 132.06 454.59 136.33"/>
            <polygon class="cls-25" points="505.99 47.34 525.41 59.15 489.37 80.36 470.07 68.02 505.99 47.34"/>
            <polygon class="cls-48" points="470.07 68.02 470.03 91.75 489.37 80.36 470.07 68.02"/>
            <polygon class="cls-12" points="461.44 132.06 433.22 150.39 438.07 153.4 466.39 135.56 461.44 132.06"/>
            <polygon class="cls-83" points="466.39 135.56 438.07 153.4 447.22 159.08 466.39 146.89 466.39 135.56"/>
            <polygon class="cls-83" points="450.23 156.61 450.23 160.95 447.71 159.39 447.71 157.12 450.23 156.61"/>
            <polygon class="cls-83" points="458.99 143.6 458.99 151.69 453.99 153.24 453.99 144.23 458.99 143.6"/>
            <polygon class="cls-83" points="448.1 148.6 448.1 156.69 445.8 158.24 445.8 149.23 448.1 148.6"/>
          </g>
        </g>
        <g id="M生物工学科棟のコピー_3" data-name="M生物工学科棟のコピー 3">
          <g id="M生物工学棟">
            <polygon class="cls-73" points="557.14 158.4 557.14 192.03 559.94 190.46 559.94 175.87 588.48 158.4 610.36 171.06 664.48 139.4 664.48 96.4 557.14 158.4"/>
            <polygon class="cls-48" points="526.48 140.4 557.14 158.4 557.14 183.95 526.48 165.74 526.48 140.4"/>
            <polygon class="cls-73" points="571.2 150.28 571.2 168.69 573.5 167.57 573.83 148.76 571.2 150.28"/>
            <polygon class="cls-73" points="580.93 144.7 580.93 163.11 583.23 161.99 583.56 143.18 580.93 144.7"/>
            <polygon class="cls-73" points="593.48 137.49 593.48 161.29 590.76 159.72 590.76 138.98 593.48 137.49"/>
            <polygon class="cls-73" points="603.01 131.9 603.01 166.81 600.99 165.3 600.99 133.07 603.01 131.9"/>
            <polygon class="cls-73" points="609.92 127.91 609.92 170.25 610.36 171.06 612.39 169.87 612.39 126.49 609.92 127.91"/>
            <polygon class="cls-73" points="620.04 121.65 620.04 164.98 622.55 163.51 622.55 120.19 620.04 121.65"/>
            <polygon class="cls-73" points="629.99 116.21 629.99 159.54 632.51 158.06 632.51 114.75 629.99 116.21"/>
            <polygon class="cls-73" points="639.99 110.21 639.99 153.54 642.51 152.06 642.51 108.75 639.99 110.21"/>
            <polygon class="cls-73" points="648.99 105.21 648.99 148.54 651.51 147.06 651.51 103.75 648.99 105.21"/>
            <polygon class="cls-59" points="557.14 158.4 664.48 96.4 633.48 79.4 526.48 140.4 557.14 158.4"/>
            <polygon class="cls-83" points="557.14 183.95 557.14 192.03 552.4 194.68 552.4 186.25 557.14 183.95"/>
            <polygon class="cls-55" points="552.4 186.25 526.48 171.4 526.48 183.89 552.4 197.91 552.4 186.25"/>
            <polygon class="cls-55" points="550.14 184.7 550.14 203.69 552.19 204.65 552.2 185.65 550.14 184.7"/>
            <path class="cls-12" d="m557.14,183.95l-4.74,2.3c-8.64-4.95-17.28-9.9-25.92-14.85-1.67,1-3.33,2-5,3l-52.04-31.22,4.04-3.78,48.68,29.29,4.32-2.95,30.66,18.21Z"/>
            <polygon class="cls-55" points="541.14 181.05 541.14 189.85 542.8 190.3 542.8 181.49 541.14 181.05"/>
            <polygon class="cls-55" points="533.14 178.05 533.14 186.85 534.8 187.3 534.8 178.49 533.14 178.05"/>
            <polygon class="cls-83" points="526.48 171.4 521.48 174.4 521.48 193.03 524.84 191.45 524.84 184.66 526.48 183.89 526.48 171.4"/>
            <polygon class="cls-55" points="521.48 174.4 469.44 143.18 469.99 156.97 521.48 186.25 521.48 174.4"/>
            <polygon class="cls-55" points="510.56 170.88 510.56 179.89 512.22 180.35 512.23 171.33 510.56 170.88"/>
            <polygon class="cls-55" points="518.56 173.88 518.56 182.89 520.22 183.35 520.23 174.33 518.56 173.88"/>
            <polygon class="cls-55" points="500.48 163.88 500.48 172.89 504.21 173.35 504.23 164.33 500.48 163.88"/>
            <polygon class="cls-55" points="494.56 160.88 494.56 169.89 496.22 170.35 496.23 161.33 494.56 160.88"/>
            <polygon class="cls-55" points="485.56 155.88 485.56 164.89 487.22 165.35 487.23 156.33 485.56 155.88"/>
            <polygon class="cls-55" points="477.56 150.88 477.56 159.89 479.22 160.35 479.23 151.33 477.56 150.88"/>
            <polygon class="cls-55" points="519.39 184.66 519.39 191.45 521.48 193.03 521.48 186.25 519.39 184.66"/>
          </g>
        </g>
      </g>
      <g id="_レイヤー_40のコピー_3" data-name="レイヤー 40のコピー 3">
        <g id="Qパステル工房のコピー_3" data-name="Qパステル工房のコピー 3">
          <polygon class="cls-45" points="271.03 397.93 282.01 407.61 322.01 383.82 310.01 374.61 271.03 397.93"/>
          <polygon class="cls-27" points="271.03 397.93 259.2 394.52 299.28 371.78 310.01 374.61 271.03 397.93"/>
          <polygon class="cls-108" points="282.01 407.61 282.01 415.59 322.01 392.27 322.01 383.82 282.01 407.61"/>
          <polygon class="cls-120" points="259.2 394.52 259.2 403.16 282.01 415.59 282.01 407.61 271.03 397.93 259.2 394.52"/>
          <polygon class="cls-45" points="219.56 428.62 230.54 438.3 270.54 414.51 258.54 405.3 219.56 428.62"/>
          <polygon class="cls-27" points="219.56 428.62 207.73 425.22 247.81 402.47 258.54 405.3 219.56 428.62"/>
          <polygon class="cls-108" points="230.54 438.3 230.54 446.28 270.54 422.96 270.54 414.51 230.54 438.3"/>
          <polygon class="cls-120" points="207.73 425.22 207.73 433.85 230.54 446.28 230.54 438.3 219.56 428.62 207.73 425.22"/>
          <polygon class="cls-27" points="215.01 441.61 206.01 438.61 178.01 455.61 188.01 458.61 215.01 441.61"/>
          <polygon class="cls-45" points="188.01 458.61 198.01 466.61 226.01 449.61 215.01 441.61 188.01 458.61"/>
          <polygon class="cls-120" points="178.01 455.61 178.01 463.33 198.01 474.61 198.01 466.61 188.01 458.61 178.01 455.61"/>
          <polygon class="cls-108" points="198.01 466.61 226.01 449.61 226.01 457.61 198.01 474.61 198.01 466.61"/>
          <polygon class="cls-45" points="166.01 400.61 176.01 409.61 280.01 349.61 268.01 339.61 166.01 400.61"/>
          <polygon class="cls-27" points="166.01 400.61 154.01 396.61 257.01 335.61 268.01 339.61 166.01 400.61"/>
          <polygon class="cls-108" points="176.01 409.61 176.01 419.61 280.01 359.61 280.01 349.61 176.01 409.61"/>
          <polygon class="cls-120" points="154.01 396.61 154.01 406.31 176.01 419.61 176.01 409.61 166.01 400.61 154.01 396.61"/>
          <polygon class="cls-45" points="67.06 389.92 81.26 402.56 229.01 318.28 211.96 304.23 67.06 389.92"/>
          <polygon class="cls-27" points="67.06 389.92 50.01 384.3 196.33 298.61 211.96 304.23 67.06 389.92"/>
          <polygon class="cls-108" points="81.26 402.56 81.26 416.61 229.01 332.32 229.01 318.28 81.26 402.56"/>
          <polygon class="cls-120" points="50.01 384.3 50.01 397.93 81.26 416.61 81.26 402.56 67.06 389.92 50.01 384.3"/>
          <polygon class="cls-108" points="157.75 403.32 154.01 404.14 150.73 407.97 150.73 413.8 157.75 409.61 157.75 403.32"/>
          <polygon class="cls-70" points="157.75 403.32 154.01 404.14 122.01 385.61 126.48 385.61 157.75 403.32"/>
          <polygon class="cls-105" points="150.73 407.97 154.01 404.14 122.01 385.61 118.31 389.67 150.73 407.97"/>
          <polygon class="cls-120" points="118.31 389.67 118.31 394.87 150.73 413.8 150.73 407.97 118.31 389.67"/>
          <polygon class="cls-45" points="137.69 400.61 99.01 422.61 89.01 417.61 127.52 394.87 137.69 400.61"/>
          <polygon class="cls-108" points="99.01 422.61 99.01 430.82 137.69 409.61 137.69 400.61 99.01 422.61"/>
          <polygon class="cls-120" points="89.01 417.61 89.01 425.71 99.01 430.82 99.01 422.61 89.01 417.61"/>
        </g>
      </g>
    </g>
  </g>
  <g id="_周辺棟" data-name="周辺棟">
    <g id="_移動のコピー" data-name="移動のコピー">
      <g id="G厚生棟のコピー_5" data-name="G厚生棟のコピー 5">
        <polygon class="cls-32" points="243.91 113.07 251.02 108.94 283.02 127.34 282.41 166.62 274.88 171.88 274.94 131.19 243.91 113.07"/>
        <polygon class="cls-77" points="302.29 154.34 302.56 138.82 282.68 150.21 282.43 165.83 302.29 154.34"/>
        <g id="G厚生棟">
          <polygon class="cls-101" points="242.89 109.05 242.89 124.63 246.23 122.76 246.23 119.2 242.89 109.05"/>
          <polygon class="cls-122" points="287.5 152.85 287.5 157.26 302.26 148.98 302.56 143.85 287.5 152.85"/>
          <polygon class="cls-77" points="320.23 78.92 320.23 94.89 307.06 86.79 320.23 78.92"/>
          <polygon class="cls-77" points="362.23 103.49 362.23 107.26 339.65 120.2 339.65 133.2 319.62 144.41 319.85 129.33 362.23 103.49"/>
          <polygon class="cls-77" points="339.65 133.2 339.65 140.4 336.93 142.02 336.93 134.72 339.65 133.2"/>
          <polygon class="cls-77" points="331.89 136.92 331.89 144.11 329.17 145.74 329.17 138.44 331.89 136.92"/>
          <polygon class="cls-77" points="324.89 140.92 324.89 148.11 322.17 149.74 322.17 142.44 324.89 140.92"/>
          <polygon class="cls-122" points="322.17 133.2 322.17 137.61 336.93 129.33 337.23 124.2 322.17 133.2"/>
          <polygon class="cls-77" points="328.23 128 328.23 135.2 326.98 136.82 326.98 129.52 328.23 128"/>
          <polygon class="cls-77" points="333.23 125 333.23 132.2 331.98 133.82 331.98 126.52 333.23 125"/>
          <path class="cls-34" d="m340.31,89.93l-13.44,9.05-19.8-12.18,13.17-7.86c-2.5-1.66-6.27-4.06-11-6.72-5.1-2.87-7.65-4.3-10-5-1.81-.54-3.64-.71-5.62-.52-4.3.42-9.31,2.58-16.38,6.52-21.33,11.88-32,17.81-34,29-.56,3.14-.92,9.04,3,17l-1.93-6.37,6.72-3.91h0l32,18.4-.34,22.88,19.88-11.39,17.29-9.49,42.38-25.84-21.92-13.56Z"/>
          <polygon class="cls-77" points="302.56 138.82 319.85 129.33 319.62 144.41 302.29 154.59 302.56 138.82"/>
          <polygon class="cls-77" points="318.43 144.79 318.43 151.99 315.71 153.61 315.71 146.31 318.43 144.79"/>
          <polygon class="cls-77" points="311.44 149.2 311.44 156.39 308.72 158.02 308.72 150.72 311.44 149.2"/>
          <polygon class="cls-77" points="305.01 152.82 305.01 160.01 302.29 161.64 302.29 154.34 305.01 152.82"/>
          <polygon class="cls-77" points="298.29 156.44 298.29 163.63 295.57 165.26 295.57 157.96 298.29 156.44"/>
          <polygon class="cls-77" points="291.27 160.03 291.27 167.22 288.55 168.85 288.55 161.55 291.27 160.03"/>
          <polygon class="cls-77" points="285.15 163.89 285.15 171.08 282.43 172.71 282.43 165.41 285.15 163.89"/>
          <polygon class="cls-122" points="305.27 142.82 305.27 147.23 320.03 138.95 320.33 133.82 305.27 142.82"/>
          <polygon class="cls-77" points="311.33 137.62 311.33 144.82 310.08 146.44 310.08 139.14 311.33 137.62"/>
          <polygon class="cls-77" points="298.91 143.85 298.91 151.05 297.66 152.67 297.66 145.37 298.91 143.85"/>
          <polygon class="cls-77" points="293.3 147.48 293.3 154.68 292.05 156.3 292.05 149 293.3 147.48"/>
          <polygon class="cls-77" points="316.33 134.62 316.33 141.82 315.08 143.44 315.08 136.14 316.33 134.62"/>
        </g>
      </g>
      <g id="Fcopy">
        <g>
          <polygon class="cls-119" points="397 146.12 346.35 116.36 339.65 120.2 368.71 136.19 373 133.62 394.97 147.53 397 146.12"/>
          <polygon class="cls-30" points="339.65 120.2 339.65 131.95 363.09 145.44 368 142.62 368 136.62 368.71 136.19 339.65 120.2"/>
          <polygon class="cls-119" points="368.71 136.19 392.58 149.59 396.66 146.61 374.11 132.61 368.71 136.19"/>
          <polygon class="cls-30" points="363.09 145.44 381.31 155.91 392.58 149.59 368.71 136.19 368 136.62 368 137.69 367 139.62 366.74 139.92 369 141.25 369 144.62 366.62 143.41 363.09 145.44"/>
          <polygon class="cls-30" points="345.07 123.18 345 141.62 347 142.62 347 124.24 345.07 123.18"/>
          <polygon class="cls-30" points="351.32 126.99 351.24 145.43 353.24 146.43 353.24 128.05 351.32 126.99"/>
          <polygon class="cls-30" points="360.32 131.99 360.24 150.43 362.24 151.43 362.24 133.05 360.32 131.99"/>
          <polygon class="cls-30" points="370.32 137.99 370.24 156.43 372.24 157.43 372.24 139.05 370.32 137.99"/>
          <polygon class="cls-30" points="379.32 143.99 379.24 162.43 381.24 163.43 381.24 145.05 379.32 143.99"/>
          <polygon class="cls-51" points="353.5 132.07 353.5 135.64 359.5 139.21 359.5 135.64 353.5 132.07"/>
          <polygon class="cls-51" points="373 143.07 373 146.64 379 150.21 379 146.64 373 143.07"/>
          <polygon class="cls-51" points="382 148.07 382 151.64 388 155.21 388 151.64 382 148.07"/>
          <polygon class="cls-51" points="363 137.69 363 141.25 369 144.82 369 141.25 363 137.69"/>
          <polygon class="cls-51" points="344 126.17 344 129.74 350 133.31 350 129.74 344 126.17"/>
        </g>
        <g>
          <path class="cls-34" d="m503.29,233.07l-56.29-32.45,32-19,57,33c-10.9,6.15-21.81,12.3-32.71,18.45Z"/>
          <polygon class="cls-21" points="484.45 222.2 484.45 243.79 503.29 233.07 484.45 222.2"/>
          <polygon class="cls-9" points="484.45 222.2 447 200.62 447 232.62 484.45 253.02 484.45 222.2"/>
          <polygon class="cls-51" points="456 212.62 477.15 224.62 477.15 230.15 456 218.49 456 212.62"/>
          <polygon class="cls-51" points="455.94 222.15 477.08 234.15 477.08 239.68 455.94 228.02 455.94 222.15"/>
          <polygon class="cls-51" points="455.94 232.15 477.08 244.15 477.08 249.68 455.94 238.02 455.94 232.15"/>
          <polygon class="cls-51" points="448.94 228.15 470.08 240.15 470.08 245.68 448.94 234.02 448.94 228.15"/>
          <polygon class="cls-9" points="447 200.62 447 235.08 449.49 236.06 449.49 202.22 447 200.62"/>
          <polygon class="cls-9" points="453.27 204.89 453.27 239.36 455.75 240.34 455.75 206.5 453.27 204.89"/>
          <polygon class="cls-9" points="461.27 208.89 461.27 243.36 463.75 244.34 463.75 210.5 461.27 208.89"/>
          <polygon class="cls-9" points="469.27 213.89 469.27 248.36 471.75 249.34 471.75 215.5 469.27 213.89"/>
          <polygon class="cls-9" points="477.27 217.89 477.27 252.36 479.75 253.34 479.75 219.5 477.27 217.89"/>
          <polygon class="cls-115" points="449.49 199.14 438.25 192.12 433.32 195.63 447 203.68 447 200.62 449.49 199.14"/>
          <polygon class="cls-101" points="433.32 195.63 433 224.62 447 232.62 447 203.68 433.32 195.63"/>
          <polygon class="cls-34" points="422 154.62 403.07 166.15 403.07 187.12 422 197.13 458 176.62 422 154.62"/>
          <polygon class="cls-101" points="403.07 187.12 403.07 218.4 421.91 229.12 422 197.13 403.07 187.12"/>
          <polygon class="cls-50" points="458 176.62 458 194.09 449.49 199.14 438.25 192.12 433.32 195.63 433 224.62 421.91 229.12 422 197.13 458 176.62"/>
          <polyline class="cls-122" points="444 189.62 448.24 187.12 448.24 191.42 444 193.62 444 189.62"/>
          <polyline class="cls-122" points="451.24 185.61 455.48 183.11 455.48 187.42 451.24 189.61 451.24 185.61"/>
          <polygon class="cls-67" points="403.07 166.15 422 154.62 446.52 169.6 455.19 163.12 412.54 136.62 394.97 147.53 403 152.62 403.07 166.15"/>
          <polygon class="cls-113" points="455.19 163.12 455.19 174.9 446.52 169.6 455.19 163.12"/>
          <polygon class="cls-34" points="422 154.62 402.94 165.93 384.94 176.62 403.07 187.12 422 154.62"/>
          <polygon class="cls-101" points="384.94 176.62 403.07 187.12 403.07 218.4 384.94 208.12 384.94 176.62"/>
          <polygon class="cls-67" points="396.66 146.61 378.97 157.32 397.86 169.37 416.15 159.01 396.66 146.61"/>
          <polygon class="cls-101" points="378.97 157.32 378.97 184.05 384.94 188.12 384.94 176.62 397.86 169.37 378.97 157.32"/>
        </g>
      </g>
      <g id="_屋台" data-name="屋台">
        <g id="_灰色のコピー" data-name="灰色のコピー">
          <g id="_屋台のコピー_6" data-name="屋台のコピー 6">
            <g>
              <polygon class="cls-112" points="337.57 231.61 337.57 215.46 338.36 215.98 338.36 232.09 337.57 231.61"/>
              <polygon class="cls-112" points="364.03 236.66 364.03 221.07 364.9 221.56 364.9 237.12 364.03 236.66"/>
              <polygon class="cls-112" points="353.61 240.99 353.61 220.6 354.51 221.25 354.51 241.59 353.61 240.99"/>
              <g>
                <polygon class="cls-74" points="335.54 215.05 355.41 226.68 366.86 219.92 346.75 208.09 335.54 215.05"/>
                <polygon class="cls-72" points="335.58 220.47 335.54 215.05 355.41 226.68 355.44 232.09 335.58 220.47"/>
                <polygon class="cls-19" points="355.44 232.09 366.9 225.45 366.86 219.92 355.41 226.68 355.44 232.09"/>
              </g>
              <polygon class="cls-64" points="335.54 219.18 355.41 230.64 355.44 232.09 335.58 220.47 335.54 219.18"/>
              <polygon class="cls-18" points="366.9 225.45 355.44 232.09 355.41 230.64 366.86 224.24 366.9 225.45"/>
              <polygon class="cls-72" points="335.56 215 355.42 226.64 355.42 242.22 335.56 230.71 335.56 215"/>
            </g>
            <g>
              <polygon class="cls-112" points="364.88 248.92 364.88 232.77 365.67 233.28 365.67 249.39 364.88 248.92"/>
              <polygon class="cls-112" points="391.34 253.97 391.34 238.37 392.21 238.87 392.21 254.43 391.34 253.97"/>
              <polygon class="cls-112" points="380.92 258.29 380.92 237.91 381.82 238.56 381.82 258.89 380.92 258.29"/>
              <g>
                <polygon class="cls-74" points="362.85 232.36 382.72 243.98 394.17 237.22 374.06 225.4 362.85 232.36"/>
                <polygon class="cls-72" points="362.89 237.78 362.85 232.36 382.72 243.98 382.75 249.39 362.89 237.78"/>
                <polygon class="cls-19" points="382.75 249.39 394.21 242.76 394.17 237.22 382.72 243.98 382.75 249.39"/>
              </g>
              <polygon class="cls-24" points="362.85 236.49 382.72 247.95 382.75 249.39 362.89 237.78 362.85 236.49"/>
              <polygon class="cls-18" points="394.21 242.76 382.75 249.39 382.72 247.95 394.17 241.54 394.21 242.76"/>
            </g>
            <g>
              <polygon class="cls-112" points="391.96 265.82 391.96 249.67 392.75 250.19 392.75 266.3 391.96 265.82"/>
              <polygon class="cls-112" points="418.42 270.87 418.42 255.28 419.29 255.77 419.29 271.33 418.42 270.87"/>
              <polygon class="cls-112" points="408 275.2 408 254.81 408.9 255.46 408.9 275.8 408 275.2"/>
              <g>
                <polygon class="cls-74" points="389.93 249.26 409.8 260.89 421.25 254.13 401.13 242.3 389.93 249.26"/>
                <polygon class="cls-72" points="389.96 254.68 389.93 249.26 409.8 260.89 409.83 266.3 389.96 254.68"/>
                <polygon class="cls-19" points="409.83 266.3 421.29 259.66 421.25 254.13 409.8 260.89 409.83 266.3"/>
              </g>
              <polygon class="cls-24" points="389.93 253.39 409.8 264.85 409.83 266.3 389.96 254.68 389.93 253.39"/>
              <polygon class="cls-18" points="421.29 259.66 409.83 266.3 409.8 264.85 421.25 258.45 421.29 259.66"/>
            </g>
            <g>
              <polygon class="cls-72" points="341.82 172.97 361.68 184.6 361.68 200.19 341.82 188.68 341.82 172.97"/>
              <polygon class="cls-112" points="332.38 196.27 332.38 180.12 333.17 180.63 333.17 196.74 332.38 196.27"/>
              <g>
                <path class="cls-5" d="m333.17,192.11l15.83,9.27c1.64-.96,3.27-1.93,4.9-2.89-5.34-3.09-10.69-6.17-16.03-9.26-1.57.96-3.14,1.92-4.71,2.89Z"/>
                <polygon class="cls-5" points="333.17 192.11 333.17 196.65 349 205.91 349 201.38 333.17 192.11"/>
                <polygon class="cls-5" points="353.91 198.48 349 201.38 349 205.91 353.91 203.02 353.91 198.48"/>
              </g>
              <polygon class="cls-112" points="358.84 201.32 358.84 185.73 359.71 186.22 359.71 201.78 358.84 201.32"/>
              <polygon class="cls-112" points="348.42 205.65 348.42 185.26 349.32 185.91 349.32 206.24 348.42 205.65"/>
              <g>
                <polygon class="cls-74" points="330.35 179.71 350.22 191.33 361.67 184.57 341.56 172.75 330.35 179.71"/>
                <polygon class="cls-72" points="330.39 185.13 330.35 179.71 350.22 191.33 350.25 196.74 330.39 185.13"/>
                <polygon class="cls-19" points="350.25 196.74 361.71 190.11 361.67 184.57 350.22 191.33 350.25 196.74"/>
              </g>
              <polygon class="cls-64" points="330.35 183.84 350.22 195.3 350.25 196.74 330.39 185.13 330.35 183.84"/>
              <polygon class="cls-18" points="361.71 190.11 350.25 196.74 350.22 195.3 361.67 188.89 361.71 190.11"/>
            </g>
            <g>
              <polygon class="cls-72" points="369.95 189.96 389.81 201.6 389.81 217.18 369.95 205.67 369.95 189.96"/>
              <polygon class="cls-112" points="360.51 213.26 360.51 197.11 361.3 197.63 361.3 213.73 360.51 213.26"/>
              <polygon class="cls-112" points="386.97 218.31 386.97 202.72 387.84 203.21 387.84 218.77 386.97 218.31"/>
              <polygon class="cls-112" points="376.55 222.64 376.55 202.25 377.45 202.9 377.45 223.24 376.55 222.64"/>
              <g>
                <polygon class="cls-74" points="358.48 196.7 378.35 208.33 389.8 201.57 369.68 189.74 358.48 196.7"/>
                <polygon class="cls-72" points="358.52 202.12 358.48 196.7 378.35 208.33 378.38 213.73 358.52 202.12"/>
                <polygon class="cls-19" points="378.38 213.73 389.84 207.1 389.8 201.57 378.35 208.33 378.38 213.73"/>
              </g>
              <polygon class="cls-24" points="358.48 200.83 378.35 212.29 378.38 213.73 358.52 202.12 358.48 200.83"/>
              <polygon class="cls-18" points="389.84 207.1 378.38 213.73 378.35 212.29 389.8 205.89 389.84 207.1"/>
            </g>
            <g>
              <polygon class="cls-72" points="400.43 208.89 420.3 220.53 420.3 236.11 400.43 224.6 400.43 208.89"/>
              <polygon class="cls-112" points="391 232.19 391 216.04 391.79 216.56 391.79 232.67 391 232.19"/>
              <polygon class="cls-112" points="417.46 237.24 417.46 221.65 418.33 222.14 418.33 237.7 417.46 237.24"/>
              <polygon class="cls-112" points="407.04 241.57 407.04 221.18 407.94 221.83 407.94 242.17 407.04 241.57"/>
              <g>
                <polygon class="cls-74" points="388.97 215.63 408.83 227.26 420.29 220.5 400.17 208.67 388.97 215.63"/>
                <polygon class="cls-72" points="389 221.05 388.97 215.63 408.83 227.26 408.87 232.67 389 221.05"/>
                <polygon class="cls-19" points="408.87 232.67 420.33 226.03 420.29 220.5 408.83 227.26 408.87 232.67"/>
              </g>
              <polygon class="cls-24" points="388.97 219.76 408.83 231.22 408.87 232.67 389 221.05 388.97 219.76"/>
              <polygon class="cls-18" points="420.33 226.03 408.87 232.67 408.83 231.22 420.29 224.82 420.33 226.03"/>
            </g>
            <polygon class="cls-72" points="427.84 225.31 447.71 236.94 447.71 252.53 427.84 241.02 427.84 225.31"/>
            <polygon class="cls-112" points="418.4 248.61 418.4 232.46 419.19 232.97 419.19 249.08 418.4 248.61"/>
            <polygon class="cls-98" points="439.93 250.82 435.03 253.72 435.03 258.25 439.93 255.36 439.93 250.82"/>
            <polygon class="cls-112" points="444.86 253.66 444.86 238.07 445.73 238.56 445.73 254.12 444.86 253.66"/>
            <polygon class="cls-112" points="434.44 257.98 434.44 237.6 435.35 238.25 435.35 258.58 434.44 257.98"/>
            <g>
              <polygon class="cls-74" points="416.37 232.05 436.24 243.67 447.7 236.91 427.58 225.09 416.37 232.05"/>
              <polygon class="cls-72" points="416.41 237.47 416.37 232.05 436.24 243.67 436.28 249.08 416.41 237.47"/>
              <polygon class="cls-19" points="436.28 249.08 447.73 242.45 447.7 236.91 436.24 243.67 436.28 249.08"/>
            </g>
            <polygon class="cls-24" points="416.37 236.18 436.24 247.64 436.28 249.08 416.41 237.47 416.37 236.18"/>
            <polygon class="cls-18" points="447.73 242.45 436.28 249.08 436.24 247.64 447.7 241.23 447.73 242.45"/>
          </g>
          <g id="_ステージ" data-name="ステージ">
            <polygon class="cls-57" points="457.91 236.7 496.16 259.11 496.16 289.12 457.91 266.96 457.91 236.7"/>
            <polygon class="cls-2" points="439.74 281.57 439.74 250.48 441.26 251.47 441.26 282.48 439.74 281.57"/>
            <g>
              <path class="cls-116" d="m441.26,273.57l30.48,17.84c3.15-1.86,6.3-3.72,9.44-5.57-10.29-5.94-20.58-11.88-30.86-17.82-3.02,1.85-6.04,3.71-9.06,5.56Z"/>
              <polygon class="cls-8" points="441.26 273.57 441.26 282.3 471.74 300.14 471.74 291.4 441.26 273.57"/>
              <polygon class="cls-29" points="481.18 285.83 471.74 291.4 471.74 300.14 481.18 294.57 481.18 285.83"/>
            </g>
            <polygon class="cls-2" points="490.68 291.3 490.68 261.27 492.35 262.23 492.35 292.18 490.68 291.3"/>
            <polygon class="cls-2" points="470.62 299.62 470.62 260.37 472.36 261.62 472.36 300.78 470.62 299.62"/>
            <g>
              <polygon class="cls-61" points="435.83 249.68 474.08 272.07 496.14 259.05 457.4 236.29 435.83 249.68"/>
              <polygon class="cls-52" points="435.9 260.12 435.83 249.68 474.08 272.07 474.15 282.48 435.9 260.12"/>
              <polygon class="cls-54" points="474.15 282.48 496.21 269.71 496.14 259.05 474.08 272.07 474.15 282.48"/>
            </g>
            <polygon class="cls-24" points="435.83 257.63 474.08 279.71 474.15 282.48 435.9 260.12 435.83 257.63"/>
            <polygon class="cls-18" points="496.21 269.71 474.15 282.48 474.08 279.71 496.14 267.37 496.21 269.71"/>
          </g>
        </g>
      </g>
      <g id="P学生会館のコピー">
        <g>
          <polygon class="cls-102" points="135 167.07 135 193.67 150 191.07 135 167.07"/>
          <polygon class="cls-23" points="135 167.07 162 185.07 150 191.07 135 167.07"/>
          <polygon class="cls-6" points="135 167.07 164 167.07 162 185.07 135 167.07"/>
          <polygon class="cls-85" points="135 167.07 164 167.07 150 159.07 135 167.07"/>
          <polygon class="cls-109" points="135 167.07 150 159.07 135 157.07 135 167.07"/>
          <polygon class="cls-85" points="135 167.07 135 157.07 119 159.07 135 167.07"/>
          <polygon class="cls-6" points="135 167.07 119.49 159.32 107 166.07 135 167.07"/>
          <polygon class="cls-23" points="107 166.07 109 184.07 135 167.07 107 166.07"/>
          <polygon class="cls-102" points="109 184.07 119.34 191.07 135 167.07 109 184.07"/>
          <polygon class="cls-62" points="119.34 191.07 135 193.67 135 167.07 119.34 191.07"/>
          <polygon class="cls-40" points="135 193.67 135 204.07 150 201.84 150 191.07 135 193.67"/>
          <polygon class="cls-44" points="162 185.07 150 191.07 150 201.84 162 191.07 162 185.07"/>
          <polygon class="cls-79" points="164 167.07 162 185.07 162 191.07 164 185.57 164 167.07"/>
          <polygon class="cls-99" points="135 204.07 119.34 201.84 119.34 191.07 135 193.67 135 204.07"/>
          <polygon class="cls-40" points="109 184.07 109 195.71 119.34 201.84 119.34 191.07 109 184.07"/>
          <polygon class="cls-79" points="107 166.07 107 184.56 109 195.71 109 184.07 107 166.07"/>
          <polygon class="cls-23" points="107 169.75 99.09 166.07 87 173.07 107 184.56 107 169.75"/>
          <polygon class="cls-99" points="109 195.71 87 183.37 87 173.07 107 184.56 109 195.71"/>
          <polygon class="cls-109" points="99.09 166.07 107 167.07 107 169.75 99.09 166.07"/>
          <polygon class="cls-23" points="87 183.37 76 191.07 94.49 201.84 105.36 193.67 87 183.37"/>
          <polygon class="cls-99" points="101.86 196.29 109 199.45 109 195.71 105.36 193.67 101.86 196.29"/>
          <polygon class="cls-87" points="109 195.71 109 199.45 119.34 204.73 119.34 201.84 109 195.71"/>
          <polygon class="cls-28" points="134.57 204.01 134.57 208.22 119.34 204.73 119.34 201.84 134.57 204.01"/>
          <polygon class="cls-87" points="150 201.84 150 205.03 134.57 208.22 134.57 204.01 150 201.84"/>
          <polygon class="cls-91" points="162 191.07 150 201.84 150 205.03 160.11 197.57 162 191.07"/>
          <polygon class="cls-28" points="119.34 204.73 119.34 209.41 121 209.84 121 205.03 119.34 204.73"/>
          <polygon class="cls-87" points="134.57 208.22 134.57 211.62 136 211.07 136 207.92 134.57 208.22"/>
          <polygon class="cls-87" points="148.5 205.34 148.5 209.41 150 208.73 150 205.03 148.5 205.34"/>
          <polygon class="cls-91" points="158.61 198.67 158.61 203.2 160 202.07 160.11 197.57 158.61 198.67"/>
          <polygon class="cls-99" points="94.49 201.84 94.49 205.92 95.51 205.03 95.51 201.07 94.49 201.84"/>
          <polygon class="cls-23" points="57 144.07 37 161.07 72 182.07 90.68 166.07 57 144.07"/>
          <polygon class="cls-109" points="75 139.07 57 144.07 90.68 166.07 109.72 159.32 75 139.07"/>
          <polygon class="cls-103" points="15 131.07 48.52 151.27 57 144.07 59.68 143.33 28 126.07 15 131.07"/>
          <polygon class="cls-86" points="3 156.07 2.75 143.73 38 165.07 39.97 162.85 39.97 178.09 3 156.07"/>
          <polygon class="cls-99" points="72.03 182.07 72.47 197.57 40 178.09 40 162.85 72.03 182.07"/>
          <polygon class="cls-44" points="108.56 159.73 109 164.99 107 166.07 107 167.07 99.09 166.07 87 173.07 87 183.37 76 191.07 81.14 194.06 72.45 197.57 71.51 182.07 90.68 166.07 108.56 159.73"/>
          <polygon class="cls-66" points="15 131.07 0 142.07 38 165.07 39.97 162.85 37 161.07 48.52 151.27 15 131.07"/>
        </g>
      </g>
      <g id="Ncopy">
        <polygon class="cls-119" points="361.51 288.26 312.51 316.4 312.51 332.41 318.3 335.64 361.13 308.88 361.51 288.26"/>
        <path class="cls-42" d="m360.53,303.37c.65-2.88,14.99,1.44,14.99,1.44,6.84,2.06,17.21,2.17,31.98-7.55v7.55c-3.97,3.39-11.22,8.57-20.99,10.05-12.11,1.84-21.57-3-25.99-5.74,0-.62,0-1.63,0-2.87-.01-2.5-.04-2.68,0-2.87Z"/>
        <path class="cls-89" d="m360.52,298.87c.66-2,14.99,1.07,15,1.07,6.84,1.47,17.21,1.6,32.02-5.1,0,1.75-.02,3.51-.03,5.26-3.98,2.34-11.26,5.91-21.03,6.9-12.13,1.22-21.57-2.2-25.98-4.13,0-.43.01-1.13,0-2,0-1.74-.04-1.86,0-2Z"/>
        <path class="cls-97" d="m352.51,283.26c1.55.85,8.99,6,9,6l-48.42,27.7-42-24,28.42-15.7v-9l14.2-8.35v3.57l5.38,2.89,34.18-20.06c8.75,4.98,17.49,9.96,26.24,14.93-3.24-.25-9.79-.3-17,3-5.37,2.45-8.96,5.78-11,8v11"/>
        <polyline class="cls-11" points="266.59 231.79 266.59 295.92 299.59 277.92 299.59 212.25 266.59 231.92"/>
        <polyline class="cls-41" points="299.59 212.25 299.59 253.83 319.59 242.92 319.59 266.34 357.59 244.04 357.59 177.92 299.59 212.25"/>
        <polygon class="cls-61" points="275.51 130.84 270.51 133.84 269.51 193.26 274.51 195.8 275.51 130.84"/>
        <polyline class="cls-75" points="191.51 148.26 191.51 155.26 168.59 168.3 163.51 165.26 191.51 148.26"/>
        <path class="cls-111" d="m153.51,231.26l-1-66,1,66Z"/>
        <polygon class="cls-111" points="183.51 248.26 183.51 183.62 152.51 165.26 153.51 231.26 183.51 248.26"/>
        <polygon class="cls-111" points="200.51 193.26 200.51 259.26 266.51 296.26 266.51 232.13 200.51 193.26"/>
        <polygon class="cls-61" points="188.51 180.26 188.51 245.79 183.51 248.26 188.51 180.26"/>
        <polygon class="cls-61" points="183.51 183.62 188.51 180.26 188.51 245.79 183.51 248.26 183.51 183.62"/>
        <polygon class="cls-82" points="152.51 165.26 186.51 145.26 191.51 148.26 163.51 165.26 188.51 180.26 183.51 183.62 153.01 165.55 152.51 165.26"/>
        <polygon class="cls-82" points="266.51 232.13 357.51 178.26 327.51 159.26 322.51 162.26 347.51 178.26 266.51 225.26 205.51 189.26 200.51 193.26 266.51 232.13"/>
        <polyline class="cls-81" points="207.51 139.84 243.51 118.84 270.51 133.84 275.51 130.84 243.51 112.84 201.51 136.84"/>
        <polygon class="cls-118" points="201.51 149.26 207.51 146.26 207.51 139.84 201.51 136.84 201.51 149.26"/>
        <polygon class="cls-75" points="207.51 146.26 243.51 124.84 269.96 139.84 270.51 133.84 243.51 118.84 207.51 139.84 207.51 146.26"/>
        <polygon class="cls-118" points="243.51 118.84 243.51 124.84 270.51 140.26 270.51 133.84 243.51 118.84"/>
        <polyline class="cls-97" points="243.51 124.26 270.51 140.26 228.51 166.8 274.51 195.8 322.51 168.26 322.51 168.26 342.51 181.26 266.51 225.8 212.51 193.26 217.51 189.8 200.62 179.64 188.51 187.06 188.51 180.8 168.51 168.26"/>
        <polyline class="cls-118" points="322.51 162.26 322.51 168.26 342.51 181.26 347.51 178.26 322.51 162.26"/>
        <polygon class="cls-51" points="200.62 179.64 200.51 193.26 205.51 189.26 212.51 193.26 217.51 189.8 200.62 179.64"/>
        <polyline class="cls-118" points="188.09 186.63 200.51 179.26 200.4 261.98 188.09 267.95 188.09 186.63"/>
        <polyline class="cls-80" points="205.4 261.93 200.09 264.08 191.09 259.95 200.09 255.95 200.09 258.95 205.4 261.93"/>
        <polyline class="cls-80" points="191.09 269.1 191.09 259.95 192.82 260.74 192.82 269.87"/>
        <polyline class="cls-80" points="199.75 263.92 199.75 273.95 201.03 273.95 201.03 263.7"/>
        <polyline class="cls-3" points="161.71 235.84 162.09 251.95 188.09 267.95 188.09 245.48 183.09 247.95 161.71 235.84"/>
        <polygon class="cls-3" points="313.09 316.95 271.09 292.95 266.09 295.95 205.4 261.93 205.4 277.7 291.09 326.95 306.59 317.24 313.09 320.95 313.09 316.95"/>
        <path class="cls-51" d="m232.09,280.62v6.02s64.99,37.18,64,37.31,5-3,5-3l-69-40.33Z"/>
        <polygon class="cls-51" points="291.09 326.95 291.09 342.21 310.09 352.95 310.09 343.95 315.09 340.95 291.09 326.95"/>
        <path class="cls-30" d="m305.45,269.29c1.7-3.17,10.66-1.68,20.02,3.33,9.36,5.01,15.57,11.65,13.87,14.82-1.7,3.17-10.66,1.68-20.02-3.33s-15.57-11.65-13.87-14.82Z"/>
        <path class="cls-22" d="m337.04,288.39c-.8,1.71-10.86-.56-19.16-5.34-6.22-3.58-12.55-9.2-11.71-10.68.92-1.62,10.32,1.81,17.03,5.34,6.21,3.26,14.63,8.98,13.84,10.68Z"/>
        <polyline class="cls-81" points="270.4 140.42 228.4 166.97 269.4 192.82 270.4 140.42"/>
        <polygon class="cls-107" points="299.59 253.83 299.51 268.26 313.71 259.91 313.71 246.12 299.59 253.83"/>
        <polyline class="cls-93" points="299.51 257.19 299.51 261.23 313.71 253.32 313.71 249.55 299.51 257.26"/>
        <polygon class="cls-93" points="299.51 263.72 299.51 266.72 313.51 258.26 313.71 255.39 299.51 263.72"/>
        <polyline class="cls-43" points="313.71 246.12 313.71 263.48 319.6 266.72 319.59 242.92 313.98 246.04"/>
        <polygon class="cls-37" points="306.59 317.24 313.09 320.95 303.09 326.95 321.09 336.95 315.09 340.95 291.09 326.95 306.59 317.24"/>
        <path class="cls-39" d="m351.51,272.42c.09-2.95,6.36-6.85,13-9,3.11-1.01,8.89-2.31,15-2.17.19-.1-.61-.04-.42-.14,5.63.19,14.74,1.42,23.42,7.3,1.9,1.29,3.56,2.65,5,4v5c-2.09,1.92-10.24,7.81-27,7-14.25-.69-26.49-5.68-29-8,0-.09,0,.1,0,0q0-3.96,0-4Z"/>
        <path class="cls-37" d="m351.51,276.42c3,4,14.75,10.92,29,11,13.46.08,20.83-5.68,25-8,0,0,2-1.83,2-2,0-1.9,0,.03,0,0-.04-1.69-9.21-9.63-27-10-17.94-.38-28.94,7.25-29,9"/>
        <path class="cls-51" d="m360.51,294.41c.65-2.01,15,1,15,1,6.85,1.43,17.22,1.51,32-5.26v5.26c-3.97,2.36-11.23,5.97-21,7-12.12,1.28-21.58-2.09-26-4,0-.43,0-1.13,0-2-.01-1.74-.04-1.86,0-2Z"/>
        <path class="cls-89" d="m360.51,289.83c.65-2.01,15,1,15,1,6.85,1.43,17.22,1.51,32-5.26v5.26c-3.97,2.36-11.23,5.97-21,7-12.12,1.28-21.58-2.09-26-4,0-.43,0-1.13,0-2-.01-1.74-.04-1.86,0-2Z"/>
        <path class="cls-41" d="m351.51,276.42s-.04.06-.05.07c-.08.17-.04.47,0,1.9,0,0,.01.68.04,2.02.01.7.02,1.72,0,3,1.54,1.38,3.88,3.25,7,5,9.73,5.44,19.18,5.19,24,5,11.61-.45,20.37-4.71,25-7.43,0-2.86,0-5.72,0-8.57-4.77,3.91-9.17,5.93-12,7-22.11,8.35-42.14-5.85-43-7-.05-.07-.79-1.11-1-1Z"/>
        <polygon class="cls-89" points="377.53 307.26 377.53 315.62 379.46 316.21 379.51 307.26 377.53 307.26"/>
        <polygon class="cls-89" points="395.51 313.26 395.51 304.81 397.61 304.54 397.61 313.26 395.51 313.26"/>
        <polygon class="cls-89" points="407.51 299.98 407.51 307.26 406.51 308.26 406.51 300.56 407.51 299.98"/>
        <polygon class="cls-89" points="407.51 288.26 414.51 283.26 414.51 296.98 413.19 298.11 413.11 290.26 407.51 294.72 407.51 288.26"/>
        <polygon class="cls-121" points="414.51 280.45 414.51 283.26 407.51 288.26 407.51 284.96 412.17 281.64 407.51 280.26 407.51 278.26 414.51 280.45"/>
        <polyline class="cls-78" points="407.51 280.26 407.51 284.96 412.17 281.64"/>
        <polygon class="cls-51" points="315.09 321.58 334.51 310.26 334.51 317.83 315.09 328.72 315.09 321.58"/>
        <polygon class="cls-51" points="338.51 308.26 338.51 315.26 359.06 302.69 359.06 296.42 338.51 308.26"/>
        <polygon class="cls-42" points="312.51 332.51 334.51 320.47 334.51 325.75 318.74 335.64 312.51 332.51"/>
        <polyline class="cls-42" points="338.51 318.6 338.51 323.02 360.53 309.11 360.51 304.54"/>
        <line class="cls-127" x1="303.51" y1="210.26" x2="303.51" y2="251.26"/>
        <line class="cls-129" x1="308.01" y1="207.76" x2="308.01" y2="248.76"/>
        <line class="cls-129" x1="314.01" y1="203.76" x2="314.01" y2="245.76"/>
        <line class="cls-129" x1="317.01" y1="202.76" x2="317.01" y2="244.76"/>
        <line class="cls-129" x1="321.01" y1="199.76" x2="321.01" y2="264.76"/>
        <line class="cls-129" x1="323.01" y1="198.76" x2="323.01" y2="263.76"/>
        <line class="cls-129" x1="326.01" y1="196.76" x2="326.01" y2="262.76"/>
        <line class="cls-129" x1="330.01" y1="194.76" x2="330.01" y2="259.76"/>
        <line class="cls-129" x1="333.01" y1="192.76" x2="333.01" y2="257.76"/>
        <line class="cls-129" x1="337.01" y1="190.76" x2="337.01" y2="255.76"/>
        <line class="cls-129" x1="340.01" y1="188.76" x2="340.01" y2="254.76"/>
        <line class="cls-129" x1="344.01" y1="186.76" x2="344.01" y2="251.76"/>
        <line class="cls-129" x1="347.01" y1="184.76" x2="347.01" y2="250.76"/>
        <line class="cls-129" x1="350.01" y1="182.76" x2="350.01" y2="248.76"/>
        <line class="cls-129" x1="354.01" y1="179.76" x2="354.01" y2="245.76"/>
        <polygon class="cls-51" points="303.09 326.95 313.09 320.95 312.51 332.51 303.09 326.95"/>
        <polygon class="cls-65" points="272.51 228.58 272.51 292.17 275.51 291.05 275.51 226.6 272.51 228.58"/>
        <polygon class="cls-65" points="278.6 224.76 278.6 289.36 282.15 287.42 282.15 222.87 278.6 224.76"/>
        <polygon class="cls-65" points="285.96 220.47 285.96 285.57 288.84 283.77 288.84 218.65 285.96 220.47"/>
        <polygon class="cls-65" points="292.3 216.86 292.3 281.89 294.93 280.45 294.93 215.02 292.3 216.86"/>
        <polygon class="cls-32" points="274.88 171.88 282.41 166.37 282.68 191.12 274.51 195.8 274.88 171.88"/>
      </g>
      <g id="Acopy">
        <path class="cls-17" d="m582,271.62v-77l-14,9v14.97l11,6.03v49c1-.67,2-1.33,3-2Z"/>
        <polygon class="cls-50" points="509.78 264.51 579 224.62 579 273.73 559.51 284.2 559.51 287.62 553 282.62 548.21 284.73 548.21 294.15 509.78 315.94 509.78 264.51"/>
        <polygon class="cls-56" points="509.78 264.51 509.78 315.94 491.78 305.94 478.51 313.24 478.51 247.17 509.78 264.51"/>
        <polygon class="cls-63" points="478.51 247.17 509.78 264.51 579 224.62 548 207.62 478.51 247.17"/>
        <polygon class="cls-51" points="491.78 305.94 491.78 254.62 496.18 256.97 496.18 308.38 491.78 305.94"/>
        <polygon class="cls-122" points="572 234.62 572 239.68 576.68 237.15 576.68 232.15 572 234.62"/>
        <polygon class="cls-122" points="564.94 238.36 564.94 243.42 569.62 240.89 569.62 235.89 564.94 238.36"/>
        <polygon class="cls-122" points="556.94 243.36 556.94 248.42 561.62 245.89 561.62 240.89 556.94 243.36"/>
        <polygon class="cls-122" points="549.47 247.49 549.47 252.55 554.15 250.02 554.15 245.02 549.47 247.49"/>
        <polygon class="cls-122" points="542.4 251.23 542.4 256.3 547.08 253.77 547.08 248.77 542.4 251.23"/>
        <polygon class="cls-122" points="535.47 255.49 535.47 260.55 540.15 258.02 540.15 253.02 535.47 255.49"/>
        <polygon class="cls-122" points="528.4 259.23 528.4 264.3 533.08 261.77 533.08 256.77 528.4 259.23"/>
        <polygon class="cls-122" points="520.47 263.49 520.47 268.55 525.15 266.02 525.15 261.02 520.47 263.49"/>
        <polygon class="cls-122" points="513.4 267.23 513.4 272.3 518.08 269.77 518.08 264.77 513.4 267.23"/>
        <polygon class="cls-122" points="572.23 244.05 572.23 249.12 576.91 246.58 576.91 241.58 572.23 244.05"/>
        <polygon class="cls-122" points="565.17 247.8 565.17 252.86 569.85 250.33 569.85 245.33 565.17 247.8"/>
        <polygon class="cls-122" points="557.17 252.8 557.17 257.86 561.85 255.33 561.85 250.33 557.17 252.8"/>
        <polygon class="cls-122" points="549.7 256.92 549.7 261.99 554.38 259.46 554.38 254.46 549.7 256.92"/>
        <polygon class="cls-122" points="542.64 260.67 542.64 265.73 547.32 263.2 547.32 258.2 542.64 260.67"/>
        <polygon class="cls-122" points="535.7 264.92 535.7 269.99 540.38 267.46 540.38 262.46 535.7 264.92"/>
        <polygon class="cls-122" points="528.64 268.67 528.64 273.73 533.32 271.2 533.32 266.2 528.64 268.67"/>
        <polygon class="cls-122" points="520.7 272.92 520.7 277.99 525.38 275.46 525.38 270.46 520.7 272.92"/>
        <polygon class="cls-122" points="513.64 276.67 513.64 281.73 518.32 279.2 518.32 274.2 513.64 276.67"/>
        <polygon class="cls-122" points="572.23 254.05 572.23 259.12 576.91 256.58 576.91 251.58 572.23 254.05"/>
        <polygon class="cls-122" points="565.17 257.8 565.17 262.86 569.85 260.33 569.85 255.33 565.17 257.8"/>
        <polygon class="cls-122" points="557.17 262.8 557.17 267.86 561.85 265.33 561.85 260.33 557.17 262.8"/>
        <polygon class="cls-122" points="549.7 266.92 549.7 271.99 554.38 269.46 554.38 264.46 549.7 266.92"/>
        <polygon class="cls-122" points="542.64 270.67 542.64 275.73 547.32 273.2 547.32 268.2 542.64 270.67"/>
        <polygon class="cls-122" points="535.7 274.92 535.7 279.99 540.38 277.46 540.38 272.46 535.7 274.92"/>
        <polygon class="cls-122" points="528.64 278.67 528.64 283.73 533.32 281.2 533.32 276.2 528.64 278.67"/>
        <polygon class="cls-122" points="520.7 282.92 520.7 287.99 525.38 285.46 525.38 280.46 520.7 282.92"/>
        <polygon class="cls-122" points="513.64 286.67 513.64 291.73 518.32 289.2 518.32 284.2 513.64 286.67"/>
        <polygon class="cls-122" points="572.23 263.05 572.23 268.12 576.91 265.58 576.91 260.58 572.23 263.05"/>
        <polygon class="cls-122" points="565.17 266.8 565.17 271.86 569.85 269.33 569.85 264.33 565.17 266.8"/>
        <polygon class="cls-122" points="557.17 271.8 557.17 276.86 561.85 274.33 561.85 269.33 557.17 271.8"/>
        <polygon class="cls-122" points="549.7 275.92 549.7 280.99 554.38 278.46 554.38 273.46 549.7 275.92"/>
        <polygon class="cls-122" points="542.64 279.67 542.64 284.73 547.32 282.2 547.32 277.2 542.64 279.67"/>
        <polygon class="cls-122" points="535.7 283.92 535.7 288.99 540.38 286.46 540.38 281.46 535.7 283.92"/>
        <polygon class="cls-122" points="528.64 287.67 528.64 292.73 533.32 290.2 533.32 285.2 528.64 287.67"/>
        <polygon class="cls-122" points="520.7 291.92 520.7 296.99 525.38 294.46 525.38 289.46 520.7 291.92"/>
        <polygon class="cls-122" points="513.64 295.67 513.64 300.73 518.32 298.2 518.32 293.2 513.64 295.67"/>
        <polygon class="cls-122" points="572.23 272.05 572.23 277.12 576.91 274.58 576.91 269.58 572.23 272.05"/>
        <polygon class="cls-122" points="565.17 275.8 565.17 280.86 569.85 278.33 569.85 273.33 565.17 275.8"/>
        <polygon class="cls-122" points="557.17 279.8 557.17 284.86 561.85 282.33 561.85 277.33 557.17 279.8"/>
        <polygon class="cls-122" points="542.64 288.67 542.64 293.73 547.32 291.2 547.32 286.2 542.64 288.67"/>
        <polygon class="cls-122" points="535.7 292.92 535.7 297.99 540.38 295.46 540.38 290.46 535.7 292.92"/>
        <polygon class="cls-122" points="528.64 296.67 528.64 301.73 533.32 299.2 533.32 294.2 528.64 296.67"/>
        <polygon class="cls-122" points="520.7 300.92 520.7 305.99 525.38 303.46 525.38 298.46 520.7 300.92"/>
        <polygon class="cls-122" points="513.64 304.67 513.64 309.73 518.32 307.2 518.32 302.2 513.64 304.67"/>
        <path class="cls-56" d="m567.51,224.62v-8.55l-15.51,9.55-18.95-8.75v11.58c.19.92.8,3.31,2.96,5.02.7.55,1.4.91,1.99,1.15.92.36,2.3.8,4,1,3.55.41,6.72-.47,12-3,3.58-1.72,8.28-4.27,13.51-8Z"/>
        <polygon class="cls-56" points="552.92 207.18 552.92 193.89 568 203.62 568 218.58 552.92 207.18"/>
        <path class="cls-63" d="m549.7,205.21l-14.7,8.4c-1.25,1-1.81,2.12-1.95,3.25-.42,3.38,2.95,6.75,2.95,6.75,9,6,16,2,16,2l15.51-9.55-17.81-10.86Z"/>
        <polygon class="cls-63" points="568 185.47 582 194.62 568 203.62 552.92 193.89 568 185.47"/>
        <polygon class="cls-50" points="548.21 284.73 553 282.62 559.51 287.62 548.21 294.15 548.21 284.73"/>
      </g>
      <g id="_図書館copy" data-name="図書館copy">
        <path class="cls-117" d="m425.5,334.26l-65-.12c.49-11.77,31.88-12.9,32.53-12.9,31.63,0,32.48,13.02,32.48,13.02Z"/>
        <polygon class="cls-63" points="446.29 331.58 392.78 361.02 334.29 328.04 309.88 343.27 392.53 392.17 510.29 323.58 502.76 319.79 464.29 341.58 446.29 331.58"/>
        <path class="cls-13" d="m430.29,332.58v14.28c0,14.72-35.53,17.72-35.53,17.72-38,0-39.49-16-39.49-16,0,0-.51-17-.51-16"/>
        <path class="cls-63" d="m355.51,332.26h74.53c-.53,19-36.53,20.91-37.27,20.91-36.27.09-37.27-20.91-37.27-20.91Z"/>
        <polyline class="cls-56" points="309.88 343.27 309.88 370.09 312.88 371.62 312.88 354.64 317.78 357.44 317.29 373.58 320.29 375.58 320.88 359.42 324.59 361.4 324.59 377.49 327.51 379.26 327.29 362.94 332.29 365.58 332.51 382.26 335.51 384.26 335.29 367.4 339.29 369.58 339.51 386.26 342.51 388.26 342.29 371.49 346.29 373.58 346.51 390.26 349.51 392.26 349.3 374.94 352.29 376.58 352.51 393.26 356.29 395.58 356.51 390.26 354.76 390.13 354.66 387.11 354.45 380.39 354.29 375.58 359.16 372.43 309.88 343.27"/>
        <polygon class="cls-51" points="312.88 354.64 312.88 359.75 317.64 362.17 317.78 357.44 312.88 354.64"/>
        <polygon class="cls-51" points="320.88 359.42 320.74 363.2 324.59 365.17 324.59 361.4 320.88 359.42"/>
        <polygon class="cls-51" points="327.29 362.94 327.29 366.83 332.29 369.7 332.29 365.58 327.29 362.94"/>
        <polygon class="cls-51" points="335.29 367.4 335.29 371.11 339.29 373.28 339.29 369.58 335.29 367.4"/>
        <polygon class="cls-51" points="342.29 371.49 342.29 374.62 346.29 376.66 346.29 373.58 342.29 371.49"/>
        <polygon class="cls-51" points="349.3 374.94 349.3 377.68 352.47 379.52 352.29 376.58 349.3 374.94"/>
        <polygon class="cls-16" points="312.88 359.75 312.88 365.49 317.46 368.11 317.64 362.17 312.88 359.75"/>
        <polygon class="cls-16" points="320.74 363.2 320.52 369.42 324.59 371.49 324.59 365.17 320.74 363.2"/>
        <polygon class="cls-16" points="327.29 366.83 327.29 372.58 332.29 375.58 332.29 369.7 327.29 366.83"/>
        <polygon class="cls-16" points="335.29 371.11 335.29 376.66 339.29 379.58 339.29 373.28 335.29 371.11"/>
        <polygon class="cls-16" points="342.29 374.62 342.29 380.23 346.29 382.6 346.29 376.66 342.29 374.62"/>
        <polygon class="cls-16" points="349.3 377.68 349.3 383.47 352.51 385.26 352.47 379.52 349.3 377.68"/>
        <polygon class="cls-96" points="359.16 372.53 354.29 375.58 392.51 398.26 430.29 375.96 425.53 372.95 392.53 392.17 359.16 372.53"/>
        <polygon class="cls-26" points="354.29 375.58 354.76 389.95 392.51 411.26 430.29 389.66 430.29 375.95 392.51 397.98 354.29 375.58"/>
        <polygon class="cls-122" points="354.45 380.39 392.53 401.49 430.29 380.39 430.29 386.26 392.51 408.26 354.66 387.11 354.45 380.39"/>
        <polygon class="cls-56" points="360.09 392.96 360.09 397.96 362.51 399.26 362.51 394.33 360.09 392.96"/>
        <polygon class="cls-56" points="367.51 397.15 367.51 401.76 370.51 403.26 370.51 398.84 367.51 397.15"/>
        <polygon class="cls-56" points="374.5 401.09 377.87 403 377.87 408.04 374.5 405.94 374.5 401.09"/>
        <polygon class="cls-56" points="389.27 409.42 392.51 411.26 392.51 416.53 389.27 414.62 389.27 409.42"/>
        <polygon class="cls-50" points="396 409.26 392.51 411.26 392.51 416.53 396 414.81 396 409.26"/>
        <polygon class="cls-50" points="406.43 403.3 406.43 408.75 410.09 406.61 410.09 401.21 406.43 403.3"/>
        <polygon class="cls-50" points="415.62 398.04 415.51 404.26 419.51 402.26 419.51 395.67 415.62 398.04"/>
        <polygon class="cls-50" points="423.42 393.59 423.42 400.26 427.51 398.26 427.51 391.26 423.42 393.59"/>
        <polygon class="cls-122" points="432.51 377.26 548.41 310.15 548.46 316.6 432.51 385.26 432.51 377.26"/>
        <polygon class="cls-104" points="432.51 389.26 432.51 385.26 508.51 340.26 508.51 344.26 432.51 389.26"/>
        <polygon class="cls-104" points="472.46 365.6 472.46 361.6 548.46 316.6 548.46 320.6 472.46 365.6"/>
        <polygon class="cls-50" points="425.53 372.95 430.29 375.95 430.51 392.26 432.51 393.75 432.51 377.26 436.07 375.19 436.07 393.26 439.15 391.26 439.15 373.41 443.11 371.12 443.11 389.26 446.51 387.26 446.51 369.26 450.89 366.61 450.89 385.26 454.51 383.26 454.51 364.76 457.66 362.7 457.66 381.49 460.51 380.26 460.51 360.84 464.36 358.82 464.36 378 467.49 376.28 467.49 357.01 471.71 354.56 471.71 373.06 474.51 371.26 474.51 353.17 479.19 350.23 479.19 368.04 482.51 366.26 482.51 348.31 494.27 341.5 494.27 359.26 497.51 357.26 497.51 339.62 501.39 337.38 501.39 354.85 504.68 353.17 504.68 335.47 508.51 333.26 508.51 349.83 510.51 351.26 510.29 323.58 425.53 372.95"/>
        <polyline class="cls-76" points="354.29 375.58 354.45 380.39 392.53 401.49 392.51 397.98 354.76 375.85"/>
        <polygon class="cls-76" points="354.66 387.11 354.76 389.95 392.51 411.26 392.51 408.26 354.66 387.11"/>
        <polygon class="cls-51" points="354.45 380.39 354.66 387.11 392.51 408.26 392.53 401.49 354.45 380.39"/>
        <polygon class="cls-110" points="361.79 348.55 365.51 351.26 365.51 354.81 361.79 352.58 361.79 348.55"/>
        <polygon class="cls-110" points="373.51 354.26 378.51 355.26 378.51 359.26 373.51 358.26 373.51 354.26"/>
        <rect class="cls-110" x="388.21" y="356.76" width="5.87" height="3.55"/>
        <polygon class="cls-110" points="404.3 355.98 409.66 354.26 409.66 357.87 404.3 359.26 404.3 355.98"/>
        <polygon class="cls-110" points="418.51 351.26 422.51 349.26 422.51 353.17 418.51 355.13 418.51 351.26"/>
        <polygon class="cls-63" points="446.29 331.58 491.78 305.94 509.78 315.94 464.29 341.58 446.29 331.58"/>
        <polygon class="cls-63" points="540.82 298.02 548.35 301.81 555.61 298.26 548.21 293.98 540.82 298.02"/>
        <polygon class="cls-50" points="548.35 301.81 555.61 298.26 555.57 325.49 548.57 329.49 548.35 301.81"/>
        <polygon class="cls-63" points="502.76 319.79 541.48 297.97 548.35 301.81 510.29 323.58 502.76 319.79"/>
        <polygon class="cls-50" points="510.46 332.12 548.41 310.15 548.35 301.81 510.29 323.58 510.46 332.12"/>
        <polygon class="cls-50" points="515.03 329.37 515.03 346.85 518.32 345.16 518.32 327.47 515.03 329.37"/>
        <polygon class="cls-50" points="521.86 325.65 521.86 343.12 525.15 341.44 525.15 323.74 521.86 325.65"/>
        <polygon class="cls-50" points="528.4 321.71 528.4 339.18 531.69 337.5 531.69 319.8 528.4 321.71"/>
        <polygon class="cls-50" points="534.76 317.84 534.76 335.31 538.04 333.63 538.04 315.94 534.76 317.84"/>
        <polygon class="cls-50" points="541.1 314.6 541.1 332.07 544.39 330.39 544.39 312.69 541.1 314.6"/>
      </g>
    </g>
  </g>
  <g id="_その他" data-name="その他">
    <g id="_駐車場" data-name="駐車場">
      <g>
        <path class="cls-75" d="m443.69,470.14l.13,1.43s-4.58.31-4.94,0,4.82-1.43,4.82-1.43Z"/>
        <rect class="cls-75" x="248.51" y="460.26" width="4" height="2"/>
        <polygon class="cls-75" points="377.69 450.71 383.19 452.63 388.37 448.66 443.82 471.56 379.69 522.35 248.69 462.11 274.06 447.48 274.74 460.98 377.69 450.71"/>
        <polygon class="cls-14" points="376.57 449.28 382.07 451.21 387.25 447.23 442.69 470.14 378.57 520.93 247.57 460.68 272.93 446.05 273.61 459.55 376.57 449.28"/>
        <rect class="cls-71" x="369.89" y="444.05" width="1.01" height="64.87" transform="translate(197.24 1054.63) rotate(-125.47)"/>
        <rect class="cls-71" x="343.92" y="485.16" width="1.2" height="20.44" transform="translate(-249.11 603.52) rotate(-65.51)"/>
        <rect class="cls-71" x="353.1" y="478.42" width="1.2" height="20.44" transform="translate(-237.6 607.93) rotate(-65.51)"/>
        <rect class="cls-71" x="362.1" y="472.42" width="1.2" height="20.44" transform="translate(-231.96 586.92) rotate(-63.02)"/>
        <rect class="cls-71" x="371.1" y="465.42" width="1.2" height="20.44" transform="translate(-220.8 591.12) rotate(-63.02)"/>
        <rect class="cls-71" x="380.1" y="459.42" width="1.2" height="20.44" transform="translate(-210.54 595.86) rotate(-63.02)"/>
        <rect class="cls-71" x="389.1" y="453.42" width="1.2" height="20.44" transform="translate(-200.27 600.6) rotate(-63.02)"/>
        <rect class="cls-71" x="397.1" y="447.42" width="1.2" height="20.44" transform="translate(-190.55 604.46) rotate(-63.02)"/>
        <rect class="cls-71" x="396.32" y="456.97" width="1.01" height="64.87" transform="translate(228.5 1096.57) rotate(-125.47)"/>
        <rect class="cls-71" x="370.36" y="498.08" width="1.2" height="20.44" transform="translate(-245.39 635.15) rotate(-65.51)"/>
        <rect class="cls-71" x="379.54" y="491.34" width="1.2" height="20.44" transform="translate(-233.88 639.55) rotate(-65.51)"/>
        <rect class="cls-71" x="388.54" y="485.34" width="1.2" height="20.44" transform="translate(-229.02 617.54) rotate(-63.02)"/>
        <rect class="cls-71" x="397.54" y="478.34" width="1.2" height="20.44" transform="translate(-217.87 621.74) rotate(-63.02)"/>
        <rect class="cls-71" x="406.54" y="472.34" width="1.2" height="20.44" transform="translate(-207.6 626.48) rotate(-63.02)"/>
        <rect class="cls-71" x="415.54" y="466.34" width="1.2" height="20.44" transform="translate(-197.34 631.22) rotate(-63.02)"/>
        <rect class="cls-71" x="423.54" y="460.34" width="1.2" height="20.44" transform="translate(-187.62 635.08) rotate(-63.02)"/>
      </g>
    </g>
    <g id="S_DX教育研究センター" data-name="S DX教育研究センター">
      <polygon class="cls-94" points="387.51 447.23 372.11 439.19 371.7 448 378.51 454.26 387.51 447.23"/>
      <polygon class="cls-53" points="370.51 446.26 377.51 448.86 367.01 456.26 367.51 452.44 363.31 450.59 370.51 446.26"/>
      <polygon class="cls-53" points="383.07 451.21 329.51 488.26 316.81 482.17 344.77 464.42 351.76 467.26 367.01 456.26 377.51 448.86 383.07 451.21"/>
      <polygon class="cls-61" points="316.51 482.26 318.4 480.7 317.7 480.21 317.7 478.73 316.81 479.48 316.51 482.26"/>
      <rect class="cls-84" x="371.51" y="439.26" width="8" height="2"/>
      <polygon class="cls-84" points="374.51 444.93 379.43 441.18 374.51 439.32 374.51 444.93"/>
      <polyline class="cls-53" points="319.51 480.22 317.7 478.73 317.7 469.75 357.91 448 363.51 451.26"/>
      <polyline class="cls-90" points="370.51 446.26 363.51 451.26 363.51 435.26 370.51 432.26"/>
      <polygon class="cls-122" points="374.51 428.36 374.51 443.26 370.51 446.26 370.51 430.26 374.51 428.36"/>
      <path class="cls-84" d="m271.35,438.54l44.13,25.87,64.83-37.88c-15.58-7.28-31.16-16.56-46.74-23.84-20.74,11.28-41.48,24.57-62.22,35.85Z"/>
      <rect class="cls-84" x="271.51" y="436.26" width="8" height="2"/>
      <rect class="cls-84" x="374.51" y="424.26" width="6" height="2"/>
      <path class="cls-119" d="m271.29,436.11l44.13,25.87,64.83-37.88c-15.58-7.28-31.16-16.56-46.74-23.84-20.74,11.28-41.48,24.57-62.22,35.85Z"/>
      <polygon class="cls-30" points="363.25 436.5 361.29 437.64 361.29 449.77 363.51 451.26 363.25 436.5"/>
      <polygon class="cls-51" points="361.29 437.64 361.29 449.77 357.91 448 357.91 439.5 361.29 437.64"/>
      <polygon class="cls-122" points="315.48 464.42 357.91 439.5 357.91 448 315.51 473.15 315.48 464.42"/>
      <polygon class="cls-114" points="356.3 440.56 356.3 455.76 354.51 457.26 354.51 441.5 356.3 440.56"/>
      <polygon class="cls-114" points="347.6 445.78 347.6 460.98 345.81 462.48 345.81 446.72 347.6 445.78"/>
      <polygon class="cls-114" points="338.6 450.78 338.6 465.98 336.81 467.48 336.81 451.72 338.6 450.78"/>
      <polygon class="cls-114" points="328.6 456.78 328.6 471.98 326.81 473.48 326.81 457.72 328.6 456.78"/>
      <polygon class="cls-114" points="318.6 462.78 318.6 477.98 316.81 479.48 316.81 463.72 318.6 462.78"/>
      <polygon class="cls-53" points="315.48 464.42 315.51 480.22 302.51 473.15 302.51 456.81 315.48 464.42"/>
      <polygon class="cls-110" points="315.48 464.42 316.81 463.72 316.81 479.48 315.51 480.22 315.48 464.42"/>
      <polygon class="cls-49" points="317.7 478.73 317.7 480.21 319.51 481.49 319.51 480.22 317.7 478.73"/>
      <polygon class="cls-89" points="319.51 480.26 346.51 462.26 346.51 463.26 319.51 481.26 319.51 480.26"/>
      <polygon class="cls-119" points="374.51 443.26 379.43 439.5 374.51 437.64 374.51 443.26"/>
      <polygon class="cls-53" points="346.51 465.12 351.76 467.26 367.51 453.39 363.31 451.26 346.51 465.12"/>
      <polygon class="cls-89" points="346.51 462.26 346.51 465.13 359.51 454.26 359.51 453.83 346.51 462.26"/>
      <polygon class="cls-89" points="368.51 452.26 368.06 456.54 351.76 468.26 368.51 452.26"/>
      <polygon class="cls-53" points="359.6 452.75 359.64 455.62 362.22 452.16 359.6 452.75"/>
      <polygon class="cls-65" points="379.43 441.18 379.43 446.81 378.49 446.26 378.49 441.89 379.43 441.18"/>
      <polygon class="cls-58" points="374.51 443.26 374.51 448 370.51 446.26 374.51 443.26"/>
      <polygon class="cls-110" points="302.51 456.81 302.51 471.97 273.68 455.62 273.71 439.93 302.51 456.81"/>
      <polygon class="cls-1" points="292.93 451.2 292.93 466.54 291.94 465.97 291.94 450.62 292.93 451.2"/>
      <polygon class="cls-1" points="283.43 445.63 283.43 461.15 282.49 460.32 282.25 444.93 283.43 445.63"/>
      <polygon class="cls-1" points="273.04 446.81 302.51 462.78 302.51 464.42 273.04 448 273.04 446.81"/>
      <polygon class="cls-1" points="272.88 455.13 302.35 471.1 302.35 472.74 272.88 456.32 272.88 455.13"/>
      <polygon class="cls-46" points="274.55 457.26 274.55 459.13 316.81 482.17 316.81 479.48 315.51 480.22 274.55 457.26"/>
      <polygon class="cls-126" points="363.51 448 367.51 450.62 367.51 453.39 363.31 451.26 363.51 448"/>
      <polygon class="cls-126" points="367.51 450.62 351.76 464.11 351.76 467.26 367.51 453.39 367.51 450.62"/>
      <line class="cls-126" x1="364.28" y1="453.39" x2="364.28" y2="455.95"/>
      <line class="cls-126" x1="360.32" y1="456.78" x2="360.32" y2="459.26"/>
      <line class="cls-126" x1="356.18" y1="460.32" x2="356.3" y2="463.26"/>
      <polygon class="cls-111" points="346.51 463.26 346.51 465.13 344.77 464.42 346.51 463.26"/>
    </g>
    <g id="_噴水_バス停" data-name="噴水・バス停">
      <g>
        <polygon class="cls-68" points="484.32 365.85 484.32 373.26 485.3 373.26 485.3 365.26 484.32 365.85"/>
        <polygon class="cls-128" points="486.89 356.3 482.21 355.53 482.21 368.53 486.89 369.32 486.89 356.3"/>
        <ellipse class="cls-68" cx="484.81" cy="373.26" rx="2.3" ry="2"/>
        <ellipse class="cls-100" cx="484.53" cy="351.26" rx="4.23" ry="4.22" transform="translate(-106.46 445.5) rotate(-45)"/>
        <polygon class="cls-71" points="479.74 349.38 487.7 350.68 487.7 353.49 479.74 351.98 479.74 349.38"/>
      </g>
      <g>
        <ellipse class="cls-30" cx="525.51" cy="377.76" rx="13" ry="7.5"/>
        <rect class="cls-30" x="512.51" y="373.26" width="26" height="5"/>
        <ellipse class="cls-53" cx="525.51" cy="373.76" rx="13" ry="7.5"/>
        <ellipse class="cls-60" cx="525.51" cy="373.76" rx="12" ry="6.5"/>
        <ellipse class="cls-30" cx="525.46" cy="373.01" rx="6.5" ry="3.75"/>
        <rect class="cls-30" x="518.96" y="370.76" width="13" height="2.5"/>
        <ellipse class="cls-53" cx="525.23" cy="370.01" rx="8.28" ry="4.77"/>
        <rect class="cls-46" x="525.51" y="364.26" width="2.5" height="5"/>
        <rect class="cls-46" x="522.26" y="363.26" width="2.25" height="6"/>
      </g>
    </g>
    <g id="_ピン" data-name="ピン">
      <g id="_レイヤー_34のコピー_2" data-name="レイヤー 34のコピー 2">
        <g>
          <polygon class="cls-10" points="303.82 97.96 293.4 99.61 288.86 109.13 284.07 99.73 273.61 98.35 281.07 90.89 279.15 80.51 288.55 85.3 297.82 80.27 296.17 90.69 303.82 97.96"/>
          <rect class="cls-10" x="250.08" y="79.51" width="76" height="20.35" rx="9" ry="9"/>
          <text class="cls-123" transform="translate(264.04 94.22)"><tspan x="0" y="0">G</tspan></text>
          <text class="cls-124" transform="translate(278.69 93.71)"><tspan x="0" y="0">厚生棟</tspan></text>
        </g>
        <g>
          <rect class="cls-10" x="219.01" y="152.11" width="76" height="20.35" rx="9" ry="9"/>
          <polygon class="cls-10" points="271.24 169.62 260.82 171.27 256.28 180.79 251.49 171.4 241.03 170.01 248.49 162.55 246.57 152.18 255.97 156.97 265.24 151.94 263.6 162.36 271.24 169.62"/>
          <text class="cls-123" transform="translate(231.46 165.88)"><tspan x="0" y="0">N</tspan></text>
          <text class="cls-124" transform="translate(246.12 166.38)"><tspan x="0" y="0">中央棟</tspan></text>
        </g>
        <g>
          <polygon class="cls-10" points="111.25 130.26 100.83 131.91 96.28 141.43 91.49 132.03 81.03 130.65 88.49 123.19 86.57 112.81 95.97 117.6 105.25 112.57 103.6 122.99 111.25 130.26"/>
          <rect class="cls-10" x="54.51" y="112.81" width="80.98" height="20.35" rx="9" ry="9"/>
          <text class="cls-123" transform="translate(64.46 127.52)"><tspan x="0" y="0">P</tspan></text>
          <text class="cls-124" transform="translate(78.12 127.01)"><tspan x="0" y="0">学生会館</tspan></text>
        </g>
        <g>
          <rect class="cls-10" x="354.61" y="321.39" width="76" height="20.35" rx="9" ry="9"/>
          <polygon class="cls-10" points="406.84 338.9 396.42 340.55 391.87 350.07 387.08 340.67 376.63 339.29 384.08 331.83 382.17 321.46 391.57 326.24 400.84 321.22 399.19 331.64 406.84 338.9"/>
          <text class="cls-123" transform="translate(367.06 335.16)"><tspan x="0" y="0">B</tspan></text>
          <text class="cls-124" transform="translate(381.71 335.65)"><tspan x="0" y="0">図書館</tspan></text>
        </g>
        <g>
          <rect class="cls-10" x="375.79" y="138.07" width="76" height="20.35" rx="9" ry="9"/>
          <polygon class="cls-10" points="428.02 155.58 417.6 157.24 413.06 166.76 408.26 157.36 397.81 155.97 405.26 148.51 403.35 138.14 412.75 142.93 422.02 137.9 420.37 148.32 428.02 155.58"/>
          <text class="cls-123" transform="translate(389.24 152.84)"><tspan x="0" y="0">F</tspan></text>
          <text class="cls-124" transform="translate(402.89 152.34)"><tspan x="0" y="0">講義棟</tspan></text>
        </g>
        <g>
          <rect class="cls-10" x="502.15" y="251.92" width="76" height="20.35" rx="9" ry="9"/>
          <polygon class="cls-10" points="554.38 269.44 543.96 271.09 539.42 280.61 534.62 271.21 524.17 269.82 531.62 262.36 529.71 251.99 539.11 256.78 548.38 251.75 546.73 262.17 554.38 269.44"/>
          <text class="cls-123" transform="translate(514.6 265.69)"><tspan x="0" y="0">A</tspan></text>
          <text class="cls-124" transform="translate(529.25 266.19)"><tspan x="0" y="0">本部棟</tspan></text>
        </g>
        <g>
          <polygon class="cls-10" points="337.57 427.68 327.15 429.33 322.6 438.85 317.81 429.45 307.35 428.07 314.81 420.61 312.89 410.23 322.29 415.02 331.57 409.99 329.92 420.41 337.57 427.68"/>
          <rect class="cls-10" x="247.03" y="409.23" width="153" height="20.35" rx="9" ry="9"/>
          <text class="cls-123" transform="translate(257.78 423.94)"><tspan x="0" y="0">S</tspan></text>
          <text class="cls-124" transform="translate(274.44 423.43)"><tspan x="0" y="0">D</tspan><tspan class="cls-130" x="9" y="0">X</tspan><tspan x="19.94" y="0">教育研究センター</tspan></text>
        </g>
      </g>
    </g>
    <g id="_吹き出し" data-name="吹き出し">
      <g id="_模擬店_" data-name="模擬店１">
        <rect class="cls-36" x="458.22" y="104.24" width="200.72" height="63.57" rx="31.79" ry="31.79"/>
        <polygon class="cls-36" points="477.99 165.87 419.94 215.81 509.24 167.55 477.99 165.87"/>
        <text class="cls-125" transform="translate(512.81 145.07) scale(1.03 1)"><tspan x="0" y="0">模擬店</tspan></text>
      </g>
      <g id="_軽音ライブ" data-name="軽音ライブ">
        <rect class="cls-36" x="340.07" y="0" width="200.72" height="63.57" rx="31.79" ry="31.79"/>
        <polygon class="cls-36" points="359.84 61.62 301.79 111.57 391.09 63.31 359.84 61.62"/>
        <text class="cls-125" transform="translate(371.79 42.47) scale(1.03 1)"><tspan x="0" y="0">軽音ライブ</tspan></text>
      </g>
      <g id="_ステージ-2" data-name="ステージ">
        <rect class="cls-36" x="519.32" y="181.68" width="200.72" height="63.57" rx="31.79" ry="31.79"/>
        <polygon class="cls-36" points="533.37 218.62 466.93 256.69 563.74 226.18 533.37 218.62"/>
        <text class="cls-125" transform="translate(567.37 223.42) scale(1.03 1)"><tspan x="0" y="0">ステージ</tspan></text>
      </g>
    </g>
  </g>
</svg>