<?xml version="1.0" encoding="UTF-8"?>
<svg xmlns="http://www.w3.org/2000/svg" viewBox="0 0 1527.77 1073">
  <defs>
    <style>
      .cls-1 {
        fill: #7c7c7c;
      }

      .cls-1, .cls-2, .cls-3, .cls-4, .cls-5, .cls-6, .cls-7, .cls-8, .cls-9, .cls-10, .cls-11, .cls-12, .cls-13, .cls-14, .cls-15, .cls-16, .cls-17, .cls-18, .cls-19, .cls-20, .cls-21, .cls-22, .cls-23, .cls-24, .cls-25, .cls-26, .cls-27, .cls-28, .cls-29, .cls-30, .cls-31, .cls-32, .cls-33, .cls-34, .cls-35, .cls-36, .cls-37, .cls-38, .cls-39, .cls-40, .cls-41, .cls-42, .cls-43, .cls-44, .cls-45, .cls-46, .cls-47, .cls-48, .cls-49, .cls-50, .cls-51, .cls-52, .cls-53, .cls-54, .cls-55, .cls-56, .cls-57, .cls-58, .cls-59, .cls-60, .cls-61, .cls-62, .cls-63, .cls-64, .cls-65, .cls-66, .cls-67, .cls-68, .cls-69, .cls-70, .cls-71, .cls-72, .cls-73, .cls-74, .cls-75, .cls-76, .cls-77, .cls-78, .cls-79, .cls-80, .cls-81, .cls-82, .cls-83, .cls-84, .cls-85, .cls-86, .cls-87, .cls-88, .cls-89, .cls-90, .cls-91, .cls-92, .cls-93, .cls-94, .cls-95, .cls-96, .cls-97, .cls-98, .cls-99, .cls-100, .cls-101, .cls-102, .cls-103, .cls-104, .cls-105, .cls-106, .cls-107, .cls-108, .cls-109, .cls-110, .cls-111, .cls-112, .cls-113, .cls-114, .cls-115, .cls-116, .cls-117, .cls-118, .cls-119, .cls-120, .cls-121, .cls-122, .cls-123, .cls-124, .cls-125, .cls-126, .cls-127, .cls-128, .cls-129, .cls-130, .cls-131, .cls-132, .cls-133, .cls-134, .cls-135, .cls-136, .cls-137 {
        stroke-width: 0px;
      }

      .cls-2 {
        fill: #999;
      }

      .cls-3 {
        fill: #a3a3a3;
      }

      .cls-4 {
        fill: #2f2b28;
      }

      .cls-5 {
        fill: #717070;
      }

      .cls-6 {
        fill: #252425;
      }

      .cls-7 {
        fill: #70727c;
      }

      .cls-8 {
        fill: #2a292a;
      }

      .cls-9 {
        fill: #46403d;
      }

      .cls-10 {
        fill: #502c19;
      }

      .cls-11 {
        fill: #c6b5a7;
      }

      .cls-12 {
        fill: #919191;
      }

      .cls-13 {
        fill: #414141;
      }

      .cls-14 {
        fill: #e2cfba;
      }

      .cls-15 {
        fill: #b2b2b2;
      }

      .cls-16 {
        fill: #1d1c1a;
      }

      .cls-17 {
        fill: #2f2f2f;
      }

      .cls-18 {
        fill: #968372;
      }

      .cls-19 {
        fill: #d8c7ba;
      }

      .cls-20 {
        fill: #6a6a6a;
      }

      .cls-21 {
        fill: #c7c5c6;
      }

      .cls-22 {
        fill: #2a2624;
      }

      .cls-23 {
        fill: #afa195;
      }

      .cls-24 {
        fill: #c7241b;
      }

      .cls-25 {
        fill: #848484;
      }

      .cls-26 {
        fill: #646670;
      }

      .cls-27 {
        fill: #494548;
      }

      .cls-28 {
        fill: #46403a;
      }

      .cls-29 {
        fill: #d8c1ab;
      }

      .cls-138 {
        stroke: #828282;
      }

      .cls-138, .cls-139, .cls-140, .cls-141 {
        stroke-miterlimit: 10;
      }

      .cls-138, .cls-141 {
        fill: none;
      }

      .cls-30 {
        fill: #252525;
      }

      .cls-31 {
        fill: #c86644;
      }

      .cls-32 {
        fill: #a89e94;
      }

      .cls-33 {
        fill: #502f19;
      }

      .cls-34 {
        fill: #bababa;
      }

      .cls-35 {
        fill: #252221;
      }

      .cls-36 {
        fill: #e6e6e6;
      }

      .cls-37 {
        fill: #2a2826;
      }

      .cls-38 {
        fill: #f4e0cb;
      }

      .cls-39 {
        fill: #201e1d;
      }

      .cls-40 {
        fill: #29abe2;
      }

      .cls-41 {
        fill: #e0e0e0;
      }

      .cls-42 {
        fill: #323232;
      }

      .cls-43 {
        fill: #939393;
      }

      .cls-44 {
        fill: #b7906a;
      }

      .cls-45 {
        fill: #c4c4c4;
      }

      .cls-46 {
        fill: #101116;
      }

      .cls-47 {
        fill: #755824;
      }

      .cls-139 {
        fill: #707070;
      }

      .cls-139, .cls-141 {
        stroke: #878787;
      }

      .cls-48 {
        fill: #6b6b6b;
      }

      .cls-49 {
        fill: #909090;
      }

      .cls-50 {
        fill: #bf9c7f;
      }

      .cls-51 {
        fill: #343434;
      }

      .cls-52 {
        fill: #9b9b9b;
      }

      .cls-53 {
        fill: #272423;
      }

      .cls-54 {
        fill: #272421;
      }

      .cls-55 {
        fill: #777;
      }

      .cls-56 {
        fill: #edd7c5;
      }

      .cls-57 {
        fill: #39456b;
      }

      .cls-58 {
        fill: gray;
      }

      .cls-59 {
        fill: #ddd;
      }

      .cls-60 {
        fill: #b3b3b3;
      }

      .cls-61 {
        fill: #232323;
      }

      .cls-62 {
        fill: #ccbaaa;
      }

      .cls-63 {
        fill: #333;
      }

      .cls-64 {
        fill: #bfbfbf;
      }

      .cls-65 {
        fill: #514a42;
      }

      .cls-66 {
        fill: #7dd9ef;
      }

      .cls-67 {
        fill: #ccc;
      }

      .cls-68 {
        fill: #444651;
      }

      .cls-69 {
        fill: #ffe9cf;
      }

      .cls-70 {
        fill: #c8c6c6;
      }

      .cls-71 {
        fill: #494949;
      }

      .cls-72 {
        fill: #13151a;
      }

      .cls-73 {
        fill: #595b63;
      }

      .cls-74 {
        fill: #eddcce;
      }

      .cls-75 {
        fill: #997c3c;
      }

      .cls-76 {
        fill: #24201c;
      }

      .cls-77 {
        fill: #373737;
      }

      .cls-78, .cls-142 {
        fill: #fff;
      }

      .cls-79 {
        fill: #121319;
      }

      .cls-80 {
        fill: #aba9aa;
      }

      .cls-81 {
        fill: #3f3935;
      }

      .cls-82 {
        fill: #202020;
      }

      .cls-83 {
        fill: #cecccd;
      }

      .cls-84 {
        fill: #a0a0a0;
      }

      .cls-85 {
        fill: #bfac9b;
      }

      .cls-86 {
        fill: #d8c5b8;
      }

      .cls-87 {
        fill: #d5d5d5;
      }

      .cls-88 {
        fill: #ccaa92;
      }

      .cls-89 {
        fill: #4c4c4c;
      }

      .cls-90 {
        fill: #e2e2e2;
      }

      .cls-91 {
        fill: #6a749e;
      }

      .cls-92 {
        fill: #272727;
      }

      .cls-93 {
        fill: #d1d1d1;
      }

      .cls-94 {
        fill: #7a7c84;
      }

      .cls-95 {
        fill: #9e764f;
      }

      .cls-96 {
        fill: #bcb2aa;
      }

      .cls-97 {
        fill: #0e111a;
      }

      .cls-98 {
        fill: #a5a5a5;
      }

      .cls-99 {
        fill: #f4f4f4;
      }

      .cls-100 {
        fill: #c6bcb5;
      }

      .cls-101 {
        fill: #292826;
      }

      .cls-102 {
        fill: #565656;
      }

      .cls-103 {
        fill: #777b7f;
      }

      .cls-104 {
        fill: #2a2725;
      }

      .cls-105 {
        fill: #3c3c3c;
      }

      .cls-140 {
        fill: #f7f7f7;
        stroke: #a8a8a8;
      }

      .cls-106 {
        fill: #f9e3ca;
      }

      .cls-107 {
        fill: #d6d6d6;
      }

      .cls-108 {
        fill: #754524;
      }

      .cls-109 {
        fill: #a88051;
      }

      .cls-110 {
        fill: #ffc200;
      }

      .cls-142 {
        font-family: MeiryoUI-Bold, 'Meiryo UI';
        font-size: 31px;
        font-weight: 700;
      }

      .cls-111 {
        fill: #baaa9e;
      }

      .cls-112 {
        fill: #535560;
      }

      .cls-113 {
        fill: #1c1c1c;
      }

      .cls-114 {
        fill: #797c7f;
      }

      .cls-115 {
        fill: #ab0900;
      }

      .cls-116 {
        fill: #bcaa9b;
      }

      .cls-117 {
        fill: #212121;
      }

      .cls-118 {
        fill: #292929;
      }

      .cls-119 {
        fill: #afafaf;
      }

      .cls-120 {
        fill: #2a2a22;
      }

      .cls-121 {
        fill: #888b91;
      }

      .cls-122 {
        fill: #eaeaea;
      }

      .cls-123 {
        fill: #636363;
      }

      .cls-124 {
        fill: #959595;
      }

      .cls-125 {
        fill: #14161c;
      }

      .cls-126 {
        fill: #e2cfc0;
      }

      .cls-127 {
        fill: #6f819e;
      }

      .cls-128 {
        fill: #e5d3c3;
      }

      .cls-129 {
        fill: #503419;
      }

      .cls-130 {
        fill: #ead6c1;
      }

      .cls-131 {
        fill: #757575;
      }

      .cls-132 {
        fill: #efefef;
      }

      .cls-133 {
        fill: #20201a;
      }

      .cls-134 {
        fill: #5b5b5b;
      }

      .cls-135 {
        fill: #ce0b00;
      }

      .cls-136 {
        fill: #490009;
      }

      .cls-137 {
        fill: #576893;
      }
    </style>
  </defs>
  <g id="_その他棟" data-name="その他棟">
    <g id="_移動_足なし" data-name="移動２足なし">
      <g id="_レイヤー_99" data-name="レイヤー 99">
        <g id="C実習棟のコピー_3" data-name="C実習棟のコピー 3">
          <g>
            <path class="cls-54" d="m1094.05,622.18l.02,17.72h19.46s-.49-19.72-.49-20.72-19,3-19,3Z"/>
            <polygon class="cls-81" points="1052.05 699.03 1141.6 648 1140.63 691.09 1052.05 741.11 1052.05 699.03"/>
            <polygon class="cls-54" points="1022.05 681.18 1052.77 699.03 1052.77 744.18 1022.06 697.5 1022.05 681.18"/>
            <polygon class="cls-81" points="1032.06 742.21 1037.78 753.51 1050.05 745.2 1050.05 714.18 1024.13 729.18 1024.39 741.11 1032.06 742.21"/>
            <polygon class="cls-76" points="942.3 715.5 996.05 744.18 991.05 746.18 942.18 719.67 942.3 715.5"/>
            <polygon class="cls-97" points="942.05 708.18 1001.8 739.67 995.08 743.58 942.3 715.5 942.05 708.18"/>
            <polygon class="cls-65" points="937.05 682.18 1015.05 727.18 1010.05 729.18 932.26 684.29 937.05 682.18"/>
            <polygon class="cls-54" points="932.26 693.71 932.26 684.29 1010.05 729.18 1010.05 733.18 939.83 693.78 939.83 697.5 932.26 693.71"/>
            <path class="cls-54" d="m1000.05,740.18c-2.33-1.33-4.67-2.67-7-4v9l-2,1v-11l-4-3v17l-3-2v-16l-5-3v17l-3-1v-17l-4-3v17l-3-1-.02-16.84-3.98-3.16v17l-3-2v-16l-4-3-.64,16.4-3.51-1.3v-16.6l-3.85-2.51v17l-4.15-1.85v-16.6l-3.43-1.44-.43,14.88-2,1-.22-27.68c27.41,14.23,42.81,23.45,70.22,37.68v5"/>
            <polygon class="cls-97" points="935.86 695.5 936.05 691.29 1010.05 733.18 1015.05 731.28 1015.05 735.11 1010.05 736.9 935.86 695.5"/>
            <polygon class="cls-81" points="1015.05 727.18 1015.05 731.28 1010.05 733.18 1010.05 729.18 1015.05 727.18"/>
            <polygon class="cls-81" points="1022.05 742.18 1022.05 738.05 1015.05 735.11 1010.05 736.9 1010.05 739.96 1022.05 742.18"/>
            <polygon class="cls-54" points="942.05 703.41 1004.05 739.18 1001.8 741.11 941.11 708.74 942.05 703.41"/>
            <polygon class="cls-65" points="971.15 668.89 943.56 683.76 1025.83 729.18 1051.75 714.18 971.15 668.89"/>
            <polygon class="cls-54" points="1026.09 741.11 1025.83 729.18 943.56 683.76 943.56 685.93 1015.05 727.18 1015.05 735.11 1022.05 740.95 1026.09 741.11"/>
            <polygon class="cls-81" points="1034.22 724.32 1034.79 747.61 1036.31 750.62 1036.31 723.11 1034.22 724.32"/>
            <polygon class="cls-81" points="1026.09 738.96 1051.75 724.88 1051.75 727.6 1026.09 742.03 1026.09 738.96"/>
            <polygon class="cls-81" points="1032.05 742.18 1051.64 731.62 1051.64 734.35 1033.05 744.18 1032.05 742.18"/>
            <polygon class="cls-81" points="1035.05 747.18 1051.64 738.62 1051.64 741.35 1036.05 750.18 1035.05 747.18"/>
            <polygon class="cls-65" points="1022.05 681.18 1104.05 634.18 1107.05 636.18 1112.05 633.18 1094.05 622.18 1116.05 609.18 1155.05 632.18 1135.05 644.18 1141.05 648.18 1052.77 699.03 1022.05 681.18"/>
            <polygon class="cls-81" points="1055.94 702.96 1055.94 742.41 1053.05 744.2 1053.05 704.36 1055.94 702.96"/>
            <path class="cls-81" d="m1107.05,702.91c-.58,1.6-1.4,2.59-2,3.17-2.62,2.51-6.89,2.84-11,1.06v-4.23l13-7.4v7.4Z"/>
            <path class="cls-81" d="m1107.05,693.91c-.58,1.6-1.4,2.59-2,3.17-2.62,2.51-6.89,2.84-11,1.06v-4.23l13-7.4v7.4Z"/>
            <path class="cls-81" d="m1107.05,684.82c-.58,1.6-1.4,2.59-2,3.17-2.62,2.51-6.89,2.84-11,1.06v-4.23l13-7.4v7.4Z"/>
          </g>
        </g>
        <g id="D教職員共通棟のコピー_3" data-name="D教職員共通棟のコピー 3">
          <g>
            <polygon class="cls-118" points="981.89 750.42 980.48 754.17 988.89 771.42 990.89 766.42 981.89 750.42"/>
            <polygon class="cls-42" points="1020.89 776.42 988.89 771.42 990.89 766.42 1020.89 770.42 1020.89 776.42"/>
            <polygon class="cls-77" points="1042.89 763.42 1020.89 776.42 1020.89 770.42 1040.48 758.42 1042.89 763.42"/>
            <polygon class="cls-53" points="980.48 754.17 980.48 784.42 982.74 784.42 982.74 764.42 987.67 774.65 987.67 795.67 988.89 797.37 988.89 771.42 980.48 754.17"/>
            <polygon class="cls-22" points="992.89 797.42 992.89 778.14 1016.61 781.42 1016.61 801.29 1020.89 801.29 1020.89 776.42 988.89 771.42 988.89 797.37 992.89 797.42"/>
            <polygon class="cls-81" points="1022.89 800.42 1022.89 780.69 1040.48 771.42 1040.48 790.4 1042.89 788.18 1042.89 763.42 1020.89 776.42 1020.89 801.29 1022.89 800.42"/>
            <polygon class="cls-97" points="982.74 764.42 987.67 774.65 987.67 780.52 982.74 771.42 982.74 764.42"/>
            <polygon class="cls-53" points="982.74 778.31 982.74 771.42 987.67 780.52 987.67 786.35 982.74 778.31"/>
            <polygon class="cls-53" points="992.89 778.14 992.89 786.35 1016.61 789.88 1016.61 781.42 992.89 778.14"/>
            <path class="cls-37" d="m982.74,763.42v1l4.94,10.23c.07-.08.14-.16.21-.23-1.72-3.67-3.43-7.33-5.15-11Z"/>
            <polygon class="cls-37" points="992.89 777.37 992.89 778.14 1016.89 781.42 1016.89 780.78 992.89 777.37"/>
            <polygon class="cls-37" points="1022.89 780.69 1040.48 771.42 1040.48 780.27 1022.89 789.88 1022.89 780.69"/>
            <polygon class="cls-16" points="1022.89 780.1 1022.89 780.69 1040.48 771.42 1040.48 770.91 1022.89 780.1"/>
            <rect class="cls-101" x="999.76" y="778.88" width=".96" height="7.74"/>
            <rect class="cls-101" x="1007.58" y="780.15" width=".96" height="7.74"/>
            <polygon class="cls-76" points="992.89 786.35 1016.61 789.88 1016.61 796.74 992.89 793.33 992.89 786.35"/>
            <polygon class="cls-76" points="1022.89 789.88 1022.89 795.63 1040.48 783.69 1040.48 780.27 1022.89 789.88"/>
            <polyline class="cls-65" points="1031.89 741.42 1040.48 758.42 1020.89 770.42 990.89 766.42 981.89 750.42 1003.33 737.92"/>
          </g>
        </g>
        <g id="E研究棟のコピー_3" data-name="E研究棟のコピー 3">
          <g>
            <polygon class="cls-81" points="1282.27 608.01 1320.27 585.88 1320.27 615.45 1282.05 638.47 1282.27 608.01"/>
            <polygon class="cls-81" points="1167.05 663.18 1282.73 595.16 1281.85 638.26 1167.05 704.69 1167.05 663.18"/>
            <path class="cls-97" d="m1150.05,650.18c.71.39,2.42,1.6,5,3,4.05,2.2,9.68,8.74,12,10v44l-12-6.72-4.92-2.75-.08-47.53Z"/>
            <polygon class="cls-54" points="1155.05 653.18 1155.04 700.46 1167.05 707.18 1167.05 663.18 1155.05 653.18"/>
            <path class="cls-81" d="m1242.05,654.14c-.58,1.6-1.4,2.59-2,3.17-2.62,2.51-6.89,2.84-11,1.06v-4.23l13-7.4v7.4Z"/>
            <path class="cls-81" d="m1242.05,645.14c-.58,1.6-1.4,2.59-2,3.17-2.62,2.51-6.89,2.84-11,1.06v-4.23l13-7.4v7.4Z"/>
            <path class="cls-81" d="m1242.05,636.05c-.58,1.6-1.4,2.59-2,3.17-2.62,2.51-6.89,2.84-11,1.06v-4.23l13-7.4v7.4Z"/>
            <polygon class="cls-81" points="1169.23 661.18 1169.23 705.05 1167.05 707.18 1167.05 661.71 1169.23 661.18"/>
            <path class="cls-65" d="m1196.05,647.18l86-51-32-19c-38.33,22.33-76.67,44.67-115,67,10.67,6.33,21.33,12.67,32,19l25-14"/>
            <polygon class="cls-28" points="1320.27 585.88 1268.95 555.41 1241.05 572.18 1282.05 596.18 1282.27 608.01 1320.27 585.88"/>
            <polygon class="cls-54" points="1241.05 572.18 1250.05 577.18 1241.05 582.45 1241.05 572.18"/>
            <path class="cls-65" d="m1156.73,616.18l-16.15,9.16,13.09,7.36c-6.21,3.83-12.42,7.66-18.63,11.49,2,1.33,4,2.67,6,4,10.67-7.43,21.33-14.86,32-22.29l-16.31-9.71Z"/>
            <polygon class="cls-54" points="1150.13 638.52 1150.13 697.71 1140.94 693.16 1141.05 648.21 1135.05 644.22 1146.79 637.18 1150.13 638.52"/>
            <polygon class="cls-81" points="1174.05 626.18 1174.05 642.37 1150.13 654.96 1150.13 639.47 1174.05 626.18"/>
          </g>
        </g>
        <g id="H体育館のコピー_4" data-name="H体育館のコピー 4">
          <g id="H体育館">
            <polygon class="cls-104" points="735.25 518.98 815.01 471.89 815.01 485.89 747.6 526.27 735.25 518.98"/>
            <polygon class="cls-28" points="730.41 515.89 735.25 518.98 815.01 471.89 810.01 468.89 730.41 515.89"/>
            <polygon class="cls-104" points="742.88 517.94 743.15 523.64 737.95 520.49 742.88 517.94"/>
            <polygon class="cls-54" points="683.01 466.89 683.01 450.61 746.8 487.82 746.8 506.05 746.01 506.68 745.8 503.05 724.71 489.67 711.01 498.89 704.01 494.58 704.01 479.34 683.01 466.89"/>
            <polygon class="cls-104" points="746.8 506.05 810.01 468.89 810.01 464.23 816.01 460.89 816.01 446.32 746.8 487.82 746.8 506.05"/>
            <polygon class="cls-65" points="683.01 450.61 753.01 409.89 816.01 446.32 746.8 487.82 683.01 450.61"/>
            <polygon class="cls-104" points="799.01 460.89 799.01 474 797.01 474.89 797.01 462.02 799.01 460.89"/>
            <polygon class="cls-104" points="792.01 464.61 792.01 477.72 790.01 478.61 790.01 465.74 792.01 464.61"/>
            <polygon class="cls-104" points="785.01 468.61 785.01 481.72 783.01 482.61 783.01 469.74 785.01 468.61"/>
            <polygon class="cls-104" points="778.01 473.75 778.01 486.86 776.01 487.75 776.01 474.88 778.01 473.75"/>
            <polygon class="cls-104" points="771.01 477.48 771.01 490.58 769.01 491.48 769.01 478.6 771.01 477.48"/>
            <polygon class="cls-104" points="764.01 481.48 764.01 494.58 762.01 495.48 762.01 482.6 764.01 481.48"/>
            <polygon class="cls-104" points="756.21 485.61 756.21 498.72 753.01 499.61 753.01 486.74 756.21 485.61"/>
            <polygon class="cls-54" points="810.01 464.23 822.09 471.89 822.09 496.7 819.65 495.48 819.65 487.75 815.01 485.89 815.01 471.89 810.01 468.89 810.01 464.23"/>
            <polygon class="cls-28" points="762.6 415.43 776.01 407.89 854.05 453.85 822.09 471.89 810.01 464.23 816.01 460.89 816.01 446.32 762.6 415.43"/>
            <polygon class="cls-104" points="822.09 471.89 854.05 453.85 854.05 471.61 822.09 488.48 822.09 471.89"/>
            <polygon class="cls-104" points="824.8 476.03 824.8 495.46 822.12 497.03 822.12 477.17 824.8 476.03"/>
          </g>
        </g>
        <g id="L合同棟のコピー_3" data-name="L合同棟のコピー 3">
          <g>
            <polygon class="cls-54" points="944.51 574.65 944.51 589.24 952.05 585.03 966.05 594.18 966.05 618.47 990.31 632.63 1005.05 623.18 1007.05 611.18 944.51 574.65"/>
            <polygon class="cls-81" points="974.05 648.18 966.05 653.71 966.05 671.64 971.15 668.89 974.05 670.52 974.05 648.18"/>
            <polygon class="cls-54" points="998.05 661.18 974.05 648.18 974.05 670.52 998.05 684.29 998.05 661.18"/>
            <polygon class="cls-81" points="1000.22 659.91 1075.05 616.18 1075.05 648.18 1005.76 688.34 1000.22 685.22 1000.22 659.91"/>
            <polygon class="cls-9" points="998.05 661.18 1000.69 659.67 1000.69 685.79 998.05 684.29 998.05 661.18"/>
            <polygon class="cls-35" points="998.05 661.18 998.63 660.84 998.63 684.63 998.05 684.29 998.05 661.18"/>
            <polygon class="cls-39" points="983.62 597.49 984.3 597.89 984.3 629.12 983.62 628.57 983.62 597.49"/>
            <path class="cls-65" d="m966.05,653.71l8-5.53,24,13,77-45-102-59-28.54,17.47,62.54,36.53c-.23.14-4.08,2.64-4,7,.05,2.63,1.51,4.44,2,5l-39,25v5.53Z"/>
            <polygon class="cls-4" points="983.62 597.49 983.62 628.57 981.36 627.4 981.36 596.17 983.62 597.49"/>
            <polygon class="cls-4" points="963.05 585.47 963.05 592.22 964.94 593.45 964.94 586.58 963.05 585.47"/>
            <polygon class="cls-39" points="965.6 586.96 965.6 593.88 964.94 593.45 964.94 586.58 965.6 586.96"/>
            <polygon class="cls-4" points="944.51 574.65 944.51 589.24 946.3 588.24 946.3 575.69 944.51 574.65"/>
            <polygon class="cls-39" points="946.3 575.69 947.05 576.13 947.05 587.82 946.3 588.24 946.3 575.69"/>
          </g>
        </g>
        <g id="K生物_医薬品工学研究センターのコピー_3" data-name="K生物・医薬品工学研究センターのコピー 3">
          <g id="K生物_医薬品工学研究センター" data-name="K生物・医薬品工学研究センター">
            <polygon class="cls-81" points="869.87 518.7 869.71 546.47 881.88 553.79 975.79 499.3 975.79 455.39 869.87 518.7"/>
            <polygon class="cls-65" points="838.99 500.58 869.87 518.7 975.79 455.3 944.79 438.3 838.99 500.58"/>
            <polygon class="cls-54" points="838.99 536.07 838.99 500.58 869.87 518.7 869.71 546.47 857.79 539.3 853.75 543.08 854.21 554.57 850.79 552.3 850.79 535.3 845.84 531.8 838.99 536.07"/>
            <polygon class="cls-28" points="890.39 447.08 909.81 458.89 873.77 480.1 854.47 467.76 890.39 447.08"/>
            <polygon class="cls-54" points="854.47 467.76 854.43 491.49 873.77 480.1 854.47 467.76"/>
            <polygon class="cls-13" points="845.84 531.8 817.62 550.13 822.47 553.14 850.79 535.3 845.84 531.8"/>
            <polygon class="cls-92" points="850.79 535.3 822.47 553.14 831.62 558.82 850.79 546.63 850.79 535.3"/>
            <polygon class="cls-92" points="834.63 556.35 834.63 560.69 832.11 559.13 832.11 556.86 834.63 556.35"/>
            <polygon class="cls-92" points="843.39 543.34 843.39 551.43 838.39 552.98 838.39 543.97 843.39 543.34"/>
            <polygon class="cls-92" points="832.5 548.34 832.5 556.43 830.2 557.98 830.2 548.97 832.5 548.34"/>
          </g>
        </g>
        <g id="M生物工学科棟のコピー_3" data-name="M生物工学科棟のコピー 3">
          <g id="M生物工学棟">
            <polygon class="cls-81" points="941.55 558.15 941.55 591.78 944.35 590.21 944.35 575.62 972.89 558.15 994.77 570.81 1048.89 539.15 1048.89 496.15 941.55 558.15"/>
            <polygon class="cls-54" points="910.89 540.15 941.55 558.15 941.55 583.7 910.89 565.49 910.89 540.15"/>
            <polygon class="cls-81" points="955.61 550.03 955.61 568.44 957.91 567.32 958.24 548.51 955.61 550.03"/>
            <polygon class="cls-81" points="965.34 544.45 965.34 562.86 967.64 561.74 967.97 542.93 965.34 544.45"/>
            <polygon class="cls-81" points="977.89 537.24 977.89 561.04 975.17 559.47 975.17 538.73 977.89 537.24"/>
            <polygon class="cls-81" points="987.42 531.65 987.42 566.56 985.4 565.05 985.4 532.82 987.42 531.65"/>
            <polygon class="cls-81" points="994.33 527.66 994.33 570 994.77 570.81 996.8 569.62 996.8 526.24 994.33 527.66"/>
            <polygon class="cls-81" points="1004.45 521.4 1004.45 564.73 1006.96 563.26 1006.96 519.94 1004.45 521.4"/>
            <polygon class="cls-81" points="1014.4 515.96 1014.4 559.29 1016.92 557.81 1016.92 514.5 1014.4 515.96"/>
            <polygon class="cls-81" points="1024.4 509.96 1024.4 553.29 1026.92 551.81 1026.92 508.5 1024.4 509.96"/>
            <polygon class="cls-81" points="1033.4 504.96 1033.4 548.29 1035.92 546.81 1035.92 503.5 1033.4 504.96"/>
            <polygon class="cls-65" points="941.55 558.15 1048.89 496.15 1017.89 479.15 910.89 540.15 941.55 558.15"/>
            <polygon class="cls-92" points="941.55 583.7 941.55 591.78 936.81 594.43 936.81 586 941.55 583.7"/>
            <polygon class="cls-61" points="936.81 586 910.89 571.15 910.89 583.64 936.81 597.66 936.81 586"/>
            <polygon class="cls-61" points="934.55 584.45 934.55 603.44 936.6 604.4 936.61 585.4 934.55 584.45"/>
            <path class="cls-13" d="m941.55,583.7l-4.74,2.3c-8.64-4.95-17.28-9.9-25.92-14.85-1.67,1-3.33,2-5,3l-52.04-31.22,4.04-3.78,48.68,29.29,4.32-2.95,30.66,18.21Z"/>
            <polygon class="cls-61" points="925.55 580.8 925.55 589.6 927.21 590.05 927.21 581.24 925.55 580.8"/>
            <polygon class="cls-61" points="917.55 577.8 917.55 586.6 919.21 587.05 919.21 578.24 917.55 577.8"/>
            <polygon class="cls-92" points="910.89 571.15 905.89 574.15 905.89 592.78 909.25 591.2 909.25 584.41 910.89 583.64 910.89 571.15"/>
            <polygon class="cls-61" points="905.89 574.15 853.85 542.93 854.4 556.72 905.89 586 905.89 574.15"/>
            <polygon class="cls-61" points="894.97 570.63 894.97 579.64 896.63 580.1 896.64 571.08 894.97 570.63"/>
            <polygon class="cls-61" points="902.97 573.63 902.97 582.64 904.63 583.1 904.64 574.08 902.97 573.63"/>
            <polygon class="cls-61" points="884.89 563.63 884.89 572.64 888.62 573.1 888.64 564.08 884.89 563.63"/>
            <polygon class="cls-61" points="878.97 560.63 878.97 569.64 880.63 570.1 880.64 561.08 878.97 560.63"/>
            <polygon class="cls-61" points="869.97 555.63 869.97 564.64 871.63 565.1 871.64 556.08 869.97 555.63"/>
            <polygon class="cls-61" points="861.97 550.63 861.97 559.64 863.63 560.1 863.64 551.08 861.97 550.63"/>
            <polygon class="cls-61" points="903.8 584.41 903.8 591.2 905.89 592.78 905.89 586 903.8 584.41"/>
          </g>
        </g>
      </g>
      <g id="_レイヤー_40のコピー_3" data-name="レイヤー 40のコピー 3">
        <g id="Qパステル工房のコピー_3" data-name="Qパステル工房のコピー 3">
          <polygon class="cls-51" points="660.94 791.31 671.92 801 711.92 777.21 699.92 768 660.94 791.31"/>
          <polygon class="cls-30" points="660.94 791.31 649.11 787.91 689.19 765.16 699.92 768 660.94 791.31"/>
          <polygon class="cls-120" points="671.92 801 671.92 808.97 711.92 785.65 711.92 777.21 671.92 801"/>
          <polygon class="cls-133" points="649.11 787.91 649.11 796.55 671.92 808.97 671.92 801 660.94 791.31 649.11 787.91"/>
          <polygon class="cls-51" points="609.47 822.01 620.45 831.69 660.45 807.9 648.45 798.69 609.47 822.01"/>
          <polygon class="cls-30" points="609.47 822.01 597.64 818.6 637.72 795.86 648.45 798.69 609.47 822.01"/>
          <polygon class="cls-120" points="620.45 831.69 620.45 839.67 660.45 816.35 660.45 807.9 620.45 831.69"/>
          <polygon class="cls-133" points="597.64 818.6 597.64 827.24 620.45 839.67 620.45 831.69 609.47 822.01 597.64 818.6"/>
          <polygon class="cls-30" points="604.92 835 595.92 832 567.92 849 577.92 852 604.92 835"/>
          <polygon class="cls-51" points="577.92 852 587.92 860 615.92 843 604.92 835 577.92 852"/>
          <polygon class="cls-133" points="567.92 849 567.92 856.72 587.92 868 587.92 860 577.92 852 567.92 849"/>
          <polygon class="cls-120" points="587.92 860 615.92 843 615.92 851 587.92 868 587.92 860"/>
          <polygon class="cls-51" points="555.92 794 565.92 803 669.92 743 657.92 733 555.92 794"/>
          <polygon class="cls-30" points="555.92 794 543.92 790 646.92 729 657.92 733 555.92 794"/>
          <polygon class="cls-120" points="565.92 803 565.92 813 669.92 753 669.92 743 565.92 803"/>
          <polygon class="cls-133" points="543.92 790 543.92 799.7 565.92 813 565.92 803 555.92 794 543.92 790"/>
          <polygon class="cls-51" points="456.96 783.3 471.17 795.95 618.92 711.66 601.87 697.61 456.96 783.3"/>
          <polygon class="cls-30" points="456.96 783.3 439.92 777.69 586.24 692 601.87 697.61 456.96 783.3"/>
          <polygon class="cls-120" points="471.17 795.95 471.17 810 618.92 725.71 618.92 711.66 471.17 795.95"/>
          <polygon class="cls-133" points="439.92 777.69 439.92 791.32 471.17 810 471.17 795.95 456.96 783.3 439.92 777.69"/>
          <polygon class="cls-120" points="547.66 796.71 543.92 797.53 540.64 801.36 540.64 807.19 547.66 803 547.66 796.71"/>
          <polygon class="cls-77" points="547.66 796.71 543.92 797.53 511.92 779 516.38 779 547.66 796.71"/>
          <polygon class="cls-117" points="540.64 801.36 543.92 797.53 511.92 779 508.21 783.06 540.64 801.36"/>
          <polygon class="cls-133" points="508.21 783.06 508.21 788.26 540.64 807.19 540.64 801.36 508.21 783.06"/>
          <polygon class="cls-51" points="527.59 794 488.92 816 478.92 811 517.43 788.26 527.59 794"/>
          <polygon class="cls-120" points="488.92 816 488.92 824.21 527.59 803 527.59 794 488.92 816"/>
          <polygon class="cls-133" points="478.92 811 478.92 819.1 488.92 824.21 488.92 816 478.92 811"/>
        </g>
        <g id="I環境工学実験棟のコピー_3" data-name="I環境工学実験棟のコピー 3">
          <polygon class="cls-82" points="335.92 562 252.89 611.25 269.92 603 286.99 614.19 335.69 585.55 335.92 562"/>
          <polygon class="cls-113" points="288.29 590.71 288.29 613.36 291.92 611 291.92 588.76 288.29 590.71"/>
          <polygon class="cls-113" points="303.06 581.59 303.06 605 306.69 602.55 306.69 579.57 303.06 581.59"/>
          <polygon class="cls-113" points="319.06 571.67 319.06 596 322.69 593.46 322.69 569.57 319.06 571.67"/>
          <polygon class="cls-113" points="332.06 564.59 332.06 588 335.69 585.55 335.69 562.57 332.06 564.59"/>
          <polygon class="cls-113" points="210.47 607 210.47 631.02 215.85 634.79 233.69 621.41 210.47 607"/>
          <polygon class="cls-92" points="210.47 607 311.92 548 335.69 562.57 235.92 622.85 210.47 607"/>
        </g>
        <g id="J計算機センターのコピー_3" data-name="J計算機センターのコピー 3">
          <polygon class="cls-17" points="310.92 672 311.92 706.38 355.92 680 354.92 645 310.92 672"/>
          <polygon class="cls-118" points="235.92 653 235.92 667.06 237.92 665.53 237.92 658 254.92 648 254.56 640 235.92 653"/>
          <polygon class="cls-105" points="311.92 692.21 311.92 681.23 254.92 648 237.92 658 256.6 670.1 279.07 672 311.92 692.21"/>
          <polygon class="cls-105" points="354.92 645 296.92 613 252.89 639.06 310.92 672 354.92 645"/>
          <polygon class="cls-30" points="279.07 672 311.92 692.21 311.92 706.38 279.07 686.97 279.07 672"/>
          <polygon class="cls-30" points="311.92 681.23 311.92 671.38 254.56 640 254.92 648 311.92 681.23"/>
          <polygon class="cls-17" points="279.07 672 256.6 670.1 256.92 685 279.07 686.97 279.07 672"/>
          <polygon class="cls-30" points="237.92 658 237.92 673.83 256.92 685 256.6 670.1 237.92 658"/>
          <polygon class="cls-42" points="290.74 616.65 269.92 603 236.92 619 212.92 637 235.92 653 290.74 616.65"/>
          <polygon class="cls-61" points="212.92 637 212.92 654.04 235.92 667.06 235.92 653 212.92 637"/>
        </g>
        <g id="O大谷講堂のコピー_3" data-name="O大谷講堂のコピー 3">
          <polygon class="cls-79" points="134.3 692.21 144.92 701 216.92 659 205.92 650 134.3 692.21"/>
          <polygon class="cls-72" points="134.3 692.21 122.92 688 194.92 646 205.92 650 134.3 692.21"/>
          <polygon class="cls-125" points="182.92 645 194.92 646 122.92 688 111.92 687 182.92 645"/>
          <polygon class="cls-6" points="111.92 687 111.92 701.65 153.92 725 153.92 711 144.92 701 134.3 692.21 122.92 688 111.92 687"/>
          <polygon class="cls-8" points="226.92 669 153.92 711 153.92 725 226.92 684 226.92 669"/>
          <polygon class="cls-46" points="144.92 701 153.92 711 226.92 669 216.92 659 144.92 701"/>
          <polyline class="cls-51" points="144.92 701 143.36 699.71 143.36 719.13 144.92 719.99"/>
        </g>
      </g>
    </g>
  </g>
  <g id="_周辺棟" data-name="周辺棟">
    <g id="_移動のコピー" data-name="移動のコピー">
      <g id="G厚生棟のコピー_5" data-name="G厚生棟のコピー 5">
        <polygon class="cls-36" points="628.32 512.81 635.43 508.68 667.43 527.08 666.82 566.36 659.28 571.62 659.34 530.93 628.32 512.81"/>
        <polygon class="cls-38" points="686.96 538.57 667.08 549.96 667.43 527.08 635.43 508.68 655.31 496.65 687.31 515.05 686.96 538.57"/>
        <polygon class="cls-86" points="686.7 554.08 686.96 538.57 667.08 549.96 666.83 565.57 686.7 554.08"/>
        <g id="G厚生棟">
          <polygon class="cls-111" points="627.3 508.79 627.3 524.37 630.64 522.5 630.64 518.94 627.3 508.79"/>
          <polygon class="cls-137" points="671.9 552.59 671.9 557 686.66 548.72 686.96 543.59 671.9 552.59"/>
          <path class="cls-38" d="m704.26,529.07l42.38-25.84-21.19-13.59-13.81,9.3-20.17-12.41,13.17-7.86c-2.5-1.66-6.27-4.06-11-6.72-5.1-2.87-7.65-4.3-10-5-1.81-.54-3.64-.71-5.62-.52-4.3.42-9.31,2.58-16.38,6.52-21.33,11.88-32,17.81-34,29-.56,3.14-.92,9.04,3,17v-8l42-24.41,32,18.4-.38,24.13Z"/>
          <polygon class="cls-86" points="704.64 478.66 704.64 494.63 691.47 486.53 704.64 478.66"/>
          <polygon class="cls-86" points="746.64 503.23 746.64 507 724.06 519.94 724.06 532.94 704.03 544.15 704.26 529.07 746.64 503.23"/>
          <polygon class="cls-86" points="724.06 532.94 724.06 540.14 721.34 541.76 721.34 534.46 724.06 532.94"/>
          <polygon class="cls-86" points="716.3 536.66 716.3 543.85 713.58 545.48 713.58 538.18 716.3 536.66"/>
          <polygon class="cls-86" points="709.3 540.66 709.3 547.85 706.58 549.48 706.58 542.18 709.3 540.66"/>
          <polygon class="cls-137" points="706.58 532.94 706.58 537.35 721.34 529.07 721.64 523.94 706.58 532.94"/>
          <polygon class="cls-86" points="712.64 527.74 712.64 534.94 711.39 536.56 711.39 529.26 712.64 527.74"/>
          <polygon class="cls-86" points="717.64 524.74 717.64 531.94 716.39 533.56 716.39 526.26 717.64 524.74"/>
          <polygon class="cls-38" points="655.31 496.65 687.31 515.05 704.64 504.94 672.64 486.54 655.31 496.65"/>
          <polygon class="cls-38" points="687.31 515.05 704.64 504.94 704.26 529.07 686.96 538.57 687.31 515.05"/>
          <polygon class="cls-86" points="686.96 538.57 704.26 529.07 704.03 544.15 686.7 554.33 686.96 538.57"/>
          <polygon class="cls-86" points="702.83 544.53 702.83 551.73 700.11 553.35 700.11 546.05 702.83 544.53"/>
          <polygon class="cls-86" points="695.85 548.94 695.85 556.13 693.13 557.76 693.13 550.46 695.85 548.94"/>
          <polygon class="cls-86" points="689.42 552.56 689.42 559.75 686.7 561.38 686.7 554.08 689.42 552.56"/>
          <polygon class="cls-86" points="682.69 556.18 682.69 563.37 679.97 565 679.97 557.7 682.69 556.18"/>
          <polygon class="cls-86" points="675.67 559.77 675.67 566.96 672.95 568.59 672.95 561.29 675.67 559.77"/>
          <polygon class="cls-86" points="669.55 563.64 669.55 570.83 666.83 572.46 666.83 565.16 669.55 563.64"/>
          <polygon class="cls-137" points="689.68 542.56 689.68 546.97 704.44 538.69 704.74 533.56 689.68 542.56"/>
          <polygon class="cls-86" points="695.74 537.36 695.74 544.56 694.49 546.18 694.49 538.88 695.74 537.36"/>
          <polygon class="cls-86" points="683.32 543.59 683.32 550.79 682.07 552.41 682.07 545.11 683.32 543.59"/>
          <polygon class="cls-86" points="677.7 547.23 677.7 554.43 676.45 556.05 676.45 548.75 677.7 547.23"/>
          <polygon class="cls-86" points="700.74 534.36 700.74 541.56 699.49 543.18 699.49 535.88 700.74 534.36"/>
        </g>
      </g>
      <g id="Fcopy">
        <g>
          <polygon class="cls-132" points="781.4 545.86 731.4 516.36 724.83 520.36 753.11 535.93 757.4 533.36 779.37 547.27 781.4 545.86"/>
          <polygon class="cls-34" points="724.83 520.36 724.83 531.82 747.49 545.18 752.4 542.36 752.4 536.36 753.11 535.93 724.83 520.36"/>
          <polygon class="cls-132" points="753.11 535.93 776.98 549.33 781.07 546.35 758.51 532.36 753.11 535.93"/>
          <polygon class="cls-34" points="747.49 545.18 765.72 555.65 776.98 549.33 753.11 535.93 752.4 536.36 752.4 537.43 751.4 539.36 751.15 539.67 753.4 541 753.4 544.36 751.03 543.15 747.49 545.18"/>
          <polygon class="cls-34" points="729.48 522.92 729.4 541.36 731.4 542.36 731.4 523.98 729.48 522.92"/>
          <polygon class="cls-34" points="735.72 526.74 735.65 545.18 737.65 546.18 737.65 527.8 735.72 526.74"/>
          <polygon class="cls-34" points="744.72 531.74 744.65 550.18 746.65 551.18 746.65 532.8 744.72 531.74"/>
          <polygon class="cls-34" points="754.72 537.74 754.65 556.18 756.65 557.18 756.65 538.8 754.72 537.74"/>
          <polygon class="cls-34" points="763.72 543.74 763.65 562.18 765.65 563.18 765.65 544.8 763.72 543.74"/>
          <polygon class="cls-57" points="737.9 531.82 737.9 535.38 743.9 538.96 743.9 535.39 737.9 531.82"/>
          <polygon class="cls-57" points="757.4 542.82 757.4 546.38 763.4 549.96 763.4 546.39 757.4 542.82"/>
          <polygon class="cls-57" points="766.4 547.82 766.4 551.38 772.4 554.96 772.4 551.39 766.4 547.82"/>
          <polygon class="cls-57" points="747.4 537.43 747.4 540.99 753.4 544.57 753.4 541 747.4 537.43"/>
          <polygon class="cls-57" points="728.4 525.92 728.4 529.48 734.4 533.06 734.4 529.49 728.4 525.92"/>
        </g>
        <g>
          <path class="cls-38" d="m887.69,632.81l-56.29-32.45,32-19,57,33c-10.9,6.15-21.81,12.3-32.71,18.45Z"/>
          <polygon class="cls-23" points="868.85 621.95 868.85 643.53 887.69 632.81 868.85 621.95"/>
          <polygon class="cls-11" points="868.85 621.95 831.4 600.36 831.4 632.36 868.85 652.76 868.85 621.95"/>
          <polygon class="cls-57" points="840.4 612.36 861.55 624.36 861.55 629.89 840.4 618.23 840.4 612.36"/>
          <polygon class="cls-57" points="840.34 621.89 861.49 633.89 861.49 639.42 840.34 627.76 840.34 621.89"/>
          <polygon class="cls-57" points="840.34 631.89 861.49 643.89 861.49 649.42 840.34 637.76 840.34 631.89"/>
          <polygon class="cls-57" points="833.34 627.89 854.49 639.89 854.49 645.42 833.34 633.76 833.34 627.89"/>
          <polygon class="cls-11" points="831.4 600.36 831.4 634.83 833.89 635.81 833.89 601.97 831.4 600.36"/>
          <polygon class="cls-11" points="837.67 604.64 837.67 639.11 840.16 640.08 840.16 606.24 837.67 604.64"/>
          <polygon class="cls-11" points="845.67 608.64 845.67 643.11 848.16 644.08 848.16 610.24 845.67 608.64"/>
          <polygon class="cls-11" points="853.67 613.64 853.67 648.11 856.16 649.08 856.16 615.24 853.67 613.64"/>
          <polygon class="cls-11" points="861.67 617.64 861.67 652.11 864.16 653.08 864.16 619.24 861.67 617.64"/>
          <polygon class="cls-128" points="833.89 598.88 822.66 591.86 817.72 595.37 831.4 603.42 831.4 600.36 833.89 598.88"/>
          <polygon class="cls-111" points="817.72 595.37 817.4 624.36 831.4 632.36 831.4 603.42 817.72 595.37"/>
          <polygon class="cls-38" points="806.4 554.36 787.48 565.89 787.48 586.86 806.4 596.87 842.4 576.36 806.4 554.36"/>
          <polygon class="cls-111" points="787.48 586.86 787.48 618.15 806.32 628.86 806.4 596.87 787.48 586.86"/>
          <polygon class="cls-56" points="842.4 576.36 842.4 593.83 833.89 598.88 822.66 591.86 817.72 595.37 817.4 624.36 806.32 628.86 806.4 596.87 842.4 576.36"/>
          <polyline class="cls-137" points="828.4 589.36 832.65 586.86 832.65 591.17 828.4 593.36 828.4 589.36"/>
          <polyline class="cls-137" points="835.64 585.36 839.89 582.86 839.89 587.16 835.64 589.36 835.64 585.36"/>
          <polygon class="cls-74" points="787.48 565.89 806.4 554.36 830.92 569.34 839.59 562.86 796.94 536.36 779.37 547.27 787.4 552.36 787.48 565.89"/>
          <polygon class="cls-126" points="839.59 562.86 839.59 574.64 830.92 569.34 839.59 562.86"/>
          <polygon class="cls-38" points="806.4 554.36 787.35 565.67 769.34 576.36 787.48 586.86 806.4 554.36"/>
          <polygon class="cls-111" points="769.34 576.36 787.48 586.86 787.48 618.15 769.34 607.86 769.34 576.36"/>
          <polygon class="cls-74" points="781.07 546.35 763.38 557.07 782.27 569.12 800.55 558.76 781.07 546.35"/>
          <polygon class="cls-111" points="763.38 557.07 763.38 583.8 769.34 587.86 769.34 576.36 782.27 569.12 763.38 557.07"/>
        </g>
      </g>
      <g id="_屋台" data-name="屋台">
        <g id="_屋台のコピー_5" data-name="屋台のコピー 5">
          <g>
            <polygon class="cls-124" points="721.98 631.35 721.98 615.21 722.77 615.72 722.77 631.83 721.98 631.35"/>
            <polygon class="cls-124" points="748.43 636.41 748.43 620.81 749.3 621.31 749.3 636.87 748.43 636.41"/>
            <polygon class="cls-124" points="738.02 640.73 738.02 620.35 738.92 620.99 738.92 641.33 738.02 640.73"/>
            <g>
              <polygon class="cls-135" points="719.95 614.79 739.81 626.42 751.27 619.66 731.15 607.84 719.95 614.79"/>
              <polygon class="cls-115" points="719.98 620.21 719.95 614.79 739.81 626.42 739.85 631.83 719.98 620.21"/>
              <polygon class="cls-24" points="739.85 631.83 751.3 625.2 751.27 619.66 739.81 626.42 739.85 631.83"/>
            </g>
            <polygon class="cls-31" points="719.95 618.92 739.81 630.39 739.85 631.83 719.98 620.21 719.95 618.92"/>
            <polygon class="cls-20" points="751.3 625.2 739.85 631.83 739.81 630.39 751.27 623.98 751.3 625.2"/>
            <polygon class="cls-115" points="719.96 614.75 739.83 626.38 739.83 641.97 719.96 630.46 719.96 614.75"/>
          </g>
          <g>
            <polygon class="cls-124" points="749.29 648.66 749.29 632.51 750.08 633.03 750.08 649.14 749.29 648.66"/>
            <polygon class="cls-124" points="775.75 653.71 775.75 638.12 776.61 638.61 776.61 654.17 775.75 653.71"/>
            <polygon class="cls-124" points="765.33 658.04 765.33 637.65 766.23 638.3 766.23 658.64 765.33 658.04"/>
            <g>
              <polygon class="cls-135" points="747.26 632.1 767.12 643.73 778.58 636.97 758.46 625.14 747.26 632.1"/>
              <polygon class="cls-115" points="747.29 637.52 747.26 632.1 767.12 643.73 767.16 649.14 747.29 637.52"/>
              <polygon class="cls-24" points="767.16 649.14 778.61 642.5 778.58 636.97 767.12 643.73 767.16 649.14"/>
            </g>
            <polygon class="cls-136" points="747.26 636.23 767.12 647.69 767.16 649.14 747.29 637.52 747.26 636.23"/>
            <polygon class="cls-20" points="778.61 642.5 767.16 649.14 767.12 647.69 778.58 641.29 778.61 642.5"/>
          </g>
          <g>
            <polygon class="cls-124" points="776.36 665.57 776.36 649.42 777.15 649.93 777.15 666.04 776.36 665.57"/>
            <polygon class="cls-124" points="802.82 670.62 802.82 655.02 803.69 655.52 803.69 671.08 802.82 670.62"/>
            <polygon class="cls-124" points="792.4 674.94 792.4 654.56 793.3 655.21 793.3 675.54 792.4 674.94"/>
            <g>
              <polygon class="cls-135" points="774.33 649 794.2 660.63 805.65 653.87 785.54 642.05 774.33 649"/>
              <polygon class="cls-115" points="774.37 654.43 774.33 649 794.2 660.63 794.24 666.04 774.37 654.43"/>
              <polygon class="cls-24" points="794.24 666.04 805.69 659.41 805.65 653.87 794.2 660.63 794.24 666.04"/>
            </g>
            <polygon class="cls-136" points="774.33 653.13 794.2 664.6 794.24 666.04 774.37 654.43 774.33 653.13"/>
            <polygon class="cls-20" points="805.69 659.41 794.24 666.04 794.2 664.6 805.65 658.19 805.69 659.41"/>
          </g>
          <g>
            <polygon class="cls-115" points="726.22 572.71 746.09 584.35 746.09 599.93 726.22 588.42 726.22 572.71"/>
            <polygon class="cls-124" points="716.79 596.01 716.79 579.86 717.58 580.38 717.58 596.49 716.79 596.01"/>
            <g>
              <path class="cls-5" d="m717.58,591.86l15.83,9.27c1.64-.96,3.27-1.93,4.9-2.89-5.34-3.09-10.69-6.17-16.03-9.26l-4.71,2.89Z"/>
              <polygon class="cls-5" points="717.58 591.86 717.58 596.39 733.41 605.66 733.41 601.12 717.58 591.86"/>
              <polygon class="cls-5" points="738.31 598.23 733.41 601.12 733.41 605.66 738.31 602.76 738.31 598.23"/>
            </g>
            <polygon class="cls-124" points="743.25 601.07 743.25 585.47 744.11 585.97 744.11 601.52 743.25 601.07"/>
            <polygon class="cls-124" points="732.83 605.39 732.83 585 733.73 585.65 733.73 605.99 732.83 605.39"/>
            <g>
              <polygon class="cls-135" points="714.76 579.45 734.62 591.08 746.08 584.32 725.96 572.49 714.76 579.45"/>
              <polygon class="cls-115" points="714.79 584.87 714.76 579.45 734.62 591.08 734.66 596.49 714.79 584.87"/>
              <polygon class="cls-24" points="734.66 596.49 746.11 589.85 746.08 584.32 734.62 591.08 734.66 596.49"/>
            </g>
            <polygon class="cls-31" points="714.76 583.58 734.62 595.05 734.66 596.49 714.79 584.87 714.76 583.58"/>
            <polygon class="cls-20" points="746.11 589.85 734.66 596.49 734.62 595.05 746.08 588.64 746.11 589.85"/>
          </g>
          <g>
            <polygon class="cls-115" points="754.35 589.7 774.22 601.34 774.22 616.92 754.35 605.41 754.35 589.7"/>
            <polygon class="cls-124" points="744.91 613 744.91 596.86 745.7 597.37 745.7 613.48 744.91 613"/>
            <polygon class="cls-124" points="771.37 618.06 771.37 602.46 772.24 602.96 772.24 618.52 771.37 618.06"/>
            <polygon class="cls-124" points="760.95 622.38 760.95 602 761.85 602.64 761.85 622.98 760.95 622.38"/>
            <g>
              <polygon class="cls-135" points="742.88 596.44 762.75 608.07 774.21 601.31 754.09 589.48 742.88 596.44"/>
              <polygon class="cls-115" points="742.92 601.86 742.88 596.44 762.75 608.07 762.79 613.48 742.92 601.86"/>
              <polygon class="cls-24" points="762.79 613.48 774.24 606.85 774.21 601.31 762.75 608.07 762.79 613.48"/>
            </g>
            <polygon class="cls-136" points="742.88 600.57 762.75 612.04 762.79 613.48 742.92 601.86 742.88 600.57"/>
            <polygon class="cls-20" points="774.24 606.85 762.79 613.48 762.75 612.04 774.21 605.63 774.24 606.85"/>
          </g>
          <g>
            <polygon class="cls-115" points="784.84 608.63 804.7 620.27 804.7 635.86 784.84 624.35 784.84 608.63"/>
            <polygon class="cls-124" points="775.4 631.94 775.4 615.79 776.19 616.3 776.19 632.41 775.4 631.94"/>
            <polygon class="cls-124" points="801.86 636.99 801.86 621.39 802.73 621.89 802.73 637.45 801.86 636.99"/>
            <polygon class="cls-124" points="791.44 641.31 791.44 620.93 792.34 621.58 792.34 641.91 791.44 641.31"/>
            <g>
              <polygon class="cls-135" points="773.37 615.37 793.24 627 804.69 620.24 784.58 608.42 773.37 615.37"/>
              <polygon class="cls-115" points="773.41 620.8 773.37 615.37 793.24 627 793.27 632.41 773.41 620.8"/>
              <polygon class="cls-24" points="793.27 632.41 804.73 625.78 804.69 620.24 793.24 627 793.27 632.41"/>
            </g>
            <polygon class="cls-136" points="773.37 619.5 793.24 630.97 793.27 632.41 773.41 620.8 773.37 619.5"/>
            <polygon class="cls-20" points="804.73 625.78 793.27 632.41 793.24 630.97 804.69 624.56 804.73 625.78"/>
          </g>
          <polygon class="cls-115" points="812.24 625.05 832.11 636.69 832.11 652.27 812.24 640.76 812.24 625.05"/>
          <polygon class="cls-124" points="802.81 648.35 802.81 632.2 803.6 632.72 803.6 648.83 802.81 648.35"/>
          <polygon class="cls-47" points="824.33 650.57 819.43 653.46 819.43 658 824.33 655.1 824.33 650.57"/>
          <polygon class="cls-124" points="829.27 653.4 829.27 637.81 830.14 638.31 830.14 653.86 829.27 653.4"/>
          <polygon class="cls-124" points="818.85 657.73 818.85 637.34 819.75 637.99 819.75 658.33 818.85 657.73"/>
          <g>
            <polygon class="cls-135" points="800.78 631.79 820.64 643.42 832.1 636.66 811.98 624.83 800.78 631.79"/>
            <polygon class="cls-115" points="800.81 637.21 800.78 631.79 820.64 643.42 820.68 648.83 800.81 637.21"/>
            <polygon class="cls-24" points="820.68 648.83 832.14 642.19 832.1 636.66 820.64 643.42 820.68 648.83"/>
          </g>
          <polygon class="cls-136" points="800.78 635.92 820.64 647.38 820.68 648.83 800.81 637.21 800.78 635.92"/>
          <polygon class="cls-20" points="832.14 642.19 820.68 648.83 820.64 647.38 832.1 640.98 832.14 642.19"/>
        </g>
        <g id="_灰色のコピー" data-name="灰色のコピー">
          <g id="_屋台のコピー_6" data-name="屋台のコピー 6">
            <g>
              <polygon class="cls-124" points="721.98 631.35 721.98 615.21 722.77 615.72 722.77 631.83 721.98 631.35"/>
              <polygon class="cls-124" points="748.43 636.41 748.43 620.81 749.3 621.31 749.3 636.87 748.43 636.41"/>
              <polygon class="cls-124" points="738.02 640.73 738.02 620.35 738.92 620.99 738.92 641.33 738.02 640.73"/>
              <g>
                <polygon class="cls-83" points="719.95 614.79 739.81 626.42 751.27 619.66 731.15 607.84 719.95 614.79"/>
                <polygon class="cls-80" points="719.98 620.21 719.95 614.79 739.81 626.42 739.85 631.83 719.98 620.21"/>
                <polygon class="cls-21" points="739.85 631.83 751.3 625.2 751.27 619.66 739.81 626.42 739.85 631.83"/>
              </g>
              <polygon class="cls-70" points="719.95 618.92 739.81 630.39 739.85 631.83 719.98 620.21 719.95 618.92"/>
              <polygon class="cls-20" points="751.3 625.2 739.85 631.83 739.81 630.39 751.27 623.98 751.3 625.2"/>
              <polygon class="cls-80" points="719.96 614.75 739.83 626.38 739.83 641.97 719.96 630.46 719.96 614.75"/>
            </g>
            <g>
              <polygon class="cls-124" points="749.29 648.66 749.29 632.51 750.08 633.03 750.08 649.14 749.29 648.66"/>
              <polygon class="cls-124" points="775.75 653.71 775.75 638.12 776.61 638.61 776.61 654.17 775.75 653.71"/>
              <polygon class="cls-124" points="765.33 658.04 765.33 637.65 766.23 638.3 766.23 658.64 765.33 658.04"/>
              <g>
                <polygon class="cls-83" points="747.26 632.1 767.12 643.73 778.58 636.97 758.46 625.14 747.26 632.1"/>
                <polygon class="cls-80" points="747.29 637.52 747.26 632.1 767.12 643.73 767.16 649.14 747.29 637.52"/>
                <polygon class="cls-21" points="767.16 649.14 778.61 642.5 778.58 636.97 767.12 643.73 767.16 649.14"/>
              </g>
              <polygon class="cls-27" points="747.26 636.23 767.12 647.69 767.16 649.14 747.29 637.52 747.26 636.23"/>
              <polygon class="cls-20" points="778.61 642.5 767.16 649.14 767.12 647.69 778.58 641.29 778.61 642.5"/>
            </g>
            <g>
              <polygon class="cls-124" points="776.36 665.57 776.36 649.42 777.15 649.93 777.15 666.04 776.36 665.57"/>
              <polygon class="cls-124" points="802.82 670.62 802.82 655.02 803.69 655.52 803.69 671.08 802.82 670.62"/>
              <polygon class="cls-124" points="792.4 674.94 792.4 654.56 793.3 655.21 793.3 675.54 792.4 674.94"/>
              <g>
                <polygon class="cls-83" points="774.33 649 794.2 660.63 805.65 653.87 785.54 642.05 774.33 649"/>
                <polygon class="cls-80" points="774.37 654.43 774.33 649 794.2 660.63 794.24 666.04 774.37 654.43"/>
                <polygon class="cls-21" points="794.24 666.04 805.69 659.41 805.65 653.87 794.2 660.63 794.24 666.04"/>
              </g>
              <polygon class="cls-27" points="774.33 653.13 794.2 664.6 794.24 666.04 774.37 654.43 774.33 653.13"/>
              <polygon class="cls-20" points="805.69 659.41 794.24 666.04 794.2 664.6 805.65 658.19 805.69 659.41"/>
            </g>
            <g>
              <polygon class="cls-80" points="726.22 572.71 746.09 584.35 746.09 599.93 726.22 588.42 726.22 572.71"/>
              <polygon class="cls-124" points="716.79 596.01 716.79 579.86 717.58 580.38 717.58 596.49 716.79 596.01"/>
              <g>
                <path class="cls-5" d="m717.58,591.86l15.83,9.27c1.64-.96,3.27-1.93,4.9-2.89-5.34-3.09-10.69-6.17-16.03-9.26l-4.71,2.89Z"/>
                <polygon class="cls-5" points="717.58 591.86 717.58 596.39 733.41 605.66 733.41 601.12 717.58 591.86"/>
                <polygon class="cls-5" points="738.31 598.23 733.41 601.12 733.41 605.66 738.31 602.76 738.31 598.23"/>
              </g>
              <polygon class="cls-124" points="743.25 601.07 743.25 585.47 744.11 585.97 744.11 601.52 743.25 601.07"/>
              <polygon class="cls-124" points="732.83 605.39 732.83 585 733.73 585.65 733.73 605.99 732.83 605.39"/>
              <g>
                <polygon class="cls-83" points="714.76 579.45 734.62 591.08 746.08 584.32 725.96 572.49 714.76 579.45"/>
                <polygon class="cls-80" points="714.79 584.87 714.76 579.45 734.62 591.08 734.66 596.49 714.79 584.87"/>
                <polygon class="cls-21" points="734.66 596.49 746.11 589.85 746.08 584.32 734.62 591.08 734.66 596.49"/>
              </g>
              <polygon class="cls-70" points="714.76 583.58 734.62 595.05 734.66 596.49 714.79 584.87 714.76 583.58"/>
              <polygon class="cls-20" points="746.11 589.85 734.66 596.49 734.62 595.05 746.08 588.64 746.11 589.85"/>
            </g>
            <g>
              <polygon class="cls-80" points="754.35 589.7 774.22 601.34 774.22 616.92 754.35 605.41 754.35 589.7"/>
              <polygon class="cls-124" points="744.91 613 744.91 596.86 745.7 597.37 745.7 613.48 744.91 613"/>
              <polygon class="cls-124" points="771.37 618.06 771.37 602.46 772.24 602.96 772.24 618.52 771.37 618.06"/>
              <polygon class="cls-124" points="760.95 622.38 760.95 602 761.85 602.64 761.85 622.98 760.95 622.38"/>
              <g>
                <polygon class="cls-83" points="742.88 596.44 762.75 608.07 774.21 601.31 754.09 589.48 742.88 596.44"/>
                <polygon class="cls-80" points="742.92 601.86 742.88 596.44 762.75 608.07 762.79 613.48 742.92 601.86"/>
                <polygon class="cls-21" points="762.79 613.48 774.24 606.85 774.21 601.31 762.75 608.07 762.79 613.48"/>
              </g>
              <polygon class="cls-27" points="742.88 600.57 762.75 612.04 762.79 613.48 742.92 601.86 742.88 600.57"/>
              <polygon class="cls-20" points="774.24 606.85 762.79 613.48 762.75 612.04 774.21 605.63 774.24 606.85"/>
            </g>
            <g>
              <polygon class="cls-80" points="784.84 608.63 804.7 620.27 804.7 635.86 784.84 624.35 784.84 608.63"/>
              <polygon class="cls-124" points="775.4 631.94 775.4 615.79 776.19 616.3 776.19 632.41 775.4 631.94"/>
              <polygon class="cls-124" points="801.86 636.99 801.86 621.39 802.73 621.89 802.73 637.45 801.86 636.99"/>
              <polygon class="cls-124" points="791.44 641.31 791.44 620.93 792.34 621.58 792.34 641.91 791.44 641.31"/>
              <g>
                <polygon class="cls-83" points="773.37 615.37 793.24 627 804.69 620.24 784.58 608.42 773.37 615.37"/>
                <polygon class="cls-80" points="773.41 620.8 773.37 615.37 793.24 627 793.27 632.41 773.41 620.8"/>
                <polygon class="cls-21" points="793.27 632.41 804.73 625.78 804.69 620.24 793.24 627 793.27 632.41"/>
              </g>
              <polygon class="cls-27" points="773.37 619.5 793.24 630.97 793.27 632.41 773.41 620.8 773.37 619.5"/>
              <polygon class="cls-20" points="804.73 625.78 793.27 632.41 793.24 630.97 804.69 624.56 804.73 625.78"/>
            </g>
            <polygon class="cls-80" points="812.24 625.05 832.11 636.69 832.11 652.27 812.24 640.76 812.24 625.05"/>
            <polygon class="cls-124" points="802.81 648.35 802.81 632.2 803.6 632.72 803.6 648.83 802.81 648.35"/>
            <polygon class="cls-108" points="824.33 650.57 819.43 653.46 819.43 658 824.33 655.1 824.33 650.57"/>
            <polygon class="cls-124" points="829.27 653.4 829.27 637.81 830.14 638.31 830.14 653.86 829.27 653.4"/>
            <polygon class="cls-124" points="818.85 657.73 818.85 637.34 819.75 637.99 819.75 658.33 818.85 657.73"/>
            <g>
              <polygon class="cls-83" points="800.78 631.79 820.64 643.42 832.1 636.66 811.98 624.83 800.78 631.79"/>
              <polygon class="cls-80" points="800.81 637.21 800.78 631.79 820.64 643.42 820.68 648.83 800.81 637.21"/>
              <polygon class="cls-21" points="820.68 648.83 832.14 642.19 832.1 636.66 820.64 643.42 820.68 648.83"/>
            </g>
            <polygon class="cls-27" points="800.78 635.92 820.64 647.38 820.68 648.83 800.81 637.21 800.78 635.92"/>
            <polygon class="cls-20" points="832.14 642.19 820.68 648.83 820.64 647.38 832.1 640.98 832.14 642.19"/>
          </g>
          <g>
            <polygon class="cls-63" points="842.31 636.45 880.56 658.85 880.56 688.86 842.31 666.7 842.31 636.45"/>
            <polygon class="cls-2" points="824.15 681.31 824.15 650.22 825.67 651.21 825.67 682.23 824.15 681.31"/>
            <g>
              <path class="cls-129" d="m825.67,673.31l30.48,17.84c3.15-1.86,6.3-3.72,9.44-5.57-10.29-5.94-20.58-11.88-30.86-17.82-3.02,1.85-6.04,3.71-9.06,5.56Z"/>
              <polygon class="cls-10" points="825.67 673.31 825.67 682.04 856.15 699.88 856.15 691.15 825.67 673.31"/>
              <polygon class="cls-33" points="865.59 685.58 856.15 691.15 856.15 699.88 865.59 694.31 865.59 685.58"/>
            </g>
            <polygon class="cls-2" points="875.09 691.04 875.09 661.01 876.76 661.97 876.76 691.92 875.09 691.04"/>
            <polygon class="cls-2" points="855.03 699.37 855.03 660.12 856.76 661.37 856.76 700.52 855.03 699.37"/>
            <g>
              <polygon class="cls-67" points="820.24 649.43 858.48 671.81 880.54 658.8 841.81 636.03 820.24 649.43"/>
              <polygon class="cls-58" points="820.3 659.86 820.24 649.43 858.48 671.81 858.55 682.23 820.3 659.86"/>
              <polygon class="cls-60" points="858.55 682.23 880.61 669.46 880.54 658.8 858.48 671.81 858.55 682.23"/>
            </g>
            <polygon class="cls-27" points="820.24 657.38 858.48 679.45 858.55 682.23 820.3 659.86 820.24 657.38"/>
            <polygon class="cls-20" points="880.61 669.46 858.55 682.23 858.48 679.45 880.54 667.11 880.61 669.46"/>
          </g>
        </g>
      </g>
      <g id="P学生会館のコピー">
        <g>
          <polygon class="cls-112" points="519.4 566.81 519.4 593.41 534.4 590.81 519.4 566.81"/>
          <polygon class="cls-26" points="519.4 566.81 546.4 584.81 534.4 590.81 519.4 566.81"/>
          <polygon class="cls-7" points="519.4 566.81 548.4 566.81 546.4 584.81 519.4 566.81"/>
          <polygon class="cls-94" points="519.4 566.81 548.4 566.81 534.4 558.81 519.4 566.81"/>
          <polygon class="cls-121" points="519.4 566.81 534.4 558.81 519.4 556.81 519.4 566.81"/>
          <polygon class="cls-94" points="519.4 566.81 519.4 556.81 503.4 558.81 519.4 566.81"/>
          <polygon class="cls-7" points="519.4 566.81 503.9 559.06 491.4 565.81 519.4 566.81"/>
          <polygon class="cls-26" points="491.4 565.81 493.4 583.81 519.4 566.81 491.4 565.81"/>
          <polygon class="cls-112" points="493.4 583.81 503.74 590.81 519.4 566.81 493.4 583.81"/>
          <polygon class="cls-68" points="503.74 590.81 519.4 593.41 519.4 566.81 503.74 590.81"/>
          <polygon class="cls-44" points="519.4 593.41 519.4 603.81 534.4 601.58 534.4 590.81 519.4 593.41"/>
          <polygon class="cls-50" points="546.4 584.81 534.4 590.81 534.4 601.58 546.4 590.81 546.4 584.81"/>
          <polygon class="cls-88" points="548.4 566.81 546.4 584.81 546.4 590.81 548.4 585.31 548.4 566.81"/>
          <polygon class="cls-109" points="519.4 603.81 503.74 601.58 503.74 590.81 519.4 593.41 519.4 603.81"/>
          <polygon class="cls-44" points="493.4 583.81 493.4 595.45 503.74 601.58 503.74 590.81 493.4 583.81"/>
          <polygon class="cls-88" points="491.4 565.81 491.4 584.3 493.4 595.45 493.4 583.81 491.4 565.81"/>
          <polygon class="cls-26" points="491.4 569.5 483.49 565.81 471.4 572.81 491.4 584.3 491.4 569.5"/>
          <polygon class="cls-109" points="493.4 595.45 471.4 583.11 471.4 572.81 491.4 584.3 493.4 595.45"/>
          <polygon class="cls-121" points="483.49 565.81 491.4 566.81 491.4 569.5 483.49 565.81"/>
          <polygon class="cls-26" points="471.4 583.11 460.4 590.81 478.89 601.58 489.76 593.41 471.4 583.11"/>
          <polygon class="cls-109" points="486.27 596.04 493.4 599.2 493.4 595.45 489.76 593.41 486.27 596.04"/>
          <polygon class="cls-96" points="493.4 595.45 493.4 599.2 503.74 604.47 503.74 601.58 493.4 595.45"/>
          <polygon class="cls-32" points="518.97 603.75 518.97 607.96 503.74 604.47 503.74 601.58 518.97 603.75"/>
          <polygon class="cls-96" points="534.4 601.58 534.4 604.77 518.97 607.96 518.97 603.75 534.4 601.58"/>
          <polygon class="cls-100" points="546.4 590.81 534.4 601.58 534.4 604.77 544.51 597.31 546.4 590.81"/>
          <polygon class="cls-32" points="503.74 604.47 503.74 609.15 505.4 609.58 505.4 604.77 503.74 604.47"/>
          <polygon class="cls-96" points="518.97 607.96 518.97 611.37 520.4 610.81 520.4 607.67 518.97 607.96"/>
          <polygon class="cls-96" points="532.9 605.08 532.9 609.15 534.4 608.47 534.4 604.77 532.9 605.08"/>
          <polygon class="cls-100" points="543.01 598.42 543.01 602.94 544.4 601.81 544.51 597.31 543.01 598.42"/>
          <polygon class="cls-109" points="478.89 601.58 478.89 605.67 479.91 604.77 479.91 600.81 478.89 601.58"/>
          <polygon class="cls-26" points="441.4 543.81 421.4 560.81 456.4 581.81 475.08 565.81 441.4 543.81"/>
          <polygon class="cls-121" points="459.4 538.81 441.4 543.81 475.08 565.81 494.13 559.06 459.4 538.81"/>
          <polygon class="cls-114" points="399.4 530.81 432.93 551.02 441.4 543.81 444.08 543.07 412.4 525.81 399.4 530.81"/>
          <polygon class="cls-95" points="387.4 555.81 387.15 543.48 422.4 564.81 424.38 562.6 424.38 577.84 387.4 555.81"/>
          <polygon class="cls-109" points="456.43 581.81 456.88 597.31 424.4 577.84 424.4 562.6 456.43 581.81"/>
          <polygon class="cls-50" points="492.97 559.47 493.4 564.73 491.4 565.81 491.4 566.81 483.49 565.81 471.4 572.81 471.4 583.11 460.4 590.81 465.55 593.81 456.85 597.31 455.91 581.81 475.08 565.81 492.97 559.47"/>
          <polygon class="cls-73" points="399.4 530.81 384.4 541.81 422.4 564.81 424.38 562.6 421.4 560.81 432.93 551.02 399.4 530.81"/>
        </g>
      </g>
      <g id="Ncopy">
        <polygon class="cls-132" points="745.91 688 696.91 716.14 696.91 732.16 702.7 735.39 745.54 708.63 745.91 688"/>
        <path class="cls-48" d="m744.94,703.11c.65-2.88,14.99,1.44,14.99,1.44,6.84,2.06,17.21,2.17,31.98-7.55v7.55c-3.97,3.39-11.22,8.57-20.99,10.05-12.11,1.84-21.57-3-25.99-5.74,0-.62,0-1.63,0-2.87-.01-2.5-.04-2.68,0-2.87Z"/>
        <path class="cls-98" d="m744.92,698.61c.66-2,14.99,1.07,15,1.07,6.84,1.47,17.21,1.6,32.02-5.1,0,1.75-.02,3.51-.03,5.26-3.98,2.34-11.26,5.91-21.03,6.9-12.13,1.22-21.57-2.2-25.98-4.13,0-.43.01-1.13,0-2,0-1.74-.04-1.86,0-2Z"/>
        <path class="cls-107" d="m736.91,683c1.55.85,8.99,6,9,6l-48.42,27.7-42-24,28.42-15.7v-9l14.2-8.35v3.57l5.38,2.89,34.18-20.06c8.75,4.98,17.49,9.96,26.24,14.93-3.24-.25-9.79-.3-17,3-5.37,2.45-8.96,5.78-11,8v11"/>
        <polyline class="cls-12" points="650.99 631.53 650.99 695.66 683.99 677.66 683.99 612 650.99 631.66"/>
        <polyline class="cls-45" points="683.99 612 683.99 653.57 703.99 642.66 703.99 666.09 741.99 643.79 741.99 577.66 683.99 612"/>
        <polygon class="cls-67" points="659.91 530.59 654.91 533.59 653.91 593 658.91 595.55 659.91 530.59"/>
        <polyline class="cls-84" points="575.91 548 575.91 555 553 568.05 547.91 565 575.91 548"/>
        <path class="cls-123" d="m537.91,631l-1-66,1,66Z"/>
        <polygon class="cls-123" points="567.91 648 567.91 583.36 536.91 565 537.91 631 567.91 648"/>
        <polygon class="cls-123" points="584.91 593 584.91 659 650.91 696 650.91 631.87 584.91 593"/>
        <polygon class="cls-67" points="572.91 580 572.91 645.53 567.91 648 572.91 580"/>
        <polygon class="cls-67" points="567.91 583.36 572.91 580 572.91 645.53 567.91 648 567.91 583.36"/>
        <polygon class="cls-91" points="536.91 565 570.91 545 575.91 548 547.91 565 572.91 580 567.91 583.36 537.41 565.3 536.91 565"/>
        <polygon class="cls-91" points="650.91 631.87 741.91 578 711.91 559 706.91 562 731.91 578 650.91 625 589.91 589 584.91 593 650.91 631.87"/>
        <polyline class="cls-90" points="591.91 539.59 627.91 518.59 654.91 533.59 659.91 530.59 627.91 512.59 585.91 536.59"/>
        <polygon class="cls-131" points="585.91 549 591.91 546 591.91 539.59 585.91 536.59 585.91 549"/>
        <polygon class="cls-84" points="591.91 546 627.91 524.59 654.36 539.59 654.91 533.59 627.91 518.59 591.91 539.59 591.91 546"/>
        <polygon class="cls-131" points="627.91 518.59 627.91 524.59 654.91 540 654.91 533.59 627.91 518.59"/>
        <polyline class="cls-107" points="627.91 524 654.91 540 612.91 566.55 658.91 595.55 706.91 568 706.91 568 726.91 581 650.91 625.55 596.91 593 601.91 589.55 585.02 579.39 572.91 586.8 572.91 580.55 552.91 568"/>
        <polyline class="cls-131" points="706.91 562 706.91 568 726.91 581 731.91 578 706.91 562"/>
        <polygon class="cls-57" points="585.02 579.39 584.91 593 589.91 589 596.91 593 601.91 589.55 585.02 579.39"/>
        <polyline class="cls-131" points="572.5 586.38 584.91 579 584.81 661.73 572.5 667.7 572.5 586.38"/>
        <polyline class="cls-89" points="589.8 661.67 584.5 663.82 575.5 659.7 584.5 655.7 584.5 658.7 589.8 661.67"/>
        <polyline class="cls-89" points="575.5 668.85 575.5 659.7 577.22 660.49 577.22 669.61"/>
        <polyline class="cls-89" points="584.15 663.67 584.15 673.7 585.43 673.7 585.43 663.44"/>
        <polyline class="cls-3" points="546.12 635.58 546.5 651.7 572.5 667.7 572.5 645.23 567.5 647.7 546.12 635.58"/>
        <polygon class="cls-3" points="697.5 716.7 655.5 692.7 650.5 695.7 589.8 661.67 589.8 677.44 675.5 726.7 691 716.98 697.5 720.7 697.5 716.7"/>
        <path class="cls-57" d="m616.5,680.37v6.02s64.99,37.18,64,37.31,5-3,5-3l-69-40.33Z"/>
        <polygon class="cls-57" points="675.5 726.7 675.5 741.95 694.5 752.7 694.5 743.7 699.5 740.7 675.5 726.7"/>
        <path class="cls-34" d="m689.86,669.03c1.7-3.17,10.66-1.68,20.02,3.33,9.36,5.01,15.57,11.65,13.87,14.82-1.7,3.17-10.66,1.68-20.02-3.33s-15.57-11.65-13.87-14.82Z"/>
        <path class="cls-25" d="m721.45,688.13c-.8,1.71-10.86-.56-19.16-5.34-6.22-3.58-12.55-9.2-11.71-10.68.92-1.62,10.32,1.81,17.03,5.34,6.21,3.26,14.63,8.98,13.84,10.68Z"/>
        <polyline class="cls-90" points="654.81 540.16 612.81 566.71 653.81 592.56 654.81 540.16"/>
        <polygon class="cls-119" points="683.99 653.57 683.91 668 698.11 659.65 698.11 645.87 683.99 653.57"/>
        <polyline class="cls-102" points="683.91 656.93 683.91 660.98 698.11 653.06 698.11 649.3 683.91 657"/>
        <polygon class="cls-102" points="683.91 663.47 683.91 666.47 697.91 658 698.11 655.14 683.91 663.47"/>
        <polyline class="cls-49" points="698.11 645.87 698.11 663.23 704 666.47 703.99 642.66 698.38 645.79"/>
        <polygon class="cls-41" points="691 716.98 697.5 720.7 687.5 726.7 705.5 736.7 699.5 740.7 675.5 726.7 691 716.98"/>
        <path class="cls-43" d="m735.91,672.17c.09-2.95,6.36-6.85,13-9,3.11-1.01,8.89-2.31,15-2.17.19-.1-.61-.04-.42-.14,5.63.19,14.74,1.42,23.42,7.3,1.9,1.29,3.56,2.65,5,4v5c-2.09,1.92-10.24,7.81-27,7-14.25-.69-26.49-5.68-29-8,0-.09,0,.1,0,0q0-3.96,0-4Z"/>
        <path class="cls-41" d="m735.91,676.17c3,4,14.75,10.92,29,11,13.46.08,20.83-5.68,25-8,0,0,2-1.83,2-2,0-1.9,0,.03,0,0-.04-1.69-9.21-9.63-27-10-17.94-.38-28.94,7.25-29,9"/>
        <path class="cls-57" d="m744.91,694.15c.65-2.01,15,1,15,1,6.85,1.43,17.22,1.51,32-5.26v5.26c-3.97,2.36-11.23,5.97-21,7-12.12,1.28-21.58-2.09-26-4,0-.43,0-1.13,0-2-.01-1.74-.04-1.86,0-2Z"/>
        <path class="cls-98" d="m744.91,689.57c.65-2.01,15,1,15,1,6.85,1.43,17.22,1.51,32-5.26v5.26c-3.97,2.36-11.23,5.97-21,7-12.12,1.28-21.58-2.09-26-4,0-.43,0-1.13,0-2-.01-1.74-.04-1.86,0-2Z"/>
        <path class="cls-45" d="m735.91,676.17s-.04.06-.05.07c-.08.17-.04.47,0,1.9,0,0,.01.68.04,2.02.01.7.02,1.72,0,3,1.54,1.38,3.88,3.25,7,5,9.73,5.44,19.18,5.19,24,5,11.61-.45,20.37-4.71,25-7.43,0-2.86,0-5.72,0-8.57-4.77,3.91-9.17,5.93-12,7-22.11,8.35-42.14-5.85-43-7-.05-.07-.79-1.11-1-1Z"/>
        <polygon class="cls-98" points="761.94 707.01 761.94 715.36 763.87 715.96 763.91 707.01 761.94 707.01"/>
        <polygon class="cls-98" points="779.91 713 779.91 704.55 782.02 704.28 782.02 713 779.91 713"/>
        <polygon class="cls-98" points="791.91 699.72 791.91 707 790.91 708 790.91 700.3 791.91 699.72"/>
        <polygon class="cls-98" points="791.91 688 798.91 683 798.91 696.72 797.6 697.86 797.51 690 791.91 694.47 791.91 688"/>
        <polygon class="cls-134" points="798.91 680.2 798.91 683 791.91 688 791.91 684.7 796.57 681.38 791.91 680 791.91 678 798.91 680.2"/>
        <polyline class="cls-87" points="791.91 680 791.91 684.7 796.57 681.38"/>
        <polygon class="cls-57" points="699.5 721.32 718.91 710 718.91 717.57 699.5 728.47 699.5 721.32"/>
        <polygon class="cls-57" points="722.91 708 722.91 715 743.47 702.43 743.47 696.16 722.91 708"/>
        <polygon class="cls-48" points="696.91 732.25 718.91 720.21 718.91 725.49 703.14 735.39 696.91 732.25"/>
        <polyline class="cls-48" points="722.91 718.34 722.91 722.76 744.94 708.85 744.91 704.28"/>
        <line class="cls-139" x1="687.91" y1="610" x2="687.91" y2="651"/>
        <line class="cls-141" x1="692.41" y1="607.5" x2="692.41" y2="648.5"/>
        <line class="cls-141" x1="698.41" y1="603.5" x2="698.41" y2="645.5"/>
        <line class="cls-141" x1="701.41" y1="602.5" x2="701.41" y2="644.5"/>
        <line class="cls-141" x1="705.41" y1="599.5" x2="705.41" y2="664.5"/>
        <line class="cls-141" x1="707.41" y1="598.5" x2="707.41" y2="663.5"/>
        <line class="cls-141" x1="710.41" y1="596.5" x2="710.41" y2="662.5"/>
        <line class="cls-141" x1="714.41" y1="594.5" x2="714.41" y2="659.5"/>
        <line class="cls-141" x1="717.41" y1="592.5" x2="717.41" y2="657.5"/>
        <line class="cls-141" x1="721.41" y1="590.5" x2="721.41" y2="655.5"/>
        <line class="cls-141" x1="724.41" y1="588.5" x2="724.41" y2="654.5"/>
        <line class="cls-141" x1="728.41" y1="586.5" x2="728.41" y2="651.5"/>
        <line class="cls-141" x1="731.41" y1="584.5" x2="731.41" y2="650.5"/>
        <line class="cls-141" x1="734.41" y1="582.5" x2="734.41" y2="648.5"/>
        <line class="cls-141" x1="738.41" y1="579.5" x2="738.41" y2="645.5"/>
        <polygon class="cls-57" points="687.5 726.7 697.5 720.7 696.91 732.25 687.5 726.7"/>
        <polygon class="cls-71" points="656.91 628.32 656.91 691.91 659.91 690.79 659.91 626.34 656.91 628.32"/>
        <polygon class="cls-71" points="663 624.5 663 689.11 666.56 687.17 666.56 622.61 663 624.5"/>
        <polygon class="cls-71" points="670.36 620.21 670.36 685.32 673.25 683.52 673.25 618.4 670.36 620.21"/>
        <polygon class="cls-71" points="676.71 616.6 676.71 681.63 679.34 680.2 679.34 614.77 676.71 616.6"/>
        <polygon class="cls-36" points="659.28 571.62 666.82 566.11 667.08 590.86 658.91 595.55 659.28 571.62"/>
      </g>
      <g id="Acopy">
        <path class="cls-19" d="m966.4,671.36v-77l-14,9v14.97l11,6.03v49c1-.67,2-1.33,3-2Z"/>
        <polygon class="cls-56" points="894.19 664.25 963.4 624.36 963.4 673.48 943.91 683.95 943.91 687.36 937.4 682.36 932.62 684.48 932.62 693.89 894.19 715.68 894.19 664.25"/>
        <polygon class="cls-62" points="894.18 664.25 894.18 715.68 876.18 705.68 862.91 712.98 862.91 646.91 894.18 664.25"/>
        <polygon class="cls-69" points="862.91 646.91 894.19 664.25 963.4 624.36 932.4 607.36 862.91 646.91"/>
        <polygon class="cls-57" points="876.19 705.68 876.19 654.36 880.58 656.71 880.58 708.12 876.19 705.68"/>
        <polygon class="cls-137" points="956.4 634.36 956.4 639.42 961.08 636.89 961.08 631.89 956.4 634.36"/>
        <polygon class="cls-137" points="949.34 638.11 949.34 643.17 954.02 640.64 954.02 635.64 949.34 638.11"/>
        <polygon class="cls-137" points="941.34 643.11 941.34 648.17 946.02 645.64 946.02 640.64 941.34 643.11"/>
        <polygon class="cls-137" points="933.87 647.23 933.87 652.3 938.55 649.76 938.55 644.76 933.87 647.23"/>
        <polygon class="cls-137" points="926.81 650.98 926.81 656.04 931.49 653.51 931.49 648.51 926.81 650.98"/>
        <polygon class="cls-137" points="919.87 655.23 919.87 660.3 924.55 657.76 924.55 652.76 919.87 655.23"/>
        <polygon class="cls-137" points="912.81 658.98 912.81 664.04 917.49 661.51 917.49 656.51 912.81 658.98"/>
        <polygon class="cls-137" points="904.87 663.23 904.87 668.3 909.55 665.76 909.55 660.76 904.87 663.23"/>
        <polygon class="cls-137" points="897.81 666.98 897.81 672.04 902.49 669.51 902.49 664.51 897.81 666.98"/>
        <polygon class="cls-137" points="956.64 643.8 956.64 648.86 961.32 646.33 961.32 641.33 956.64 643.8"/>
        <polygon class="cls-137" points="949.57 647.54 949.57 652.61 954.25 650.07 954.25 645.07 949.57 647.54"/>
        <polygon class="cls-137" points="941.57 652.54 941.57 657.61 946.25 655.07 946.25 650.07 941.57 652.54"/>
        <polygon class="cls-137" points="934.11 656.67 934.11 661.73 938.79 659.2 938.79 654.2 934.11 656.67"/>
        <polygon class="cls-137" points="927.04 660.41 927.04 665.48 931.72 662.95 931.72 657.95 927.04 660.41"/>
        <polygon class="cls-137" points="920.11 664.67 920.11 669.73 924.79 667.2 924.79 662.2 920.11 664.67"/>
        <polygon class="cls-137" points="913.04 668.41 913.04 673.48 917.72 670.95 917.72 665.95 913.04 668.41"/>
        <polygon class="cls-137" points="905.11 672.67 905.11 677.73 909.79 675.2 909.79 670.2 905.11 672.67"/>
        <polygon class="cls-137" points="898.04 676.41 898.04 681.48 902.72 678.95 902.72 673.95 898.04 676.41"/>
        <polygon class="cls-137" points="956.64 653.8 956.64 658.86 961.32 656.33 961.32 651.33 956.64 653.8"/>
        <polygon class="cls-137" points="949.57 657.54 949.57 662.61 954.25 660.07 954.25 655.07 949.57 657.54"/>
        <polygon class="cls-137" points="941.57 662.54 941.57 667.61 946.25 665.07 946.25 660.07 941.57 662.54"/>
        <polygon class="cls-137" points="934.11 666.67 934.11 671.73 938.79 669.2 938.79 664.2 934.11 666.67"/>
        <polygon class="cls-137" points="927.04 670.41 927.04 675.48 931.72 672.95 931.72 667.95 927.04 670.41"/>
        <polygon class="cls-137" points="920.11 674.67 920.11 679.73 924.79 677.2 924.79 672.2 920.11 674.67"/>
        <polygon class="cls-137" points="913.04 678.41 913.04 683.48 917.72 680.95 917.72 675.95 913.04 678.41"/>
        <polygon class="cls-137" points="905.11 682.67 905.11 687.73 909.79 685.2 909.79 680.2 905.11 682.67"/>
        <polygon class="cls-137" points="898.04 686.41 898.04 691.48 902.72 688.95 902.72 683.95 898.04 686.41"/>
        <polygon class="cls-137" points="956.64 662.8 956.64 667.86 961.32 665.33 961.32 660.33 956.64 662.8"/>
        <polygon class="cls-137" points="949.57 666.54 949.57 671.61 954.25 669.07 954.25 664.07 949.57 666.54"/>
        <polygon class="cls-137" points="941.57 671.54 941.57 676.61 946.25 674.07 946.25 669.07 941.57 671.54"/>
        <polygon class="cls-137" points="934.11 675.67 934.11 680.73 938.79 678.2 938.79 673.2 934.11 675.67"/>
        <polygon class="cls-137" points="927.04 679.41 927.04 684.48 931.72 681.95 931.72 676.95 927.04 679.41"/>
        <polygon class="cls-137" points="920.11 683.67 920.11 688.73 924.79 686.2 924.79 681.2 920.11 683.67"/>
        <polygon class="cls-137" points="913.04 687.41 913.04 692.48 917.72 689.95 917.72 684.95 913.04 687.41"/>
        <polygon class="cls-137" points="905.11 691.67 905.11 696.73 909.79 694.2 909.79 689.2 905.11 691.67"/>
        <polygon class="cls-137" points="898.04 695.41 898.04 700.48 902.72 697.95 902.72 692.95 898.04 695.41"/>
        <polygon class="cls-137" points="956.64 671.8 956.64 676.86 961.32 674.33 961.32 669.33 956.64 671.8"/>
        <polygon class="cls-137" points="949.57 675.54 949.57 680.61 954.25 678.07 954.25 673.07 949.57 675.54"/>
        <polygon class="cls-137" points="941.57 679.54 941.57 684.61 946.25 682.07 946.25 677.07 941.57 679.54"/>
        <polygon class="cls-137" points="927.04 688.41 927.04 693.48 931.72 690.95 931.72 685.95 927.04 688.41"/>
        <polygon class="cls-137" points="920.11 692.67 920.11 697.73 924.79 695.2 924.79 690.2 920.11 692.67"/>
        <polygon class="cls-137" points="913.04 696.41 913.04 701.48 917.72 698.95 917.72 693.95 913.04 696.41"/>
        <polygon class="cls-137" points="905.11 700.67 905.11 705.73 909.79 703.2 909.79 698.2 905.11 700.67"/>
        <polygon class="cls-137" points="898.04 704.41 898.04 709.48 902.72 706.95 902.72 701.95 898.04 704.41"/>
        <path class="cls-62" d="m951.91,624.36v-8.55l-15.51,9.55-18.95-8.75v11.58c.19.92.8,3.31,2.96,5.02.7.55,1.4.91,1.99,1.15.92.36,2.3.8,4,1,3.55.41,6.72-.47,12-3,3.58-1.72,8.28-4.27,13.51-8Z"/>
        <polygon class="cls-62" points="937.33 606.92 937.33 593.64 952.4 603.36 952.4 618.33 937.33 606.92"/>
        <path class="cls-69" d="m934.11,604.96l-14.7,8.4c-1.25,1-1.81,2.12-1.95,3.25-.42,3.38,2.95,6.75,2.95,6.75,9,6,16,2,16,2l15.51-9.55-17.81-10.86Z"/>
        <polygon class="cls-69" points="952.4 585.21 966.4 594.36 952.4 603.36 937.33 593.64 952.4 585.21"/>
        <polygon class="cls-56" points="932.62 684.48 937.4 682.36 943.91 687.36 932.62 693.89 932.62 684.48"/>
      </g>
      <g id="_図書館copy" data-name="図書館copy">
        <path class="cls-130" d="m809.9,734l-65-.12c.49-11.77,31.88-12.9,32.53-12.9,31.63,0,32.48,13.02,32.48,13.02Z"/>
        <polygon class="cls-69" points="830.7 731.32 777.19 760.77 718.7 727.79 694.28 743.02 776.93 791.91 894.7 723.32 887.17 719.53 848.7 741.32 830.7 731.32"/>
        <path class="cls-14" d="m814.7,732.32v14.28c0,14.72-35.53,17.72-35.53,17.72-38,0-39.49-16-39.49-16,0,0-.51-17-.51-16"/>
        <path class="cls-69" d="m739.91,732h74.53c-.53,19-36.53,20.91-37.27,20.91-36.27.09-37.27-20.91-37.27-20.91Z"/>
        <polyline class="cls-62" points="694.28 743.02 694.28 769.83 697.28 771.36 697.28 754.38 702.19 757.19 701.7 773.32 704.7 775.32 705.28 759.17 708.99 761.15 708.99 777.23 711.91 779 711.7 762.68 716.7 765.32 716.91 782 719.91 784 719.7 767.15 723.7 769.32 723.91 786 726.91 788 726.7 771.23 730.7 773.32 730.91 790 733.91 792 733.71 774.68 736.7 776.32 736.91 793 740.7 795.32 740.91 790 739.17 789.87 739.07 786.85 738.85 780.13 738.7 775.32 743.57 772.18 694.28 743.02"/>
        <polygon class="cls-57" points="697.28 754.38 697.28 759.49 702.04 761.91 702.19 757.19 697.28 754.38"/>
        <polygon class="cls-57" points="705.28 759.17 705.14 762.94 708.99 764.91 708.99 761.15 705.28 759.17"/>
        <polygon class="cls-57" points="711.7 762.68 711.7 766.57 716.7 769.45 716.7 765.32 711.7 762.68"/>
        <polygon class="cls-57" points="719.7 767.15 719.7 770.85 723.7 773.02 723.7 769.32 719.7 767.15"/>
        <polygon class="cls-57" points="726.7 771.23 726.7 774.36 730.7 776.4 730.7 773.32 726.7 771.23"/>
        <polygon class="cls-57" points="733.71 774.68 733.71 777.43 736.87 779.26 736.7 776.32 733.71 774.68"/>
        <polygon class="cls-18" points="697.28 759.49 697.28 765.23 701.86 767.85 702.04 761.91 697.28 759.49"/>
        <polygon class="cls-18" points="705.14 762.94 704.92 769.17 708.99 771.23 708.99 764.91 705.14 762.94"/>
        <polygon class="cls-18" points="711.7 766.57 711.7 772.32 716.7 775.32 716.7 769.45 711.7 766.57"/>
        <polygon class="cls-18" points="719.7 770.85 719.7 776.4 723.7 779.32 723.7 773.02 719.7 770.85"/>
        <polygon class="cls-18" points="726.7 774.36 726.7 779.98 730.7 782.34 730.7 776.4 726.7 774.36"/>
        <polygon class="cls-18" points="733.71 777.43 733.71 783.21 736.91 785 736.87 779.26 733.71 777.43"/>
        <polygon class="cls-106" points="743.57 772.28 738.7 775.32 776.91 798 814.7 775.7 809.93 772.69 776.93 791.91 743.57 772.28"/>
        <polygon class="cls-29" points="738.7 775.32 739.17 789.7 776.91 811 814.7 789.4 814.7 775.7 776.91 797.73 738.7 775.32"/>
        <polygon class="cls-137" points="738.85 780.13 776.93 801.23 814.7 780.13 814.7 786 776.91 808 739.07 786.85 738.85 780.13"/>
        <polygon class="cls-62" points="744.49 792.7 744.49 797.7 746.91 799 746.91 794.07 744.49 792.7"/>
        <polygon class="cls-62" points="751.91 796.89 751.91 801.5 754.91 803 754.91 798.58 751.91 796.89"/>
        <polygon class="cls-62" points="758.9 800.83 762.28 802.74 762.28 807.79 758.9 805.68 758.9 800.83"/>
        <polygon class="cls-62" points="773.67 809.17 776.91 811 776.91 816.28 773.67 814.36 773.67 809.17"/>
        <polygon class="cls-56" points="780.4 809.01 776.91 811 776.91 816.28 780.4 814.55 780.4 809.01"/>
        <polygon class="cls-56" points="790.83 803.05 790.83 808.49 794.49 806.35 794.49 800.95 790.83 803.05"/>
        <polygon class="cls-56" points="800.03 797.79 799.91 804 803.91 802 803.91 795.42 800.03 797.79"/>
        <polygon class="cls-56" points="807.83 793.33 807.83 800 811.91 798 811.91 791 807.83 793.33"/>
        <polygon class="cls-137" points="816.91 777 932.82 709.9 932.87 716.34 816.91 785 816.91 777"/>
        <polygon class="cls-116" points="816.91 789 816.91 785 892.91 740 892.91 744 816.91 789"/>
        <polygon class="cls-116" points="856.87 765.34 856.87 761.34 932.87 716.34 932.87 720.34 856.87 765.34"/>
        <polygon class="cls-56" points="809.93 772.69 814.7 775.7 814.91 792 816.91 793.49 816.91 777 820.48 774.94 820.48 793 823.55 791 823.55 773.16 827.51 770.86 827.51 789 830.91 787 830.91 769 835.3 766.36 835.3 785 838.91 783 838.91 764.5 842.07 762.44 842.07 781.23 844.91 780 844.91 760.59 848.76 758.56 848.76 777.74 851.89 776.03 851.89 756.75 856.12 754.31 856.12 772.81 858.91 771 858.91 752.92 863.59 749.98 863.59 767.79 866.91 766 866.91 748.05 878.67 741.25 878.67 759 881.91 757 881.91 739.37 885.8 737.12 885.8 754.6 889.09 752.92 889.09 735.22 892.91 733 892.91 749.57 894.91 751 894.7 723.32 809.93 772.69"/>
        <polyline class="cls-85" points="738.7 775.32 738.85 780.13 776.93 801.23 776.91 797.73 739.17 775.6"/>
        <polygon class="cls-85" points="739.07 786.85 739.17 789.7 776.91 811 776.91 808 739.07 786.85"/>
        <polygon class="cls-57" points="738.85 780.13 739.07 786.85 776.91 808 776.93 801.23 738.85 780.13"/>
        <polygon class="cls-122" points="746.19 748.3 749.91 751 749.91 754.55 746.19 752.32 746.19 748.3"/>
        <polygon class="cls-122" points="757.91 754 762.91 755 762.91 759 757.91 758 757.91 754"/>
        <rect class="cls-122" x="772.62" y="756.5" width="5.87" height="3.55"/>
        <polygon class="cls-122" points="788.7 755.72 794.06 754 794.06 757.62 788.7 759 788.7 755.72"/>
        <polygon class="cls-122" points="802.91 751 806.91 749 806.91 752.92 802.91 754.87 802.91 751"/>
        <polygon class="cls-69" points="830.7 731.32 876.19 705.68 894.19 715.68 848.7 741.32 830.7 731.32"/>
        <polygon class="cls-69" points="925.22 697.77 932.75 701.56 940.01 698 932.62 693.73 925.22 697.77"/>
        <polygon class="cls-56" points="932.75 701.56 940.01 698 939.97 725.24 932.97 729.24 932.75 701.56"/>
        <polygon class="cls-69" points="887.17 719.53 925.88 697.71 932.75 701.56 894.7 723.32 887.17 719.53"/>
        <polygon class="cls-56" points="894.87 731.87 932.82 709.9 932.75 701.56 894.7 723.32 894.87 731.87"/>
        <polygon class="cls-56" points="899.44 729.11 899.44 746.59 902.72 744.91 902.72 727.21 899.44 729.11"/>
        <polygon class="cls-56" points="906.27 725.39 906.27 742.87 909.55 741.19 909.55 723.49 906.27 725.39"/>
        <polygon class="cls-56" points="912.81 721.45 912.81 738.93 916.09 737.25 916.09 719.55 912.81 721.45"/>
        <polygon class="cls-56" points="919.16 717.58 919.16 735.06 922.45 733.38 922.45 715.68 919.16 717.58"/>
        <polygon class="cls-56" points="925.51 714.34 925.51 731.82 928.79 730.14 928.79 712.44 925.51 714.34"/>
      </g>
    </g>
  </g>
  <g id="_その他" data-name="その他">
    <g id="_駐車場" data-name="駐車場">
      <g>
        <path class="cls-84" d="m828.09,869.88l.13,1.43s-4.58.31-4.94,0,4.82-1.43,4.82-1.43Z"/>
        <rect class="cls-84" x="632.91" y="860" width="4" height="2"/>
        <polygon class="cls-84" points="762.1 850.45 767.6 852.37 772.78 848.4 828.22 871.31 764.1 922.1 633.1 861.85 658.46 847.22 659.14 860.72 762.1 850.45"/>
        <polygon class="cls-15" points="760.97 849.03 766.47 850.95 771.65 846.98 827.09 869.88 762.97 920.67 631.97 860.43 657.33 845.8 658.01 859.3 760.97 849.03"/>
        <rect class="cls-78" x="754.29" y="843.8" width="1.01" height="64.87" transform="translate(479.14 1999.4) rotate(-125.47)"/>
        <rect class="cls-78" x="728.33" y="884.91" width="1.2" height="20.44" transform="translate(-387.85 1187.35) rotate(-65.51)"/>
        <rect class="cls-78" x="737.5" y="878.16" width="1.2" height="20.44" transform="translate(-376.34 1191.75) rotate(-65.51)"/>
        <rect class="cls-78" x="746.5" y="872.16" width="1.2" height="20.44" transform="translate(-378.18 1147.9) rotate(-63.02)"/>
        <rect class="cls-78" x="755.5" y="865.16" width="1.2" height="20.44" transform="translate(-367.02 1152.09) rotate(-63.02)"/>
        <rect class="cls-78" x="764.5" y="859.16" width="1.2" height="20.44" transform="translate(-356.76 1156.84) rotate(-63.02)"/>
        <rect class="cls-78" x="773.5" y="853.16" width="1.2" height="20.44" transform="translate(-346.5 1161.58) rotate(-63.02)"/>
        <rect class="cls-78" x="781.5" y="847.16" width="1.2" height="20.44" transform="translate(-336.78 1165.43) rotate(-63.02)"/>
        <rect class="cls-78" x="780.73" y="856.71" width="1.01" height="64.87" transform="translate(510.4 2041.34) rotate(-125.47)"/>
        <rect class="cls-78" x="754.77" y="897.82" width="1.2" height="20.44" transform="translate(-384.13 1218.97) rotate(-65.51)"/>
        <rect class="cls-78" x="763.94" y="891.08" width="1.2" height="20.44" transform="translate(-372.62 1223.38) rotate(-65.51)"/>
        <rect class="cls-78" x="772.94" y="885.08" width="1.2" height="20.44" transform="translate(-375.25 1178.52) rotate(-63.02)"/>
        <rect class="cls-78" x="781.94" y="878.08" width="1.2" height="20.44" transform="translate(-364.09 1182.71) rotate(-63.02)"/>
        <rect class="cls-78" x="790.94" y="872.08" width="1.2" height="20.44" transform="translate(-353.83 1187.46) rotate(-63.02)"/>
        <rect class="cls-78" x="799.94" y="866.08" width="1.2" height="20.44" transform="translate(-343.56 1192.2) rotate(-63.02)"/>
        <rect class="cls-78" x="807.94" y="860.08" width="1.2" height="20.44" transform="translate(-333.85 1196.05) rotate(-63.02)"/>
      </g>
    </g>
    <g id="S_DX教育研究センター" data-name="S DX教育研究センター">
      <polygon class="cls-103" points="771.91 846.98 756.52 838.94 756.11 847.74 762.91 854 771.91 846.98"/>
      <polygon class="cls-59" points="754.91 846 761.91 848.6 751.41 856 751.91 852.19 747.71 850.34 754.91 846"/>
      <polygon class="cls-59" points="767.47 850.95 713.91 888 701.21 881.91 729.17 864.16 736.16 867 751.41 856 761.91 848.6 767.47 850.95"/>
      <polygon class="cls-67" points="700.91 882 702.81 880.45 702.11 879.95 702.11 878.47 701.21 879.22 700.91 882"/>
      <rect class="cls-93" x="755.91" y="839" width="8" height="2"/>
      <polygon class="cls-93" points="758.91 844.68 763.83 840.92 758.91 839.07 758.91 844.68"/>
      <polyline class="cls-59" points="703.91 879.96 702.11 878.47 702.11 869.49 742.31 847.74 747.91 851"/>
      <polyline class="cls-99" points="754.91 846 747.91 851 747.91 835 754.91 832"/>
      <polygon class="cls-137" points="758.91 828.11 758.91 843 754.91 846 754.91 830 758.91 828.11"/>
      <path class="cls-93" d="m655.75,838.29l44.13,25.87,64.83-37.88c-15.58-7.28-31.16-16.56-46.74-23.84-20.74,11.28-41.48,24.57-62.22,35.85Z"/>
      <rect class="cls-93" x="655.91" y="836" width="8" height="2"/>
      <rect class="cls-93" x="758.91" y="824" width="6" height="2"/>
      <path class="cls-132" d="m655.7,835.85l44.13,25.87,64.83-37.88c-15.58-7.28-31.16-16.56-46.74-23.84-20.74,11.28-41.48,24.57-62.22,35.85Z"/>
      <polygon class="cls-34" points="747.65 836.25 745.7 837.39 745.7 849.51 747.91 851 747.65 836.25"/>
      <polygon class="cls-57" points="745.7 837.39 745.7 849.51 742.31 847.74 742.31 839.24 745.7 837.39"/>
      <polygon class="cls-137" points="699.88 864.16 742.31 839.24 742.31 847.74 699.91 872.89 699.88 864.16"/>
      <polygon class="cls-127" points="740.71 840.3 740.71 855.5 738.91 857 738.91 841.24 740.71 840.3"/>
      <polygon class="cls-127" points="732 845.52 732 860.72 730.21 862.22 730.21 846.46 732 845.52"/>
      <polygon class="cls-127" points="723 850.52 723 865.72 721.21 867.22 721.21 851.46 723 850.52"/>
      <polygon class="cls-127" points="713 856.52 713 871.72 711.21 873.22 711.21 857.46 713 856.52"/>
      <polygon class="cls-127" points="703 862.52 703 877.72 701.21 879.22 701.21 863.46 703 862.52"/>
      <polygon class="cls-59" points="699.88 864.16 699.91 879.96 686.91 872.89 686.91 856.56 699.88 864.16"/>
      <polygon class="cls-122" points="699.88 864.16 701.21 863.46 701.21 879.22 699.91 879.96 699.88 864.16"/>
      <polygon class="cls-55" points="702.11 878.47 702.11 879.95 703.91 881.23 703.91 879.96 702.11 878.47"/>
      <polygon class="cls-98" points="703.91 880 730.91 862 730.91 863 703.91 881 703.91 880"/>
      <polygon class="cls-132" points="758.91 843 763.83 839.24 758.91 837.39 758.91 843"/>
      <polygon class="cls-59" points="730.91 864.87 736.16 867 751.91 853.13 747.71 851 730.91 864.87"/>
      <polygon class="cls-98" points="730.91 862 730.91 864.87 743.91 854 743.91 853.57 730.91 862"/>
      <polygon class="cls-98" points="752.91 852 752.46 856.28 736.16 868 752.91 852"/>
      <polygon class="cls-59" points="744 852.49 744.04 855.36 746.62 851.9 744 852.49"/>
      <polygon class="cls-71" points="763.83 840.92 763.83 846.55 762.89 846 762.89 841.64 763.83 840.92"/>
      <polygon class="cls-64" points="758.91 843 758.91 847.74 754.91 846 758.91 843"/>
      <polygon class="cls-122" points="686.91 856.56 686.91 871.71 658.09 855.36 658.11 839.67 686.91 856.56"/>
      <polygon class="cls-1" points="677.34 850.94 677.34 866.28 676.35 865.72 676.35 850.36 677.34 850.94"/>
      <polygon class="cls-1" points="667.84 845.37 667.84 860.89 666.89 860.07 666.65 844.68 667.84 845.37"/>
      <polygon class="cls-1" points="657.45 846.55 686.91 862.52 686.91 864.16 657.45 847.74 657.45 846.55"/>
      <polygon class="cls-1" points="657.29 854.88 686.76 870.85 686.76 872.48 657.29 856.07 657.29 854.88"/>
      <polygon class="cls-52" points="658.96 857 658.96 858.87 701.21 881.91 701.21 879.22 699.91 879.96 658.96 857"/>
      <polygon class="cls-138" points="747.91 847.74 751.91 850.36 751.91 853.13 747.71 851 747.91 847.74"/>
      <polygon class="cls-138" points="751.91 850.36 736.16 863.85 736.16 867 751.91 853.13 751.91 850.36"/>
      <line class="cls-138" x1="748.68" y1="853.13" x2="748.68" y2="855.69"/>
      <line class="cls-138" x1="744.72" y1="856.52" x2="744.72" y2="859"/>
      <line class="cls-138" x1="740.59" y1="860.07" x2="740.71" y2="863"/>
      <polygon class="cls-123" points="730.91 863 730.91 864.87 729.17 864.16 730.91 863"/>
    </g>
    <g id="_噴水_バス停" data-name="噴水・バス停">
      <g>
        <polygon class="cls-75" points="868.72 765.59 868.72 773 869.7 773 869.7 765 868.72 765.59"/>
        <polygon class="cls-140" points="871.3 756.05 866.62 755.28 866.62 768.28 871.3 769.06 871.3 756.05"/>
        <ellipse class="cls-75" cx="869.21" cy="773" rx="2.3" ry="2"/>
        <ellipse class="cls-110" cx="868.93" cy="751.01" rx="4.23" ry="4.22" transform="translate(-276.54 834.39) rotate(-45)"/>
        <polygon class="cls-78" points="864.15 749.13 872.11 750.43 872.11 753.23 864.15 751.72 864.15 749.13"/>
      </g>
      <g>
        <ellipse class="cls-34" cx="909.91" cy="777.5" rx="13" ry="7.5"/>
        <rect class="cls-34" x="896.91" y="773" width="26" height="5"/>
        <ellipse class="cls-59" cx="909.91" cy="773.5" rx="13" ry="7.5"/>
        <ellipse class="cls-66" cx="909.91" cy="773.5" rx="12" ry="6.5"/>
        <ellipse class="cls-34" cx="909.86" cy="772.75" rx="6.5" ry="3.75"/>
        <rect class="cls-34" x="903.36" y="770.5" width="13" height="2.5"/>
        <ellipse class="cls-59" cx="909.64" cy="769.75" rx="8.28" ry="4.77"/>
        <rect class="cls-52" x="909.91" y="764" width="2.5" height="5"/>
        <rect class="cls-52" x="906.66" y="763" width="2.25" height="6"/>
      </g>
    </g>
    <g id="_吹き出し" data-name="吹き出し">
      <g>
        <rect class="cls-40" x="842.63" y="503.99" width="200.72" height="63.57" rx="31.79" ry="31.79"/>
        <polygon class="cls-40" points="862.4 565.61 804.35 615.56 893.65 567.3 862.4 565.61"/>
        <text class="cls-142" transform="translate(897.21 544.81) scale(1.03 1)"><tspan x="0" y="0">模擬店</tspan></text>
      </g>
      <g>
        <rect class="cls-40" x="724.47" y="399.74" width="200.72" height="63.57" rx="31.79" ry="31.79"/>
        <polygon class="cls-40" points="744.24 461.37 686.19 511.31 775.49 463.06 744.24 461.37"/>
        <text class="cls-142" transform="translate(756.19 442.22) scale(1.03 1)"><tspan x="0" y="0">軽音ライブ</tspan></text>
      </g>
      <g>
        <rect class="cls-40" x="903.72" y="581.43" width="200.72" height="63.57" rx="31.79" ry="31.79"/>
        <polygon class="cls-40" points="917.78 618.37 851.33 656.44 948.14 625.93 917.78 618.37"/>
        <text class="cls-142" transform="translate(951.77 623.16) scale(1.03 1)"><tspan x="0" y="0">ステージ</tspan></text>
      </g>
      <g>
        <rect class="cls-40" x="463.18" y="419.1" width="200.72" height="63.57" rx="31.79" ry="31.79"/>
        <polygon class="cls-40" points="533.55 477.83 527.81 554.19 556.83 456.93 533.55 477.83"/>
        <text class="cls-142" transform="translate(517.76 459.93) scale(1.03 1)"><tspan x="0" y="0">模擬店</tspan></text>
      </g>
      <g>
        <rect class="cls-40" x="484.55" y="674.34" width="200.72" height="63.57" rx="31.79" ry="31.79"/>
        <polygon class="cls-40" points="577.64 685.07 625.23 625.07 546.64 689.31 577.64 685.07"/>
        <text class="cls-142" transform="translate(539.14 715.16) scale(1.03 1)"><tspan x="0" y="0">模擬店</tspan></text>
      </g>
    </g>
  </g>
</svg>